<svg width="208" height="228" viewBox="0 0 208 228" fill="none" xmlns="http://www.w3.org/2000/svg">
<path d="M78.813 157.257L42.8722 225.776C42.1764 227.094 40.8058 227.926 39.3087 227.926C38.9292 227.926 38.5391 227.874 38.2017 227.768C37.4848 227.568 36.8628 227.167 36.3778 226.651C35.4184 225.607 35.0072 224.078 35.5344 222.581L56.8732 161.865L57.1052 161.211L60.2786 152.165L78.813 157.257Z" fill="#F4C95E"/>
<path d="M156.368 226.24C155.809 227.041 154.955 227.631 153.932 227.842C153.669 227.895 153.384 227.926 153.11 227.926C151.613 227.926 150.242 227.094 149.546 225.776L113.605 157.257L132.14 152.165L134.027 157.552L135.271 161.084L156.884 222.581C157.337 223.888 157.095 225.227 156.368 226.24Z" fill="#F4C95E"/>
<g style="mix-blend-mode:multiply" opacity="0.3">
<path d="M60.278 152.165L78.823 157.257L42.8717 225.776C42.1759 227.094 40.8053 227.926 39.3187 227.926C38.9286 227.926 38.5491 227.874 38.2012 227.768C43.5675 211.574 66.5616 168.148 66.5616 167.052C66.5616 166.303 61.3534 163.847 56.8727 161.865L60.278 152.165Z" fill="#2B2A30"/>
</g>
<path d="M56.8732 161.865L57.1052 161.211L36.3778 226.651C35.4184 225.607 35.0072 224.078 35.5344 222.581L56.8732 161.865Z" fill="white"/>
<g style="mix-blend-mode:multiply" opacity="0.3">
<path d="M153.931 227.842C153.668 227.895 153.394 227.926 153.109 227.926C151.622 227.926 150.252 227.094 149.556 225.776L113.615 157.257L132.15 152.165L135.281 161.084C132.002 162.94 128.323 164.458 127.585 165.47C126.678 166.714 146.53 211.047 153.931 227.842Z" fill="#2B2A30"/>
</g>
<path d="M156.366 226.239L134.025 157.552L135.269 161.084L156.882 222.58C157.336 223.888 157.093 225.227 156.366 226.239Z" fill="white"/>
<path d="M176.471 101.559C176.471 103.804 176.323 106.029 176.028 108.222C175.079 115.328 172.612 122.086 168.901 128.295C156.092 149.719 128.364 164.553 96.2077 164.553C64.0518 164.553 35.4068 149.223 22.8923 127.22C21.1527 124.163 19.7084 120.968 18.6119 117.668C16.8723 112.534 15.9551 107.125 15.9551 101.559L176.471 101.559Z" fill="#ED5451"/>
<g style="mix-blend-mode:multiply" opacity="0.3">
<path d="M176.471 101.559C176.471 103.804 176.323 106.029 176.028 108.222C171.189 110.836 163.556 112.808 163.556 112.808C163.556 112.808 154.774 121.242 148.448 120.884C142.122 120.536 124.726 117.552 121.732 117.9C118.748 118.248 103.641 120.884 95.3749 120.536C87.1198 120.188 84.3048 118.079 82.5547 118.079C80.8045 118.079 77.6311 126.155 73.9411 126.155C70.2511 126.155 59.181 124.405 58.1267 121.769C57.0724 119.134 57.0724 115.792 57.0724 115.792C57.0724 115.792 48.986 119.134 43.5459 118.954C38.0952 118.775 30.5359 114.916 29.1337 114.558C28.2692 114.347 22.808 116.213 18.6119 117.668C16.8723 112.534 15.9551 107.125 15.9551 101.559L176.471 101.559Z" fill="#2B2A30"/>
</g>
<g style="mix-blend-mode:multiply" opacity="0.3">
<path d="M168.901 128.295C156.092 149.718 128.364 164.552 96.208 164.552C64.0521 164.552 35.407 149.223 22.8926 127.22C31.4745 133.472 55.3964 148.653 86.0657 149.349C116.672 150.045 152.444 142.602 168.901 128.295Z" fill="#2B2A30"/>
</g>
<path d="M191.169 86.1032C190.663 88.0536 189.577 90.721 188.059 91.7226C188.059 91.7226 187.173 93.6519 183.841 95.8554C183.841 95.8554 182.692 100.684 177.779 103.668C177.779 103.668 171.622 107.885 165.739 108.591C159.856 109.298 156.43 109.203 156.43 109.203C156.43 109.203 156.514 110.436 155.808 111.406C155.112 112.366 142.018 113.683 140.088 113.42C138.148 113.156 133.141 108.064 133.141 108.064C133.141 108.064 122.861 109.466 121.807 109.466C120.753 109.466 114.522 114.569 112.498 115.528C110.473 116.498 108.28 109.73 108.28 109.73L103.357 110.784C103.357 110.784 103.357 114.126 102.566 114.474C101.775 114.833 96.5988 115.265 95.9768 115.181C95.3653 115.096 94.0475 112.102 94.0475 112.102L87.3738 113.778C87.3738 113.778 83.5889 116.846 82.271 116.941C80.9531 117.026 78.7602 103.141 78.7602 102.793C78.5388 103.246 75.3232 115.381 74.9859 115.887C74.6274 116.414 67.3422 115.971 66.7202 115.792C66.1087 115.623 67.163 110.088 67.163 110.088L60.0465 107.537C60.0465 107.537 58.9922 110.088 58.3808 110.173C57.7587 110.257 54.9543 110.257 54.9543 110.257C54.9543 110.257 53.1093 112.545 52.1394 112.808C51.1694 113.072 46.9522 113.863 44.0529 113.42C41.1536 112.988 40.0993 112.366 40.0993 112.366C40.0993 112.366 36.0614 113.072 33.0778 112.893C30.0836 112.724 24.1163 109.034 24.1163 109.034L27.8907 102.613L21.4806 107.801C21.4806 107.801 15.1548 108.939 10.052 106.662C4.95982 104.374 2.58766 100.863 2.58766 100.863C2.58766 100.863 0.921875 94.7062 0.921875 94.274C0.921875 93.8417 3.37838 90.6683 3.37838 90.6683L1.79694 89.6983C1.79694 89.6983 3.55761 83.5518 9.70413 80.1254C9.70413 80.1254 13.0462 74.0632 14.0056 72.3974C14.9756 70.7211 22.3556 73.2725 22.3556 73.2725C22.3556 73.2725 22.7246 72.7242 23.2729 71.9546C24.401 70.3942 26.2776 67.9483 27.2792 67.4739C28.7657 66.7675 32.5506 68.7074 32.5506 68.7074C32.5506 68.7074 34.6592 66.5039 37.2949 65.4496C39.9307 64.3953 43.9686 66.156 43.9686 66.156C43.9686 66.156 47.743 63.1723 50.7371 61.4117C53.7208 59.651 63.5573 61.5909 63.5573 61.5909C63.5573 61.5909 64.6116 60.7053 66.8994 60.0938C69.1872 59.4823 76.9152 63.6995 76.9152 63.6995C76.9152 63.6995 83.9473 63.7838 85.0016 64.3953C86.0559 65.0173 87.7217 66.156 87.7217 66.156C87.7217 66.156 88.5124 64.0474 91.3274 63.4359C94.1318 62.8139 94.9225 67.3895 94.9225 67.3895C94.9225 67.3895 99.4033 65.3653 103.979 65.186C108.544 65.0173 110.041 66.8624 110.041 66.8624C110.041 66.8624 118.908 61.8545 121.543 62.3816C124.179 62.9088 126.383 65.8924 126.383 65.8924L133.499 64.2266C133.499 64.2266 140.088 60.9689 142.724 61.2324C145.36 61.496 146.678 63.7838 146.678 63.7838C146.678 63.7838 152.381 60.8002 154.406 60.8845C156.43 60.9689 159.498 63.4359 159.498 63.4359C159.498 63.4359 161.343 63.2567 163.367 63.6046C165.391 63.963 166.878 66.4196 166.878 66.4196C166.878 66.4196 172.244 65.2809 175.312 65.5445C178.391 65.8081 181.733 71.691 181.733 71.691C181.733 71.691 185.159 72.0389 186.562 73.2725C187.964 74.506 190.336 82.0547 190.336 82.0547C190.336 82.0547 191.306 83.0247 191.485 83.9946C191.538 84.3109 191.432 85.1227 191.169 86.1032Z" fill="#2D9693"/>
<g style="mix-blend-mode:multiply" opacity="0.3">
<path d="M54.0371 78.5851C54.0371 78.5851 60.3207 75.7701 67.8272 76.2551C67.8272 76.2551 76.2616 71.8165 84.5694 74.2309C84.5694 74.2309 93.4465 72.776 100.647 76.3816C100.647 76.3816 109.387 71.6373 119.361 74.758C119.361 74.758 128.976 72.3437 138.644 75.0216C138.644 75.0216 152.002 73.1766 157.273 78.0052C157.273 78.0052 149.714 78.5746 145.413 80.7675C141.111 82.9604 139.045 84.3732 139.045 84.3732C139.045 84.3732 131.137 81.1681 121.343 81.1681C111.549 81.1681 106.847 85.691 106.847 85.691C106.847 85.691 100.215 81.0311 88.9658 81.0311C77.7165 81.0311 70.4735 88.1475 70.4735 88.1475C70.4735 88.1475 64.6749 79.4918 54.0476 78.5746L54.0371 78.5851Z" fill="#326C92"/>
</g>
<path d="M140.74 85.1827C147.351 78.5723 156.238 79.2049 156.323 79.2049C156.892 79.2576 157.398 78.8254 157.451 78.2455C157.493 77.6656 157.071 77.1701 156.502 77.1174C156.112 77.0858 147.045 76.411 139.802 83.1796C136.46 81.6614 121.784 75.9155 106.497 84.2971C103.165 81.9777 96.7236 78.7832 87.3826 79.8691C78.4633 80.9023 73.4132 84.2444 70.8829 86.5849C62.9863 78.4985 53.4977 77.5497 53.076 77.518C52.5172 77.4653 51.99 77.8976 51.9479 78.4669C51.8951 79.0467 52.3274 79.5528 52.8967 79.595C52.9073 79.595 53.0549 79.6161 53.2868 79.6477C49.523 80.7969 47.1719 82.3572 47.0349 82.4416C46.5604 82.7684 46.4339 83.4115 46.7502 83.8965C46.9505 84.1917 47.2773 84.3604 47.6147 84.3604C47.815 84.3604 48.0154 84.3077 48.1946 84.1812C48.2368 84.1601 52.1165 81.5876 57.8097 80.7863C58.4423 80.9972 59.117 81.2502 59.8234 81.556C55.058 82.9266 52.3379 85.8153 52.2009 85.9629C51.8108 86.3846 51.8319 87.0488 52.2642 87.4389C52.4645 87.6287 52.7175 87.713 52.9705 87.713C53.2552 87.713 53.5293 87.5971 53.7402 87.3757C53.7718 87.344 57.135 83.77 62.8809 83.0531C65.0316 84.2655 67.2878 85.9102 69.4175 88.0926C69.0063 88.5986 68.7849 88.9255 68.7533 88.9887C68.4581 89.4842 68.6057 90.1168 69.1012 90.4225C69.2699 90.528 69.4596 90.5807 69.6494 90.5807C69.9973 90.5807 70.3453 90.4015 70.535 90.0852C70.5772 90.0219 74.826 83.4326 87.6145 81.9461C100.424 80.4595 107.52 87.829 107.583 87.8923C107.973 88.314 108.637 88.3351 109.059 87.945C109.481 87.5549 109.502 86.8907 109.112 86.469C109.059 86.4057 108.774 86.1211 108.289 85.6993C111.42 84.0968 114.531 83.1058 117.514 82.5575C118.326 83.0636 120.582 84.645 122.427 87.6076C122.628 87.9239 122.965 88.1031 123.313 88.1031C123.503 88.1031 123.692 88.0504 123.861 87.945C124.357 87.6392 124.504 86.9961 124.198 86.5006C122.975 84.5396 121.605 83.1163 120.477 82.1569C122.986 81.925 125.348 81.9777 127.519 82.1885C128.426 82.5259 131.969 84.0336 134.193 87.6076C134.393 87.9239 134.731 88.1031 135.079 88.1031C135.269 88.1031 135.458 88.0504 135.627 87.945C136.122 87.6392 136.27 86.9961 135.964 86.5006C135.11 85.13 134.098 84.0335 133.086 83.1479C136.987 84.1073 139.433 85.3409 139.496 85.3725C139.897 85.5834 140.392 85.499 140.719 85.1827H140.74Z" fill="#3FABA8"/>
<path d="M4.54719 89.7177C4.87402 89.7177 5.20085 89.5595 5.40116 89.2643C5.45388 89.18 11.0838 81.2939 23.3347 80.7562C23.9145 80.7351 24.3573 80.2396 24.3362 79.6703C24.3152 79.0904 23.8618 78.6476 23.2503 78.6687C9.98733 79.2486 3.94625 87.704 3.69322 88.0624C3.36639 88.5369 3.48236 89.1905 3.95679 89.5174C4.13602 89.6439 4.34688 89.7071 4.55774 89.7071L4.54719 89.7177Z" fill="#3FABA8"/>
<path d="M5.4648 94.4808C5.50697 94.3965 10.2407 86.2468 23.4826 83.843C24.052 83.7376 24.4315 83.1999 24.3261 82.6306C24.2206 82.0613 23.683 81.6817 23.1136 81.7871C8.84908 84.3701 3.85173 93.0997 3.64087 93.4687C3.35621 93.9747 3.54598 94.6073 4.0415 94.892C4.19964 94.9869 4.37888 95.029 4.54756 95.029C4.91657 95.029 5.27503 94.8393 5.4648 94.4914V94.4808Z" fill="#3FABA8"/>
<path d="M24.3055 90.6774C24.1684 90.1187 23.5991 89.7707 23.0404 89.9078C11.7278 92.649 5.7078 98.6479 5.45477 98.9115C5.05414 99.3226 5.05414 99.9868 5.45477 100.387C5.65509 100.588 5.91866 100.693 6.19277 100.693C6.46689 100.693 6.73046 100.588 6.94132 100.377C6.99403 100.324 12.7821 94.5467 23.5253 91.9426C24.0841 91.8055 24.432 91.2468 24.295 90.6774H24.3055Z" fill="#3FABA8"/>
<path d="M29.9245 91.499C29.7136 90.9613 29.1021 90.6977 28.5645 90.9086C19.3289 94.5459 13.3299 102.421 13.0769 102.759C12.729 103.223 12.8239 103.876 13.2878 104.224C13.4776 104.361 13.699 104.435 13.9204 104.435C14.2366 104.435 14.5529 104.288 14.7532 104.024C14.8165 103.95 20.6678 96.2749 29.3341 92.859C29.8718 92.6481 30.1354 92.0367 29.9245 91.499Z" fill="#3FABA8"/>
<path d="M39.6877 92.7864C40.1832 92.4912 40.3519 91.8481 40.0567 91.3525C39.7615 90.857 39.1289 90.6883 38.6228 90.9835C34.0472 93.672 29.6086 99.6393 29.4189 99.8923C29.0709 100.356 29.1764 101.01 29.6403 101.358C29.83 101.495 30.0409 101.558 30.2623 101.558C30.5786 101.558 30.8949 101.41 31.1057 101.136C31.1479 101.073 35.481 95.264 39.6877 92.7864Z" fill="#3FABA8"/>
<path d="M37.5577 99.8495C34.4264 103.687 32.5814 108.748 32.5076 108.959C32.3073 109.507 32.592 110.097 33.1297 110.298C33.2456 110.34 33.3721 110.361 33.4881 110.361C33.9204 110.361 34.321 110.097 34.4686 109.665C34.4897 109.612 36.2714 104.731 39.1813 101.167C39.5503 100.725 39.4765 100.06 39.0337 99.6913C38.5803 99.3223 37.9267 99.3961 37.5577 99.839V99.8495Z" fill="#3FABA8"/>
<path d="M46.9817 96.7817C46.5073 96.4548 45.8536 96.5603 45.5268 97.0347C42.5958 101.21 39.8441 109.423 39.7282 109.771C39.5489 110.319 39.8441 110.909 40.3924 111.088C40.4978 111.12 40.6138 111.141 40.7192 111.141C41.162 111.141 41.5626 110.867 41.7102 110.424C41.7419 110.34 44.483 102.159 47.2347 98.2261C47.5615 97.7516 47.4561 97.098 46.9817 96.7711V96.7817Z" fill="#3FABA8"/>
<path d="M52.1379 97.1208C51.6108 96.8783 50.9888 97.1103 50.7463 97.6269C48.1211 103.31 46.3182 110.236 46.2339 110.531C46.0863 111.09 46.4237 111.659 46.9824 111.807C47.0668 111.828 47.1617 111.839 47.246 111.839C47.7099 111.839 48.1316 111.522 48.2581 111.059C48.2792 110.985 50.0926 104.016 52.644 98.5125C52.8865 97.9853 52.6545 97.3633 52.1274 97.1208H52.1379Z" fill="#3FABA8"/>
<path d="M56.0174 99.8915C55.4903 99.6807 54.8682 99.9337 54.6574 100.471C53.9405 102.264 52.4961 108.115 52.4328 108.368C52.2958 108.927 52.6331 109.496 53.2025 109.633C53.2868 109.654 53.3711 109.665 53.4555 109.665C53.9299 109.665 54.3516 109.349 54.4676 108.874C54.4781 108.811 55.9436 102.907 56.6078 101.252C56.8187 100.714 56.5656 100.102 56.028 99.8915H56.0174Z" fill="#3FABA8"/>
<path d="M62.8603 95.1785C62.291 95.0309 61.7322 95.3788 61.5846 95.9376C61.5424 96.0957 60.6041 99.8701 59.9926 105.721C59.9294 106.301 60.3511 106.807 60.9204 106.871C60.9626 106.871 60.9942 106.871 61.0258 106.871C61.553 106.871 62.0063 106.47 62.0696 105.932C62.6705 100.25 63.6088 96.4858 63.6088 96.4437C63.7459 95.8849 63.4085 95.3156 62.8498 95.1785H62.8603Z" fill="#3FABA8"/>
<path d="M71.0099 93.7244C70.4195 93.6506 69.9134 94.0512 69.8291 94.6205C69.8291 94.6943 68.7853 102.359 68.1844 107.272C68.1106 107.841 68.5217 108.369 69.091 108.442C69.1332 108.442 69.1754 108.442 69.2176 108.442C69.7342 108.442 70.1875 108.052 70.2508 107.525C70.8517 102.623 71.8849 94.979 71.8955 94.8947C71.9693 94.3254 71.5686 93.7982 70.9993 93.7139L71.0099 93.7244Z" fill="#3FABA8"/>
<path d="M77.9999 92.9442C77.4306 93.0601 77.0616 93.6084 77.1776 94.1777C77.1776 94.2093 77.768 97.2035 77.768 101.642C77.768 102.222 78.2318 102.686 78.8117 102.686C79.3916 102.686 79.8555 102.222 79.8555 101.642C79.8555 96.9716 79.2545 93.893 79.2229 93.7665C79.1069 93.1972 78.5692 92.8282 77.9894 92.9442H77.9999Z" fill="#3FABA8"/>
<path d="M85.1053 93.7241C84.536 93.8084 84.1459 94.3461 84.2302 94.9154C84.2408 95.0103 85.6324 104.119 86.2755 110.213C86.3283 110.751 86.7816 111.152 87.3193 111.152C87.3509 111.152 87.3931 111.152 87.4353 111.152C88.0046 111.088 88.4263 110.572 88.363 110.002C87.7094 103.856 86.3283 94.7046 86.3072 94.6097C86.2228 94.0404 85.6851 93.6397 85.1158 93.7346L85.1053 93.7241Z" fill="#3FABA8"/>
<path d="M91.4952 95.7585C90.9469 95.9272 90.6307 96.5071 90.7993 97.0659C90.8204 97.1397 93.182 104.962 93.551 109.401C93.5932 109.949 94.0571 110.36 94.5948 110.36C94.6264 110.36 94.658 110.36 94.6791 110.36C95.259 110.308 95.6807 109.802 95.6385 109.232C95.2484 104.572 92.9079 96.7917 92.813 96.4649C92.6443 95.9167 92.0645 95.6004 91.5057 95.7691L91.4952 95.7585Z" fill="#3FABA8"/>
<path d="M93.8547 91.6578C93.4435 92.0584 93.433 92.7226 93.8442 93.1338C93.9074 93.197 99.822 99.3119 101.319 108.779C101.403 109.296 101.846 109.665 102.352 109.665C102.405 109.665 102.458 109.665 102.521 109.655C103.09 109.56 103.48 109.032 103.386 108.463C101.783 98.3103 95.6048 91.9424 95.3413 91.6788C94.9406 91.2677 94.2764 91.2677 93.8653 91.6683L93.8547 91.6578Z" fill="#3FABA8"/>
<path d="M106.001 94.2209C105.442 94.0839 104.872 94.4213 104.735 94.98C104.651 95.3279 104.746 95.6864 104.978 95.9394C105.442 96.7723 107.571 102.297 108.71 108.306C108.805 108.812 109.248 109.16 109.733 109.16C109.796 109.16 109.859 109.16 109.933 109.139C110.502 109.034 110.871 108.486 110.766 107.916C110.249 105.217 107.571 94.611 106.001 94.2209Z" fill="#3FABA8"/>
<path d="M114.278 94.3145C113.761 94.578 113.571 95.2106 113.835 95.7272C113.867 95.7905 117.24 102.253 118.316 107.609C118.411 108.105 118.853 108.453 119.338 108.453C119.402 108.453 119.475 108.453 119.549 108.431C120.119 108.315 120.488 107.767 120.372 107.198C119.244 101.557 115.838 95.0314 115.701 94.7573C115.438 94.2512 114.805 94.0509 114.288 94.3145H114.278Z" fill="#3FABA8"/>
<path d="M120.846 94.2409C120.298 94.0616 119.707 94.3568 119.528 94.905C119.391 95.3162 119.528 95.7485 119.823 96.0121C120.414 96.8871 123.292 103.202 124.22 106.808C124.346 107.282 124.768 107.588 125.232 107.588C125.316 107.588 125.411 107.578 125.495 107.557C126.054 107.409 126.391 106.84 126.244 106.281C125.812 104.594 122.216 94.6942 120.846 94.2409Z" fill="#3FABA8"/>
<path d="M130.197 96.7179C129.86 96.2434 129.206 96.138 128.742 96.4754C128.268 96.8128 128.162 97.4664 128.5 97.9303C128.531 97.9725 131.8 102.548 134.151 107.809C134.319 108.199 134.71 108.431 135.11 108.431C135.247 108.431 135.395 108.399 135.532 108.336C136.059 108.104 136.302 107.482 136.059 106.955C133.624 101.494 130.334 96.8971 130.197 96.7073V96.7179Z" fill="#3FABA8"/>
<path d="M141.742 96.6967C141.395 96.2433 140.741 96.1485 140.277 96.5069C139.813 96.8548 139.729 97.519 140.087 97.9724C140.129 98.0251 143.883 102.98 145.19 108.853C145.295 109.338 145.728 109.675 146.213 109.675C146.286 109.675 146.36 109.675 146.445 109.654C147.003 109.527 147.362 108.969 147.235 108.41C145.833 102.095 141.911 96.9286 141.753 96.7178L141.742 96.6967Z" fill="#3FABA8"/>
<path d="M146.93 92.7749C146.508 92.3848 145.844 92.3953 145.454 92.817C145.053 93.2388 145.074 93.903 145.496 94.2931C145.549 94.3458 151.242 99.7754 153.741 106.143C153.899 106.554 154.299 106.807 154.71 106.807C154.837 106.807 154.963 106.786 155.09 106.734C155.628 106.523 155.891 105.911 155.68 105.374C153.013 98.5629 147.172 93.0068 146.93 92.7749Z" fill="#3FABA8"/>
<path d="M154.584 91.9417C154.204 91.4989 153.54 91.4567 153.108 91.8363C152.665 92.2158 152.623 92.8695 153.002 93.3123C153.055 93.3755 158.579 99.8383 160.583 106.09C160.72 106.533 161.131 106.818 161.574 106.818C161.679 106.818 161.785 106.797 161.89 106.765C162.438 106.586 162.744 105.995 162.565 105.447C160.435 98.784 154.816 92.2158 154.584 91.9417Z" fill="#3FABA8"/>
<path d="M160.14 93.7235C159.666 93.3967 159.012 93.5126 158.685 93.9871C158.359 94.4615 158.475 95.1152 158.949 95.442C159.023 95.4947 166.266 100.534 168.09 106.09C168.237 106.533 168.648 106.807 169.081 106.807C169.186 106.807 169.302 106.786 169.408 106.755C169.956 106.575 170.251 105.985 170.072 105.437C168.026 99.2269 160.446 93.9449 160.13 93.7235H160.14Z" fill="#3FABA8"/>
<path d="M164.568 89.0622C164.083 88.7459 163.44 88.8724 163.113 89.3574C162.797 89.8423 162.923 90.4855 163.408 90.8123C163.482 90.865 170.767 95.7569 173.361 101.735C173.529 102.125 173.919 102.367 174.32 102.367C174.457 102.367 174.594 102.336 174.731 102.283C175.258 102.051 175.501 101.44 175.279 100.912C172.443 94.3652 164.884 89.2941 164.568 89.0832V89.0622Z" fill="#3FABA8"/>
<path d="M168.743 87.1241C168.195 86.9237 167.594 87.1978 167.394 87.7461C167.193 88.2838 167.467 88.8847 168.016 89.085C168.1 89.1166 176.492 92.269 179.086 97.3401C179.275 97.6986 179.634 97.9094 180.013 97.9094C180.172 97.9094 180.34 97.8778 180.488 97.7935C181.004 97.5299 181.205 96.8973 180.941 96.3807C177.979 90.5927 169.112 87.2506 168.733 87.1135L168.743 87.1241Z" fill="#3FABA8"/>
<path d="M173.698 85.563C173.119 85.5841 172.665 86.0585 172.686 86.6383C172.707 87.2076 173.171 87.6505 173.73 87.6505C173.73 87.6505 173.751 87.6505 173.762 87.6505C173.814 87.6505 180.014 87.5134 184.484 90.7817C184.674 90.9188 184.884 90.982 185.095 90.982C185.422 90.982 185.738 90.8344 185.939 90.5498C186.276 90.0859 186.181 89.4322 185.707 89.0843C180.636 85.3837 173.972 85.5419 173.688 85.5524L173.698 85.563Z" fill="#3FABA8"/>
<path d="M188.564 81.5673C182.28 78.0776 170.293 80.7028 169.787 80.8187C169.228 80.9453 168.87 81.504 168.996 82.0628C169.123 82.6216 169.671 82.98 170.251 82.8535C170.367 82.8219 181.953 80.281 187.562 83.3912C187.72 83.4756 187.9 83.5177 188.068 83.5177C188.437 83.5177 188.796 83.3279 188.985 82.98C189.27 82.474 189.08 81.8414 188.574 81.5568L188.564 81.5673Z" fill="#3FABA8"/>
<path d="M168.374 76.8648C168.585 76.8648 168.807 76.8015 168.996 76.6645C169.039 76.6328 173.224 73.6281 179.951 73.9866C180.53 74.0077 181.026 73.5754 181.047 72.9955C181.079 72.4157 180.636 71.9307 180.056 71.8885C172.57 71.4774 167.932 74.8195 167.742 74.9671C167.278 75.3045 167.173 75.9686 167.52 76.4325C167.721 76.7066 168.048 76.8542 168.364 76.8542L168.374 76.8648Z" fill="#3FABA8"/>
<path d="M156.829 74.6834C156.449 75.1157 156.502 75.7799 156.934 76.1594C157.135 76.3281 157.377 76.4125 157.62 76.4125C157.915 76.4125 158.21 76.286 158.41 76.054C158.452 76.0119 162.395 71.4573 165.959 69.3803C166.454 69.0851 166.623 68.4526 166.339 67.9465C166.043 67.451 165.4 67.2823 164.905 67.567C161.046 69.8231 156.997 74.4831 156.829 74.6834Z" fill="#3FABA8"/>
<path d="M150.039 76.0429C150.345 76.0429 150.64 75.9163 150.851 75.6633C150.903 75.6 155.869 69.5906 159.865 67.8827C160.392 67.6507 160.645 67.0392 160.413 66.5121C160.181 65.9744 159.57 65.7319 159.043 65.9638C154.583 67.8721 149.449 74.0713 149.238 74.3349C148.869 74.7777 148.932 75.4419 149.385 75.8109C149.575 75.9691 149.818 76.0534 150.049 76.0534L150.039 76.0429Z" fill="#3FABA8"/>
<path d="M138.043 75.1886C138.233 75.3362 138.465 75.4205 138.697 75.4205C139.003 75.4205 139.308 75.2835 139.519 75.0304C139.572 74.9672 144.685 68.5571 148.122 66.3536C148.607 66.0373 148.755 65.3942 148.439 64.9092C148.122 64.4242 147.479 64.2766 146.994 64.5929C143.262 66.9756 138.096 73.4595 137.885 73.7336C137.527 74.187 137.6 74.8406 138.054 75.1991L138.043 75.1886Z" fill="#3FABA8"/>
<path d="M126.298 75.5575C126.498 75.7683 126.783 75.8843 127.057 75.8843C127.321 75.8843 127.574 75.7894 127.774 75.5996C127.858 75.5258 136.008 67.7768 140.71 65.5206C141.227 65.2676 141.448 64.6455 141.206 64.1289C140.953 63.6123 140.33 63.3909 139.814 63.644C134.817 66.0372 126.688 73.7652 126.34 74.092C125.918 74.4926 125.908 75.1568 126.308 75.568L126.298 75.5575Z" fill="#3FABA8"/>
<path d="M118.949 75.6836C119.381 75.6836 119.75 75.42 119.908 75.051C120.225 74.4817 123.082 70.0115 125.833 68.04C126.297 67.7026 126.413 67.049 126.076 66.5851C125.738 66.1106 125.085 66.0052 124.61 66.3426C121.785 68.3774 117.895 73.7332 117.895 74.6398C117.895 75.2197 118.358 75.6836 118.938 75.6836H118.949Z" fill="#3FABA8"/>
<path d="M106.065 75.6315C106.181 75.6737 106.297 75.6948 106.413 75.6948C106.845 75.6948 107.246 75.4312 107.394 74.999C107.404 74.9673 108.638 71.5092 110.514 68.5783C110.82 68.0933 110.683 67.4397 110.198 67.1339C109.713 66.8176 109.059 66.9653 108.754 67.4502C106.751 70.592 105.475 74.145 105.422 74.3031C105.232 74.8514 105.517 75.4418 106.055 75.6421L106.065 75.6315Z" fill="#3FABA8"/>
<path d="M100.257 76.7401C100.373 76.7822 100.499 76.8033 100.615 76.8033C101.047 76.8033 101.448 76.5398 101.596 76.118C102.218 74.4206 104.157 69.6341 105.76 67.9051C106.15 67.4834 106.129 66.8192 105.707 66.4291C105.286 66.039 104.621 66.0601 104.231 66.4818C102.017 68.8645 99.7295 75.1375 99.6346 75.4011C99.4343 75.9388 99.7189 76.5397 100.257 76.7401Z" fill="#3FABA8"/>
<path d="M89.6715 76.023C89.8085 76.0863 89.9561 76.1074 90.0932 76.1074C90.4938 76.1074 90.8839 75.8754 91.0526 75.4853C91.0631 75.4537 92.6446 71.8797 94.5423 69.7078C94.9218 69.2756 94.8797 68.6114 94.4474 68.2318C94.0151 67.8523 93.3509 67.8944 92.9714 68.3267C90.8628 70.741 89.2076 74.4837 89.1443 74.6419C88.9124 75.169 89.1443 75.7911 89.682 76.023H89.6715Z" fill="#3FABA8"/>
<path d="M84.0634 74.5786C84.2321 74.9686 84.6222 75.2006 85.0228 75.2006C85.1599 75.2006 85.3075 75.169 85.4445 75.1163C85.9717 74.8843 86.2142 74.2623 85.9822 73.7351C83.3781 67.8206 78.7919 64.5206 78.6022 64.3836C78.1277 64.0462 77.4846 64.1622 77.1472 64.626C76.8099 65.1005 76.9259 65.7436 77.3897 66.081C77.4319 66.1126 81.7018 69.2017 84.0634 74.5786Z" fill="#3FABA8"/>
<path d="M64.7366 64.0032C64.8104 64.0454 72.4856 68.737 75.6801 74.3774C75.8699 74.7148 76.2284 74.9046 76.5868 74.9046C76.7661 74.9046 76.9347 74.8624 77.1034 74.7676C77.6095 74.4829 77.7887 73.8503 77.5041 73.3443C74.046 67.2294 66.1599 62.4113 65.8225 62.2109C65.327 61.9157 64.6839 62.0739 64.3887 62.5694C64.0935 63.0649 64.2516 63.708 64.7471 64.0032H64.7366Z" fill="#3FABA8"/>
<path d="M54.3941 65.7735C54.4784 65.8051 62.8179 69.2632 67.5516 76.211C67.752 76.5062 68.0788 76.6643 68.4162 76.6643C68.6165 76.6643 68.8273 76.601 69.0066 76.485C69.481 76.1582 69.6075 75.5046 69.2807 75.0302C64.199 67.5658 55.5433 63.9812 55.1848 63.8336C54.6577 63.6121 54.0356 63.8757 53.8248 64.4029C53.6034 64.9406 53.8669 65.5521 54.3941 65.7629V65.7735Z" fill="#3FABA8"/>
<path d="M45.0004 69.2018C45.0636 69.2334 51.558 71.9746 54.2043 75.9703C54.4046 76.2761 54.742 76.4342 55.0794 76.4342C55.2797 76.4342 55.48 76.3815 55.6592 76.2655C56.1442 75.9493 56.2707 75.2956 55.9544 74.8106C52.9497 70.2772 46.0968 67.3884 45.8122 67.2619C45.285 67.0405 44.663 67.2935 44.4416 67.8207C44.2202 68.3583 44.4732 68.9699 45.0004 69.1913V69.2018Z" fill="#3FABA8"/>
<path d="M26.8979 75.4842C26.9717 75.4947 34.7734 76.5806 39.1698 80.6396C39.3701 80.8294 39.6232 80.9137 39.8762 80.9137C40.1609 80.9137 40.435 80.7978 40.6458 80.5764C41.0359 80.1546 41.0148 79.4905 40.5826 79.1004C35.6907 74.5775 27.5094 73.4494 27.1614 73.4072C26.5921 73.3334 26.065 73.734 25.9912 74.3034C25.9174 74.8727 26.318 75.3998 26.8873 75.4736L26.8979 75.4842Z" fill="#3FABA8"/>
<path d="M191.169 86.1032C189.356 79.5139 185.845 74.6536 184.063 73.9788C182.218 73.2725 168.871 74.1475 168.871 74.1475L177.126 71.691C177.126 71.691 176.683 67.9167 173.173 68.001C169.662 68.0853 158.592 69.846 158.592 69.846C158.592 69.846 163.948 65.6288 163.157 65.6288C162.366 65.6288 159.994 66.156 159.024 66.4196C158.065 66.6831 155.598 62.3816 153.753 62.5503C151.908 62.7295 146.995 65.7132 146.995 65.7132C146.995 65.7132 144.886 62.9931 143.568 62.9931C142.25 62.9931 138.908 64.0474 136.272 65.186C133.637 66.3352 124.939 68.876 124.939 68.876C124.939 68.876 123.009 64.5745 120.806 64.5745C118.602 64.5745 110.79 68.0853 110.79 68.0853C110.79 68.0853 109.652 66.9467 107.627 66.6831C105.614 66.4196 94.6279 69.7617 94.1007 69.0553C93.5736 68.3489 93.1308 65.3653 91.9921 65.5445C90.8535 65.7132 91.3807 69.0553 90.8535 69.0553C90.3264 69.0553 86.3728 65.9768 84.7913 65.6288C83.2099 65.2809 73.7213 65.4496 71.8763 65.2809C70.0313 65.1017 58.0756 61.8545 56.0619 62.2024C54.0377 62.5503 46.1305 65.0174 46.1305 65.8081C46.1305 66.5988 49.1985 70.2256 49.4515 70.5418C49.1036 70.331 43.1785 66.8729 41.4705 67.1259C39.7204 67.3895 34.8812 69.4981 34.8812 69.4981L38.4658 72.6504C37.9386 72.4185 29.5886 68.7074 29.0826 68.6125C28.5554 68.5281 24.1696 70.9846 23.3789 72.0389C23.3789 72.0389 23.3367 72.0073 23.2734 71.9546C24.4015 70.3942 26.2782 67.9483 27.2797 67.4739C28.7663 66.7675 32.5512 68.7074 32.5512 68.7074C32.5512 68.7074 34.6598 66.5039 37.2955 65.4496C39.9312 64.3953 43.9692 66.156 43.9692 66.156C43.9692 66.156 47.7435 63.1723 50.7377 61.4117C53.7214 59.651 63.5579 61.5909 63.5579 61.5909C63.5579 61.5909 64.6122 60.7053 66.9 60.0938C69.1878 59.4823 76.9158 63.6995 76.9158 63.6995C76.9158 63.6995 83.9479 63.7838 85.0022 64.3953C86.0565 65.0173 87.7223 66.156 87.7223 66.156C87.7223 66.156 88.513 64.0474 91.328 63.4359C94.1324 62.8139 94.9231 67.3895 94.9231 67.3895C94.9231 67.3895 99.4038 65.3653 103.979 65.186C108.545 65.0173 110.042 66.8624 110.042 66.8624C110.042 66.8624 118.908 61.8545 121.544 62.3816C124.18 62.9088 126.383 65.8924 126.383 65.8924L133.5 64.2266C133.5 64.2266 140.089 60.9689 142.725 61.2324C145.36 61.496 146.678 63.7838 146.678 63.7838C146.678 63.7838 152.382 60.8002 154.406 60.8845C156.43 60.9689 159.498 63.4359 159.498 63.4359C159.498 63.4359 161.343 63.2567 163.368 63.6046C165.392 63.963 166.878 66.4196 166.878 66.4196C166.878 66.4196 172.245 65.2809 175.313 65.5445C178.391 65.8081 181.733 71.691 181.733 71.691C181.733 71.691 185.16 72.0389 186.562 73.2725C187.964 74.506 190.336 82.0547 190.336 82.0547C190.336 82.0547 191.306 83.0247 191.486 83.9946C191.538 84.3109 191.433 85.1227 191.169 86.1032Z" fill="white"/>
<mask id="mask0_161_2281" style="mask-type:alpha" maskUnits="userSpaceOnUse" x="28" y="0" width="180" height="87">
<path d="M139.801 83.1766C147.044 76.4081 156.111 77.0828 156.501 77.1145L208 83.1766L198 21.9063L149.5 0.40625L50.5 30.4063L28 49.9062L42 77.5151C44.8 75.6342 49.7982 77.364 51.9473 78.464C51.9894 77.8946 52.5166 77.4624 53.0754 77.5151C53.4971 77.5467 62.9857 78.4956 70.8824 86.582C73.4127 84.2415 78.4627 80.8994 87.382 79.8662C96.723 78.7803 103.165 81.9747 106.496 84.2942C121.784 75.9126 136.459 81.6585 139.801 83.1766Z" fill="#D9D9D9"/>
</mask>
<g mask="url(#mask0_161_2281)">
<path d="M170.577 66.0593C164.684 74.4735 152.191 73.7769 152.191 73.7769C152.191 73.7769 146.101 83.6675 143.131 85.9455C140.173 88.2153 135.119 87.0352 134.745 87.1326C134.369 87.2403 101.154 103.278 80.9599 103.464C60.7654 103.65 39.2216 97.5574 46.3077 74.1584C46.6834 72.9218 47.1583 71.7264 47.7098 70.5786C48.0072 69.9499 48.3315 69.348 48.6765 68.7503C59.6314 49.832 93.0253 44.9144 93.4904 44.6847C93.9927 44.4301 100.865 39.6193 103.77 39.3924C106.685 39.1676 116.269 39.1978 116.269 39.1978C116.269 39.1978 120.656 31.1069 133.289 29.3263C133.289 29.3263 149.134 23.0801 158.59 24.6114C167.285 26.0233 173.562 29.5867 174.677 37.7429C174.789 38.4748 174.851 39.2398 174.864 40.0379C174.917 42.6287 175.051 45.0849 175.118 47.442C175.291 54.0129 174.907 59.8707 170.577 66.0593Z" fill="#ED5451"/>
<path d="M174.676 37.7429C173.356 35.2542 171.084 32.1456 167.318 29.8463C160.13 25.4563 145.499 27.8272 143.022 29.0318C140.536 30.2344 132.685 29.6575 128.441 31.5846C124.205 33.5242 117.125 41.1533 117.125 41.1533C117.125 41.1533 116.35 40.9986 112.01 40.7672C107.672 40.5255 101.651 40.5824 97.1642 44.6972C92.6651 48.8203 83.5968 65.5563 83.6108 64.5701C83.6227 63.5941 91.4897 47.0593 91.4897 47.0593C91.4897 47.0593 83.242 47.1235 67.8711 54.9802C54.3048 61.9283 48.8168 69.0149 47.7094 70.5786C48.0068 69.9499 48.3311 69.348 48.6761 68.7503C59.631 49.832 93.0249 44.9144 93.49 44.6846C93.9923 44.4301 100.865 39.6192 103.77 39.3924C106.685 39.1676 116.268 39.1977 116.268 39.1977C116.268 39.1977 120.656 31.1069 133.288 29.3263C133.288 29.3263 149.133 23.0801 158.589 24.6114C167.285 26.0233 173.562 29.5867 174.676 37.7429Z" fill="white"/>
<g style="mix-blend-mode:multiply" opacity="0.3">
<path d="M170.577 66.0617C170.275 66.496 169.957 66.9056 169.612 67.2883C163.429 74.4083 152.191 73.7793 152.191 73.7793C152.191 73.7793 151.792 74.4308 151.142 75.4298C149.27 78.3462 145.34 84.2492 143.131 85.9479C142.914 86.1196 142.68 86.2666 142.438 86.4011C139.443 88.0505 135.097 87.0438 134.745 87.1349C134.381 87.2344 103.201 102.29 82.8869 103.399L82.8642 103.405C82.2232 103.439 81.5843 103.462 80.9599 103.466C76.101 103.518 71.1654 103.2 66.5727 102.349C54.0065 100.079 43.9774 93.9286 44.9961 80.7903C45.1543 78.7577 45.5832 76.5534 46.3181 74.1628C46.9043 72.2479 47.7056 70.4404 48.6868 68.7547C54.2045 75.1016 66.7913 69.2375 65.2361 72.5072C63.6147 75.9465 53.464 90.4563 69.5929 93.1358C85.7219 95.8154 99.4746 93.5918 107.168 85.3111C114.862 77.0303 105.924 66.6472 112.252 67.9093C118.579 69.1714 137.58 71.6283 136.418 70.7191C135.255 69.8099 116.434 59.068 122.848 59.9496C129.252 60.8292 143.011 66.659 154.166 65.9275C162.345 65.3981 170.874 57.671 175.128 47.4464C175.301 54.0173 174.918 59.8751 170.587 66.0637L170.577 66.0617Z" fill="#2B2A30"/>
</g>
<g style="mix-blend-mode:multiply" opacity="0.3">
<path d="M105.327 54.4861C101.494 50.7973 133.012 72.9089 141.801 76.0058C141.801 76.0058 119.756 68.3835 105.327 54.4861Z" fill="#2B2A30"/>
</g>
<g style="mix-blend-mode:multiply" opacity="0.3">
<path d="M94.6108 72.9685C90.0668 70.2023 125.646 84.8889 134.907 85.9944C134.907 85.9944 111.736 83.3722 94.6108 72.9685Z" fill="#2B2A30"/>
</g>
<g style="mix-blend-mode:multiply" opacity="0.3">
<path d="M69.7165 78.1197C65.4018 75.0122 99.7377 92.4287 108.869 94.2394C108.869 94.2394 85.97 89.8224 69.7165 78.1197Z" fill="#2B2A30"/>
</g>
<g style="mix-blend-mode:multiply" opacity="0.3">
<path d="M66.5727 102.347C54.0065 100.078 43.9773 93.9273 44.9961 80.7891C48.5277 88.9544 55.9865 98.5051 66.5727 102.347Z" fill="#326C92"/>
</g>
<g style="mix-blend-mode:multiply" opacity="0.3">
<path d="M142.438 86.3988C139.443 88.0483 135.096 87.0415 134.744 87.1327C134.381 87.2321 103.2 102.288 82.8862 103.397C83.9881 103.154 85.1107 102.862 86.258 102.5C110.208 94.9135 115.843 80.4061 119.073 78.5456C121.916 76.9087 132.404 84.0428 142.438 86.3988Z" fill="#326C92"/>
</g>
<g style="mix-blend-mode:multiply" opacity="0.3">
<path d="M169.611 67.2876C163.428 74.4076 152.19 73.7786 152.19 73.7786C152.19 73.7786 151.791 74.4302 151.14 75.4292C144.63 72.0664 134.006 66.5286 142.306 68.7325C151.587 71.1965 163.222 71.3993 169.611 67.2876Z" fill="#326C92"/>
</g>
<path d="M161.996 43.9216C161.816 44.7136 161.601 45.5201 161.364 46.3328C159.104 53.9449 152.313 60.7179 141.954 59.7267C133.335 58.8999 129.039 54.1404 128.287 49.013C128.128 47.9814 128.121 46.9372 128.251 45.9095C128.335 45.2706 128.451 44.6378 128.609 44.003C129.988 38.5479 134.331 33.5874 140.78 32.9493C147.975 32.2343 150.586 27.2293 157.174 29.2315C157.964 29.4751 158.663 29.7972 159.272 30.1981C163.071 32.7083 163.336 38.115 161.996 43.9216Z" fill="#F99293"/>
<path d="M159.271 30.1984C153.369 28.5804 149.885 31.2825 147.571 32.423C144.853 33.7622 139.953 33.4297 134.936 36.3208C132.166 37.9185 129.999 41.2919 128.609 44.0033C129.987 38.5482 134.331 33.5877 140.78 32.9496C147.975 32.2346 150.585 27.2296 157.174 29.2318C157.964 29.4754 158.663 29.7976 159.271 30.1984Z" fill="white"/>
<path d="M161.994 43.9208C161.815 44.7128 161.6 45.5193 161.363 46.332C159.103 53.9442 152.312 60.7171 141.953 59.7259C133.334 58.8991 129.037 54.1396 128.286 49.0122C135.742 59.7125 155.435 54.0618 161.994 43.9208Z" fill="#F06E76"/>
<path d="M162.881 31.4455C162.308 33.3521 162.491 35.7753 162.491 35.7753C162.491 35.7753 158.37 35.4156 157.731 31.6652C157.731 31.6652 157.604 30.1993 158.838 28.8651C159.344 28.321 160.072 27.7996 161.138 27.4103C164.795 26.0541 166.277 29.4029 166.277 29.4029C166.277 29.4029 163.463 29.5512 162.881 31.4455Z" fill="#94415D"/>
<g style="mix-blend-mode:multiply" opacity="0.3">
<path d="M162.881 31.4458C162.307 33.3524 162.49 35.7756 162.49 35.7756C162.49 35.7756 158.369 35.4159 157.73 31.6655C157.73 31.6655 157.603 30.1996 158.837 28.8654C158.131 31.4337 159.782 32.9133 159.875 32.9856C159.865 32.8223 159.779 31.4722 160.988 29.8319C160.988 29.8319 160.652 32.3773 161.17 33.2868C161.697 34.1984 160.981 28.519 166.277 29.4032C166.277 29.4032 163.463 29.5515 162.881 31.4458Z" fill="#326C92"/>
</g>
<path d="M149.437 32.6666C149.437 32.6666 151.135 33.7471 151.682 34.4043C152.215 35.0698 152.001 35.6613 152.001 35.6613C152.001 35.6613 152.499 35.1048 152.749 35.5203C153 35.9358 152.065 36.5772 151.499 36.5609C150.932 36.5447 150.286 34.2334 149.439 32.6562L149.437 32.6666Z" fill="#2B2A30"/>
<path d="M145.273 34.6751C145.273 34.6751 145.104 34.9853 145.017 35.4196C144.924 35.8849 144.902 36.5362 145.229 37.2142C145.556 37.8922 146.212 38.539 147.331 39.0202C147.597 39.1379 147.914 39.0075 148.021 38.7387C148.139 38.4719 148.008 38.1556 147.739 38.0482C146.79 37.6331 146.376 37.1743 146.169 36.7568C145.973 36.3413 145.979 35.9339 146.041 35.6238C146.07 35.479 146.115 35.3591 146.142 35.2784L146.181 35.1895L146.185 35.1688L146.127 35.1358L146.185 35.1688L146.127 35.1358L146.185 35.1688C146.321 34.9165 146.224 34.5961 145.972 34.4597C145.72 34.3234 145.399 34.4207 145.263 34.6731L145.273 34.6751Z" fill="#2B2A30"/>
<path d="M145.142 40.9384C145.142 40.9384 144.864 40.6036 144.44 40.2502C144.016 39.8969 143.421 39.4878 142.697 39.3434C142.201 39.2444 141.634 39.2819 141.103 39.5738C140.479 39.9008 140.096 40.4696 139.989 41.061C139.849 41.764 140.027 42.4876 140.4 43.0994C140.774 43.7009 141.339 44.2113 142.077 44.3908C142.364 44.4589 142.646 44.2892 142.714 44.0018C142.782 43.7144 142.612 43.4333 142.325 43.3652C141.923 43.2744 141.545 42.9624 141.305 42.549C141.052 42.1438 140.947 41.6497 141.033 41.2692C141.097 40.9487 141.254 40.7005 141.604 40.5122C141.905 40.3466 142.189 40.3279 142.499 40.3897C142.943 40.4784 143.421 40.778 143.771 41.0735C143.947 41.216 144.089 41.3628 144.187 41.4682L144.302 41.588L144.329 41.6149C144.509 41.8443 144.846 41.8793 145.065 41.6972C145.295 41.5172 145.33 41.1802 145.137 40.959L145.142 40.9384Z" fill="#2B2A30"/>
<path d="M141.463 48.3844C139.496 46.9815 138.42 45.3156 137.844 43.9967C137.557 43.3373 137.391 42.7667 137.298 42.3718C137.252 42.1692 137.219 42.0121 137.207 41.9129L137.188 41.7909L137.194 41.7599C137.155 41.4725 136.898 41.2493 136.613 41.2784C136.328 41.3075 136.104 41.564 136.133 41.8493C136.136 41.8927 136.246 42.9575 136.879 44.4169C137.515 45.866 138.707 47.7056 140.851 49.2407C141.087 49.406 141.42 49.3542 141.585 49.1184C141.751 48.8826 141.699 48.5497 141.463 48.3844Z" fill="#2B2A30"/>
<path d="M152.562 46.0953L152.556 46.2876L152.562 46.0953L152.556 46.2876L152.562 46.0953C152.562 46.0953 152.477 46.0892 152.343 46.0624C152.074 46.0087 151.621 45.8539 151.296 45.4881C150.971 45.1223 150.683 44.5166 150.815 43.3173C150.852 43.0237 150.635 42.7654 150.352 42.7304C150.058 42.6933 149.8 42.9105 149.765 43.1938C149.604 44.5916 149.956 45.5756 150.513 46.1812C151.059 46.7846 151.735 47.0055 152.138 47.0859C152.355 47.1293 152.504 47.1374 152.527 47.1312C152.817 47.1352 153.065 46.9159 153.071 46.6161C153.075 46.3266 152.855 46.0786 152.556 46.0726L152.562 46.0953Z" fill="#2B2A30"/>
<path d="M156.326 44.5335C156.326 44.5335 156.232 42.5258 155.92 41.7217C155.615 40.9299 154.991 40.8269 154.991 40.8269C154.991 40.8269 155.721 40.6714 155.483 40.2477C155.245 39.8239 154.221 40.3186 153.961 40.815C153.688 41.3196 155.381 43.0225 156.337 44.5355L156.326 44.5335Z" fill="#2B2A30"/>
</g>
</svg>
