<svg width="295" height="77" viewBox="0 0 295 77" fill="none" xmlns="http://www.w3.org/2000/svg">
<path d="M11.5067 20.5935C7.72888 22.2611 0.955286 28.651 0.571597 32.783C0.246937 36.251 3.16888 39.35 6.45975 40.4715C9.76538 41.5931 13.3514 41.2094 16.8194 40.87C45.4632 38.0809 82.2974 39.5861 110.749 43.9395C115.472 44.6626 122.954 45.4447 126.436 48.7209C134.73 56.5422 125.462 76.5974 132.797 76.5974C139.644 76.5974 136.958 70.0009 136.102 59.9511C135.438 52.0708 137.637 45.5185 143.068 47.009C150.166 48.9717 146.005 60.3644 147.953 65.3523C150.638 72.1997 157.176 69.1597 158.224 66.8133C160.186 62.4156 158.224 57.1473 158.224 54.5943C158.224 40.4125 170.487 42.8622 170.487 53.8416C170.487 64.8211 174.811 65.6032 178.515 65.6032C185.111 65.6032 186.13 57.4867 190.011 53.1333C200.031 41.8882 250.899 49.9605 282.096 43.4968C287.202 42.4343 295.156 39.9255 294.123 35.1294C293.208 27.7065 274.009 30.5104 263.841 28.3558C235.803 22.3939 212.117 -1.58672 183.518 0.154644C159.33 1.63037 138.67 21.5675 114.454 20.9034C97.4531 20.4459 82.445 9.86494 65.8578 6.10183C44.7844 1.32047 18.7821 10.3224 4.17237 26.2455C1.53082 29.1232 1.66364 31.0121 2.1949 34.8785C2.72616 38.7449 8.05354 41.6374 10.6951 38.7745" fill="white"/>
<mask id="mask0_69_35149" style="mask-type:alpha" maskUnits="userSpaceOnUse" x="0" y="0" width="295" height="77">
<path d="M11.5067 20.5935C7.72888 22.2611 0.955286 28.651 0.571597 32.783C0.246937 36.251 3.16888 39.35 6.45975 40.4715C9.76538 41.5931 13.3514 41.2094 16.8194 40.87C45.4632 38.0809 82.2974 39.5861 110.749 43.9395C115.472 44.6626 122.954 45.4447 126.436 48.7209C134.73 56.5422 125.462 76.5974 132.797 76.5974C139.644 76.5974 136.958 70.0009 136.102 59.9511C135.438 52.0708 137.637 45.5185 143.068 47.009C150.166 48.9717 146.005 60.3644 147.953 65.3523C150.638 72.1997 157.176 69.1597 158.224 66.8133C160.186 62.4156 158.224 57.1473 158.224 54.5943C158.224 40.4125 170.487 42.8622 170.487 53.8416C170.487 64.8211 174.811 65.6032 178.515 65.6032C185.111 65.6032 186.13 57.4867 190.011 53.1333C200.031 41.8882 250.899 49.9605 282.096 43.4968C287.202 42.4343 295.156 39.9255 294.123 35.1294C293.208 27.7065 274.009 30.5104 263.841 28.3558C235.803 22.3939 212.117 -1.58672 183.518 0.154644C159.33 1.63037 138.67 21.5675 114.454 20.9034C97.4531 20.4459 82.445 9.86494 65.8578 6.10183C44.7844 1.32047 18.7821 10.3224 4.17237 26.2455C1.53082 29.1232 1.66364 31.0121 2.1949 34.8785C2.72616 38.7449 8.05354 41.6374 10.6951 38.7745" fill="white"/>
</mask>
<g mask="url(#mask0_69_35149)">
<path opacity="0.15" d="M306.106 26.9537C305.619 22.1871 300.837 18.3502 296.469 18.5421C295.894 18.5716 295.348 18.3207 294.89 17.9813C288.781 13.318 281.535 13.3918 274.171 11.2963C270.762 10.3223 267.427 15.1774 270.496 17.6124C273.079 19.6784 280.974 23.5448 284.841 27.6178C285.756 28.577 285.726 30.1118 284.796 31.0415C284.427 31.4104 284.044 31.7794 283.645 32.1188C283.512 32.2368 283.38 32.3401 283.217 32.4287C276.96 36.177 264.785 35.2621 257.982 35.026C247.608 34.6866 239.89 33.6831 227.907 33.3141C223.229 33.1666 205.166 34.2291 202.598 34.9669C185.096 39.9697 185.908 52.6167 181.141 54.4023C178.204 55.5091 177.068 51.9083 175.091 45.9611C173.261 40.4566 169.232 36.7526 161.337 39.9106C158.592 41.0174 156.024 43.5852 152.719 42.4784C149.413 41.3716 148.159 37.8151 144.277 34.7751C139.142 30.7464 122.274 30.0085 112.003 30.0085C101.732 30.0085 87.639 29.8757 76.8957 30.2299C66.6099 30.5545 56.3388 30.9972 46.053 31.3957C37.3315 31.7351 25.6437 34.1258 17.3501 30.7464C12.3031 28.6803 12.4654 24.7401 15.1513 20.3277C19.4456 13.2737 28.7575 9.62869 35.7672 5.96888C48.9454 -0.908009 39.8845 -23.2358 25.5404 -18.2921C4.34892 -10.9872 -19.0856 3.72578 -16.9901 29.5215C-16.0161 41.5487 -8.7703 51.7165 1.82543 57.3095C12.9229 63.1681 25.4666 62.873 37.6266 62.2827C61.7548 61.1168 86.2666 58.7114 110.424 60.2757C112.077 60.379 113.7 60.5266 115.324 60.7184C116.785 60.8955 117.773 62.1941 117.523 63.6403C116.475 69.6466 117.183 75.1953 120.548 80.3161C122.274 82.9281 124.473 84.5662 126.834 86.0419C127.056 86.1747 127.248 86.3518 127.41 86.5584C130.406 90.2625 134.744 92.6532 141.326 93.2287C150.107 93.9813 156.526 85.6877 156.556 77.6007C156.556 76.7005 157.087 75.8889 157.884 75.5052C160.053 74.4427 162.016 72.9079 163.757 70.8862C166.325 73.8819 169.808 75.9774 173.689 76.8481C174.264 76.9809 174.84 77.0695 175.415 77.1432C175.947 77.2023 176.448 77.4384 176.817 77.8073C178.426 79.4159 180.625 80.3603 183.31 80.0209C193.464 78.737 203.572 76.7005 213.548 74.3836C221.561 72.5242 232.201 71.0485 237.086 63.5223C237.824 62.3712 238.37 61.1759 238.754 59.9363C239.093 58.8442 240.096 58.0916 241.233 58.1654C242.709 58.2539 244.199 58.3572 245.69 58.4458C254.928 59.0803 263.693 58.8885 271.913 57.1619C272.061 57.1324 272.194 57.1176 272.341 57.1176C272.99 57.1176 273.655 57.0586 274.348 56.9258C275.647 56.6749 276.945 56.3502 278.215 55.9961C278.333 55.9666 278.451 55.937 278.554 55.937C283.999 55.391 289.268 53.871 294.005 50.6539C301.811 45.3561 307.065 36.5607 306.091 26.9833L306.106 26.9537ZM119.161 56.2469C119.382 55.391 119.367 55.4796 119.146 56.4978C118.983 57.3242 118.806 58.1506 118.6 58.977C118.6 58.977 118.6 58.9918 118.6 59.0066C117.552 58.0621 117.168 57.0586 119.161 56.2617V56.2469Z" fill="#336EC2"/>
</g>
</svg>
