<svg width="383" height="579" viewBox="0 0 383 579" fill="none" xmlns="http://www.w3.org/2000/svg">
<rect x="0.5" y="0.0488281" width="382" height="578.071" rx="191" fill="#FFFDFC"/>
<g clip-path="url(#clip0_69_19718)">
<g style="mix-blend-mode:multiply">
<g style="mix-blend-mode:multiply" opacity="0.3">
<path d="M162.897 430.353C113.179 430.931 112.079 437.08 100.509 441.631C88.9382 446.182 74.2732 444.401 73.0307 452.117C71.7881 459.834 107.735 463.989 175.908 465.769C244.081 467.55 269.074 467.154 294.486 460.427C319.899 453.7 313.908 438.267 281.887 440.246C249.866 442.225 246.977 432.332 226.107 432.727C205.238 433.123 179.833 430.155 162.897 430.353Z" fill="#2B2A30"/>
</g>
<g style="mix-blend-mode:multiply" opacity="0.3">
<path d="M175.979 436.945C152.893 437.08 121.632 439.715 105.146 443.411C88.6611 447.107 90.3705 453.043 115.174 452.378C139.969 451.721 144.456 452.908 164.242 453.035C184.027 453.169 203.678 449.474 218.715 452.378C233.752 455.283 254.86 459.105 271.606 455.678C288.361 452.251 272.263 441.963 244.041 440.507C215.811 439.058 175.979 436.945 175.979 436.945Z" fill="#2B2A30"/>
</g>
</g>
<path d="M189.298 145.344L189.172 154.121C189.172 154.121 186.125 167.116 184.969 172.34C183.822 177.563 185.144 191.698 185.144 191.698L139.653 185.367C139.653 185.367 136.898 171.873 137.801 157.706C138.695 143.54 177.15 118.325 177.15 118.325C177.15 118.325 188.816 135.222 189.298 145.344Z" fill="#DD9A3A"/>
<g style="mix-blend-mode:multiply" opacity="0.3">
<path d="M189.298 145.344L189.172 154.121C189.172 154.121 186.125 167.116 184.969 172.34C183.822 177.563 185.144 191.698 185.144 191.698L139.653 185.367C139.653 185.367 136.898 171.873 137.801 157.706C138.695 143.54 177.15 118.325 177.15 118.325C177.15 118.325 188.816 135.222 189.298 145.344Z" fill="#2B2A30"/>
</g>
<path d="M189.172 154.121C189.172 154.121 187.581 172.435 187.858 177.246C188.135 182.058 190.763 191.207 190.763 191.207L185.144 191.698C185.144 191.698 183.197 177.99 183.846 173.653C184.495 169.316 189.164 154.121 189.164 154.121H189.172Z" fill="#DD9A3A"/>
<path d="M204.557 433.796C204.217 434.302 203.742 434.777 203.164 435.197C201.138 436.661 183.228 435.426 179.509 435.537C175.789 435.648 159.794 437.231 158.773 434.635C158.196 433.155 158.275 429.087 158.457 425.882C158.591 423.484 158.773 421.568 158.773 421.568L157.95 416.282L155.734 401.965L171.167 400.145C171.167 400.145 172.077 406.001 173.067 410.845C173.66 413.725 174.269 416.25 174.728 416.962C175.971 418.877 196.857 428.216 198.099 428.327C199.334 428.438 203.164 429.229 204.518 430.353C204.636 430.456 204.739 430.567 204.834 430.678C205.451 431.509 205.309 432.696 204.557 433.796Z" fill="#F99293"/>
<path d="M204.834 430.677C193.794 428.168 174.451 418.623 174.095 418.133C173.7 417.579 173.066 410.844 173.066 410.844C173.66 413.725 174.269 416.249 174.728 416.961C175.971 418.877 196.857 428.215 198.099 428.326C199.334 428.437 203.164 429.228 204.517 430.352C204.636 430.455 204.739 430.566 204.834 430.677Z" fill="white"/>
<g style="mix-blend-mode:multiply" opacity="0.3">
<path d="M173.067 410.845C168.358 413.092 162.042 414.92 157.95 416.282L155.734 401.965L171.167 400.145C171.167 400.145 172.077 406.001 173.067 410.845Z" fill="#326C92"/>
</g>
<g style="mix-blend-mode:multiply" opacity="0.3">
<path d="M204.557 433.795C204.217 434.302 203.742 434.776 203.164 435.196C201.138 436.66 183.228 435.425 179.508 435.536C175.789 435.647 159.794 437.23 158.773 434.634C158.195 433.154 158.275 429.086 158.457 425.881C161.456 428.849 165.334 431.65 168.365 432.426C174.887 434.112 179.635 430.257 186.172 431.54C190.723 432.434 197.023 433.866 204.557 433.795Z" fill="#326C92"/>
</g>
<path d="M157.761 434.974C157.761 434.974 203.805 434.753 205.23 434.974C206.655 435.196 206.053 439.478 206.053 439.778C206.053 440.079 158.813 441.203 158.283 440.831C157.753 440.459 157.681 435.275 157.761 434.974Z" fill="#94415D"/>
<path d="M193.739 424.797C192.156 426.934 190.937 429.213 190.058 431.129C188.895 433.661 188.333 435.537 188.333 435.537H179.509C180.094 433.218 180.735 431.081 181.4 429.221C183.165 424.275 185.112 421.212 186.679 421.489C187.961 421.719 193.739 424.797 193.739 424.797Z" fill="#94415D"/>
<g style="mix-blend-mode:multiply" opacity="0.3">
<path d="M190.058 431.128C188.895 433.661 188.333 435.536 188.333 435.536H179.509C180.094 433.217 180.735 431.081 181.4 429.221C182.959 430.732 186.608 431.136 190.058 431.128Z" fill="#326C92"/>
</g>
<path d="M127.972 443.673C127.243 444.267 106.928 452.64 100.272 452.577C93.608 452.513 83.185 449.474 82.9238 448.358C82.6626 447.235 82.4806 442.985 83.454 442.423C87.4111 440.112 100.398 436.685 107.719 435.894C115.04 435.102 128.628 438.133 128.961 438.727C129.285 439.32 128.692 443.08 127.972 443.673Z" fill="#94415D"/>
<path d="M128.961 438.727C126.911 441.164 110.165 447.1 102.053 447.496C93.9404 447.892 83.4541 442.423 83.4541 442.423C87.4112 440.112 100.398 436.685 107.719 435.894C115.04 435.102 128.628 438.133 128.961 438.727Z" fill="#94415D"/>
<g style="mix-blend-mode:multiply" opacity="0.3">
<path d="M128.961 438.727C126.911 441.164 110.165 447.1 102.053 447.496C93.9404 447.892 83.4541 442.423 83.4541 442.423C87.4112 440.112 100.398 436.685 107.719 435.894C115.04 435.102 128.628 438.133 128.961 438.727Z" fill="#326C92"/>
</g>
<path d="M126.935 431.257C126.982 434.731 126.397 437.723 124.537 438.269C121.173 439.258 114.383 440.113 111.083 443.081C107.79 446.048 105.02 445.455 105.02 445.455C97.9608 448.684 96.2751 444.268 96.2751 444.268C89.5955 444.268 85.8521 442.297 85.8125 440.152C85.8125 439.685 85.9629 439.226 86.3032 438.775C86.5327 438.451 86.8572 438.142 87.2766 437.833C91.0359 435.063 108.542 424.585 109.436 422.108C109.88 420.881 110.236 415.46 110.489 410.284C110.742 404.958 110.885 399.885 110.885 399.885L127.774 401.863C127.774 401.863 126.879 408.44 126.31 414.384C125.969 417.985 125.748 421.356 125.922 422.899C126.452 425.289 126.903 428.423 126.935 431.241C126.943 431.249 126.935 431.249 126.935 431.257Z" fill="#F99293"/>
<path d="M110.489 423.723C109.801 424.751 91.1467 435.895 86.3032 438.775C86.5327 438.451 86.8572 438.142 87.2767 437.834C91.0359 435.064 108.542 424.585 109.436 422.108C109.88 420.881 110.236 415.46 110.489 410.284C110.489 410.284 111.28 422.535 110.489 423.723Z" fill="white"/>
<g style="mix-blend-mode:multiply" opacity="0.3">
<path d="M127.774 401.863C127.774 401.863 126.88 408.44 126.31 414.384C119.915 413.212 114.043 411.455 110.489 410.284C110.743 404.958 110.885 399.885 110.885 399.885L127.774 401.863Z" fill="#326C92"/>
</g>
<g style="mix-blend-mode:multiply" opacity="0.3">
<path d="M124.537 438.269C121.173 439.258 114.383 440.113 111.083 443.081C107.79 446.048 105.02 445.455 105.02 445.455C97.9608 448.684 96.2751 444.268 96.2751 444.268C89.5955 444.268 85.8521 442.297 85.8125 440.152C88.6379 442.432 96.7737 440.809 96.7737 440.809C96.7737 440.809 97.668 444.315 101.127 444.418C104.585 444.513 106.619 440.904 106.619 440.904C106.619 440.904 110.869 440.754 114.185 438.878C117.501 436.995 119.226 436.156 122.993 435.665C125.162 435.38 126.412 433.663 126.935 431.257C126.982 434.731 126.397 437.723 124.537 438.269Z" fill="#326C92"/>
</g>
<path d="M90.8857 434.28C90.8857 434.28 96.1804 430.473 97.8582 429.532C99.536 428.59 110.371 429.136 114.826 433.394C119.282 437.652 117.794 442.645 117.794 442.645L112.65 444.624C112.65 444.624 111.708 439.678 108.843 437.303C105.978 434.929 98.2064 431.368 90.8857 434.288V434.28Z" fill="#94415D"/>
<path d="M216.041 251.538C214.877 254.918 212.432 258.044 207.77 259.271C196.492 262.238 179.374 250.264 179.374 250.264L173.644 173.702C176.786 175.918 179.382 178.823 181.36 182.06C181.843 182.843 182.294 183.65 182.698 184.465V184.481C184.059 187.188 185.009 190.053 185.515 192.886C186.797 200.112 197.086 227.915 197.086 227.915C197.086 227.915 214.402 238.789 215.882 240.474C216.08 240.696 216.27 241.131 216.444 241.717C217.046 243.79 217.323 247.811 216.041 251.538Z" fill="#F4B753"/>
<g style="mix-blend-mode:multiply" opacity="0.1">
<path d="M216.041 251.538C214.877 254.918 212.432 258.044 207.77 259.271C196.492 262.238 179.374 250.264 179.374 250.264L173.644 173.702C176.786 175.918 179.382 178.823 181.36 182.06C182.484 193.883 182.413 216.803 183.371 221.282C184.558 226.822 186.006 224.187 188.119 222.208C190.224 220.23 188.776 228.405 188.38 236.715C187.985 245.025 193.263 238.433 194.712 237.507C195.582 236.953 204.597 244.629 216.041 251.538Z" fill="#2B2A30"/>
</g>
<path d="M216.444 241.717C207.47 236.533 195.931 230.028 195.638 229.062C195.171 227.551 185.943 203.412 185.08 198.862C184.519 195.878 183.45 188.969 182.698 184.481C184.059 187.188 185.009 190.053 185.516 192.886C186.798 200.112 197.086 227.915 197.086 227.915C197.086 227.915 214.403 238.789 215.883 240.475C216.08 240.696 216.27 241.131 216.444 241.717Z" fill="white"/>
<path d="M204.866 402.914C204.866 402.914 202.531 403.619 198.859 404.624C189.647 407.125 171.982 411.47 161.607 411.09C147.092 410.567 143.665 410.567 143.665 410.567L135.221 413.464L93.8057 402.123C93.8057 402.123 107.521 289.741 110.164 274.965C110.433 273.477 110.782 271.38 111.201 268.808C112.309 261.954 113.876 251.713 115.546 240.499C119.495 214.049 124.006 182.163 124.339 176.504C124.56 172.761 127.694 170.308 131.279 168.725C136.281 166.509 142.146 165.979 142.146 165.979L147.836 167.047L167.273 170.695C167.273 170.695 169.007 171.194 170.961 172.096C171.246 172.231 171.531 172.365 171.816 172.524C173.098 173.173 174.388 173.996 175.275 174.961C177.752 177.628 178.883 198.593 180.332 211.39C181.788 224.188 189.037 312.953 191.942 326.938C192.551 329.866 193.469 334.9 194.546 341.025C198.598 364.158 204.866 402.914 204.866 402.914Z" fill="#F4C95E"/>
<g style="mix-blend-mode:multiply" opacity="0.1">
<path d="M143.665 222.345C141.861 225.059 157.776 242.921 163.585 244.37C169.394 245.818 177.174 228.676 177.435 225.906C177.696 223.136 167.677 233.029 164.242 234.216C160.815 235.403 143.926 221.949 143.665 222.345Z" fill="#2B2A30"/>
</g>
<path d="M204.866 402.915C204.866 402.915 202.531 403.619 198.859 404.624C194.934 373.347 186.394 303.33 184.289 285.784C181.915 265.999 175.995 179.781 175.077 177.011C174.475 175.223 172.552 174.067 170.961 172.097C172.505 172.817 174.19 173.782 175.275 174.962C177.752 177.629 178.884 198.593 180.332 211.391C181.788 224.188 189.037 312.954 191.942 326.938C192.551 329.867 193.469 334.9 194.546 341.026C198.598 364.159 204.866 402.915 204.866 402.915Z" fill="white"/>
<g style="mix-blend-mode:multiply" opacity="0.1">
<path d="M204.866 402.914C204.866 402.914 194.704 405.993 183.41 408.375C179.596 409.182 175.654 409.91 171.927 410.409C168.136 410.923 164.575 411.201 161.607 411.09C147.092 410.567 143.665 410.567 143.665 410.567L135.221 413.464L131.248 412.372L124.434 410.512L93.8057 402.123C93.8057 402.123 96.6152 379.116 99.9313 352.548C103.952 320.401 108.716 283.054 110.164 274.965C112.8 260.197 123.816 185.471 124.339 176.504C124.869 167.53 142.146 165.979 142.146 165.979L147.836 167.047C149.189 174.953 150.036 191.89 149.205 193.385C148.216 195.166 138.917 197.145 138.917 197.145C138.917 197.145 130.805 223.657 144.655 240.079C158.504 256.501 175.124 259.667 179.675 262.041C184.226 264.416 164.836 273.913 144.852 266.196C124.869 258.48 167.21 278.859 173.541 283.212C179.873 287.565 159.889 286.971 145.644 288.752C131.398 290.532 131.794 326.344 142.082 344.349C152.371 362.354 176.114 320.013 179.081 313.682C182.049 307.35 180.071 332.082 172.948 356.616C168.302 372.627 183.197 355.445 194.546 341.025C195.733 347.816 197.118 355.959 198.471 364.071C201.74 383.58 204.866 402.914 204.866 402.914Z" fill="#2B2A30"/>
</g>
<g style="mix-blend-mode:multiply" opacity="0.3">
<path d="M99.9313 352.548C103.841 371.534 117.944 399.052 124.434 410.512L93.8057 402.122C93.8057 402.122 96.6152 379.116 99.9313 352.548Z" fill="#2B2A30"/>
</g>
<g style="mix-blend-mode:multiply" opacity="0.3">
<path d="M171.626 409.776C171.721 409.998 171.824 410.203 171.927 410.409C168.136 410.924 164.575 411.201 161.607 411.09C147.092 410.567 143.665 410.567 143.665 410.567L135.221 413.464L131.248 412.372C139.447 399.97 156.352 356.751 160.016 352.002C164.504 346.201 162.66 389.991 171.626 409.776Z" fill="#2B2A30"/>
</g>
<g style="mix-blend-mode:multiply" opacity="0.3">
<path d="M204.866 402.914C204.866 402.914 194.704 405.993 183.411 408.375C188.808 398.918 194.229 380.58 198.471 364.071C201.74 383.58 204.866 402.914 204.866 402.914Z" fill="#326C92"/>
</g>
<g style="mix-blend-mode:multiply" opacity="0.3">
<path d="M171.816 172.524C171.239 176.386 168.105 177.557 168.105 177.557C168.105 177.557 165.762 181.451 160.088 181.451C154.413 181.451 152.965 177.889 152.965 177.889C152.965 177.889 147.164 178.807 145.842 174.526C145.842 174.526 137.326 173.75 131.28 168.725C136.282 166.509 142.146 165.979 142.146 165.979L147.836 167.047L167.274 170.695C167.274 170.695 169.007 171.194 170.962 172.096C171.247 172.231 171.531 172.365 171.816 172.524Z" fill="#2B2A30"/>
</g>
<g style="mix-blend-mode:multiply" opacity="0.3">
<path d="M163.055 276.484C159.692 276.484 160.285 281.233 155.339 286.575C151.263 290.975 128.019 280.085 111.201 268.807C112.309 261.953 113.876 251.712 115.546 240.498C130.021 248.42 166.197 267.462 179.675 267.778C188.452 267.984 166.419 276.484 163.055 276.484Z" fill="#326C92"/>
</g>
<path d="M237.305 434.634C236.292 437.222 220.29 435.647 216.57 435.537C212.858 435.426 194.94 436.661 192.914 435.196C191.403 434.104 190.643 432.577 190.904 431.405C190.983 431.081 191.134 430.788 191.371 430.535C191.427 430.472 191.49 430.408 191.561 430.353C192.914 429.229 196.745 428.438 197.987 428.327C199.222 428.208 220.116 418.877 221.35 416.962C221.865 416.171 222.094 412.554 222.181 408.589C222.3 403.009 222.15 396.741 222.15 396.741L237.582 398.561L237.305 421.568C237.305 421.568 238.318 432.039 237.305 434.634Z" fill="#F99293"/>
<path d="M222.181 418.134C221.485 419.076 201.897 427.798 199.127 429.222C197.615 430.006 194.173 430.37 191.371 430.536C191.426 430.473 191.49 430.409 191.561 430.354C192.914 429.23 196.745 428.439 197.987 428.328C199.222 428.209 220.116 418.878 221.35 416.963C221.865 416.172 222.094 412.555 222.181 408.59C222.181 408.59 222.878 417.185 222.181 418.134Z" fill="white"/>
<g style="mix-blend-mode:multiply" opacity="0.3">
<path d="M237.305 434.634C236.292 437.222 220.29 435.647 216.57 435.537C212.858 435.426 194.94 436.661 192.914 435.196C191.403 434.104 190.643 432.577 190.904 431.405C195.819 434.745 213.578 433.218 217.361 432.197C221.421 431.105 222.806 427.939 224.294 427.543C225.774 427.148 231.021 428.042 231.021 426.562C231.021 425.082 230.523 423.982 230.523 420.025C230.523 416.068 231.417 409.246 231.417 409.246C231.417 409.246 226.115 408.945 222.181 408.589C222.3 403.009 222.15 396.741 222.15 396.741L237.582 398.561L237.305 421.568C237.305 421.568 238.318 432.039 237.305 434.634Z" fill="#326C92"/>
</g>
<path d="M238.319 435.766C238.319 435.766 192.274 435.545 190.849 435.766C189.425 435.988 190.026 440.27 190.026 440.57C190.026 440.871 237.266 441.995 237.796 441.623C238.319 441.251 238.398 436.067 238.319 435.766Z" fill="#94415D"/>
<path d="M216.776 435.933H207.698C207.698 435.933 207.176 434.184 206.092 431.77C205.19 429.728 203.876 427.219 202.143 424.885C202.143 424.885 208.086 421.719 209.4 421.49C211.228 421.165 213.579 425.296 215.581 431.691C216 433.013 216.396 434.437 216.776 435.933Z" fill="#94415D"/>
<g style="mix-blend-mode:multiply" opacity="0.3">
<path d="M216.776 435.932H207.698C207.698 435.932 207.176 434.183 206.092 431.77C208.703 432.078 212.431 431.928 215.581 431.69C216 433.012 216.396 434.437 216.776 435.932Z" fill="#326C92"/>
</g>
<path d="M295.784 443.514C295.261 444.226 277.027 458.765 270.601 459.485C264.166 460.205 253.229 458.242 252.651 457.103C252.065 455.955 250.633 451.515 251.401 450.811C254.527 447.922 267.166 439.43 273.98 437.737C280.794 436.043 294.771 437.626 295.269 438.204C295.76 438.789 296.298 442.802 295.784 443.514Z" fill="#94415D"/>
<path d="M295.269 438.212C294.019 441.013 278.507 452.576 270.814 453.945C263.122 455.314 251.409 450.811 251.409 450.811C254.535 447.922 267.174 439.43 273.988 437.737C280.802 436.043 294.779 437.626 295.277 438.204L295.269 438.212Z" fill="#94415D"/>
<g style="mix-blend-mode:multiply" opacity="0.3">
<path d="M295.269 438.212C294.019 441.013 278.507 452.576 270.814 453.945C263.122 455.314 251.409 450.811 251.409 450.811C254.535 447.922 267.174 439.43 273.988 437.737C280.802 436.043 294.779 437.626 295.277 438.204L295.269 438.212Z" fill="#326C92"/>
</g>
<path d="M291.866 434.066C292.159 435.822 292.373 437.492 292.317 438.284C292.167 440.357 285.543 442.882 284.356 444.069C283.168 445.256 279.109 448.272 277.233 449.514C275.349 450.749 273.964 450.749 273.964 450.749L269.081 451.596C266.992 451.952 264.847 451.651 262.932 450.733C261.357 449.973 257.242 450.978 256.379 450.139C255.896 449.672 255.754 448.984 255.825 448.2C255.857 447.797 255.944 447.377 256.078 446.95C256.64 445.098 257.954 443.104 258.777 442.336C260.162 441.054 276.734 426.262 276.932 425.716C277.027 425.455 276.623 418.918 276.18 412.159C275.705 404.799 275.167 397.177 275.167 397.177L292.974 396.979L291.977 410.806L290.734 428.106C290.734 428.106 291.399 431.208 291.866 434.066Z" fill="#F99293"/>
<path d="M277.676 427.282C277.027 428.675 260.51 442.359 256.078 446.941C256.64 445.097 257.954 443.103 258.777 442.335C260.162 441.053 276.734 426.261 276.932 425.715C277.027 425.454 276.623 418.917 276.18 412.158C276.18 412.158 278.372 425.802 277.676 427.282Z" fill="white"/>
<g style="mix-blend-mode:multiply" opacity="0.3">
<path d="M292.974 396.979L291.977 410.806C287.26 412.396 281.301 412.792 276.181 412.159C275.706 404.799 275.167 397.177 275.167 397.177L292.974 396.979Z" fill="#326C92"/>
</g>
<g style="mix-blend-mode:multiply" opacity="0.3">
<path d="M292.317 438.284C292.167 440.357 285.543 442.882 284.356 444.069C283.168 445.256 279.109 448.271 277.233 449.514C275.349 450.749 273.964 450.749 273.964 450.749L269.081 451.595C266.992 451.952 264.847 451.651 262.932 450.733C261.357 449.973 257.242 450.978 256.379 450.139C255.896 449.672 255.754 448.984 255.825 448.2C258.049 449.886 261.729 447.472 262.378 446.776C263.169 445.913 266.2 449.079 271.281 448.359C276.362 447.63 279.591 442.352 285.392 439.851C289.025 438.276 291.011 436.297 291.866 434.065C292.159 435.822 292.373 437.492 292.317 438.284Z" fill="#326C92"/>
</g>
<path d="M283.152 446.862L282.574 447.202L278.681 449.505C278.681 449.505 277.201 445.247 273.616 443.38C270.038 441.504 264 438.987 257.668 442.842C257.827 442.604 260.407 438.782 261.736 437.674C262.156 437.325 262.631 437.033 263.145 436.787C267.055 434.935 273.434 436.043 277.319 438.386C283.057 441.844 283.152 446.862 283.152 446.862Z" fill="#94415D"/>
<path d="M290.473 400.144C290.473 400.144 273.6 402.985 254.827 402.961C252.865 402.961 250.878 402.922 248.892 402.85C241.508 402.581 234.061 401.79 227.452 400.144L232.383 305.775L233.245 289.345L235.525 245.745L237.448 208.905L239.031 178.656L256.26 175.38L283.437 182.265L284.735 182.598L286.302 242.16L290.473 400.144Z" fill="#9AC1C4"/>
<g style="mix-blend-mode:multiply" opacity="0.3">
<path d="M283.437 182.265L271.606 185.668C250.577 184.434 242.315 198.735 237.448 208.905L239.031 178.656L256.26 175.38L283.437 182.265Z" fill="#326C92"/>
</g>
<g style="mix-blend-mode:multiply" opacity="0.3">
<path d="M237.052 319.419C237.195 340.329 243.051 388.329 248.892 402.851C241.508 402.582 234.061 401.791 227.452 400.145L232.383 305.775C235.2 308.68 237.013 313.033 237.052 319.419Z" fill="#326C92"/>
</g>
<g style="mix-blend-mode:multiply" opacity="0.3">
<path d="M255.516 400.278C262.378 369.413 259.806 292.313 259.806 292.313C259.806 292.313 246.352 298.248 245.758 297.061C245.164 295.874 242.79 290.136 241.999 289.345C241.207 288.553 233.887 289.345 233.887 289.345H233.246L235.525 245.745C249.391 244.962 267.023 243.806 286.303 242.16L290.473 400.144C290.473 400.144 273.6 402.985 254.828 402.961C255.057 402.186 255.295 401.291 255.516 400.278Z" fill="#326C92"/>
</g>
<path d="M242.386 178.768C242.386 178.768 242.371 178.958 242.339 179.314C242.315 179.575 242.291 179.915 242.252 180.343C241.334 191.027 235.905 252.686 231.75 257.704C227.207 263.196 203.654 273.477 203.654 273.477L203.116 272.709L191.007 255.448L205.198 247.178C205.198 247.178 218.351 200.927 221.129 193.346C221.176 193.211 221.216 193.092 221.263 192.982C223.709 186.674 236.846 178.593 242.386 178.775V178.768Z" fill="#C9E8EA"/>
<g style="mix-blend-mode:multiply" opacity="0.3">
<path d="M242.252 180.334C241.333 191.018 235.904 252.678 231.749 257.695C227.207 263.188 203.654 273.468 203.654 273.468L203.116 272.701C211.916 254.435 219.823 234.285 218.984 230.668C217.805 225.587 216.435 221.551 216.586 218.789C216.736 216.027 227.191 191.089 234.353 183.151C234.353 183.151 237.535 181.964 242.252 180.334Z" fill="#326C92"/>
</g>
<path d="M242.386 178.768C242.386 178.768 242.371 178.958 242.339 179.314C232.557 183.58 224.841 189.689 221.129 193.338C221.176 193.203 221.216 193.084 221.263 192.974C223.709 186.666 236.847 178.586 242.386 178.768Z" fill="white"/>
<path d="M249.58 173.798C249.58 173.798 247.602 176.964 246.81 183.16C246.715 183.912 246.557 184.886 246.343 186.025C244.879 193.916 241.025 210.092 239.656 220.128C239.585 220.634 239.521 221.117 239.466 221.592C238.413 230.582 238.856 267.581 238.12 293.872C237.938 300.386 237.677 306.242 237.313 310.848C235.896 328.671 234.322 374.787 233.665 395.253C233.467 401.442 233.356 405.289 233.356 405.289L214.552 403.825L211.655 403.603L206.187 403.176C206.187 403.176 209.613 367.562 210.405 336.435C210.579 329.376 211.41 320.25 212.573 310.358C213.23 304.786 213.99 298.969 214.813 293.144C218.936 263.688 224.429 233.891 224.255 233.55C224.017 233.067 220.582 220.69 221.904 212.118C222.031 211.311 222.197 210.536 222.411 209.808C224.239 203.666 229.692 189.151 235.311 180.731C237.432 177.573 239.561 175.278 241.539 174.589L249.58 173.798Z" fill="#C9E8EA"/>
<g style="mix-blend-mode:multiply" opacity="0.3">
<path d="M249.58 173.798C249.58 173.798 247.601 176.964 246.81 183.16C246.715 183.912 246.557 184.886 246.343 186.025C242.568 185.226 238.769 183.548 235.311 180.731C237.432 177.573 239.56 175.278 241.539 174.589L249.58 173.798Z" fill="#326C92"/>
</g>
<path d="M212.573 310.357C211.671 335.153 211.212 381.649 211.655 403.603L206.187 403.175C206.187 403.175 209.613 367.561 210.405 336.435C210.579 329.375 211.41 320.25 212.573 310.357Z" fill="white"/>
<g style="mix-blend-mode:multiply" opacity="0.3">
<path d="M233.665 395.253C233.467 401.442 233.356 405.289 233.356 405.289L214.552 403.824C217.599 379.52 222.418 325.624 223.598 317.971C224.943 309.21 225.529 367.641 233.665 395.253Z" fill="#326C92"/>
</g>
<g style="mix-blend-mode:multiply" opacity="0.3">
<path d="M239.656 220.128C239.584 220.635 239.521 221.118 239.466 221.592C238.413 230.583 238.856 267.582 238.12 293.873C230.38 293.549 221.516 293.232 214.813 293.145C218.936 263.688 224.429 233.891 224.255 233.551C224.017 233.068 220.582 220.69 221.904 212.119C225.046 218.53 233.016 220.065 239.656 220.128Z" fill="#326C92"/>
</g>
<path d="M309.602 399.487C308.589 400.01 307.52 400.5 306.404 400.943C305.312 401.387 304.18 401.79 303.017 402.17C294.106 405.051 283.421 406.072 276.259 406.436C271.416 406.673 268.179 406.61 268.179 406.61C268.179 406.61 263.96 355.429 263.169 326.407C262.955 318.501 262.401 308.521 261.736 297.892C261.436 293.263 261.119 288.506 260.795 283.742C260.106 273.564 259.378 263.363 258.792 254.301C258.602 251.325 258.428 248.468 258.27 245.785C257.771 237.04 257.486 230.028 257.629 226.166C258.159 211.92 266.865 173.402 266.865 173.402C266.865 173.402 276.093 172.745 280.319 174.589C281.197 174.969 282.321 175.562 283.556 176.259C288.043 178.807 293.987 182.772 294.525 183.136C294.541 183.144 294.549 183.152 294.565 183.16L294.485 184.996L294.216 191.391L291.13 263.885C291.13 263.885 291.367 265.088 291.771 267.185C292.182 269.346 292.776 272.456 293.465 276.168C295.601 287.77 298.648 305.284 300.105 318.232C301.854 333.815 309.602 399.487 309.602 399.487Z" fill="#C9E8EA"/>
<g style="mix-blend-mode:multiply" opacity="0.3">
<path d="M276.259 406.435C279.013 381.885 275.705 328.702 277.675 330.894C280.05 333.529 283.746 400.278 291.13 396.843C298.521 393.416 290.077 311.639 293.504 326.937C296.147 338.713 300.041 384.576 303.017 402.169C294.105 405.05 283.421 406.071 276.259 406.435Z" fill="#326C92"/>
</g>
<path d="M309.601 399.487C308.588 400.01 307.52 400.5 306.404 400.943C305.098 383.651 299.432 311.877 293.464 276.168C295.601 287.77 298.648 305.284 300.104 318.232C301.853 333.815 309.601 399.487 309.601 399.487Z" fill="white"/>
<g style="mix-blend-mode:multiply" opacity="0.3">
<path d="M292.364 270.28C292.681 271.981 293.053 273.968 293.465 276.168C281.68 282.246 270.149 290.912 261.736 297.892C261.539 294.845 261.333 291.751 261.127 288.625C261.016 287.002 260.905 285.372 260.795 283.742C260.336 276.92 259.853 270.082 259.41 263.584C259.188 260.395 258.982 257.284 258.792 254.301C258.602 251.325 258.428 248.468 258.27 245.785C265.155 242.801 271.637 238.092 272.801 230.78C275.064 216.502 281.031 199.883 294.216 191.391L291.7 250.486L291.13 263.885C291.13 263.885 291.367 265.088 291.771 267.185C291.937 268.071 292.135 269.108 292.364 270.28Z" fill="#326C92"/>
</g>
<g style="mix-blend-mode:multiply" opacity="0.3">
<path d="M292.364 270.279C285.558 275.312 272.357 284.477 261.127 288.624C261.016 287.002 260.905 285.371 260.795 283.741C260.336 276.919 259.853 270.081 259.41 263.583L291.7 250.485L291.13 263.884C291.13 263.884 291.367 265.087 291.771 267.184C291.937 268.071 292.135 269.108 292.364 270.279Z" fill="#326C92"/>
</g>
<path d="M294.564 183.16L294.485 184.996C294.208 184.695 293.923 184.426 293.638 184.181C293.14 183.753 292.562 183.279 291.945 182.78C288.415 179.923 283.548 176.267 283.548 176.267H283.556C288.043 178.807 293.987 182.772 294.525 183.136C294.541 183.144 294.549 183.152 294.564 183.16Z" fill="white"/>
<path d="M238.057 199.298C238.389 201.324 238.635 202.685 238.635 202.685C238.635 202.685 226.273 189.231 224.088 179.932C221.92 170.633 231.512 146.985 231.512 146.985C231.512 146.985 232.074 145.561 232.889 143.574C234.464 139.72 236.996 133.784 238.239 132.154C240.122 129.677 241.998 141.651 241.998 141.651C241.998 141.651 236.062 178.642 236.165 184.087C236.229 187.783 237.345 195.024 238.057 199.298Z" fill="#9AC1C4"/>
<g style="mix-blend-mode:multiply" opacity="0.3">
<path d="M236.165 184.087C236.228 187.783 237.344 195.024 238.056 199.298C234.368 193.465 232.065 184.293 231.812 177.455C231.511 169.643 234.677 165.188 234.677 158.366C234.677 152.992 232.77 149.945 232.888 143.574C234.463 139.72 236.996 133.784 238.238 132.154C240.122 129.677 241.998 141.651 241.998 141.651C241.998 141.651 236.062 178.642 236.165 184.087Z" fill="#326C92"/>
</g>
<path d="M255.39 126.873C252.818 124.594 241.801 124.729 238.77 129.873C235.739 135.017 234.085 145.108 235.937 151.7C237.781 158.293 238.05 160.667 235.477 165.748C232.905 170.829 233.895 179.732 240.487 179.93C247.08 180.128 269.77 180.658 273.529 178.284C277.288 175.91 277.423 148.74 272.674 139.243C267.926 129.746 255.398 126.881 255.398 126.881L255.39 126.873Z" fill="#94415D"/>
<g style="mix-blend-mode:multiply" opacity="0.3">
<path d="M273.521 178.284C271.368 179.645 262.995 180.048 255.002 180.112C249.05 180.159 243.297 180.017 240.479 179.93C234.354 179.748 233.064 172.047 234.979 166.887C235.121 166.491 235.287 166.111 235.469 165.755C238.042 160.674 237.78 158.3 235.929 151.708C234.085 145.107 235.731 135.016 238.77 129.872C241.801 124.728 252.817 124.601 255.39 126.873C255.39 126.873 267.918 129.746 272.666 139.243C277.415 148.74 277.28 175.909 273.521 178.284Z" fill="#326C92"/>
</g>
<g style="mix-blend-mode:multiply" opacity="0.3">
<path d="M256.11 174.627C255.706 176.59 255.342 178.426 255.002 180.112C249.05 180.159 243.297 180.017 240.479 179.93C234.354 179.748 233.064 172.047 234.979 166.887C236.53 173.44 240.297 174.991 242.521 175.973C245.362 177.231 238.96 171.755 238.501 168.985C238.042 166.215 241.698 170.631 243.115 171.161C244.998 171.857 237.219 168.296 238.596 155.823C239.989 143.366 236.522 141.973 241.967 136.536C247.404 131.099 259.378 158.696 256.11 174.627Z" fill="#326C92"/>
</g>
<path d="M264.435 180.129C264.435 180.129 259.315 182.606 254.962 182.606C250.609 182.606 248.829 180.429 248.829 180.429V169.349L262.678 167.466L262.797 168.336L264.435 180.129Z" fill="#FF8B61"/>
<path d="M262.797 168.336C260.724 172.27 256.672 176.915 248.829 178.427V169.349L262.678 167.466L262.797 168.336Z" fill="#0C1A3B"/>
<path d="M267.221 164.497C265.844 167.37 262.038 169.341 258.373 170.559C255.461 171.533 252.643 172.024 251.203 172.119C250.23 172.174 249.177 171.96 248.116 171.533C245.624 170.528 243.131 168.328 241.801 165.684C239.917 161.925 239.917 152.919 239.917 145.701C239.917 139.955 239.664 132.824 245.101 130.157C246.407 129.516 248.037 129.129 250.087 129.089C250.222 129.081 250.356 129.081 250.499 129.081C257.621 129.081 266.026 129.279 267.316 133.925C268.606 138.578 269.691 159.353 267.213 164.497H267.221Z" fill="#FF8B61"/>
<g style="mix-blend-mode:multiply" opacity="0.3">
<path d="M267.222 164.497C265.845 167.37 262.038 169.341 258.373 170.559C262.37 160.595 256.988 156.979 258.951 150.98C261.056 144.514 261.389 142.472 255.192 139.037C251.828 137.177 250.483 133.323 250.095 129.089C250.23 129.081 250.364 129.081 250.507 129.081C257.63 129.081 266.034 129.279 267.324 133.925C268.614 138.578 269.699 159.353 267.222 164.497Z" fill="#326C92"/>
</g>
<path d="M269.501 178.417C259.101 178.417 258.239 173.764 260.059 169.831C260.201 169.522 260.36 169.213 260.534 168.92C262.908 164.829 264.752 160.017 262.774 156.321C260.795 152.625 261.254 149.396 263.233 145.439C265.211 141.482 264.752 139.108 257.234 137.723C252.446 136.836 251.163 133.868 250.863 131.826C250.831 131.652 250.815 131.478 250.799 131.312C250.736 130.426 250.839 129.808 250.839 129.808C250.839 129.808 250.697 129.049 251.353 128.154C252.271 126.896 254.757 125.376 261.389 125.321C277.352 125.186 278.468 145.898 279.591 159.352C280.715 172.806 280.715 178.417 269.501 178.417Z" fill="#94415D"/>
<path d="M250.997 131.296C250.958 131.47 250.91 131.645 250.863 131.827C249.889 135.166 247.088 139.377 239.118 139.29H237.765C237.765 139.29 237.765 139.226 237.78 139.116C237.907 137.683 239.221 127.846 251.345 127.846C251.345 127.846 251.353 127.957 251.353 128.154C251.369 128.693 251.345 129.88 250.997 131.296Z" fill="#94415D"/>
<g style="mix-blend-mode:multiply" opacity="0.3">
<path d="M269.501 178.418C259.102 178.418 258.239 173.765 260.059 169.831C260.067 169.895 260.067 169.966 260.067 170.037C260.004 175.379 265.805 176.764 264.088 174.659C262.378 172.546 262.18 172.412 265.409 166.61C268.638 160.809 268.179 159.685 266.335 155.396C264.483 151.114 267.451 148.075 267.451 145.107C267.451 142.14 264.879 130.419 250.998 131.297C250.934 131.297 250.871 131.305 250.8 131.313C250.705 131.313 250.61 131.321 250.507 131.329C244.073 131.859 240.147 135.389 237.781 139.116C237.907 137.684 239.221 127.847 251.346 127.847C251.346 127.847 251.354 127.957 251.354 128.155C252.272 126.897 254.757 125.377 261.389 125.322C277.352 125.187 278.468 145.899 279.592 159.353C280.715 172.807 280.715 178.418 269.501 178.418Z" fill="#326C92"/>
</g>
<path d="M254.891 153.498C254.891 154.495 255.698 155.302 256.695 155.302C257.692 155.302 258.5 154.495 258.5 153.498C258.5 152.501 257.692 151.693 256.695 151.693C255.698 151.693 254.891 152.501 254.891 153.498Z" fill="#2B2A30"/>
<path d="M257.637 153.094C257.605 153.308 257.399 153.458 257.186 153.426C256.972 153.395 256.822 153.189 256.853 152.975C256.885 152.762 257.091 152.611 257.304 152.643C257.518 152.675 257.669 152.88 257.637 153.094Z" fill="white"/>
<path d="M243.518 153.498C243.518 154.495 244.325 155.302 245.323 155.302C246.32 155.302 247.127 154.495 247.127 153.498C247.127 152.501 246.32 151.693 245.323 151.693C244.325 151.693 243.518 152.501 243.518 153.498Z" fill="#2B2A30"/>
<path d="M246.391 153.062C246.36 153.275 246.154 153.426 245.94 153.394C245.726 153.363 245.576 153.157 245.608 152.943C245.639 152.729 245.845 152.579 246.059 152.611C246.273 152.642 246.423 152.848 246.391 153.062Z" fill="white"/>
<path d="M260.075 149.414C260.075 149.414 256.679 147.863 255.263 147.863C253.846 147.863 254.305 145.821 254.93 145.457C255.556 145.093 255.722 146.383 255.722 146.383C255.722 146.383 258.128 144.009 260.075 149.414Z" fill="#94415D"/>
<path d="M240.882 149.414C240.882 149.414 244.278 147.863 245.694 147.863C247.111 147.863 246.652 145.821 246.027 145.457C245.401 145.093 245.235 146.383 245.235 146.383C245.235 146.383 242.829 144.009 240.882 149.414Z" fill="#94415D"/>
<path d="M249.818 164.736C249.818 164.736 252.92 164.767 255.722 163.643C258.524 162.52 254.598 169.247 249.818 164.736Z" fill="white"/>
<path d="M249.121 155.792C249.121 155.792 247.871 158.728 248.361 160.208C248.852 161.688 250.854 161.15 251.377 160.287C251.377 160.287 249.857 160.58 249.319 159.955C248.86 159.425 248.891 157.05 249.121 155.784V155.792Z" fill="#2B2A30"/>
<path d="M287.26 151.693C285.717 158.784 281.57 166.571 283.374 170.228C283.501 170.481 283.651 170.719 283.841 170.932C285.345 172.634 285.788 174.035 285.804 175.071C285.82 176.409 285.124 177.169 285.036 177.256C285.036 177.256 275.935 174.889 270.601 183.199C265.251 191.509 257.637 226.166 257.637 226.166C257.637 226.166 256.371 196.622 259.347 187.315C261.832 179.511 270.759 160.588 271.503 150.68C271.503 150.672 271.503 150.672 271.503 150.664C271.638 148.788 271.59 147.221 271.289 146.097C269.414 139.07 260.407 127.697 248.045 130.269C235.675 132.841 231.521 146.984 231.521 146.984C233.61 132.453 239.039 124.602 248.766 121.5C253.348 120.044 258.872 119.632 265.457 120.075C286.034 121.468 287.316 137.882 287.806 146.398C287.901 148.06 287.68 149.857 287.268 151.693H287.26Z" fill="#C9E8EA"/>
<g style="mix-blend-mode:multiply" opacity="0.3">
<path d="M285.804 175.071C285.82 176.409 285.123 177.169 285.036 177.256C285.036 177.256 275.935 174.889 270.601 183.199C265.251 191.509 257.637 226.165 257.637 226.165C257.637 226.165 257.629 226.015 257.622 225.73V225.683C257.922 216.471 259.758 193.63 260.471 190.686C261.357 187.03 264.23 176.702 267.696 167.996C270.941 159.836 271.448 151.756 271.495 150.775C271.503 150.711 271.503 150.68 271.503 150.68C272.239 153.901 272.579 157.486 273.371 161.435C274.851 168.851 282.266 160.438 286.524 152.824C286.817 152.31 287.062 151.938 287.268 151.693C285.725 158.784 281.578 166.571 283.382 170.228C280.969 170.924 275.959 171.146 273.07 174.288C270.356 177.248 279.188 174.85 285.812 175.071H285.804Z" fill="#326C92"/>
</g>
<path d="M283.841 170.932C287.276 174.842 285.186 177.097 285.036 177.256C286.753 173.354 281.111 172.08 281.039 168.653C280.984 165.875 283.841 160.248 285.131 153.022C286.421 145.797 287.213 125.22 269.2 121.959C261.428 120.55 254.321 120.788 248.757 121.5C253.34 120.044 258.864 119.632 265.448 120.075C286.025 121.468 287.307 137.882 287.798 146.398C288.297 154.898 280.28 166.872 283.841 170.932Z" fill="white"/>
<path d="M272.208 237.175C269.105 244.235 259.806 245.556 259.806 245.556C259.806 245.556 256.775 253.732 254.923 255.845C253.079 257.95 249.185 257.823 248.924 257.95C248.663 258.084 226.566 274.768 211.727 277.87C196.888 280.972 180.134 279.651 181.914 261.385C182.009 260.419 182.183 259.469 182.421 258.543C182.547 258.037 182.698 257.546 182.864 257.056C188.151 241.52 212.012 232.996 212.321 232.759C212.653 232.498 217.006 227.947 219.111 227.353C221.224 226.76 228.284 225.375 228.284 225.375C228.284 225.375 230.326 218.774 239.364 215.609C239.364 215.609 250.111 208.684 257.297 208.423C263.906 208.185 269.05 209.887 271.068 215.728C271.258 216.25 271.416 216.804 271.543 217.39C271.962 219.289 272.421 221.078 272.817 222.803C273.909 227.615 274.487 231.983 272.208 237.175Z" fill="#ED5451"/>
<path d="M271.068 215.728C269.731 214.089 267.602 212.134 264.491 210.995C258.556 208.818 248.133 212.712 246.486 213.963C244.832 215.213 238.968 215.941 236.127 217.983C233.293 220.033 229.202 226.689 229.202 226.689C229.202 226.689 228.608 226.689 225.379 227.156C222.15 227.615 217.726 228.541 215.027 232.229C212.321 235.925 208.103 249.577 207.968 248.849C207.833 248.128 211.197 234.801 211.197 234.801C211.197 234.801 205.135 236.059 194.973 244.1C186.006 251.207 183.007 257.23 182.421 258.543C182.548 258.037 182.698 257.546 182.864 257.056C188.151 241.52 212.012 232.996 212.321 232.759C212.653 232.498 217.006 227.947 219.111 227.353C221.224 226.76 228.284 225.375 228.284 225.375C228.284 225.375 230.326 218.774 239.364 215.609C239.364 215.609 250.111 208.684 257.297 208.423C263.906 208.185 269.05 209.887 271.068 215.728Z" fill="white"/>
<g style="mix-blend-mode:multiply" opacity="0.3">
<path d="M272.208 237.176C272.049 237.54 271.875 237.888 271.677 238.221C268.171 244.37 259.806 245.557 259.806 245.557C259.806 245.557 259.608 246.095 259.276 246.926C258.326 249.348 256.3 254.271 254.923 255.846C254.788 256.004 254.638 256.146 254.48 256.281C252.517 257.935 249.169 257.832 248.924 257.951C248.671 258.077 227.928 273.74 213.136 277.538L213.12 277.546C212.653 277.665 212.186 277.776 211.727 277.871C208.158 278.623 204.478 279.113 200.972 279.161C191.388 279.335 183.101 276.28 181.922 266.459C181.74 264.939 181.732 263.253 181.922 261.386C182.073 259.89 182.397 258.441 182.872 257.056C187.866 260.919 196.271 254.753 195.606 257.389C194.917 260.159 189.575 272.331 201.842 271.935C214.109 271.539 223.907 267.883 228.355 260.657C232.803 253.432 224.699 247.1 229.542 247.1C234.386 247.1 248.734 246.119 247.745 245.62C246.755 245.122 231.323 239.978 236.174 239.685C241.018 239.392 252.003 241.663 260.107 239.487C266.05 237.896 271.195 230.955 272.825 222.804C273.917 227.616 274.495 231.984 272.216 237.176H272.208Z" fill="#2B2A30"/>
</g>
<g style="mix-blend-mode:multiply" opacity="0.3">
<path d="M222.474 238.236C219.111 236.084 245.56 247.734 252.485 248.723C252.485 248.723 235.137 246.349 222.474 238.236Z" fill="#2B2A30"/>
</g>
<g style="mix-blend-mode:multiply" opacity="0.3">
<path d="M217.299 253.416C213.547 252.047 241.896 257.634 248.877 257.088C248.877 257.088 231.434 258.56 217.299 253.416Z" fill="#2B2A30"/>
</g>
<g style="mix-blend-mode:multiply" opacity="0.3">
<path d="M199.729 260.864C196.097 259.21 223.931 266.989 230.919 266.981C230.919 266.981 213.413 267.092 199.729 260.864Z" fill="#2B2A30"/>
</g>
<g style="mix-blend-mode:multiply" opacity="0.3">
<path d="M200.972 279.16C191.388 279.334 183.102 276.28 181.922 266.458C185.721 271.95 192.614 277.886 200.972 279.16Z" fill="#326C92"/>
</g>
<g style="mix-blend-mode:multiply" opacity="0.3">
<path d="M254.48 256.28C252.517 257.934 249.169 257.831 248.924 257.95C248.671 258.076 227.927 273.739 213.136 277.538C213.911 277.197 214.695 276.817 215.486 276.382C232.003 267.281 234.021 255.773 236.127 253.929C237.978 252.307 246.747 256.019 254.48 256.28Z" fill="#326C92"/>
</g>
<g style="mix-blend-mode:multiply" opacity="0.3">
<path d="M271.677 238.221C268.171 244.37 259.806 245.557 259.806 245.557C259.806 245.557 259.608 246.095 259.276 246.926C253.989 245.407 245.354 242.89 251.789 243.294C258.983 243.745 267.578 242.186 271.677 238.221Z" fill="#326C92"/>
</g>
<path d="M262.639 222.138C262.623 222.747 262.584 223.373 262.528 224.006C261.982 229.942 257.978 235.925 250.206 236.716C243.74 237.373 239.878 234.5 238.572 230.836C238.303 230.1 238.145 229.332 238.089 228.557C238.058 228.074 238.05 227.591 238.073 227.1C238.287 222.882 240.756 218.593 245.41 217.176C250.602 215.593 251.789 211.525 256.933 212.032C257.55 212.095 258.112 212.229 258.619 212.435C261.784 213.725 262.774 217.667 262.639 222.138Z" fill="#F99293"/>
<path d="M258.619 212.435C254.036 212.111 251.868 214.612 250.332 215.791C248.528 217.176 244.872 217.651 241.603 220.516C239.799 222.099 238.698 224.9 238.073 227.1C238.287 222.882 240.756 218.593 245.41 217.176C250.601 215.593 251.789 211.525 256.933 212.032C257.55 212.095 258.112 212.229 258.619 212.435Z" fill="white"/>
<path d="M262.639 222.138C262.623 222.747 262.584 223.372 262.528 224.005C261.982 229.941 257.977 235.924 250.206 236.716C243.74 237.373 239.878 234.5 238.572 230.835C245.631 237.618 259.299 230.566 262.639 222.138Z" fill="#F06E76"/>
<path d="M261.46 212.823C261.318 214.311 261.808 216.068 261.808 216.068C261.808 216.068 258.722 216.409 257.701 213.741C257.701 213.741 257.392 212.681 258.104 211.518C258.397 211.043 258.856 210.552 259.584 210.109C262.077 208.573 263.66 210.821 263.66 210.821C263.66 210.821 261.61 211.343 261.46 212.823Z" fill="#94415D"/>
<g style="mix-blend-mode:multiply" opacity="0.3">
<path d="M261.46 212.824C261.318 214.311 261.808 216.068 261.808 216.068C261.808 216.068 258.722 216.409 257.701 213.742C257.701 213.742 257.392 212.681 258.104 211.518C257.962 213.512 259.394 214.359 259.474 214.399C259.442 214.28 259.181 213.298 259.83 211.913C259.83 211.913 259.956 213.837 260.471 214.43C260.993 215.024 259.632 210.948 263.66 210.821C263.66 210.821 261.61 211.344 261.46 212.824Z" fill="#326C92"/>
</g>
<path d="M251.742 215.696C251.742 215.696 253.15 216.242 253.649 216.646C254.14 217.058 254.068 217.525 254.068 217.525C254.068 217.525 254.353 217.042 254.599 217.311C254.844 217.58 254.251 218.189 253.831 218.261C253.412 218.332 252.596 216.725 251.742 215.688V215.696Z" fill="#2B2A30"/>
<path d="M248.971 217.787C248.971 217.787 248.892 218.04 248.892 218.373C248.892 218.729 248.971 219.212 249.312 219.663C249.652 220.114 250.23 220.494 251.124 220.684C251.338 220.731 251.551 220.589 251.591 220.375C251.638 220.161 251.496 219.948 251.282 219.908C250.522 219.742 250.15 219.465 249.937 219.188C249.731 218.911 249.676 218.61 249.676 218.373C249.676 218.262 249.691 218.167 249.699 218.104L249.715 218.032V218.017L249.668 218.001L249.715 218.017L249.668 218.001L249.715 218.017C249.778 217.811 249.66 217.589 249.454 217.526C249.248 217.463 249.027 217.581 248.963 217.787H248.971Z" fill="#2B2A30"/>
<path d="M249.794 222.417C249.794 222.417 249.541 222.211 249.177 222.013C248.813 221.815 248.314 221.602 247.76 221.602C247.381 221.602 246.969 221.712 246.621 222.005C246.209 222.338 246.011 222.812 246.019 223.264C246.019 223.802 246.257 224.308 246.621 224.704C246.985 225.092 247.475 225.385 248.045 225.408C248.267 225.416 248.449 225.25 248.457 225.028C248.465 224.807 248.299 224.625 248.077 224.617C247.768 224.609 247.444 224.435 247.206 224.166C246.961 223.905 246.811 223.556 246.819 223.264C246.819 223.018 246.898 222.812 247.127 222.623C247.325 222.456 247.531 222.401 247.768 222.401C248.109 222.401 248.504 222.551 248.805 222.717C248.955 222.797 249.082 222.884 249.169 222.947L249.272 223.018L249.296 223.034C249.462 223.177 249.715 223.153 249.85 222.987C249.992 222.82 249.968 222.567 249.794 222.433V222.417Z" fill="#2B2A30"/>
<path d="M248.18 228.439C246.526 227.695 245.489 226.626 244.872 225.74C244.563 225.297 244.357 224.901 244.231 224.624C244.167 224.482 244.12 224.371 244.096 224.3L244.064 224.213V224.189C243.993 223.983 243.772 223.856 243.566 223.92C243.36 223.983 243.233 224.205 243.297 224.41C243.305 224.442 243.542 225.21 244.223 226.191C244.903 227.165 246.051 228.344 247.855 229.159C248.053 229.246 248.291 229.159 248.378 228.961C248.465 228.763 248.378 228.526 248.18 228.439Z" fill="#2B2A30"/>
<path d="M256.015 225.123L256.039 225.266L256.015 225.123L256.039 225.266L256.015 225.123C256.015 225.123 255.952 225.131 255.849 225.131C255.643 225.131 255.287 225.084 254.994 224.862C254.701 224.641 254.4 224.237 254.321 223.335C254.305 223.113 254.108 222.955 253.894 222.971C253.672 222.987 253.514 223.184 253.53 223.398C253.617 224.451 254.021 225.123 254.519 225.488C255.01 225.852 255.54 225.915 255.849 225.915C256.015 225.915 256.126 225.899 256.142 225.891C256.355 225.852 256.506 225.654 256.466 225.432C256.427 225.218 256.229 225.068 256.007 225.108L256.015 225.123Z" fill="#2B2A30"/>
<path d="M258.555 223.421C258.555 223.421 258.191 221.957 257.843 221.411C257.503 220.873 257.028 220.889 257.028 220.889C257.028 220.889 257.542 220.667 257.305 220.39C257.068 220.113 256.387 220.627 256.268 221.031C256.142 221.443 257.637 222.448 258.563 223.421H258.555Z" fill="#2B2A30"/>
<path d="M301.814 219.168C301.814 225.935 300.746 235.345 299.559 243.71C299.511 244.027 299.472 244.336 299.424 244.644C298.221 253.002 296.931 260.156 296.543 262.301C296.354 263.354 294.612 265.087 291.771 267.184C285.361 271.956 273.315 278.636 260.795 283.741C258.444 284.698 256.078 285.6 253.728 286.424C251.235 287.302 248.765 288.085 246.352 288.75C246.352 288.75 241.461 283.147 240.266 273.476C240.02 271.489 239.925 269.337 240.068 267.018C240.123 266.092 240.218 265.134 240.353 264.153L245.79 261.248L258.793 254.3L272.927 246.742C272.927 246.742 278.04 215.314 280.707 201.29C280.715 201.267 280.715 201.251 280.723 201.227C281.016 199.668 281.277 198.33 281.506 197.278C283.279 188.912 288.21 183.531 291.945 182.779C292.911 182.581 293.797 182.692 294.525 183.135C294.541 183.143 294.549 183.151 294.565 183.159C303.389 188.715 301.814 205.319 301.814 219.168Z" fill="#C9E8EA"/>
<path d="M301.814 219.168C301.814 225.935 300.746 235.345 299.559 243.71C299.511 244.027 299.472 244.336 299.424 244.644C299.353 244.636 299.313 244.629 299.313 244.629C299.313 244.629 301.553 216.335 300.762 204.86C300.042 194.365 297.493 188.169 294.486 184.995C294.209 184.694 293.924 184.425 293.639 184.18C293.14 183.752 292.563 183.278 291.945 182.779C292.911 182.581 293.797 182.692 294.525 183.135C294.541 183.143 294.549 183.151 294.565 183.159C303.389 188.715 301.814 205.319 301.814 219.168Z" fill="white"/>
<path d="M253.728 286.423C251.235 287.302 248.765 288.085 246.352 288.75C246.352 288.75 238.24 279.451 240.353 264.153L245.79 261.248C249.019 264.96 254.116 275.399 253.728 286.423Z" fill="#9AD7D6"/>
<g style="mix-blend-mode:multiply" opacity="0.3">
<path d="M299.559 243.71C298.316 252.463 296.947 260.077 296.544 262.3C295.839 266.178 274.131 279.276 253.728 286.423C251.235 287.301 248.765 288.085 246.352 288.75C246.352 288.75 241.461 283.147 240.266 273.475C253.933 270.65 284.53 266.479 286.318 265.007C288.59 263.131 268.013 264.509 262.077 263.923C256.142 263.321 282.955 259.135 287.569 257.291C290.616 256.072 295.792 252.329 299.559 243.71Z" fill="#326C92"/>
</g>
<path d="M280.707 201.29C278.523 217.118 275.017 247.739 274.384 248.055C273.6 248.451 240.218 267.018 240.068 267.018C240.123 266.092 240.218 265.134 240.353 264.153L245.79 261.248L272.928 246.741C272.928 246.741 278.04 215.314 280.707 201.29Z" fill="white"/>
<path d="M246.352 288.75C246.352 288.75 243.732 285.742 241.856 280.329C240.645 276.839 239.743 272.344 240.068 267.017C240.123 266.091 240.218 265.134 240.353 264.152C240.353 264.152 240.986 265.15 241.84 267.017C243.043 269.653 244.69 274.013 245.623 279.743C246.067 282.45 246.352 285.465 246.352 288.75Z" fill="#0C1A3B"/>
<path d="M245.623 279.745C244.539 279.935 242.774 280.228 241.856 280.331C241.627 280.362 241.444 280.378 241.342 280.378C240.614 280.378 223.93 285.981 221.817 285.586C219.704 285.19 218.715 283.742 216.341 283.013C213.966 282.285 211.331 280.307 211.331 280.307C211.331 280.307 208.822 280.046 206.844 279.318C205.696 278.898 204.73 277.972 204.414 277.117C204.184 276.5 204.295 275.93 204.936 275.63C206.448 274.901 213.444 275.693 216.934 274.506C220.321 273.358 225.197 271.095 225.497 270.952C225.497 270.944 225.513 270.944 225.513 270.944C225.513 270.944 219.973 271.403 217.995 271.142C216.784 270.984 215.826 270.058 215.905 269.179C215.937 268.823 216.143 268.475 216.578 268.182C216.823 268.024 217.132 267.889 217.528 267.779C217.908 267.676 218.335 267.541 218.802 267.399C221.801 266.473 226.21 264.945 227.753 264.945C228.972 264.945 234.702 265.998 238.2 266.663C238.952 266.805 239.593 266.924 240.067 267.019C240.621 267.122 240.946 267.185 240.946 267.185L241.84 267.019C243.043 269.654 244.689 274.015 245.623 279.745Z" fill="#FF8B61"/>
<g style="mix-blend-mode:multiply" opacity="0.3">
<path d="M227.524 269.844L225.513 270.944C225.513 270.944 219.973 271.403 217.995 271.141C216.784 270.983 215.826 270.057 215.905 269.179C218.636 270.951 226.962 270.033 227.524 269.844Z" fill="#326C92"/>
</g>
<g style="mix-blend-mode:multiply" opacity="0.3">
<path d="M245.623 279.745C244.539 279.935 242.774 280.228 241.856 280.331C241.627 280.363 241.445 280.378 241.342 280.378C240.614 280.378 223.931 285.982 221.817 285.586C219.704 285.19 218.715 283.742 216.341 283.014C213.967 282.286 211.331 280.307 211.331 280.307C211.331 280.307 208.822 280.046 206.844 279.318C205.696 278.898 204.731 277.973 204.414 277.118C206.139 279.033 211.204 278.883 214.695 279.302C218.406 279.753 229.929 282.966 235.422 277.276C239.965 272.567 237.298 269.552 238.2 266.663C238.952 266.806 239.593 266.924 240.068 267.019C240.622 267.122 240.946 267.185 240.946 267.185L241.84 267.019C243.043 269.655 244.69 274.015 245.623 279.745Z" fill="#326C92"/>
</g>
<path d="M212.985 280.347C212.985 280.347 219.015 281.043 223.139 281.17C223.139 281.17 217.037 281.597 212.985 280.347Z" fill="#0C1A3B"/>
<path d="M217.132 282.633C217.132 282.633 223.202 282.87 227.325 282.688C227.325 282.688 221.271 283.575 217.132 282.633Z" fill="#0C1A3B"/>
<path d="M219.166 269.281C219.166 269.281 217.132 269.677 217.069 269.59C217.013 269.518 216.507 268.917 216.578 268.181C216.823 268.023 217.132 267.888 217.528 267.777C217.908 267.674 218.335 267.54 218.802 267.397C218.715 268.292 219.166 269.281 219.166 269.281Z" fill="#FFA88D"/>
<path d="M159.549 265.684C157.428 278.402 150.962 283.68 150.962 283.68C149.213 282.857 147.401 281.955 145.533 280.966C125.557 270.393 100.279 251.121 100.446 241.078C100.493 237.738 100.509 235.586 100.62 233.797C100.889 229.721 101.728 227.6 105.004 217.708C107.458 210.3 110.829 201.23 114.264 193.981C117.414 187.317 120.603 182.204 123.136 181.366C130.219 179.031 136.503 182.22 135.411 191.092C135.355 191.567 135.268 192.089 135.165 192.667C134.675 195.326 133.701 199.03 132.53 203.058C129.19 214.558 124.228 228.716 124.228 228.716C124.228 228.716 129.056 232.341 136.408 240.018C140.99 244.798 149.086 249.839 154.547 252.973C157.863 254.873 160.214 256.076 160.214 256.076C160.222 256.464 160.23 256.843 160.222 257.223C160.238 260.341 159.976 263.151 159.549 265.676V265.684Z" fill="#F4C95E"/>
<g style="mix-blend-mode:multiply" opacity="0.3">
<path d="M135.41 191.092C135.355 191.567 135.268 192.089 135.165 192.667C131.137 192.991 125.858 192.255 122.004 192.414C119.55 192.517 116.78 193.189 114.264 193.981C117.414 187.317 120.603 182.204 123.136 181.366C130.219 179.031 136.503 182.22 135.41 191.092Z" fill="#326C92"/>
</g>
<path d="M150.962 283.681C149.213 282.858 147.401 281.955 145.533 280.966C143.768 264.536 151.136 255.989 154.547 252.981C157.864 254.881 160.214 256.084 160.214 256.084C160.626 275.79 150.954 283.681 150.954 283.681H150.962Z" fill="#B56E10"/>
<g style="mix-blend-mode:multiply" opacity="0.1">
<path d="M159.549 265.684C157.428 278.402 150.962 283.681 150.962 283.681C149.213 282.858 147.401 281.956 145.533 280.967C125.557 270.393 100.279 251.122 100.446 241.079C100.493 237.739 100.509 235.586 100.62 233.798C107.046 244.894 129.34 246.872 132.577 247.719C136.503 248.74 117.849 249.99 117.224 251.051C116.583 252.111 131.43 255.301 139.89 256.868C145.193 257.857 153.598 262.249 159.541 265.676L159.549 265.684Z" fill="#2B2A30"/>
</g>
<path d="M160.222 257.231C155.782 256.131 149.371 253.512 145.074 250.124C138.521 244.941 134.081 240.247 129.665 236.14C125.249 232.032 123.682 230.093 121.925 229.484C120.16 228.875 117.556 228.202 117.232 227.743C116.899 227.292 121.885 227.506 122.281 227.521C122.558 227.529 128.327 213.276 132.522 203.066C129.182 214.566 124.22 228.724 124.22 228.724C124.22 228.724 129.048 232.349 136.4 240.026C140.982 244.806 149.079 249.847 154.539 252.981C157.855 254.881 160.206 256.084 160.206 256.084C160.214 256.472 160.222 256.851 160.214 257.231H160.222Z" fill="white"/>
<g style="mix-blend-mode:multiply" opacity="0.3">
<path d="M158.148 271.533C155.418 280.04 150.962 283.681 150.962 283.681C150.582 278.505 151.121 274.081 152.102 270.393C153.645 264.521 156.312 260.492 158.164 258.245C159.359 256.796 160.214 256.084 160.214 256.084C160.214 256.583 160.23 257.073 160.214 257.556C160.198 263.199 159.336 267.829 158.141 271.533H158.148Z" fill="#326C92"/>
</g>
<path d="M193.208 259.415C192.987 260.42 191.847 261.781 190.09 262.383C190.09 262.383 190.755 264.979 188.088 266.672C188.088 266.672 188.294 269.347 185.579 270.542C185.579 270.542 185.35 272.41 183.181 273.162C182.738 273.312 182.208 273.487 181.606 273.669C179.24 274.397 175.876 275.244 173.684 275.378C171.524 275.513 162.09 272.727 158.149 271.532C157.072 271.199 156.407 270.994 156.407 270.994L152.102 270.384C153.645 264.512 156.312 260.484 158.164 258.236L158.932 258.078L159.66 257.927C159.66 257.927 159.692 257.903 159.755 257.864C159.85 257.793 160.016 257.682 160.222 257.539C162.098 256.281 168.057 252.3 169.3 251.992C170.677 251.635 178.235 251.722 179.525 251.936C179.604 251.952 179.659 251.968 179.691 251.984C179.802 252.039 179.778 252.213 179.659 252.466C179.24 253.297 177.705 254.896 176.557 255.181C175.053 255.561 172.307 255.727 172.307 255.727C172.307 255.727 171.619 256.724 171.405 257.935C171.389 258.046 171.46 258.149 171.626 258.252C171.793 258.362 172.054 258.457 172.386 258.545C172.394 258.545 172.402 258.545 172.402 258.545C175.164 259.281 182.944 259.486 185.065 259.162C187.684 258.758 190.201 258.347 192.259 258.22C193.106 258.173 193.398 258.695 193.224 259.407L193.208 259.415Z" fill="#FF8B61"/>
<g style="mix-blend-mode:multiply" opacity="0.3">
<path d="M181.598 273.669C179.232 274.397 175.869 275.244 173.676 275.379C171.516 275.513 162.082 272.727 158.141 271.532C157.064 271.2 156.4 270.994 156.4 270.994L152.094 270.385C153.638 264.512 156.305 260.484 158.157 258.236L158.924 258.078C158.331 261.822 159.32 265.462 161.568 268.287C163.799 271.097 172.149 274.057 181.591 273.661L181.598 273.669Z" fill="#326C92"/>
</g>
<g style="mix-blend-mode:multiply" opacity="0.3">
<path d="M176.541 255.189C175.037 255.569 172.291 255.735 172.291 255.735C172.291 255.735 171.603 256.732 171.389 257.943C171.373 258.054 171.444 258.157 171.611 258.26C168.603 257.737 167.685 255.814 168.326 255.332C169.054 254.778 169.6 254.73 173.273 254.247C175.995 253.891 178.44 253.036 179.509 251.952C179.588 251.968 179.643 251.984 179.675 252C180.166 252.245 178.029 254.817 176.533 255.197L176.541 255.189Z" fill="#326C92"/>
</g>
<path d="M185.159 270.432C185.159 270.432 182.587 271.334 176.074 271.643C176.074 271.643 181.487 272.489 185.159 270.432Z" fill="#0C1A3B"/>
<path d="M186.339 266.609C186.339 266.609 183.735 267.417 177.222 267.488C177.222 267.488 182.603 268.533 186.339 266.609Z" fill="#0C1A3B"/>
<path d="M188.262 262.438C188.262 262.438 185.658 263.254 179.145 263.349C179.145 263.349 184.527 264.37 188.262 262.438Z" fill="#0C1A3B"/>
<path d="M193.209 259.415C193.042 258.972 192.583 258.726 191.626 258.9C188.333 259.478 183.395 260.238 178.385 259.969C175.251 259.795 173.36 259.074 172.386 258.552C175.148 259.288 182.928 259.494 185.049 259.169C187.669 258.766 190.185 258.354 192.243 258.228C193.09 258.18 193.383 258.702 193.209 259.415Z" fill="white"/>
<path d="M179.652 252.474C176.921 252.664 170.542 252.292 169.609 252.577C168.611 252.886 160.745 257.326 159.755 257.88C159.85 257.808 160.017 257.697 160.222 257.555C162.098 256.297 168.057 252.316 169.3 252.007C170.677 251.651 178.235 251.738 179.525 251.952C179.604 251.968 179.66 251.983 179.691 251.999C179.802 252.055 179.778 252.229 179.66 252.482L179.652 252.474Z" fill="white"/>
<path d="M180.823 156.569C180.562 158.556 179.549 161.951 177.135 164.681C174.634 167.538 170.613 169.675 164.369 168.741C162.873 168.52 161.488 168.179 160.198 167.744C150.939 164.61 146.815 156.585 146.372 151.71C145.866 146.17 149.261 129.898 152.767 123.765C155.893 118.28 177.198 116.808 182.255 126.986C182.849 128.173 183.213 129.534 183.308 131.062C183.308 131.062 183.165 132.605 182.952 134.94C182.366 141.31 181.218 153.593 180.831 156.569H180.823Z" fill="#FF8B61"/>
<g style="mix-blend-mode:multiply" opacity="0.3">
<path d="M182.247 126.993C178.401 127.848 174.697 128.315 174.697 128.315C172.703 133.262 163.507 134.916 160.555 134.852C157.919 134.789 152.87 155.429 160.191 167.76C150.931 164.626 146.808 156.601 146.364 151.725C145.858 146.185 149.253 129.914 152.759 123.78C155.885 118.296 177.19 116.824 182.247 127.001V126.993Z" fill="#326C92"/>
</g>
<path d="M180.324 170.798C180.324 170.798 180.68 173.505 177.728 174.019C177.427 174.075 177.095 174.099 176.723 174.107C176.723 174.107 176.715 175.594 175.75 176.774C174.911 177.795 173.367 178.578 170.518 178.024C170.518 178.024 169.213 180.818 163.245 180.216C157.278 179.623 156.795 175.887 156.795 175.887C156.795 175.887 153.131 175.966 151.152 173.83C149.182 171.685 149.767 169.295 149.767 169.295C149.767 169.295 145.945 167.134 145.866 163.984C145.779 160.834 146.317 159.726 146.317 159.726C146.317 159.726 143.966 157.906 144.283 152.548C144.599 147.206 146.918 142.568 146.918 142.568C146.918 142.568 148.398 147 150.385 148.805C152.363 150.617 152.854 150.546 152.909 154.653C152.909 155.381 153.091 155.991 153.384 156.497C153.439 156.584 153.495 156.664 153.55 156.743C155.07 158.911 158.916 159.069 160.689 158.215L162.691 156.703L168.801 157.613C168.801 157.613 169.893 160.953 173.573 161.539C174.689 161.721 175.623 161.689 176.414 161.491C178.227 161.064 179.248 159.766 179.754 158.246C180.205 156.885 180.751 154.835 181.092 153.498C181.298 152.699 181.432 152.145 181.432 152.145C181.432 152.145 184.424 157.574 181.693 162.267C181.693 162.267 183.094 166.762 180.316 170.783L180.324 170.798Z" fill="#94415D"/>
<g style="mix-blend-mode:multiply" opacity="0.4">
<path d="M173.463 164.927C169.474 165.465 165.018 158.92 165.018 158.92C165.018 158.92 160.254 162.592 154.999 161.579C149.744 160.574 151.335 155.121 151.335 155.121C151.335 155.121 151.992 156.047 153.392 156.49C153.448 156.577 153.503 156.656 153.559 156.736C155.078 158.904 158.924 159.062 160.697 158.208L162.699 156.696L168.809 157.606C168.809 157.606 169.901 160.946 173.581 161.532C174.697 161.714 175.631 161.682 176.423 161.484C176.905 161.452 177.357 161.286 177.76 160.946C177.76 160.946 177.444 164.365 173.463 164.903V164.927Z" fill="#326C92"/>
</g>
<g style="mix-blend-mode:multiply" opacity="0.3">
<path d="M175.75 176.774C174.911 177.795 173.367 178.578 170.518 178.024C170.518 178.024 169.213 180.818 163.245 180.216C157.278 179.623 156.795 175.887 156.795 175.887C156.795 175.887 153.131 175.966 151.152 173.83C149.182 171.685 149.767 169.295 149.767 169.295C149.767 169.295 145.945 167.134 145.866 163.984C145.779 160.834 146.317 159.726 146.317 159.726C146.317 159.726 143.966 157.906 144.283 152.548C144.599 147.206 146.918 142.568 146.918 142.568C146.918 142.568 148.398 147 150.385 148.805C152.363 150.617 152.854 150.546 152.909 154.653C152.909 155.5 153.162 156.189 153.558 156.743C153.511 160.993 156.17 163.778 156.17 163.778C156.17 163.778 155.26 167.245 157.31 169.493C159.359 171.74 162.074 170.988 162.074 170.988C162.074 170.988 162.968 173.03 165.168 173.331C167.313 173.624 169.213 171.835 169.213 171.835C169.213 171.835 172.394 176.259 175.758 176.782L175.75 176.774Z" fill="#326C92"/>
</g>
<path d="M161.955 156.22C161.884 156.276 162.438 159.647 165.454 160.098C168.461 160.549 169.854 157.344 169.854 157.344C169.854 157.344 162.003 156.189 161.955 156.22Z" fill="#2B2A30"/>
<path d="M178.575 160.353C178.179 161.405 177.151 163.012 174.523 163.368C170.534 163.906 166.071 157.369 166.071 157.369C166.071 157.369 161.314 161.033 156.059 160.02C151.406 159.126 152.118 154.75 152.347 153.768C152.371 153.642 152.395 153.57 152.395 153.57C152.522 153.745 153.701 155.185 156.059 155.169C158.552 155.161 160.064 152.803 162.992 152.162C165.92 151.521 167.068 153.729 167.068 153.729C167.068 153.729 167.954 152.731 169.648 152.882C171.35 153.024 172.141 154.251 172.909 156.499C173.684 158.754 176.921 161.01 178.813 159.403C178.813 159.403 178.781 159.807 178.567 160.353H178.575Z" fill="#94415D"/>
<g style="mix-blend-mode:multiply" opacity="0.3">
<path d="M178.575 160.353C178.179 161.406 177.151 163.012 174.523 163.368C170.534 163.907 166.071 157.37 166.071 157.37C166.071 157.37 161.314 161.034 156.059 160.021C151.406 159.126 152.118 154.75 152.347 153.769C152.632 154.972 153.535 157.267 156.218 157.496C159.834 157.813 162.85 156.349 162.85 156.349C162.85 156.349 159.375 156.634 159.177 156.657C158.98 156.681 161.283 155.343 163.008 154.956C164.725 154.576 166.712 156.372 166.712 156.372C166.712 156.372 167.97 155.921 169.102 156.285C170.242 156.649 171.698 158.359 171.698 158.359L169.395 157.623C169.395 157.623 170.424 160.227 173.225 161.303C175.568 162.221 177.531 161.477 178.583 160.345L178.575 160.353Z" fill="#326C92"/>
</g>
<path d="M163.72 144.396C163.554 145.488 162.541 146.24 161.448 146.082C160.356 145.915 159.604 144.902 159.763 143.81C159.929 142.718 160.942 141.966 162.034 142.125C163.126 142.291 163.878 143.304 163.72 144.396Z" fill="#2B2A30"/>
<path d="M163.063 143.746C163.031 143.96 162.826 144.11 162.612 144.079C162.398 144.047 162.248 143.841 162.28 143.628C162.311 143.414 162.517 143.264 162.731 143.295C162.944 143.327 163.095 143.533 163.063 143.746Z" fill="white"/>
<path d="M176.193 146.263C176.027 147.355 175.014 148.107 173.922 147.949C172.829 147.791 172.078 146.77 172.236 145.677C172.402 144.585 173.415 143.833 174.507 143.992C175.599 144.158 176.351 145.171 176.193 146.263Z" fill="#2B2A30"/>
<path d="M175.528 145.432C175.497 145.646 175.291 145.796 175.077 145.764C174.864 145.733 174.713 145.527 174.745 145.313C174.777 145.099 174.982 144.949 175.196 144.981C175.41 145.012 175.56 145.218 175.528 145.432Z" fill="white"/>
<path d="M168.967 144.602C168.967 144.602 169.909 149.437 168.223 153.806C168.223 153.806 166.522 154.289 164.63 151.898L167.622 152.698C167.622 152.698 168.904 149.326 168.967 144.602Z" fill="#2B2A30"/>
<path d="M158.71 139.077C158.71 139.077 162.691 137.937 164.242 138.167C165.794 138.396 165.627 136.085 165.002 135.579C164.377 135.08 163.981 136.465 163.981 136.465C163.981 136.465 161.734 133.466 158.71 139.077Z" fill="#94415D"/>
<path d="M179.754 142.218C179.754 142.218 176.288 139.963 174.729 139.733C173.178 139.504 174.017 137.335 174.761 137.042C175.505 136.75 175.481 138.182 175.481 138.182C175.481 138.182 178.512 135.974 179.754 142.218Z" fill="#94415D"/>
<path d="M186.181 134.401C184.819 137.265 180.965 137.748 178.931 135.319C177.8 133.981 177.23 132.636 177.23 132.636C176.652 132.644 176.13 132.533 175.671 132.319C174.119 131.662 173.217 130.151 173.217 130.151C173.217 130.151 170.993 133.142 166.917 133.372C162.842 133.585 160.111 129.969 160.111 129.969C156.977 137.59 146.895 137.922 146.744 137.78C146.744 137.78 146.776 128.315 151.888 121.144C154.793 117.076 162.05 114.892 169.007 115.169C174.294 115.391 179.414 117.045 182.334 120.369C187.906 126.732 187.574 131.449 186.181 134.393V134.401Z" fill="#94415D"/>
<g style="mix-blend-mode:multiply" opacity="0.3">
<path d="M175.671 132.319C174.119 131.662 173.217 130.151 173.217 130.151C173.217 130.151 170.993 133.142 166.917 133.372C162.842 133.585 160.111 129.969 160.111 129.969C156.977 137.59 146.895 137.922 146.744 137.78C146.744 137.78 146.776 128.315 151.888 121.144C154.793 117.076 162.05 114.892 169.007 115.169C169.292 118.667 169.126 122.339 169.126 122.339C163.617 125.798 167.543 130.451 170.305 130.008C173.067 129.581 173.866 128.441 173.866 128.441C173.866 128.441 173.85 130.253 175.671 132.319Z" fill="#326C92"/>
</g>
<path d="M127.457 187.126L129.895 179.339L124.845 179.363L122.661 182.861L127.457 187.126Z" fill="#B56E10"/>
<path d="M189.172 154.124C189.172 154.124 188.721 151.6 188.072 148.125C186.687 140.702 184.408 128.941 183.664 128.173C182.572 127.05 166.656 124.303 161.037 124.794C160.808 124.81 160.562 124.881 160.325 125C154.793 127.517 147.646 152.969 145.818 163.321C144.599 170.214 143.871 178.777 143.507 184.048C143.301 187.039 143.206 188.986 143.206 188.986L142.985 188.907L125.383 182.433L127.449 187.126C127.449 187.126 116.607 183.288 113.425 183.035C110.252 182.782 108.083 183.177 108.083 183.177C108.083 183.177 109.745 181.349 111.866 178.927C114.945 175.421 118.997 170.681 120.374 168.489C122.701 164.793 133.282 145.252 135.308 141.121C137.326 136.99 138.529 128.965 140.515 124.09C141.291 122.167 143.119 119.84 145.573 117.648C147.203 116.191 149.102 114.791 151.168 113.595C151.168 113.595 151.168 113.588 151.176 113.595C153.914 112.013 156.922 110.794 159.937 110.295C168.651 108.863 184.02 113.049 187.13 118.946C188.871 122.238 190.897 128.411 190.256 141.905V141.928C190.09 145.458 189.742 149.51 189.156 154.132L189.172 154.124Z" fill="#F4C95E"/>
<g style="mix-blend-mode:multiply" opacity="0.3">
<path d="M188.072 148.118C186.687 140.694 184.408 128.934 183.664 128.166C182.572 127.042 166.656 124.296 161.037 124.787C160.807 124.803 160.562 124.874 160.325 124.992L160.546 124.565C160.546 124.565 162.557 123.536 172.101 124.375C181.661 125.206 184.392 126.726 185.049 127.778C185.508 128.538 187.114 140.805 188.064 148.118H188.072Z" fill="#326C92"/>
</g>
<path d="M125.383 182.434L127.449 187.127C127.449 187.127 116.607 183.288 113.425 183.035C110.252 182.782 108.083 183.178 108.083 183.178C108.083 183.178 109.745 181.349 111.866 178.928C113.243 179.054 114.676 179.197 115.538 179.3C117.556 179.545 125.383 182.442 125.383 182.442V182.434Z" fill="#B56E10"/>
<g style="mix-blend-mode:multiply" opacity="0.3">
<path d="M126.737 178.033L133.068 158.113L121.205 185.037L127.457 187.127L125.384 182.434L126.737 178.033Z" fill="#326C92"/>
</g>
<path d="M190.264 141.897C189.109 129.614 186.252 120.441 184.036 118.249C181.139 115.376 170.313 111.435 163.388 111.728C158.742 111.934 153.883 112.939 151.192 113.588C153.93 112.005 156.938 110.786 159.953 110.287C168.666 108.855 184.036 113.042 187.146 118.938C188.887 122.23 190.913 128.403 190.272 141.897H190.264Z" fill="white"/>
<path d="M143.198 188.986L125.383 182.441L126.737 178.041L143.507 184.048C143.301 187.039 143.206 188.986 143.206 188.986H143.198Z" fill="#B56E10"/>
<g style="mix-blend-mode:multiply" opacity="0.1">
<path d="M125.383 182.433L127.449 187.126C127.449 187.126 116.607 183.288 113.425 183.035C110.252 182.781 108.083 183.177 108.083 183.177C108.083 183.177 109.745 181.349 111.866 178.927C114.945 175.421 118.997 170.681 120.374 168.488C122.701 164.792 133.282 145.252 135.308 141.121C137.326 136.99 138.529 128.965 140.515 124.09C141.291 122.166 143.119 119.84 145.573 117.647C140.452 132.684 137.872 154.274 137.437 158.96C136.978 164.064 144.148 144.73 145.596 140.963C147.029 137.235 137.334 173.292 142.969 188.907L125.368 182.433H125.383Z" fill="#2B2A30"/>
</g>
<path d="M190.249 126.892C190.249 126.955 190.249 127.027 190.233 127.09C190.122 127.873 189.331 128.435 188.515 128.182C184.424 126.939 174.808 124.304 166.284 124.075C157.389 123.837 146.119 124.043 141.885 124.13C141.006 124.154 140.349 123.346 140.531 122.492L140.618 122.128V122.08C140.761 121.455 141.315 121.012 141.956 121.02C145.984 121.067 160.064 121.249 168.065 121.502C176.027 121.756 186.339 124.708 189.299 125.602C189.805 125.752 190.169 126.188 190.241 126.71C190.241 126.773 190.241 126.829 190.241 126.892H190.249Z" fill="#B56E10"/>
<g style="mix-blend-mode:multiply" opacity="0.3">
<path d="M190.233 127.09C190.122 127.874 189.331 128.436 188.515 128.182C184.424 126.94 174.808 124.304 166.284 124.075C157.389 123.837 146.119 124.043 141.885 124.13C141.006 124.154 140.349 123.347 140.531 122.492L140.618 122.128C143.167 123.236 149.3 123.228 154.658 123.188C161.433 123.133 167.717 123.236 171.136 123.632C174.547 124.027 185.722 126.402 188.642 127.043C189.362 127.201 189.877 127.193 190.233 127.09Z" fill="#326C92"/>
</g>
<path d="M183.102 397.438L156.122 448.872C155.6 449.862 154.571 450.487 153.447 450.487C153.162 450.487 152.869 450.447 152.616 450.368C152.078 450.218 151.611 449.917 151.247 449.529C150.527 448.746 150.218 447.598 150.614 446.474L166.632 400.896L166.806 400.406L169.188 393.615L183.102 397.438Z" fill="#F4C95E"/>
<path d="M241.319 449.221C240.899 449.822 240.258 450.265 239.491 450.424C239.293 450.463 239.079 450.487 238.873 450.487C237.75 450.487 236.721 449.862 236.198 448.872L209.219 397.438L223.132 393.615L224.549 397.659L225.482 400.311L241.707 446.474C242.047 447.456 241.865 448.461 241.319 449.221Z" fill="#F4C95E"/>
<g style="mix-blend-mode:multiply" opacity="0.3">
<path d="M169.189 393.615L183.11 397.438L156.122 448.872C155.6 449.862 154.571 450.487 153.455 450.487C153.162 450.487 152.877 450.447 152.616 450.368C156.645 438.212 173.905 405.613 173.905 404.79C173.905 404.228 169.996 402.384 166.632 400.896L169.189 393.615Z" fill="#2B2A30"/>
</g>
<path d="M166.632 400.897L166.806 400.406L151.247 449.53C150.527 448.746 150.218 447.599 150.614 446.475L166.632 400.897Z" fill="white"/>
<g style="mix-blend-mode:multiply" opacity="0.3">
<path d="M239.491 450.424C239.293 450.463 239.087 450.487 238.873 450.487C237.757 450.487 236.728 449.862 236.206 448.872L209.227 397.438L223.14 393.615L225.49 400.311C223.029 401.704 220.267 402.843 219.713 403.603C219.032 404.537 233.935 437.816 239.491 450.424Z" fill="#2B2A30"/>
</g>
<path d="M241.319 449.22L224.548 397.659L225.482 400.31L241.706 446.474C242.047 447.455 241.865 448.461 241.319 449.22Z" fill="white"/>
<path d="M256.411 355.627C256.411 357.313 256.3 358.983 256.079 360.629C255.366 365.963 253.514 371.036 250.729 375.697C241.113 391.779 220.298 402.914 196.16 402.914C172.022 402.914 150.519 391.407 141.125 374.89C139.819 372.595 138.734 370.197 137.911 367.72C136.606 363.866 135.917 359.806 135.917 355.627H256.411Z" fill="#ED5451"/>
<g style="mix-blend-mode:multiply" opacity="0.3">
<path d="M256.411 355.627C256.411 357.313 256.3 358.983 256.079 360.629C252.446 362.591 246.716 364.071 246.716 364.071C246.716 364.071 240.123 370.403 235.375 370.134C230.626 369.873 217.568 367.633 215.32 367.894C213.081 368.155 201.74 370.134 195.535 369.873C189.338 369.611 187.225 368.029 185.911 368.029C184.597 368.029 182.215 374.091 179.445 374.091C176.675 374.091 168.365 372.777 167.574 370.799C166.782 368.82 166.782 366.311 166.782 366.311C166.782 366.311 160.712 368.82 156.628 368.685C152.537 368.551 146.862 365.654 145.81 365.385C145.161 365.227 141.061 366.628 137.911 367.72C136.606 363.866 135.917 359.806 135.917 355.627H256.411Z" fill="#2B2A30"/>
</g>
<g style="mix-blend-mode:multiply" opacity="0.3">
<path d="M250.729 375.698C241.113 391.78 220.298 402.915 196.16 402.915C172.022 402.915 150.519 391.408 141.125 374.891C147.567 379.584 165.524 390.98 188.546 391.503C211.521 392.025 238.374 386.437 250.729 375.698Z" fill="#2B2A30"/>
</g>
<path d="M267.444 344.026C267.064 345.49 266.249 347.492 265.109 348.244C265.109 348.244 264.444 349.693 261.943 351.347C261.943 351.347 261.081 354.971 257.393 357.211C257.393 357.211 252.771 360.377 248.355 360.907C243.939 361.437 241.367 361.366 241.367 361.366C241.367 361.366 241.43 362.292 240.9 363.02C240.377 363.74 230.548 364.73 229.1 364.532C227.643 364.334 223.884 360.511 223.884 360.511C223.884 360.511 216.168 361.564 215.376 361.564C214.585 361.564 209.908 365.394 208.388 366.114C206.868 366.843 205.222 361.762 205.222 361.762L201.526 362.553C201.526 362.553 201.526 365.062 200.933 365.323C200.339 365.592 196.453 365.917 195.986 365.853C195.527 365.79 194.538 363.542 194.538 363.542L189.528 364.801C189.528 364.801 186.687 367.104 185.698 367.175C184.709 367.238 183.063 356.815 183.063 356.554C182.896 356.894 180.482 366.004 180.229 366.384C179.96 366.779 174.491 366.447 174.024 366.312C173.565 366.186 174.357 362.031 174.357 362.031L169.015 360.116C169.015 360.116 168.223 362.031 167.764 362.094C167.297 362.157 165.192 362.157 165.192 362.157C165.192 362.157 163.807 363.875 163.079 364.073C162.351 364.27 159.185 364.864 157.009 364.532C154.832 364.207 154.041 363.74 154.041 363.74C154.041 363.74 151.01 364.27 148.77 364.136C146.523 364.009 142.043 361.239 142.043 361.239L144.876 356.42L140.065 360.313C140.065 360.313 135.316 361.168 131.486 359.459C127.663 357.741 125.882 355.106 125.882 355.106C125.882 355.106 124.632 350.484 124.632 350.159C124.632 349.835 126.476 347.453 126.476 347.453L125.289 346.725C125.289 346.725 126.61 342.111 131.224 339.539C131.224 339.539 133.733 334.988 134.453 333.737C135.181 332.479 140.721 334.394 140.721 334.394C140.721 334.394 140.998 333.983 141.41 333.405C142.257 332.234 143.666 330.398 144.417 330.042C145.533 329.511 148.374 330.967 148.374 330.967C148.374 330.967 149.957 329.313 151.936 328.522C153.914 327.731 156.946 329.052 156.946 329.052C156.946 329.052 159.779 326.813 162.027 325.491C164.266 324.169 171.65 325.625 171.65 325.625C171.65 325.625 172.442 324.961 174.159 324.502C175.876 324.043 181.678 327.208 181.678 327.208C181.678 327.208 186.956 327.272 187.748 327.731C188.539 328.197 189.79 329.052 189.79 329.052C189.79 329.052 190.383 327.469 192.496 327.01C194.601 326.543 195.195 329.978 195.195 329.978C195.195 329.978 198.559 328.459 201.993 328.324C205.42 328.197 206.544 329.582 206.544 329.582C206.544 329.582 213.2 325.823 215.178 326.219C217.157 326.615 218.811 328.854 218.811 328.854L224.153 327.604C224.153 327.604 229.1 325.158 231.078 325.356C233.057 325.554 234.046 327.272 234.046 327.272C234.046 327.272 238.327 325.032 239.847 325.095C241.367 325.158 243.67 327.01 243.67 327.01C243.67 327.01 245.055 326.876 246.574 327.137C248.094 327.406 249.21 329.25 249.21 329.25C249.21 329.25 253.238 328.395 255.541 328.593C257.852 328.791 260.361 333.207 260.361 333.207C260.361 333.207 262.933 333.468 263.985 334.394C265.038 335.32 266.819 340.987 266.819 340.987C266.819 340.987 267.547 341.715 267.681 342.443C267.721 342.681 267.642 343.29 267.444 344.026Z" fill="#2D9693"/>
<g style="mix-blend-mode:multiply" opacity="0.3">
<path d="M164.503 338.383C164.503 338.383 169.22 336.27 174.855 336.634C174.855 336.634 181.187 333.302 187.423 335.114C187.423 335.114 194.087 334.022 199.492 336.729C199.492 336.729 206.053 333.167 213.54 335.51C213.54 335.51 220.758 333.697 228.015 335.708C228.015 335.708 238.042 334.323 241.999 337.947C241.999 337.947 236.325 338.375 233.096 340.021C229.867 341.667 228.316 342.728 228.316 342.728C228.316 342.728 222.38 340.322 215.028 340.322C207.675 340.322 204.146 343.717 204.146 343.717C204.146 343.717 199.168 340.219 190.723 340.219C182.279 340.219 176.842 345.561 176.842 345.561C176.842 345.561 172.489 339.063 164.511 338.375L164.503 338.383Z" fill="#326C92"/>
</g>
<path d="M229.59 343.336C234.552 338.373 241.224 338.848 241.287 338.848C241.715 338.888 242.095 338.563 242.134 338.128C242.166 337.693 241.849 337.321 241.422 337.281C241.129 337.257 234.323 336.751 228.886 341.832C226.377 340.692 215.36 336.379 203.885 342.671C201.384 340.93 196.548 338.532 189.536 339.347C182.841 340.122 179.05 342.631 177.151 344.388C171.223 338.318 164.1 337.606 163.783 337.582C163.364 337.542 162.968 337.867 162.937 338.294C162.897 338.729 163.222 339.109 163.649 339.141C163.657 339.141 163.768 339.157 163.942 339.181C161.116 340.043 159.352 341.215 159.249 341.278C158.892 341.523 158.798 342.006 159.035 342.37C159.185 342.592 159.431 342.718 159.684 342.718C159.834 342.718 159.985 342.679 160.119 342.584C160.151 342.568 163.063 340.637 167.337 340.035C167.812 340.194 168.318 340.384 168.849 340.613C165.271 341.642 163.229 343.81 163.127 343.921C162.834 344.238 162.85 344.736 163.174 345.029C163.324 345.172 163.514 345.235 163.704 345.235C163.918 345.235 164.124 345.148 164.282 344.982C164.306 344.958 166.83 342.275 171.144 341.737C172.758 342.647 174.452 343.882 176.051 345.52C175.742 345.9 175.576 346.145 175.552 346.193C175.33 346.565 175.441 347.039 175.813 347.269C175.94 347.348 176.082 347.388 176.225 347.388C176.486 347.388 176.747 347.253 176.889 347.016C176.921 346.968 180.11 342.022 189.71 340.906C199.326 339.79 204.652 345.322 204.7 345.37C204.993 345.686 205.491 345.702 205.808 345.409C206.125 345.116 206.14 344.618 205.848 344.301C205.808 344.254 205.594 344.04 205.23 343.723C207.581 342.52 209.915 341.776 212.155 341.365C212.765 341.745 214.458 342.932 215.843 345.156C215.994 345.393 216.247 345.528 216.508 345.528C216.65 345.528 216.793 345.488 216.92 345.409C217.291 345.18 217.402 344.697 217.173 344.325C216.255 342.853 215.226 341.784 214.379 341.064C216.263 340.89 218.035 340.93 219.666 341.088C220.346 341.341 223.006 342.473 224.675 345.156C224.826 345.393 225.079 345.528 225.34 345.528C225.483 345.528 225.625 345.488 225.752 345.409C226.124 345.18 226.235 344.697 226.005 344.325C225.364 343.296 224.604 342.473 223.844 341.808C226.773 342.528 228.609 343.454 228.656 343.478C228.957 343.636 229.329 343.573 229.574 343.336H229.59Z" fill="#3FABA8"/>
<path d="M127.354 346.739C127.6 346.739 127.845 346.62 127.995 346.399C128.035 346.335 132.261 340.416 141.458 340.012C141.893 339.996 142.225 339.624 142.209 339.197C142.194 338.761 141.853 338.429 141.394 338.445C131.438 338.88 126.903 345.227 126.713 345.496C126.468 345.853 126.555 346.343 126.911 346.589C127.046 346.684 127.204 346.731 127.362 346.731L127.354 346.739Z" fill="#3FABA8"/>
<path d="M128.043 350.315C128.074 350.252 131.628 344.134 141.568 342.33C141.996 342.251 142.28 341.847 142.201 341.42C142.122 340.992 141.719 340.707 141.291 340.787C130.583 342.726 126.832 349.279 126.674 349.556C126.46 349.935 126.602 350.41 126.974 350.624C127.093 350.695 127.228 350.727 127.354 350.727C127.631 350.727 127.9 350.584 128.043 350.323V350.315Z" fill="#3FABA8"/>
<path d="M142.185 347.46C142.082 347.04 141.655 346.779 141.236 346.882C132.744 348.939 128.225 353.443 128.035 353.641C127.734 353.949 127.734 354.448 128.035 354.749C128.185 354.899 128.383 354.978 128.589 354.978C128.794 354.978 128.992 354.899 129.151 354.741C129.19 354.701 133.535 350.364 141.6 348.409C142.019 348.306 142.28 347.887 142.177 347.46H142.185Z" fill="#3FABA8"/>
<path d="M146.404 348.076C146.246 347.672 145.787 347.474 145.383 347.633C138.45 350.363 133.947 356.275 133.757 356.528C133.496 356.876 133.567 357.367 133.915 357.628C134.058 357.731 134.224 357.787 134.39 357.787C134.628 357.787 134.865 357.676 135.015 357.478C135.063 357.423 139.455 351.661 145.961 349.097C146.364 348.938 146.562 348.479 146.404 348.076Z" fill="#3FABA8"/>
<path d="M153.732 349.043C154.104 348.821 154.231 348.338 154.009 347.966C153.788 347.594 153.313 347.468 152.933 347.689C149.498 349.708 146.166 354.187 146.024 354.377C145.763 354.725 145.842 355.216 146.19 355.477C146.332 355.58 146.491 355.627 146.657 355.627C146.894 355.627 147.132 355.517 147.29 355.311C147.322 355.263 150.574 350.903 153.732 349.043Z" fill="#3FABA8"/>
<path d="M152.134 354.345C149.783 357.226 148.398 361.024 148.343 361.183C148.192 361.594 148.406 362.038 148.81 362.188C148.897 362.22 148.992 362.235 149.079 362.235C149.403 362.235 149.704 362.038 149.815 361.713C149.831 361.673 151.168 358.009 153.352 355.334C153.629 355.002 153.574 354.503 153.242 354.226C152.901 353.949 152.411 354.005 152.134 354.337V354.345Z" fill="#3FABA8"/>
<path d="M159.209 352.042C158.853 351.797 158.362 351.876 158.117 352.232C155.917 355.366 153.851 361.531 153.764 361.793C153.629 362.204 153.851 362.647 154.263 362.782C154.342 362.806 154.429 362.821 154.508 362.821C154.84 362.821 155.141 362.616 155.252 362.283C155.276 362.22 157.333 356.078 159.399 353.126C159.644 352.77 159.565 352.28 159.209 352.034V352.042Z" fill="#3FABA8"/>
<path d="M163.079 352.296C162.683 352.114 162.216 352.288 162.034 352.676C160.064 356.942 158.71 362.141 158.647 362.363C158.536 362.782 158.79 363.21 159.209 363.32C159.272 363.336 159.344 363.344 159.407 363.344C159.755 363.344 160.072 363.107 160.167 362.759C160.182 362.703 161.544 357.472 163.459 353.341C163.641 352.945 163.467 352.478 163.071 352.296H163.079Z" fill="#3FABA8"/>
<path d="M165.992 354.376C165.596 354.218 165.129 354.408 164.971 354.811C164.432 356.157 163.348 360.549 163.301 360.739C163.198 361.158 163.451 361.586 163.878 361.689C163.942 361.705 164.005 361.712 164.068 361.712C164.425 361.712 164.741 361.475 164.828 361.119C164.836 361.071 165.936 356.639 166.435 355.397C166.593 354.993 166.403 354.534 165.999 354.376H165.992Z" fill="#3FABA8"/>
<path d="M171.128 350.839C170.7 350.728 170.281 350.989 170.17 351.409C170.138 351.528 169.434 354.361 168.975 358.753C168.927 359.188 169.244 359.568 169.671 359.616C169.703 359.616 169.727 359.616 169.751 359.616C170.146 359.616 170.487 359.315 170.534 358.911C170.985 354.646 171.69 351.82 171.69 351.789C171.792 351.369 171.539 350.942 171.12 350.839H171.128Z" fill="#3FABA8"/>
<path d="M177.245 349.747C176.802 349.692 176.422 349.993 176.359 350.42C176.359 350.475 175.575 356.229 175.124 359.917C175.069 360.344 175.377 360.74 175.805 360.795C175.836 360.795 175.868 360.795 175.9 360.795C176.288 360.795 176.628 360.503 176.675 360.107C177.126 356.427 177.902 350.689 177.91 350.626C177.965 350.198 177.665 349.803 177.237 349.739L177.245 349.747Z" fill="#3FABA8"/>
<path d="M182.493 349.162C182.065 349.249 181.788 349.66 181.875 350.087C181.875 350.111 182.319 352.359 182.319 355.691C182.319 356.126 182.667 356.474 183.102 356.474C183.537 356.474 183.886 356.126 183.886 355.691C183.886 352.185 183.434 349.874 183.411 349.779C183.324 349.351 182.92 349.074 182.485 349.162H182.493Z" fill="#3FABA8"/>
<path d="M187.827 349.747C187.399 349.81 187.106 350.214 187.17 350.641C187.178 350.712 188.222 357.55 188.705 362.125C188.745 362.528 189.085 362.829 189.489 362.829C189.512 362.829 189.544 362.829 189.576 362.829C190.003 362.781 190.32 362.394 190.272 361.966C189.781 357.352 188.745 350.483 188.729 350.411C188.666 349.984 188.262 349.683 187.835 349.755L187.827 349.747Z" fill="#3FABA8"/>
<path d="M192.623 351.274C192.211 351.401 191.974 351.836 192.101 352.256C192.116 352.311 193.889 358.183 194.166 361.515C194.198 361.927 194.546 362.235 194.95 362.235C194.973 362.235 194.997 362.235 195.013 362.235C195.448 362.196 195.765 361.816 195.733 361.389C195.44 357.891 193.683 352.05 193.612 351.804C193.485 351.393 193.05 351.156 192.631 351.282L192.623 351.274Z" fill="#3FABA8"/>
<path d="M194.395 348.195C194.086 348.496 194.079 348.995 194.387 349.303C194.435 349.351 198.875 353.941 199.998 361.048C200.062 361.436 200.394 361.713 200.774 361.713C200.814 361.713 200.853 361.713 200.901 361.705C201.328 361.634 201.621 361.238 201.55 360.81C200.347 353.189 195.709 348.409 195.511 348.211C195.21 347.902 194.712 347.902 194.403 348.203L194.395 348.195Z" fill="#3FABA8"/>
<path d="M203.513 350.12C203.093 350.017 202.666 350.27 202.563 350.689C202.5 350.951 202.571 351.22 202.745 351.41C203.093 352.035 204.692 356.182 205.546 360.693C205.618 361.073 205.95 361.334 206.314 361.334C206.362 361.334 206.409 361.334 206.465 361.318C206.892 361.239 207.169 360.828 207.09 360.4C206.702 358.374 204.692 350.412 203.513 350.12Z" fill="#3FABA8"/>
<path d="M209.725 350.19C209.338 350.388 209.195 350.862 209.393 351.25C209.417 351.298 211.949 356.149 212.757 360.17C212.828 360.542 213.16 360.803 213.524 360.803C213.572 360.803 213.627 360.803 213.682 360.787C214.11 360.7 214.387 360.288 214.3 359.861C213.453 355.627 210.897 350.728 210.794 350.522C210.596 350.142 210.121 349.992 209.733 350.19H209.725Z" fill="#3FABA8"/>
<path d="M214.656 350.134C214.244 350 213.801 350.221 213.667 350.633C213.564 350.941 213.667 351.266 213.888 351.464C214.331 352.121 216.492 356.861 217.188 359.568C217.283 359.924 217.6 360.153 217.948 360.153C218.011 360.153 218.083 360.146 218.146 360.13C218.565 360.019 218.819 359.592 218.708 359.172C218.383 357.906 215.685 350.474 214.656 350.134Z" fill="#3FABA8"/>
<path d="M221.676 351.994C221.422 351.638 220.932 351.559 220.583 351.812C220.227 352.065 220.148 352.556 220.401 352.904C220.425 352.936 222.879 356.371 224.643 360.32C224.77 360.613 225.063 360.787 225.364 360.787C225.466 360.787 225.577 360.763 225.68 360.715C226.076 360.541 226.258 360.074 226.076 359.679C224.248 355.579 221.778 352.129 221.676 351.986V351.994Z" fill="#3FABA8"/>
<path d="M230.342 351.978C230.081 351.637 229.59 351.566 229.242 351.835C228.894 352.096 228.83 352.595 229.099 352.935C229.131 352.975 231.948 356.694 232.93 361.103C233.009 361.467 233.333 361.72 233.697 361.72C233.753 361.72 233.808 361.72 233.872 361.704C234.291 361.609 234.56 361.19 234.465 360.77C233.413 356.03 230.468 352.152 230.35 351.993L230.342 351.978Z" fill="#3FABA8"/>
<path d="M234.236 349.034C233.919 348.741 233.42 348.749 233.128 349.066C232.827 349.382 232.843 349.881 233.159 350.174C233.199 350.213 237.473 354.289 239.348 359.069C239.467 359.378 239.768 359.568 240.076 359.568C240.171 359.568 240.266 359.552 240.361 359.513C240.765 359.354 240.963 358.895 240.804 358.492C238.802 353.379 234.418 349.208 234.236 349.034Z" fill="#3FABA8"/>
<path d="M239.982 348.409C239.697 348.076 239.198 348.045 238.874 348.33C238.541 348.614 238.509 349.105 238.794 349.438C238.834 349.485 242.981 354.336 244.485 359.03C244.588 359.362 244.896 359.576 245.229 359.576C245.308 359.576 245.387 359.56 245.466 359.536C245.878 359.402 246.107 358.958 245.973 358.547C244.374 353.545 240.156 348.614 239.982 348.409Z" fill="#3FABA8"/>
<path d="M244.152 349.747C243.796 349.501 243.305 349.588 243.06 349.944C242.815 350.301 242.902 350.791 243.258 351.037C243.313 351.076 248.75 354.859 250.12 359.03C250.23 359.362 250.539 359.568 250.863 359.568C250.943 359.568 251.03 359.552 251.109 359.529C251.52 359.394 251.742 358.951 251.607 358.539C250.072 353.878 244.382 349.913 244.144 349.747H244.152Z" fill="#3FABA8"/>
<path d="M247.476 346.247C247.112 346.01 246.629 346.105 246.384 346.469C246.147 346.833 246.242 347.316 246.606 347.561C246.661 347.601 252.13 351.273 254.077 355.76C254.203 356.053 254.496 356.235 254.797 356.235C254.9 356.235 255.003 356.211 255.106 356.172C255.501 355.998 255.683 355.539 255.517 355.143C253.388 350.228 247.714 346.422 247.476 346.263V346.247Z" fill="#3FABA8"/>
<path d="M250.61 344.792C250.199 344.642 249.748 344.848 249.597 345.259C249.447 345.663 249.653 346.114 250.064 346.264C250.128 346.288 256.427 348.654 258.374 352.461C258.517 352.73 258.786 352.889 259.071 352.889C259.19 352.889 259.316 352.865 259.427 352.801C259.815 352.604 259.965 352.129 259.767 351.741C257.543 347.396 250.887 344.887 250.603 344.784L250.61 344.792Z" fill="#3FABA8"/>
<path d="M254.33 343.621C253.894 343.637 253.554 343.993 253.57 344.428C253.586 344.856 253.934 345.188 254.353 345.188C254.353 345.188 254.369 345.188 254.377 345.188C254.417 345.188 259.07 345.085 262.426 347.539C262.568 347.641 262.727 347.689 262.885 347.689C263.13 347.689 263.368 347.578 263.518 347.364C263.771 347.016 263.7 346.525 263.344 346.264C259.537 343.486 254.535 343.605 254.322 343.613L254.33 343.621Z" fill="#3FABA8"/>
<path d="M265.489 340.621C260.772 338.002 251.773 339.972 251.393 340.059C250.974 340.154 250.705 340.574 250.8 340.993C250.895 341.413 251.306 341.682 251.742 341.587C251.829 341.563 260.526 339.656 264.737 341.99C264.855 342.054 264.99 342.085 265.117 342.085C265.394 342.085 265.663 341.943 265.805 341.682C266.019 341.302 265.876 340.827 265.497 340.613L265.489 340.621Z" fill="#3FABA8"/>
<path d="M250.333 337.091C250.492 337.091 250.658 337.043 250.8 336.941C250.832 336.917 253.974 334.661 259.023 334.93C259.458 334.946 259.83 334.622 259.846 334.186C259.87 333.751 259.537 333.387 259.102 333.355C253.483 333.047 250.001 335.556 249.858 335.666C249.51 335.92 249.431 336.418 249.692 336.766C249.843 336.972 250.088 337.083 250.325 337.083L250.333 337.091Z" fill="#3FABA8"/>
<path d="M241.667 335.454C241.382 335.778 241.422 336.277 241.746 336.562C241.897 336.688 242.079 336.752 242.261 336.752C242.482 336.752 242.704 336.657 242.854 336.483C242.886 336.451 245.846 333.032 248.521 331.473C248.893 331.251 249.019 330.776 248.806 330.397C248.584 330.025 248.101 329.898 247.729 330.112C244.833 331.805 241.794 335.303 241.667 335.454Z" fill="#3FABA8"/>
<path d="M236.57 336.474C236.8 336.474 237.022 336.379 237.18 336.189C237.219 336.141 240.947 331.63 243.946 330.348C244.342 330.174 244.532 329.715 244.358 329.319C244.184 328.916 243.725 328.734 243.329 328.908C239.981 330.34 236.127 334.994 235.969 335.192C235.692 335.524 235.739 336.023 236.08 336.3C236.222 336.418 236.404 336.482 236.578 336.482L236.57 336.474Z" fill="#3FABA8"/>
<path d="M227.564 335.833C227.707 335.944 227.881 336.007 228.055 336.007C228.285 336.007 228.514 335.904 228.672 335.714C228.712 335.667 232.55 330.855 235.13 329.201C235.494 328.964 235.605 328.481 235.368 328.117C235.13 327.753 234.648 327.642 234.284 327.879C231.482 329.668 227.604 334.535 227.446 334.741C227.177 335.081 227.232 335.572 227.572 335.841L227.564 335.833Z" fill="#3FABA8"/>
<path d="M218.748 336.11C218.898 336.268 219.112 336.355 219.318 336.355C219.516 336.355 219.706 336.284 219.856 336.141C219.919 336.086 226.037 330.269 229.567 328.575C229.955 328.385 230.121 327.918 229.939 327.531C229.749 327.143 229.282 326.977 228.894 327.167C225.143 328.963 219.041 334.764 218.78 335.01C218.463 335.31 218.455 335.809 218.756 336.118L218.748 336.11Z" fill="#3FABA8"/>
<path d="M213.231 336.205C213.556 336.205 213.833 336.007 213.952 335.73C214.189 335.303 216.334 331.947 218.399 330.467C218.748 330.214 218.835 329.723 218.581 329.375C218.328 329.019 217.837 328.94 217.481 329.193C215.36 330.72 212.44 334.741 212.44 335.421C212.44 335.857 212.788 336.205 213.223 336.205H213.231Z" fill="#3FABA8"/>
<path d="M203.56 336.165C203.647 336.197 203.734 336.213 203.821 336.213C204.146 336.213 204.447 336.015 204.557 335.691C204.565 335.667 205.491 333.071 206.9 330.871C207.129 330.507 207.027 330.016 206.663 329.787C206.298 329.549 205.808 329.66 205.578 330.024C204.075 332.382 203.117 335.05 203.077 335.168C202.935 335.58 203.149 336.023 203.552 336.173L203.56 336.165Z" fill="#3FABA8"/>
<path d="M199.199 336.997C199.286 337.029 199.381 337.045 199.468 337.045C199.793 337.045 200.094 336.847 200.204 336.53C200.671 335.256 202.128 331.663 203.33 330.365C203.623 330.048 203.607 329.55 203.291 329.257C202.974 328.964 202.476 328.98 202.183 329.297C200.521 331.085 198.804 335.794 198.732 335.992C198.582 336.396 198.796 336.847 199.199 336.997Z" fill="#3FABA8"/>
<path d="M191.254 336.459C191.356 336.507 191.467 336.522 191.57 336.522C191.871 336.522 192.164 336.348 192.29 336.056C192.298 336.032 193.485 333.349 194.91 331.719C195.195 331.394 195.163 330.895 194.839 330.611C194.514 330.326 194.016 330.357 193.731 330.682C192.148 332.494 190.905 335.304 190.858 335.422C190.684 335.818 190.858 336.285 191.261 336.459H191.254Z" fill="#3FABA8"/>
<path d="M187.044 335.375C187.17 335.668 187.463 335.842 187.764 335.842C187.867 335.842 187.977 335.818 188.08 335.779C188.476 335.604 188.658 335.138 188.484 334.742C186.529 330.302 183.086 327.825 182.944 327.722C182.588 327.469 182.105 327.556 181.852 327.904C181.599 328.26 181.686 328.743 182.034 328.996C182.065 329.02 185.271 331.339 187.044 335.375Z" fill="#3FABA8"/>
<path d="M172.537 327.436C172.592 327.468 178.354 330.99 180.752 335.224C180.894 335.477 181.163 335.62 181.432 335.62C181.567 335.62 181.693 335.588 181.82 335.517C182.2 335.303 182.334 334.828 182.121 334.448C179.525 329.858 173.605 326.241 173.352 326.091C172.98 325.869 172.497 325.988 172.275 326.36C172.054 326.732 172.173 327.215 172.545 327.436H172.537Z" fill="#3FABA8"/>
<path d="M164.773 328.765C164.836 328.789 171.096 331.385 174.65 336.6C174.8 336.822 175.045 336.941 175.298 336.941C175.449 336.941 175.607 336.893 175.742 336.806C176.098 336.561 176.193 336.07 175.947 335.714C172.133 330.111 165.635 327.42 165.366 327.309C164.97 327.143 164.503 327.341 164.345 327.736C164.179 328.14 164.377 328.599 164.773 328.757V328.765Z" fill="#3FABA8"/>
<path d="M157.721 331.339C157.768 331.362 162.644 333.42 164.63 336.42C164.78 336.649 165.034 336.768 165.287 336.768C165.437 336.768 165.588 336.728 165.722 336.641C166.086 336.404 166.181 335.913 165.944 335.549C163.688 332.146 158.544 329.977 158.33 329.883C157.935 329.716 157.468 329.906 157.301 330.302C157.135 330.706 157.325 331.165 157.721 331.331V331.339Z" fill="#3FABA8"/>
<path d="M144.133 336.055C144.188 336.063 150.044 336.878 153.345 339.925C153.495 340.067 153.685 340.131 153.875 340.131C154.089 340.131 154.294 340.044 154.453 339.877C154.745 339.561 154.73 339.062 154.405 338.77C150.733 335.374 144.592 334.527 144.33 334.496C143.903 334.44 143.507 334.741 143.452 335.169C143.396 335.596 143.697 335.992 144.125 336.047L144.133 336.055Z" fill="#3FABA8"/>
<path d="M267.444 344.026C266.083 339.08 263.447 335.431 262.11 334.925C260.725 334.394 250.705 335.051 250.705 335.051L256.902 333.207C256.902 333.207 256.57 330.374 253.934 330.437C251.299 330.501 242.989 331.822 242.989 331.822C242.989 331.822 247.01 328.657 246.416 328.657C245.822 328.657 244.042 329.052 243.314 329.25C242.593 329.448 240.741 326.219 239.356 326.346C237.972 326.48 234.283 328.72 234.283 328.72C234.283 328.72 232.701 326.678 231.711 326.678C230.722 326.678 228.213 327.469 226.235 328.324C224.256 329.187 217.727 331.094 217.727 331.094C217.727 331.094 216.279 327.865 214.625 327.865C212.97 327.865 207.106 330.501 207.106 330.501C207.106 330.501 206.251 329.646 204.732 329.448C203.22 329.25 194.974 331.759 194.578 331.229C194.182 330.698 193.85 328.459 192.995 328.593C192.14 328.72 192.536 331.229 192.14 331.229C191.745 331.229 188.777 328.918 187.59 328.657C186.402 328.395 179.28 328.522 177.895 328.395C176.51 328.261 167.535 325.823 166.023 326.084C164.504 326.346 158.568 328.197 158.568 328.791C158.568 329.385 160.871 332.107 161.061 332.345C160.8 332.186 156.352 329.59 155.07 329.78C153.756 329.978 150.124 331.561 150.124 331.561L152.815 333.927C152.419 333.753 146.151 330.967 145.771 330.896C145.375 330.833 142.083 332.677 141.489 333.468C141.489 333.468 141.458 333.445 141.41 333.405C142.257 332.234 143.666 330.398 144.418 330.042C145.533 329.511 148.375 330.967 148.375 330.967C148.375 330.967 149.958 329.313 151.936 328.522C153.915 327.731 156.946 329.052 156.946 329.052C156.946 329.052 159.779 326.813 162.027 325.491C164.266 324.169 171.65 325.625 171.65 325.625C171.65 325.625 172.442 324.961 174.159 324.502C175.877 324.043 181.678 327.208 181.678 327.208C181.678 327.208 186.956 327.272 187.748 327.731C188.539 328.197 189.79 329.052 189.79 329.052C189.79 329.052 190.383 327.469 192.496 327.01C194.602 326.543 195.195 329.978 195.195 329.978C195.195 329.978 198.559 328.459 201.993 328.324C205.42 328.197 206.544 329.582 206.544 329.582C206.544 329.582 213.2 325.823 215.179 326.219C217.157 326.615 218.811 328.854 218.811 328.854L224.153 327.604C224.153 327.604 229.1 325.158 231.078 325.356C233.057 325.554 234.046 327.272 234.046 327.272C234.046 327.272 238.328 325.032 239.847 325.095C241.367 325.158 243.67 327.01 243.67 327.01C243.67 327.01 245.055 326.876 246.574 327.137C248.094 327.406 249.21 329.25 249.21 329.25C249.21 329.25 253.238 328.395 255.541 328.593C257.852 328.791 260.361 333.207 260.361 333.207C260.361 333.207 262.933 333.468 263.986 334.394C265.038 335.32 266.819 340.987 266.819 340.987C266.819 340.987 267.547 341.715 267.681 342.443C267.721 342.681 267.642 343.29 267.444 344.026Z" fill="white"/>
</g>
<defs>
<clipPath id="clip0_69_19718">
<rect width="237.284" height="356.67" fill="white" transform="translate(73 110)"/>
</clipPath>
</defs>
</svg>
