<svg width="1920" height="130" viewBox="0 0 1920 130" fill="none" xmlns="http://www.w3.org/2000/svg">
<g clip-path="url(#clip0_69_35200)">
<path d="M-1.61914 24.7969L1939.98 25.0101L1903.43 194.226L-1.61914 183.452V24.7969Z" fill="url(#paint0_linear_69_35200)"/>
<path style="mix-blend-mode:multiply" d="M1957.82 40.6095L1848.32 53.987H1794.84H1507.09L1502 36.1429H1471.44L1449.88 53.7064L1420.51 49.5316L1423.06 31.6875L1222.32 46.8718L1178.59 36.1429L1118.29 40.8003L1046.18 58.4536H669.306L564.902 45.0649L442.664 31.6875V45.0649L263.876 46.681L121.808 40.6095H70.8792L218.581 53.987L-33.5254 58.4536L-10.6087 22.7655H139.641L1924.71 18.2988L1957.82 40.6095Z" fill="url(#paint1_linear_69_35200)"/>
<path d="M2067.86 159.313L1513.42 186.046L911.784 173.97L744.881 187.684L-24.0078 170.098L-21.0562 77.4102L304.817 86.8933L355.745 94.7043C406.977 102.044 486.467 111.931 555.139 114.052C667.13 117.498 753.522 109.743 753.522 109.743L744.42 90.3387L904.411 99.8219C904.411 99.8219 863.796 91.2028 865.524 91.2028C867.253 91.2028 1083.11 82.5838 1169.74 87.3198C1256.38 92.067 1366.39 105.422 1366.39 105.422L1282.95 111.46C1282.95 111.46 1422.51 127.845 1508.4 124.388C1594.3 120.943 1685.38 111.46 1685.38 111.46L1586.44 99.8219C1586.44 99.8219 1802.79 68.7799 1940.13 79.9914C2077.47 91.2028 2067.88 159.313 2067.88 159.313H2067.86Z" fill="url(#paint2_linear_69_35200)"/>
<path d="M724.714 167.068L821.903 184.183L544.298 193.958L537.206 194.205L512.056 195.091L441.645 185.541L327.701 170.087L137.689 106.286L298.903 98.5312L392.68 114.052C403.398 117.61 419.951 120.068 440.186 121.717C467.524 123.973 501.562 124.77 536.936 124.882C539.383 124.882 541.829 124.893 544.298 124.893C604.452 124.916 667.366 123.109 706.994 123.109C788.953 123.109 839.657 146.822 839.657 146.822L724.714 167.091V167.068Z" fill="url(#paint3_linear_69_35200)"/>
<path d="M1503.77 191.971C1503.22 191.645 1219.68 173.105 1219.68 173.105C1219.68 173.105 1288.1 143.792 1333.88 140.335C1379.66 136.89 1590.85 126.969 1590.85 126.969L1710.47 146.799L1503.77 191.959V191.971Z" fill="url(#paint4_linear_69_35200)"/>
<path d="M1322.44 63.5392H1041.75C1041.75 63.5392 1047.22 47.2326 1049.3 45.6839C1051.36 44.1352 1110.18 40.2521 1118.67 27.9521C1127.17 15.652 1139.14 4.2722 1148.38 0.389155C1157.62 -3.49389 1224.11 42.059 1229.51 42.059C1234.22 42.059 1235.04 39.6798 1239.43 41.5091C1240.06 41.7672 1240.75 42.1151 1241.55 42.5752C1244.94 44.5055 1264.63 48.3661 1282.21 51.5421C1297.55 54.3029 1311.3 56.5475 1311.3 56.5475L1322.46 63.5392H1322.44Z" fill="url(#paint5_linear_69_35200)"/>
<path style="mix-blend-mode:multiply" d="M1256.61 62.7538C1256.73 63.0232 1256.81 63.2813 1256.85 63.5282H1136.18C1131.42 63.0568 1128.64 62.7538 1128.64 62.7538C1153.98 63.5282 1166.76 48.905 1166.76 48.905C1166.76 48.905 1248.44 63.7302 1239.41 41.498C1240.03 41.7562 1240.73 42.1041 1241.53 42.5642C1244.92 44.4945 1264.6 48.3551 1282.19 51.5311C1282.83 51.9239 1283.19 52.1372 1283.19 52.1372C1283.19 52.1372 1249.65 48.1307 1256.6 62.7538H1256.61Z" fill="url(#paint6_linear_69_35200)"/>
<path d="M713.364 62.2033H553.834C553.834 62.2033 611.227 2.33033 617.983 1.58963C622.618 1.08461 638.374 13.1041 647.813 20.7019C651.022 23.2831 653.503 25.3481 654.558 26.2459C654.928 26.5601 655.119 26.7284 655.119 26.7284C655.119 26.7284 662.29 20.0734 668.62 20.0734C674.949 20.0734 713.353 62.2146 713.353 62.2146L713.364 62.2033Z" fill="url(#paint7_linear_69_35200)"/>
<path style="mix-blend-mode:multiply" d="M666.938 62.2041H610.959C630.486 59.3423 651.192 49.6235 647.814 20.6914C651.024 23.2726 653.504 25.3376 654.559 26.2354C651.967 31.0948 642.349 52.4067 666.938 62.2041Z" fill="url(#paint8_linear_69_35200)"/>
<path style="mix-blend-mode:multiply" opacity="0.8" d="M54.6826 84.6592C54.6826 84.6592 73.9183 85.2989 95.2414 88.7331C68.4417 85.6468 -33.8194 157.326 -35.3906 158.426C-34.1225 157.45 37.3548 102.559 37.3548 90.7532C37.3548 78.9469 9.45523 49.8353 9.17466 49.5547C29.9815 62.4271 54.6714 84.6592 54.6714 84.6592H54.6826Z" fill="url(#paint9_linear_69_35200)"/>
</g>
<defs>
<linearGradient id="paint0_linear_69_35200" x1="977.055" y1="446.018" x2="965.619" y2="-50.4624" gradientUnits="userSpaceOnUse">
<stop stop-color="#E2DAFE"/>
<stop offset="0.99" stop-color="#B7C8F0"/>
</linearGradient>
<linearGradient id="paint1_linear_69_35200" x1="962.14" y1="412.81" x2="962.14" y2="314.881" gradientUnits="userSpaceOnUse">
<stop stop-color="#E2DAFE"/>
<stop offset="0.99" stop-color="#B7C8F0"/>
</linearGradient>
<linearGradient id="paint2_linear_69_35200" x1="1027.02" y1="-186.772" x2="1015.15" y2="639.97" gradientUnits="userSpaceOnUse">
<stop stop-color="#684B67"/>
<stop offset="1" stop-color="#0D164C"/>
</linearGradient>
<linearGradient id="paint3_linear_69_35200" x1="487.456" y1="132.828" x2="536.364" y2="-119.683" gradientUnits="userSpaceOnUse">
<stop stop-color="#6C5BA8"/>
<stop offset="1" stop-color="#291D4C"/>
</linearGradient>
<linearGradient id="paint4_linear_69_35200" x1="1458.92" y1="29.8364" x2="1476.05" y2="392.071" gradientUnits="userSpaceOnUse">
<stop stop-color="#6C5BA8"/>
<stop offset="1" stop-color="#291D4C"/>
</linearGradient>
<linearGradient id="paint5_linear_69_35200" x1="1173.95" y1="-11.967" x2="1184.33" y2="84.1665" gradientUnits="userSpaceOnUse">
<stop stop-color="#E2DAFE"/>
<stop offset="0.99" stop-color="#B7C8F0"/>
</linearGradient>
<linearGradient id="paint6_linear_69_35200" x1="1204.26" y1="42.048" x2="1207.33" y2="70.576" gradientUnits="userSpaceOnUse">
<stop stop-color="#E2DAFE"/>
<stop offset="0.99" stop-color="#B7C8F0"/>
</linearGradient>
<linearGradient id="paint7_linear_69_35200" x1="626.074" y1="-7.46707" x2="635.041" y2="75.6032" gradientUnits="userSpaceOnUse">
<stop stop-color="#E2DAFE"/>
<stop offset="0.99" stop-color="#B7C8F0"/>
</linearGradient>
<linearGradient id="paint8_linear_69_35200" x1="634.089" y1="17.1563" x2="639.599" y2="68.197" gradientUnits="userSpaceOnUse">
<stop stop-color="#E2DAFE"/>
<stop offset="0.99" stop-color="#B7C8F0"/>
</linearGradient>
<linearGradient id="paint9_linear_69_35200" x1="-35.3794" y1="103.996" x2="95.2526" y2="103.996" gradientUnits="userSpaceOnUse">
<stop stop-color="#E2DAFE"/>
<stop offset="0.99" stop-color="#B7C8F0"/>
</linearGradient>
<clipPath id="clip0_69_35200">
<rect width="2176" height="254.452" fill="white" transform="translate(-108 0.140625)"/>
</clipPath>
</defs>
</svg>
