<svg width="1920" height="1080" viewBox="0 0 1920 1080" fill="none" xmlns="http://www.w3.org/2000/svg">
<g clip-path="url(#clip0_69_34539)">
<path d="M1926 47H-2V1147H1926V47Z" fill="url(#paint0_linear_69_34539)"/>
<path d="M218.643 634.769C218.643 634.769 373.036 576.592 530.462 575.332C687.875 574.073 844.212 624.498 844.212 624.498C844.212 624.498 519.885 562.494 502.498 650.64C485.123 738.798 811.994 672.429 924.863 650.579C1037.72 628.728 1095.98 590.714 1312.17 584.026C1528.36 577.337 1729.37 688.923 1719.54 715.114C1709.72 741.305 1461.63 739.801 1440.96 717.889C1420.31 695.978 1487.8 675.07 1487.8 675.07C1487.8 675.07 1493.6 727.463 1633.88 715.114C1774.18 702.777 1425.49 595.642 1304.02 666.706C1182.54 737.771 1368.92 810.315 1566.63 823.166C1764.35 836.017 2134.6 676.072 2127.3 619.399C2120 562.726 1964.09 572.557 1964.34 562.481C1964.59 552.406 2265.07 490.695 2265.07 490.695C2265.07 490.695 2105.38 534.774 2137.36 556.429C2169.35 578.096 2302.33 579.599 2332.06 611.341C2361.78 643.071 2094.14 905.59 1969.17 907.57C1844.19 909.551 177.315 905.272 177.315 905.272L218.619 634.769H218.643Z" fill="url(#paint1_linear_69_34539)"/>
<path d="M473.03 568.535C473.03 568.535 290.674 596.743 277.835 581.63C264.984 566.518 440.799 488.435 506.79 494.732C572.78 501.029 509.052 533.516 509.052 533.516C509.052 533.516 544.56 498.008 501.239 501.029C457.918 504.049 407.297 526.473 422.911 546.11C438.525 565.76 568.745 565.258 568.745 565.258L473.03 568.535V568.535Z" fill="url(#paint2_linear_69_34539)"/>
<path d="M-7.68212 1094.8L30.2223 1104.89C36.7883 1107.48 51.8401 1112.85 70.1442 1115.51C82.1758 1117.27 95.6258 1117.86 108.99 1115.73C138.568 1111.04 167.791 1093.07 180.617 1045.07C180.617 1045.07 170.652 1033.48 143.434 959.994L143.226 965.349L140.206 951.178C134.325 935.05 127.698 916.22 120.276 894.236C108.917 860.635 99.245 824.345 91.1139 788.874L74.9862 756.875L88.3872 776.769L92.9724 770.398L81.5033 743.975L63.8961 703.393L76.6736 718.824C62.8568 644.274 56.6698 586.293 56.6698 586.293C56.6698 586.293 45.702 648.371 35.2477 712.246L6.50148 782.185L26.872 764.786L38.4268 754.919L25.1236 776.292L3.13899 811.592L-8 869.989L17.5671 844.801L30.2957 832.268L16.0509 869.365L-5.33447 925.085L-7.70656 1094.8H-7.68212Z" fill="url(#paint3_linear_69_34539)"/>
<path d="M325.264 911.178C335.266 964.966 335.266 1002.41 335.266 1002.41C335.266 1002.41 186.926 1061.15 123.906 976.044C123.906 976.044 139.032 961.322 167.729 862.881L196.793 804.765L176.704 829.085C181.631 807.32 185.092 784.871 187.488 762.96L204.728 728.663L189.97 735.644C195.24 663.724 190.154 603.908 190.154 603.908C190.154 603.908 224.084 662.978 253.454 716.912L282.543 755.465L271.966 751.479L242.67 740.45L284.731 778.158L296.469 788.686L319.836 827.703L300.565 818.117L277.603 806.697L306.471 835.785L335.266 864.801L325.264 911.203V911.178Z" fill="url(#paint4_linear_69_34539)"/>
<path d="M490.246 1022.12L454.396 1034.55C448.319 1037.37 434.295 1043.34 416.626 1047.65C405.01 1050.49 391.829 1052.59 378.294 1052.59C348.349 1052.59 316.669 1042.29 296.469 1006.8C296.469 1006.8 304.49 996.625 319.86 936.552L320.912 940.661L321.682 929.351C324.959 916.17 328.554 900.824 332.442 882.936C338.397 855.596 342.26 826.385 344.73 797.993L355.637 771.314L345.513 788.322L339.986 783.969L347.176 762.155L358.205 728.665L348.007 742.139C349.963 682.874 346.992 637.34 346.992 637.34C346.992 637.34 367.546 683.938 387.88 731.979L427.227 782.465L404.387 771.521L391.438 765.31L407.933 780.178L435.175 804.755L455.325 848.48L426.127 832.168L411.589 824.05L431.47 850.95L461.317 891.36L490.259 1022.12H490.246Z" fill="url(#paint5_linear_69_34539)"/>
<path d="M209.454 1067.65L173.604 1080.09C167.527 1082.9 153.502 1088.88 135.834 1093.18C124.218 1096.02 111.037 1098.12 97.5016 1098.12C67.5571 1098.12 35.8764 1087.83 15.677 1052.33C15.677 1052.33 23.6981 1042.16 39.0677 982.086L40.1192 986.194L40.8895 974.884C44.1664 961.703 47.7612 946.358 51.6495 928.469C57.6042 901.129 61.4679 871.918 63.9378 843.527L74.8446 816.847L64.7204 833.855L59.1937 829.502L66.3833 807.689L77.4123 774.198L67.2148 787.673C69.1711 728.407 66.1999 682.873 66.1999 682.873C66.1999 682.873 86.7539 729.471 107.088 777.512L146.435 827.998L123.594 817.055L110.646 810.843L127.14 825.712L154.383 850.288L174.533 894.013L145.335 877.702L130.796 869.583L150.678 896.483L180.524 936.894L209.466 1067.65H209.454Z" fill="url(#paint6_linear_69_34539)"/>
<path d="M441.362 1030.8L479.266 1040.88C485.833 1043.48 500.884 1048.84 519.188 1051.51C531.22 1053.27 544.67 1053.86 558.034 1051.73C587.612 1047.03 616.835 1029.07 629.661 981.069C629.661 981.069 619.696 969.477 592.478 895.992L592.271 901.347L589.25 887.176C583.369 871.048 576.742 852.218 569.32 830.234C557.961 796.633 548.289 760.343 540.158 724.872L524.03 692.873L537.431 712.767L542.017 706.396L530.547 679.973L512.94 639.391L525.718 654.822C511.901 580.273 505.714 522.291 505.714 522.291C505.714 522.291 494.746 584.369 484.292 648.244L455.546 718.183L475.916 700.784L487.471 690.917L474.168 712.29L452.183 747.59L441.044 805.987L466.611 780.799L479.34 768.266L465.095 805.364L443.71 861.083L441.338 1030.8H441.362Z" fill="url(#paint7_linear_69_34539)"/>
<path d="M1894.32 1086.8L1932.22 1096.89C1938.79 1099.48 1953.84 1104.85 1972.14 1107.51C1984.18 1109.27 1997.63 1109.86 2010.99 1107.73C2040.57 1103.04 2069.79 1085.07 2082.62 1037.07C2082.62 1037.07 2072.65 1025.48 2045.43 951.994L2045.23 957.349L2042.21 943.178C2036.32 927.05 2029.7 908.22 2022.28 886.236C2010.92 852.635 2001.25 816.345 1993.11 780.874L1976.99 748.875L1990.39 768.769L1994.97 762.398L1983.5 735.975L1965.9 695.393L1978.67 710.824C1964.86 636.274 1958.67 578.293 1958.67 578.293C1958.67 578.293 1947.7 640.371 1937.25 704.246L1908.5 774.185L1928.87 756.786L1940.43 746.919L1927.12 768.292L1905.14 803.592L1894 861.989L1919.57 836.801L1932.3 824.268L1918.05 861.365L1896.67 917.085L1894.29 1086.8H1894.32Z" fill="url(#paint8_linear_69_34539)"/>
<path d="M646.588 723.565C646.013 721.621 625.582 814.67 625.582 814.67H633.517L639.949 804.815L594.072 921.854C594.072 921.854 548.623 1057.12 658.387 1066.33C768.139 1075.55 794.293 1021.74 794.293 1021.74L752.28 962.571L778.642 976.938L772.003 954L695.265 854.751L722.703 872.542L681.326 814.022L700.4 825.173C700.4 825.173 666.311 790.02 646.6 723.565H646.588Z" fill="url(#paint9_linear_69_34539)"/>
<path d="M1409.59 918.993C1419.59 972.78 1419.59 1010.22 1419.59 1010.22C1419.59 1010.22 1271.25 1068.96 1208.23 983.858C1208.23 983.858 1223.35 969.137 1252.05 870.695L1281.12 812.579L1261.03 836.899C1265.95 815.135 1269.41 792.686 1271.81 770.774L1289.05 736.477L1274.29 743.459C1279.56 671.538 1274.48 611.723 1274.48 611.723C1274.48 611.723 1308.41 670.792 1337.78 724.727L1366.86 763.279L1356.29 759.293L1326.99 748.264L1369.05 785.973L1380.79 796.501L1404.16 835.518L1384.89 825.931L1361.93 814.511L1390.79 843.6L1419.59 872.615L1409.59 919.017V918.993Z" fill="url(#paint10_linear_69_34539)"/>
<path d="M1574.57 1029.93L1538.72 1042.37C1532.64 1045.18 1518.62 1051.16 1500.95 1055.46C1489.33 1058.3 1476.15 1060.4 1462.62 1060.4C1432.67 1060.4 1400.99 1050.11 1380.79 1014.61C1380.79 1014.61 1388.81 1004.44 1404.18 944.365L1405.23 948.473L1406.01 937.163C1409.28 923.994 1412.88 908.637 1416.77 890.748C1422.72 863.408 1426.58 834.197 1429.05 805.806L1439.96 779.126L1429.85 796.134L1424.32 791.781L1431.51 769.968L1442.54 736.478L1432.34 749.952C1434.3 690.687 1431.33 645.152 1431.33 645.152C1431.33 645.152 1451.88 691.75 1472.22 739.791L1511.56 790.277L1488.72 779.334L1475.77 773.123L1492.27 787.991L1519.51 812.555L1539.66 856.292L1510.46 839.981L1495.92 831.862L1515.81 858.762L1545.65 899.173L1574.59 1029.93H1574.57Z" fill="url(#paint11_linear_69_34539)"/>
<path d="M1938.84 1060.29L1902.99 1072.72C1896.91 1075.53 1882.89 1081.51 1865.22 1085.82C1853.6 1088.65 1840.42 1090.76 1826.89 1090.76C1796.94 1090.76 1765.26 1080.46 1745.06 1044.97C1745.06 1044.97 1753.08 1034.79 1768.45 974.72L1769.51 978.829L1770.28 967.519C1773.55 954.35 1777.15 938.992 1781.04 921.104C1786.99 893.764 1790.85 864.553 1793.32 836.161L1804.23 809.482L1794.12 826.49L1788.59 822.137L1795.78 800.323L1806.81 766.833L1796.61 780.307C1798.57 721.042 1795.6 675.508 1795.6 675.508C1795.6 675.508 1816.15 722.106 1836.49 770.147L1875.83 820.633L1852.99 809.689L1840.04 803.478L1856.54 818.346L1883.78 842.911L1903.93 886.648L1874.73 870.336L1860.2 862.218L1880.08 889.117L1909.92 929.529L1938.87 1060.29H1938.84Z" fill="url(#paint12_linear_69_34539)"/>
<path d="M1525.67 1038.61L1563.58 1048.7C1570.14 1051.29 1585.19 1056.66 1603.51 1059.33C1615.54 1061.09 1628.99 1061.67 1642.36 1059.55C1671.93 1054.85 1701.16 1036.89 1713.98 988.885C1713.98 988.885 1704.02 977.294 1676.8 903.808L1676.59 909.164L1673.57 894.992C1667.69 878.865 1661.06 860.035 1653.64 838.05C1642.28 804.45 1632.61 768.159 1624.48 732.688L1608.35 700.689L1621.75 720.583L1626.34 714.213L1614.87 687.79L1597.26 647.208L1610.04 662.638C1596.22 588.089 1590.04 530.107 1590.04 530.107C1590.04 530.107 1579.07 592.185 1568.61 656.06L1539.87 726L1560.24 708.601L1571.79 698.733L1558.49 720.106L1536.51 755.406L1525.37 813.804L1550.93 788.615L1563.66 776.083L1549.42 813.18L1528.03 868.899L1525.66 1038.61H1525.67Z" fill="#343474"/>
<path d="M1713.9 675.378C1713.32 673.434 1692.89 766.483 1692.89 766.483H1700.83L1707.26 756.628L1661.38 873.667C1661.38 873.667 1615.93 1008.94 1725.7 1018.14C1835.45 1027.36 1861.6 973.551 1861.6 973.551L1819.59 914.383L1845.95 928.75L1839.31 905.812L1762.57 806.564L1790.01 824.354L1748.64 765.835L1767.71 776.986C1767.71 776.986 1733.62 741.833 1713.91 675.378H1713.9Z" fill="url(#paint13_linear_69_34539)"/>
<path d="M943.29 908.296C953.291 962.083 953.291 999.523 953.291 999.523C953.291 999.523 804.951 1058.26 741.932 973.161C741.932 973.161 757.057 958.439 785.754 859.998L814.818 801.882L794.729 826.202C799.656 804.438 803.117 781.988 805.513 760.077L822.754 725.78L807.995 732.762C813.265 660.841 808.179 601.025 808.179 601.025C808.179 601.025 842.109 660.095 871.479 714.029L900.568 752.582L889.991 748.596L860.695 737.567L902.756 775.276L914.494 785.803L937.861 824.82L918.591 815.234L895.628 803.814L924.496 832.903L953.291 861.918L943.29 908.32V908.296Z" fill="url(#paint14_linear_69_34539)"/>
<path d="M1108.27 1019.25L1072.42 1031.68C1066.34 1034.49 1052.32 1040.47 1034.65 1044.78C1023.04 1047.61 1009.85 1049.72 996.319 1049.72C966.375 1049.72 934.694 1039.42 914.494 1003.92C914.494 1003.92 922.515 993.752 937.885 933.679L938.937 937.788L939.707 926.477C942.984 913.296 946.579 897.951 950.467 880.063C956.422 852.723 960.285 823.512 962.755 795.12L973.662 768.441L963.538 785.449L958.011 781.096L965.201 759.282L976.23 725.792L966.032 739.266C967.989 680.001 965.017 634.467 965.017 634.467C965.017 634.467 985.571 681.065 1005.91 729.106L1045.25 779.592L1022.41 768.648L1009.46 762.437L1025.96 777.305L1053.2 801.882L1073.35 845.607L1044.15 829.295L1029.61 821.177L1049.5 848.076L1079.34 888.487L1108.28 1019.25H1108.27Z" fill="#2B2B60"/>
<path d="M1059.39 1027.91L1097.29 1038C1103.86 1040.59 1118.91 1045.96 1137.21 1048.63C1149.25 1050.39 1162.7 1050.97 1176.06 1048.85C1205.64 1044.15 1234.86 1026.19 1247.69 978.185C1247.69 978.185 1237.72 966.594 1210.5 893.121L1210.3 898.476L1207.28 884.305C1201.39 868.177 1194.77 849.347 1187.35 827.363C1175.99 793.762 1166.31 757.472 1158.18 722.001L1142.06 690.002L1155.46 709.896L1160.04 703.525L1148.57 677.102L1130.97 636.52L1143.74 651.951C1129.93 577.401 1123.74 519.42 1123.74 519.42C1123.74 519.42 1112.77 581.498 1102.32 645.373L1073.57 715.312L1093.94 697.913L1105.5 688.046L1092.19 709.419L1070.21 744.719L1059.07 803.116L1084.64 777.928L1097.37 765.395L1083.12 802.492L1061.73 858.212L1059.36 1027.93L1059.39 1027.91Z" fill="#343474"/>
<path d="M939.695 926.477L938.924 937.787L937.873 933.678C938.472 931.355 939.071 928.959 939.695 926.477Z" fill="url(#paint15_linear_69_34539)"/>
<path d="M937.873 933.678C938.472 931.355 939.071 928.959 939.695 926.477L938.924 937.787L937.873 933.678Z" fill="url(#paint16_linear_69_34539)"/>
<path d="M1264.61 720.678C1264.04 718.734 1243.61 811.784 1243.61 811.784H1251.54L1257.97 801.928L1212.1 918.967C1212.1 918.967 1166.65 1054.24 1276.41 1063.44C1386.16 1072.66 1412.32 1018.85 1412.32 1018.85L1370.31 959.684L1396.67 974.051L1390.02 951.113L1313.28 851.864L1340.72 869.655L1299.34 811.135L1318.41 822.287C1318.41 822.287 1284.32 787.133 1264.61 720.678V720.678Z" fill="url(#paint17_linear_69_34539)"/>
<path d="M-56.2504 1006.94L2359.89 1007.17L2314.42 1191.92L-56.2504 1180.15V1006.94Z" fill="url(#paint18_linear_69_34539)"/>
<path style="mix-blend-mode:multiply" d="M2379.43 1024.22L2260.12 1038.79H2201.86H1888.36L1882.81 1019.35H1849.51L1826.02 1038.49L1794.02 1033.94L1796.8 1014.5L1578.09 1031.04L1530.45 1019.35L1464.76 1024.43L1386.18 1043.66L981.5 1027.5L856 1021.5L728.653 1014.5V1029.07L533.861 1030.83L379.076 1024.22H323.589L484.512 1038.79L209.839 1043.66L234.82 1004.78H398.505L2343.36 999.912L2379.43 1024.22Z" fill="url(#paint19_linear_69_34539)"/>
<path d="M2499.31 1153.55L1895.25 1182.67L1239.76 1169.52L1057.92 1184.46L220.208 1165.3L223.424 1064.31L578.466 1074.65L633.953 1083.16C689.77 1091.15 776.376 1101.93 851.194 1104.24C973.21 1107.99 1067.33 1099.54 1067.33 1099.54L1057.42 1078.4L1231.73 1088.73C1231.73 1088.73 1187.48 1079.34 1189.36 1079.34C1191.25 1079.34 1426.42 1069.95 1520.81 1075.11C1615.2 1080.28 1735.06 1094.83 1735.06 1094.83L1644.15 1101.41C1644.15 1101.41 1796.2 1119.26 1889.79 1115.5C1983.37 1111.74 2082.6 1101.41 2082.6 1101.41L1974.8 1088.73C1974.8 1088.73 2210.52 1054.91 2360.16 1067.13C2509.79 1079.34 2499.34 1153.55 2499.34 1153.55H2499.31Z" fill="url(#paint20_linear_69_34539)"/>
<path d="M1687.18 1049.19H1381.37C1381.37 1049.19 1387.32 1031.42 1389.58 1029.74C1391.83 1028.05 1455.92 1023.82 1465.17 1010.42C1474.43 997.016 1487.47 984.617 1497.54 980.387C1507.6 976.156 1580.05 1025.79 1585.93 1025.79C1591.06 1025.79 1591.96 1023.19 1596.74 1025.19C1597.42 1025.47 1598.18 1025.85 1599.05 1026.35C1602.74 1028.45 1624.19 1032.66 1643.35 1036.12C1660.06 1039.13 1675.04 1041.57 1675.04 1041.57L1687.19 1049.19H1687.18Z" fill="url(#paint21_linear_69_34539)"/>
<path style="mix-blend-mode:multiply" d="M1615.46 1048.35C1615.59 1048.64 1615.68 1048.92 1615.71 1049.19H1484.25C1479.06 1048.68 1476.03 1048.35 1476.03 1048.35C1503.64 1049.19 1517.57 1033.26 1517.57 1033.26C1517.57 1033.26 1606.56 1049.41 1596.71 1025.19C1597.4 1025.47 1598.16 1025.85 1599.02 1026.35C1602.72 1028.45 1624.16 1032.66 1643.32 1036.12C1644.02 1036.55 1644.41 1036.78 1644.41 1036.78C1644.41 1036.78 1607.88 1032.42 1615.44 1048.35H1615.46Z" fill="url(#paint22_linear_69_34539)"/>
<path d="M751.24 1033.15H577.43C577.43 1033.15 639.96 967.918 647.321 967.111C652.37 966.56 669.537 979.656 679.821 987.933C683.318 990.746 686.02 992.996 687.169 993.974C687.573 994.316 687.78 994.499 687.78 994.499C687.78 994.499 695.594 987.249 702.49 987.249C709.386 987.249 751.228 1033.16 751.228 1033.16L751.24 1033.15Z" fill="url(#paint23_linear_69_34539)"/>
<path style="mix-blend-mode:multiply" d="M700.655 1033.15H639.666C660.941 1030.03 683.501 1019.44 679.82 987.922C683.317 990.734 686.019 992.984 687.169 993.962C684.344 999.257 673.866 1022.48 700.655 1033.15Z" fill="url(#paint24_linear_69_34539)"/>
<path d="M132.447 1023.21C132.447 1024.38 135.149 1024.98 139.258 1025.22C141.838 1025.37 144.98 1025.38 148.343 1025.31C161.756 1024.99 178.776 1023.21 178.776 1023.21L171.318 795.568L169.141 729.297L147.364 736.866C147.364 736.866 147.095 741.94 146.631 750.743L146.606 751.22C146.019 762.274 145.139 778.976 144.088 798.784C139.698 881.966 132.447 1019.85 132.447 1023.2V1023.21Z" fill="#6A1A3A"/>
<g style="mix-blend-mode:color-dodge" opacity="0.3">
<path d="M180.415 1008.15L173.604 1010.16L164.568 1012.81L164.519 1010.24L160.741 851.728H166.953L165.131 783.304L163.908 737.538L166.231 735.691L166.256 736.168L168.738 783.732L180.415 1008.15Z" fill="#E79A47"/>
</g>
<path style="mix-blend-mode:multiply" opacity="0.82" d="M144.088 798.798H144.124L147.731 798.37L171.318 795.582L169.141 729.311L147.365 736.879C147.365 736.879 147.096 741.954 146.631 750.757L146.607 751.234C146.02 762.287 145.139 778.99 144.088 798.798V798.798Z" fill="url(#paint25_linear_69_34539)"/>
<path d="M-41.2524 701.908C-41.2524 701.908 -10.7577 754.938 94.4331 762.934C134.123 765.954 183.019 732.366 228.138 722.584C302.638 706.444 367.394 709.183 367.394 709.183L311.381 657.12L310.635 657.768C261.665 628.642 8.13335 629.449 8.13335 629.449L-41.2646 701.896L-41.2524 701.908Z" fill="#2D9693"/>
<path d="M-4.97435 619.373L11.2756 623.494L8.14546 629.461C8.14546 629.461 261.677 628.654 310.647 657.779L311.393 657.131L302.724 641.456L331.629 637.396L331.446 637.152L272.229 555.425L294.935 550.498L209.137 424.985L225.9 417.967C225.9 417.967 200.957 391.336 177.199 350.118C153.442 308.9 168.224 267.021 168.224 267.021C119.646 303.52 71.9961 423.664 71.9961 423.664L80.0416 427.614L4.80743 562.333L22.6225 565.072L-7.34644 618.787L-4.98658 619.386L-4.97435 619.373Z" fill="#2D9693"/>
<path d="M-41.2526 701.92C-41.2526 701.92 5.3453 768.913 162.147 781.593C183.203 783.292 202.497 782.987 220.117 781.214L228.138 722.609L246.784 793.771C266.91 790.079 284.456 784.491 299.545 778.071L290.558 736.303L303.249 758.801C348.466 737.538 369.105 709.807 369.105 709.807C369.105 709.807 312.334 686.673 164.385 729.321C108.812 745.339 32.1229 724.516 32.1229 724.516V668.002L20.2381 722.181L-41.2771 701.933L-41.2526 701.92Z" fill="#152822"/>
<path d="M-7.33421 619.766L8.14546 629.462C8.14546 629.462 261.677 628.655 310.647 657.78L311.393 657.132L332.95 638.265C332.95 638.265 332.448 637.862 331.446 637.14C322.324 630.526 271.96 596.937 193.156 598.649C113.19 600.385 11.6669 616.635 -4.98658 619.374C-6.52721 619.631 -7.34644 619.766 -7.34644 619.766H-7.33421Z" fill="#152822"/>
<path d="M280.067 564.204L294.935 550.448C294.935 550.448 250.587 510.832 190.135 508.497C129.684 506.161 88.7594 522.191 88.7594 522.191V493.641L82.2912 523.94L4.80725 564.143L18.5507 572.384L22.6345 565.011C22.6345 565.011 155.679 471.937 280.067 564.204V564.204Z" fill="#152822"/>
<path d="M71.9961 423.725L80.0416 427.662C80.0416 427.662 95.2156 419.507 131.261 413.821C167.295 408.135 209.137 425.033 209.137 425.033L225.9 417.893C225.9 417.893 188.02 382.214 148.942 389.342C109.876 396.483 71.9839 423.713 71.9839 423.713L71.9961 423.725Z" fill="#152822"/>
<path d="M106.575 409.896L114.767 365.756L95.7534 413.821L106.575 409.896Z" fill="#152822"/>
<path d="M229.605 522.767C228.419 519.71 189.084 439.744 189.084 439.744C189.084 439.744 206.117 523.635 207.303 522.767C208.489 521.899 229.605 522.767 229.605 522.767V522.767Z" fill="#152822"/>
<path d="M164.397 619.189C163.211 610.3 155.557 527.289 155.557 527.289L139.845 615.117L134.966 567.345L125.6 619.201H164.409L164.397 619.189Z" fill="#284027"/>
<path d="M17.3524 579.501C17.3524 583.401 20.2136 586.568 23.7595 586.568C27.3054 586.568 30.1666 583.401 30.1666 579.501C30.1666 575.6 27.3054 572.434 23.7595 572.434C20.2136 572.434 17.3524 575.6 17.3524 579.501Z" fill="#FFE2B3"/>
<path d="M50.8794 547.894C50.8794 550.511 52.7991 552.626 55.1711 552.626C57.5432 552.626 59.4629 550.511 59.4629 547.894C59.4629 545.277 57.5432 543.162 55.1711 543.162C52.7991 543.162 50.8794 545.277 50.8794 547.894Z" fill="#FFE2B3"/>
<path d="M82.7557 563.85C86.2942 563.85 89.1628 560.685 89.1628 556.782C89.1628 552.879 86.2942 549.715 82.7557 549.715C79.2172 549.715 76.3486 552.879 76.3486 556.782C76.3486 560.685 79.2172 563.85 82.7557 563.85Z" fill="#FFE2B3"/>
<path d="M102.087 522.398C102.087 524.367 103.53 525.969 105.315 525.969C107.1 525.969 108.543 524.367 108.543 522.398C108.543 520.43 107.1 518.828 105.315 518.828C103.53 518.828 102.087 520.43 102.087 522.398Z" fill="#FFE2B3"/>
<path d="M172.443 541.046C172.443 544.946 175.304 548.113 178.85 548.113C182.395 548.113 185.257 544.946 185.257 541.046C185.257 537.145 182.395 533.979 178.85 533.979C175.304 533.979 172.443 537.145 172.443 541.046Z" fill="#FFE2B3"/>
<path d="M211.521 519.782C211.521 521.995 213.147 523.793 215.152 523.793C217.158 523.793 218.784 521.995 218.784 519.782C218.784 517.569 217.158 515.771 215.152 515.771C213.147 515.771 211.521 517.569 211.521 519.782Z" fill="#FFE2B3"/>
<path d="M54.5843 471.034C56.3939 474.384 60.3311 475.484 63.3634 473.479C66.3958 471.486 67.3862 467.145 65.5765 463.795C63.7669 460.445 59.8297 459.344 56.7974 461.35C53.765 463.343 52.7746 467.683 54.5843 471.034V471.034Z" fill="#FFE2B3"/>
<path d="M81.3619 467.414C82.5724 469.639 85.1891 470.373 87.2066 469.04C89.2241 467.707 89.8843 464.822 88.6861 462.596C87.4756 460.371 84.8589 459.637 82.8414 460.97C80.8239 462.303 80.1637 465.188 81.3619 467.414Z" fill="#FFE2B3"/>
<path d="M83.5996 430.255C84.6389 432.162 86.8765 432.786 88.6005 431.649C90.3368 430.512 90.8992 428.042 89.8599 426.122C88.8328 424.215 86.583 423.591 84.859 424.728C83.1227 425.865 82.5602 428.335 83.5996 430.255Z" fill="#FFE2B3"/>
<path d="M160.924 394.796C162.123 397.009 164.715 397.73 166.72 396.41C168.725 395.089 169.386 392.228 168.187 390.015C166.989 387.802 164.397 387.08 162.392 388.401C160.386 389.721 159.726 392.582 160.924 394.796Z" fill="#FFE2B3"/>
<path d="M177.223 363.836C179.033 367.187 182.97 368.287 186.003 366.282C189.035 364.289 190.025 359.948 188.216 356.598C186.406 353.248 182.469 352.147 179.436 354.152C176.404 356.158 175.402 360.486 177.223 363.836Z" fill="#FFE2B3"/>
<path d="M252.372 563.85C255.91 563.85 258.779 560.685 258.779 556.782C258.779 552.879 255.91 549.715 252.372 549.715C248.833 549.715 245.965 552.879 245.965 556.782C245.965 560.685 248.833 563.85 252.372 563.85Z" fill="#FFE2B3"/>
<path d="M293.223 572.36C293.223 576.261 296.084 579.428 299.63 579.428C303.176 579.428 306.037 576.261 306.037 572.36C306.037 568.46 303.176 565.293 299.63 565.293C296.084 565.293 293.223 568.46 293.223 572.36Z" fill="#FFE2B3"/>
<path d="M296.659 696.198C297.698 692.468 295.791 688.519 292.404 687.382C289.029 686.245 285.446 688.336 284.407 692.077C283.368 695.806 285.275 699.756 288.662 700.893C292.049 702.03 295.619 699.939 296.659 696.198Z" fill="#FFE2B3"/>
<path d="M255.71 714.647C256.382 712.214 255.147 709.647 252.946 708.901C250.745 708.155 248.41 709.524 247.738 711.957C247.065 714.391 248.3 716.958 250.501 717.704C252.702 718.45 255.037 717.081 255.71 714.647Z" fill="#FFE2B3"/>
<path d="M234.214 698.887C235.254 695.158 233.346 691.209 229.959 690.071C226.572 688.934 223.002 691.025 221.963 694.767C220.923 698.496 222.831 702.445 226.218 703.582C229.605 704.72 233.175 702.629 234.214 698.887Z" fill="#FFE2B3"/>
<path d="M170.413 723.94C171.098 721.482 169.838 718.89 167.613 718.132C165.387 717.386 163.028 718.768 162.355 721.225C161.67 723.683 162.93 726.275 165.155 727.033C167.38 727.779 169.74 726.397 170.413 723.94V723.94Z" fill="#FFE2B3"/>
<path d="M138.157 682.93C139.197 679.201 137.289 675.251 133.902 674.114C130.515 672.977 126.945 675.068 125.906 678.81C124.866 682.539 126.774 686.488 130.161 687.625C133.548 688.763 137.118 686.672 138.157 682.93Z" fill="#FFE2B3"/>
<path d="M101.268 689.52C102.307 685.791 100.4 681.841 97.0127 680.704C93.6258 679.567 90.0554 681.658 89.0161 685.399C87.9768 689.129 89.8842 693.078 93.2712 694.215C96.6581 695.352 100.228 693.262 101.268 689.52Z" fill="#FFE2B3"/>
<path d="M67.3494 646.028C67.9975 643.693 66.7992 641.21 64.6839 640.501C62.5686 639.792 60.3188 641.1 59.6707 643.436C59.0227 645.771 60.221 648.253 62.3363 648.963C64.4516 649.672 66.7014 648.363 67.3494 646.028Z" fill="#FFE2B3"/>
<path d="M30.9613 614.016C32.0006 610.287 30.0931 606.337 26.7062 605.2C23.3192 604.063 19.7489 606.154 18.7096 609.896C17.6703 613.625 19.5777 617.574 22.9647 618.711C26.3516 619.848 29.9219 617.758 30.9613 614.016Z" fill="#FFE2B3"/>
<path style="mix-blend-mode:screen" opacity="0.5" d="M245.965 596.032C265.575 596.032 281.473 578.492 281.473 556.856C281.473 535.219 265.575 517.68 245.965 517.68C226.355 517.68 210.457 535.219 210.457 556.856C210.457 578.492 226.355 596.032 245.965 596.032Z" fill="url(#paint26_radial_69_34539)"/>
<path style="mix-blend-mode:screen" opacity="0.5" d="M105.254 550.583C119.179 550.583 130.467 538.129 130.467 522.766C130.467 507.403 119.179 494.949 105.254 494.949C91.3295 494.949 80.0415 507.403 80.0415 522.766C80.0415 538.129 91.3295 550.583 105.254 550.583Z" fill="url(#paint27_radial_69_34539)"/>
<path style="mix-blend-mode:screen" opacity="0.5" d="M95.1667 736.291C119.768 736.291 139.711 714.285 139.711 687.138C139.711 659.991 119.768 637.984 95.1667 637.984C70.5659 637.984 50.6229 659.991 50.6229 687.138C50.6229 714.285 70.5659 736.291 95.1667 736.291Z" fill="url(#paint28_radial_69_34539)"/>
<path style="mix-blend-mode:screen" opacity="0.5" d="M182.738 388.048C196.663 388.048 207.951 375.594 207.951 360.231C207.951 344.868 196.663 332.414 182.738 332.414C168.814 332.414 157.526 344.868 157.526 360.231C157.526 375.594 168.814 388.048 182.738 388.048Z" fill="url(#paint29_radial_69_34539)"/>
<path d="M-36.6308 680.794C-29.7346 684.462 -14.6829 680.488 -7.97018 674.423C-7.97018 674.423 -7.97018 674.423 -7.95795 674.423C-7.82345 674.301 -7.68895 674.167 -7.55445 674.044C-7.48109 673.971 -7.40773 673.898 -7.33436 673.824C-2.48015 668.909 15.3349 683.52 50.1458 691.774C49.6201 698.707 49.3144 711.105 53.6428 713.294C54.8166 713.881 57.1398 713.819 60.0743 713.245C69.4771 711.411 85.1035 704.343 89.1751 696.885C96.4381 696.934 104.141 695.772 112.236 693.865C109.998 704.233 118.019 722.354 121.235 722.599C124.928 722.892 117.542 701.335 139.71 687.066C139.71 687.066 138.805 686.785 137.314 686.455C192.018 668.126 260.381 637.778 332.949 701.189C332.252 700.223 250.416 587.72 148.441 567.068C137.424 564.843 126.175 563.681 114.767 563.852C110.561 563.914 106.464 564.121 102.454 564.452C95.6067 565.026 89.0529 565.968 82.7559 567.252C68.7435 570.101 56.1005 574.6 44.7536 580.188C36.8793 584.064 29.6286 588.466 22.9769 593.21C22.6468 593.442 22.3167 593.687 21.9865 593.919C21.9743 593.919 21.9621 593.944 21.9498 593.944C17.707 597.025 13.7087 600.241 9.95494 603.542C9.91826 603.579 9.88158 603.603 9.84489 603.64C9.84489 603.64 9.82044 603.664 9.80821 603.677C-27.5827 636.666 -40.9592 678.519 -36.643 680.818L-36.6308 680.794Z" fill="url(#paint30_linear_69_34539)"/>
<path d="M87.7325 432.394C86.2164 436.772 85.067 439.743 85.067 439.743L99.3239 436.54C99.3239 436.54 98.9571 433.898 98.6637 429.79C97.9178 419.311 97.6733 399.295 105.254 389.355C109.754 383.461 116.54 378.081 123.693 374.523C127.129 372.811 130.65 371.503 134.049 370.769C140.151 369.437 145.836 369.913 149.871 373.019C160.827 381.444 128.62 406.106 130.467 407.989C132.264 409.823 153.552 376.858 176.82 386.689C191.554 396.728 202.375 407.83 202.534 407.989C202.363 407.475 165.816 301.857 137.51 301.062C135.089 300.989 132.741 301.685 130.467 303.275C101.635 323.474 72.1428 423.664 71.9961 424.166C72.0939 423.982 79.1857 410.544 91.1806 397.082C99.7641 394.808 92.1588 419.605 87.7203 432.407L87.7325 432.394Z" fill="url(#paint31_linear_69_34539)"/>
<path d="M155.545 319.88C155.545 319.88 149.737 303.863 150.923 289.875C152.109 275.887 169.276 267.01 168.738 267.01C168.2 267.01 148.673 274.004 133.499 298.177C124.084 313.168 136.666 315.65 155.545 319.88V319.88Z" fill="url(#paint32_linear_69_34539)"/>
<path d="M4.80722 563.837C4.80722 563.837 43.4819 537.622 41.1832 554.068C39.6426 565.06 29.5184 582.704 22.9769 593.195C19.7244 598.404 17.3523 601.852 17.3523 601.852L38.0775 596.032C38.0775 596.032 53.7895 598.367 44.7536 580.173C35.7299 561.979 55.0978 543.161 59.4629 540.972C62.0184 539.689 78.1583 532.597 91.0458 526.972C100.094 523.023 107.528 519.783 107.528 519.783C107.528 519.783 161.499 508.644 152.121 527.278C145.628 540.19 118.52 555.951 102.454 564.436C95.3131 568.202 90.3489 570.538 90.3489 570.538C90.3489 570.538 149.614 571.553 148.44 567.053C147.267 562.541 165.326 517.949 199.77 519.697C199.77 519.697 184.193 443.081 130.479 432.162C124.023 430.854 118.337 430.047 113.336 429.668C107.626 429.228 102.796 429.313 98.6756 429.79C94.2738 430.292 90.6913 431.221 87.7445 432.395C75.7129 437.163 74.0867 445.881 69.9539 445.71C63.0088 445.404 1.39582 523.353 -0.719491 543.161C-2.8348 562.969 4.81945 563.837 4.81945 563.837H4.80722Z" fill="url(#paint33_linear_69_34539)"/>
<path d="M78.1095 713.426C99.2993 714.185 64.4517 731.78 64.4517 731.78C64.4517 731.78 64.8918 712.962 78.1095 713.426Z" fill="url(#paint34_linear_69_34539)"/>
<path d="M4.80728 701.187C13.6109 713.145 -25.6018 711.874 -32.1067 704.929C-38.6116 697.983 -10.6357 680.217 4.80728 701.187Z" fill="url(#paint35_linear_69_34539)"/>
<path style="mix-blend-mode:multiply" opacity="0.6" d="M-7.98211 674.423C-7.98211 674.423 -7.98211 674.423 -7.96988 674.423C-7.84761 674.325 -7.72533 674.191 -7.56638 674.044C-7.49302 673.971 -7.41965 673.897 -7.34629 673.824C-2.49208 668.909 15.323 683.52 50.1339 691.774C49.6081 698.706 49.3025 711.105 53.6309 713.294C54.8047 713.88 57.1279 713.819 60.0624 713.245C46.8326 699.66 76.3369 687.653 67.4966 687.066C58.6563 686.479 39.643 587.011 82.7439 567.251C68.7315 570.1 56.0886 574.6 44.7417 580.188C35.718 561.994 55.0859 543.176 59.4511 540.987C62.0065 539.704 78.1465 532.612 91.034 526.987C86.8156 523.258 82.964 513.452 83.0863 490.012C83.3553 438.743 112.517 432.19 112.517 432.19C112.517 432.19 112.811 431.285 113.324 429.695C107.614 429.255 102.784 429.341 98.6638 429.817C97.9179 419.339 97.6734 399.323 105.254 389.382C109.754 383.488 116.54 378.109 123.693 374.55C115.99 374.428 115.158 350.781 128.095 332.428C141.031 314.075 148.954 319.907 148.954 319.907C148.954 319.907 148.563 318.305 139.711 309.269C137.583 307.105 137.069 304.219 137.51 301.089C135.089 301.016 132.741 301.713 130.467 303.302C101.635 323.502 72.1429 423.692 71.9962 424.193C72.094 424.01 79.1858 410.572 91.1807 397.11C99.7642 394.835 92.1589 419.632 87.7204 432.434C75.6888 437.203 74.0626 445.921 69.9298 445.75C62.9847 445.444 1.37173 523.392 -0.743584 543.201C-2.85889 563.009 4.79535 563.877 4.79535 563.877C4.79535 563.877 43.4701 537.662 41.1714 554.107C39.6307 565.099 29.5066 582.743 22.965 593.234C22.6349 593.467 22.3047 593.711 21.9746 593.944C21.9624 593.944 21.9501 593.968 21.9379 593.968C17.316 597.306 13.3544 600.51 9.94301 603.566C9.90633 603.603 9.86965 603.627 9.83296 603.664C9.83296 603.664 9.80851 603.689 9.79628 603.701C-20.6006 631.09 -5.42661 646.961 -1.14708 649.235C5.68794 652.867 -12.1394 678.091 -7.99433 674.46L-7.98211 674.423Z" fill="url(#paint36_linear_69_34539)"/>
<path d="M-61.9778 1030.5L14.8703 1029.98L158.846 1028.99L299.557 1028.02C299.557 1028.02 235.278 963.499 221.682 961.75C217.402 961.2 210.139 963.181 202.191 966.14C184.902 972.596 164.397 983.735 164.397 983.735C164.397 983.735 148.416 984.052 130.699 985.776C130.381 985.801 130.063 985.838 129.745 985.874C129.403 985.911 129.048 985.948 128.706 985.984C113.153 987.586 96.6827 990.288 88.7839 994.812C82.8048 998.236 74.8082 1002.3 66.9094 1006.13C51.9922 1013.39 37.4296 1019.87 37.4296 1019.87C37.4296 1019.87 32.0251 1008.02 25.4469 1001.94C23.1848 999.85 20.7883 998.444 18.4162 998.444C9.17245 998.444 -7.32208 1022.47 -7.32208 1022.47L-53.92 1028.01L-61.9778 1030.49L-61.9778 1030.5Z" fill="url(#paint37_linear_69_34539)"/>
<path style="mix-blend-mode:multiply" opacity="0.8" d="M64.4762 1015.65C64.1216 1013.26 65.1243 1009.91 66.8972 1006.15C51.98 1013.4 37.4174 1019.88 37.4174 1019.88C37.4174 1019.88 32.0129 1008.03 25.4347 1001.95C32.3675 1013.27 15.0538 1029.79 14.8704 1029.98L158.846 1028.99C121.174 1026.96 65.5155 1022.76 64.464 1015.65H64.4762Z" fill="url(#paint38_linear_69_34539)"/>
<path style="mix-blend-mode:multiply" opacity="0.8" d="M164.397 983.746C164.397 983.746 148.416 984.064 130.699 985.788C152.965 984.235 237.932 1020.18 239.228 1020.73C238.176 1020.24 178.789 992.721 178.789 986.803C178.789 980.885 201.971 966.285 202.192 966.139C184.902 972.595 164.397 983.734 164.397 983.734V983.746Z" fill="url(#paint39_linear_69_34539)"/>
<path style="mix-blend-mode:multiply" opacity="0.6" d="M128.694 985.983C129.012 985.958 129.354 985.934 129.696 985.885C129.708 985.885 129.721 985.885 129.733 985.885C129.391 985.921 129.036 985.958 128.694 985.995V985.983Z" fill="url(#paint40_linear_69_34539)"/>
<path d="M1809.92 1023.21C1809.92 1024.38 1812.62 1024.98 1816.73 1025.22C1819.31 1025.37 1822.45 1025.38 1825.81 1025.31C1839.23 1024.99 1856.25 1023.21 1856.25 1023.21L1848.79 795.568L1846.61 729.297L1824.83 736.866C1824.83 736.866 1824.57 741.94 1824.1 750.743L1824.08 751.22C1823.49 762.274 1822.61 778.976 1821.56 798.784C1817.17 881.966 1809.92 1019.85 1809.92 1023.2V1023.21Z" fill="#6A1A3A"/>
<g style="mix-blend-mode:color-dodge" opacity="0.3">
<path d="M1809.92 1023.22L1816.73 1025.22L1825.75 1027.87L1825.81 1025.31L1829.58 866.792H1823.38L1825.2 798.369L1826.41 752.602L1824.1 750.756L1824.08 751.233L1821.59 798.797L1809.92 1023.22Z" fill="#E79A47"/>
</g>
<path style="mix-blend-mode:multiply" opacity="0.82" d="M1821.56 798.798H1821.59L1825.2 798.37L1848.79 795.582L1846.61 729.311L1824.83 736.879C1824.83 736.879 1824.57 741.954 1824.1 750.757L1824.08 751.234C1823.49 762.287 1822.61 778.99 1821.56 798.798V798.798Z" fill="url(#paint41_linear_69_34539)"/>
<path d="M1636.2 701.908C1636.2 701.908 1666.7 754.938 1771.89 762.934C1811.58 765.954 1860.48 732.366 1905.6 722.584C1980.1 706.444 2044.85 709.183 2044.85 709.183L1988.84 657.12L1988.09 657.768C1939.12 628.642 1685.59 629.449 1685.59 629.449L1636.19 701.896L1636.2 701.908Z" fill="#2D9693"/>
<path d="M1672.5 619.373L1688.75 623.494L1685.62 629.461C1685.62 629.461 1939.15 628.654 1988.12 657.779L1988.86 657.131L1980.19 641.456L2009.1 637.396L2008.92 637.152L1949.7 555.425L1972.4 550.498L1886.61 424.985L1903.37 417.967C1903.37 417.967 1878.43 391.336 1854.67 350.118C1830.91 308.9 1845.69 267.021 1845.69 267.021C1797.12 303.52 1749.47 423.664 1749.47 423.664L1757.52 427.614L1682.29 562.333L1700.1 565.072L1670.14 618.787L1672.5 619.386V619.373Z" fill="#2D9693"/>
<path d="M1636.21 701.92C1636.21 701.92 1682.8 768.913 1839.61 781.593C1860.66 783.292 1879.95 782.987 1897.57 781.214L1905.6 722.609L1924.24 793.771C1944.37 790.079 1961.91 784.491 1977 778.071L1968.02 736.303L1980.71 758.801C2025.92 737.538 2046.56 709.807 2046.56 709.807C2046.56 709.807 1989.79 686.673 1841.84 729.321C1786.27 745.339 1709.58 724.516 1709.58 724.516V668.002L1697.7 722.181L1636.18 701.933L1636.21 701.92Z" fill="#152822"/>
<path d="M1670.14 619.766L1685.62 629.462C1685.62 629.462 1939.15 628.655 1988.12 657.78L1988.86 657.132L2010.42 638.265C2010.42 638.265 2009.92 637.862 2008.92 637.14C1999.79 630.526 1949.43 596.937 1870.63 598.649C1790.66 600.385 1689.14 616.635 1672.48 619.374C1670.94 619.631 1670.12 619.766 1670.12 619.766H1670.14Z" fill="#152822"/>
<path d="M1957.54 564.204L1972.4 550.448C1972.4 550.448 1928.06 510.832 1867.6 508.497C1807.15 506.161 1766.23 522.191 1766.23 522.191V493.641L1759.76 523.94L1682.28 564.143L1696.02 572.384L1700.1 565.011C1700.1 565.011 1833.16 471.937 1957.54 564.204Z" fill="#152822"/>
<path d="M1749.47 423.725L1757.52 427.662C1757.52 427.662 1772.7 419.507 1808.74 413.821C1844.78 408.135 1886.62 425.033 1886.62 425.033L1903.38 417.893C1903.38 417.893 1865.5 382.214 1826.42 389.342C1787.36 396.483 1749.47 423.713 1749.47 423.713V423.725Z" fill="#152822"/>
<path d="M1784.04 409.896L1792.22 365.756L1773.22 413.821L1784.04 409.896Z" fill="#152822"/>
<path d="M1907.06 522.767C1905.88 519.71 1866.54 439.744 1866.54 439.744C1866.54 439.744 1883.57 523.635 1884.76 522.767C1885.95 521.899 1907.06 522.767 1907.06 522.767V522.767Z" fill="#152822"/>
<path d="M1841.85 619.189C1840.67 610.3 1833.01 527.289 1833.01 527.289L1817.3 615.117L1812.42 567.345L1803.06 619.201H1841.87L1841.85 619.189Z" fill="#284027"/>
<path d="M1694.81 579.501C1694.81 583.401 1697.67 586.568 1701.22 586.568C1704.76 586.568 1707.62 583.401 1707.62 579.501C1707.62 575.6 1704.76 572.434 1701.22 572.434C1697.67 572.434 1694.81 575.6 1694.81 579.501Z" fill="#FFE2B3"/>
<path d="M1728.34 547.894C1728.34 550.511 1730.26 552.626 1732.63 552.626C1735 552.626 1736.92 550.511 1736.92 547.894C1736.92 545.277 1735 543.162 1732.63 543.162C1730.26 543.162 1728.34 545.277 1728.34 547.894Z" fill="#FFE2B3"/>
<path d="M1760.23 563.85C1763.76 563.85 1766.63 560.685 1766.63 556.782C1766.63 552.879 1763.76 549.715 1760.23 549.715C1756.69 549.715 1753.82 552.879 1753.82 556.782C1753.82 560.685 1756.69 563.85 1760.23 563.85Z" fill="#FFE2B3"/>
<path d="M1779.56 522.398C1779.56 524.367 1781 525.969 1782.78 525.969C1784.57 525.969 1786.01 524.367 1786.01 522.398C1786.01 520.43 1784.57 518.828 1782.78 518.828C1781 518.828 1779.56 520.43 1779.56 522.398Z" fill="#FFE2B3"/>
<path d="M1849.91 541.046C1849.91 544.946 1852.77 548.113 1856.32 548.113C1859.87 548.113 1862.73 544.946 1862.73 541.046C1862.73 537.145 1859.87 533.979 1856.32 533.979C1852.77 533.979 1849.91 537.145 1849.91 541.046Z" fill="#FFE2B3"/>
<path d="M1888.98 519.782C1888.98 521.995 1890.6 523.793 1892.61 523.793C1894.61 523.793 1896.24 521.995 1896.24 519.782C1896.24 517.569 1894.61 515.771 1892.61 515.771C1890.6 515.771 1888.98 517.569 1888.98 519.782Z" fill="#FFE2B3"/>
<path d="M1732.05 471.034C1733.86 474.384 1737.8 475.484 1740.83 473.479C1743.87 471.486 1744.86 467.145 1743.05 463.795C1741.24 460.445 1737.3 459.344 1734.27 461.35C1731.23 463.343 1730.24 467.683 1732.05 471.034Z" fill="#FFE2B3"/>
<path d="M1758.83 467.414C1760.04 469.639 1762.66 470.373 1764.68 469.04C1766.69 467.707 1767.35 464.822 1766.16 462.596C1764.95 460.371 1762.33 459.637 1760.31 460.97C1758.29 462.303 1757.63 465.188 1758.83 467.414Z" fill="#FFE2B3"/>
<path d="M1761.07 430.255C1762.11 432.162 1764.35 432.786 1766.07 431.649C1767.81 430.512 1768.37 428.042 1767.33 426.122C1766.3 424.215 1764.05 423.591 1762.33 424.728C1760.59 425.865 1760.03 428.335 1761.07 430.255Z" fill="#FFE2B3"/>
<path d="M1838.38 394.796C1839.58 397.009 1842.17 397.73 1844.18 396.41C1846.18 395.089 1846.84 392.228 1845.64 390.015C1844.45 387.802 1841.85 387.08 1839.85 388.401C1837.84 389.721 1837.18 392.582 1838.38 394.796Z" fill="#FFE2B3"/>
<path d="M1854.68 363.836C1856.49 367.187 1860.43 368.287 1863.46 366.282C1866.49 364.289 1867.48 359.948 1865.67 356.598C1863.86 353.248 1859.93 352.147 1856.89 354.152C1853.86 356.158 1852.86 360.486 1854.68 363.836Z" fill="#FFE2B3"/>
<path d="M1911.68 698.887C1912.72 695.158 1910.82 691.209 1907.43 690.071C1904.04 688.934 1900.47 691.025 1899.43 694.767C1898.39 698.496 1900.3 702.445 1903.69 703.582C1907.07 704.72 1910.64 702.629 1911.68 698.887Z" fill="#FFE2B3"/>
<path d="M1847.87 723.94C1848.56 721.482 1847.3 718.89 1845.07 718.132C1842.85 717.386 1840.49 718.768 1839.81 721.225C1839.13 723.683 1840.39 726.287 1842.61 727.033C1844.84 727.779 1847.2 726.397 1847.87 723.94V723.94Z" fill="#FFE2B3"/>
<path d="M1815.63 682.93C1816.67 679.201 1814.76 675.251 1811.37 674.114C1807.99 672.977 1804.41 675.068 1803.38 678.81C1802.34 682.539 1804.24 686.488 1807.63 687.625C1811.02 688.763 1814.59 686.672 1815.63 682.93Z" fill="#FFE2B3"/>
<path d="M1778.74 689.52C1779.78 685.791 1777.87 681.841 1774.48 680.704C1771.1 679.567 1767.53 681.658 1766.49 685.399C1765.45 689.129 1767.35 693.078 1770.74 694.215C1774.13 695.352 1777.7 693.262 1778.74 689.52Z" fill="#FFE2B3"/>
<path d="M1744.81 646.028C1745.46 643.693 1744.26 641.21 1742.14 640.501C1740.03 639.792 1737.78 641.1 1737.13 643.436C1736.48 645.771 1737.68 648.253 1739.79 648.963C1741.91 649.684 1744.16 648.363 1744.81 646.028Z" fill="#FFE2B3"/>
<path d="M1708.42 614.016C1709.46 610.287 1707.55 606.337 1704.16 605.2C1700.78 604.063 1697.21 606.154 1696.17 609.896C1695.13 613.625 1697.04 617.574 1700.42 618.711C1703.81 619.848 1707.38 617.758 1708.42 614.016Z" fill="#FFE2B3"/>
<path style="mix-blend-mode:screen" opacity="0.5" d="M1923.43 596.032C1943.05 596.032 1958.94 578.492 1958.94 556.856C1958.94 535.219 1943.05 517.68 1923.43 517.68C1903.82 517.68 1887.93 535.219 1887.93 556.856C1887.93 578.492 1903.82 596.032 1923.43 596.032Z" fill="url(#paint42_radial_69_34539)"/>
<path style="mix-blend-mode:screen" opacity="0.5" d="M1782.72 550.583C1796.65 550.583 1807.94 538.129 1807.94 522.766C1807.94 507.403 1796.65 494.949 1782.72 494.949C1768.8 494.949 1757.51 507.403 1757.51 522.766C1757.51 538.129 1768.8 550.583 1782.72 550.583Z" fill="url(#paint43_radial_69_34539)"/>
<path style="mix-blend-mode:screen" opacity="0.5" d="M1772.62 736.291C1797.23 736.291 1817.17 714.285 1817.17 687.138C1817.17 659.991 1797.23 637.984 1772.62 637.984C1748.02 637.984 1728.08 659.991 1728.08 687.138C1728.08 714.285 1748.02 736.291 1772.62 736.291Z" fill="url(#paint44_radial_69_34539)"/>
<path style="mix-blend-mode:screen" opacity="0.5" d="M1835 360.231C1835 375.601 1846.28 388.048 1860.21 388.048C1874.13 388.048 1885.42 375.588 1885.42 360.231C1885.42 344.874 1874.13 332.414 1860.21 332.414C1846.28 332.414 1835 344.874 1835 360.231Z" fill="url(#paint45_radial_69_34539)"/>
<path d="M1640.83 680.794C1647.72 684.462 1662.77 680.488 1669.49 674.423C1669.49 674.423 1669.49 674.423 1669.5 674.423C1669.63 674.301 1669.77 674.167 1669.9 674.044C1669.98 673.971 1670.05 673.898 1670.12 673.824C1674.98 668.909 1692.79 683.52 1727.6 691.774C1727.08 698.707 1726.77 711.105 1731.1 713.294C1732.27 713.881 1734.6 713.819 1737.53 713.245C1746.93 711.411 1762.56 704.343 1766.63 696.885C1773.9 696.934 1781.6 695.772 1789.69 693.865C1787.46 704.233 1795.48 722.354 1798.69 722.599C1802.39 722.892 1795 701.335 1817.17 687.066C1817.17 687.066 1816.26 686.785 1814.77 686.455C1869.48 668.126 1937.84 637.778 2010.41 701.189C2009.71 700.223 1927.87 587.72 1825.9 567.068C1814.88 564.843 1803.63 563.681 1792.22 563.852C1788.02 563.914 1783.92 564.121 1779.91 564.452C1773.06 565.026 1766.51 565.968 1760.21 567.252C1746.2 570.101 1733.56 574.6 1722.21 580.188C1714.34 584.064 1707.09 588.466 1700.43 593.21C1700.1 593.442 1699.77 593.687 1699.44 593.919C1699.43 593.919 1699.42 593.944 1699.41 593.944C1695.16 597.025 1691.17 600.241 1687.41 603.542C1687.38 603.579 1687.34 603.603 1687.3 603.64C1687.3 603.64 1687.28 603.664 1687.27 603.677C1649.87 636.666 1636.5 678.519 1640.81 680.818L1640.83 680.794Z" fill="url(#paint46_linear_69_34539)"/>
<path d="M1765.19 432.394C1763.67 436.772 1762.52 439.743 1762.52 439.743L1776.78 436.54C1776.78 436.54 1776.41 433.898 1776.12 429.79C1775.38 419.311 1775.13 399.295 1782.71 389.355C1787.21 383.461 1794 378.081 1801.15 374.523C1804.59 372.811 1808.11 371.503 1811.51 370.769C1817.61 369.437 1823.29 369.913 1827.33 373.019C1838.28 381.444 1806.08 406.106 1807.92 407.989C1809.72 409.823 1831.01 376.858 1854.28 386.689C1869.01 396.728 1879.83 407.83 1879.99 407.989C1879.82 407.475 1843.27 301.857 1814.97 301.062C1812.55 300.989 1810.2 301.685 1807.92 303.275C1779.09 323.474 1749.6 423.664 1749.45 424.166C1749.55 423.982 1756.64 410.544 1768.64 397.082C1777.22 394.808 1769.62 419.605 1765.18 432.407L1765.19 432.394Z" fill="url(#paint47_linear_69_34539)"/>
<path d="M1833.01 319.88C1833.01 319.88 1827.21 303.863 1828.39 289.875C1829.58 275.887 1846.75 267.01 1846.21 267.01C1845.67 267.01 1826.14 274.004 1810.97 298.177C1801.55 313.168 1814.14 315.65 1833.01 319.88V319.88Z" fill="url(#paint48_linear_69_34539)"/>
<path d="M1682.28 563.837C1682.28 563.837 1720.95 537.622 1718.65 554.068C1717.11 565.06 1706.99 582.704 1700.45 593.195C1697.19 598.404 1694.82 601.852 1694.82 601.852L1715.55 596.032C1715.55 596.032 1731.26 598.367 1722.22 580.173C1713.2 561.979 1732.57 543.161 1736.93 540.972C1739.49 539.689 1755.63 532.597 1768.52 526.972C1777.56 523.023 1785 519.783 1785 519.783C1785 519.783 1838.97 508.644 1829.59 527.278C1823.1 540.19 1795.99 555.951 1779.92 564.436C1772.78 568.202 1767.82 570.538 1767.82 570.538C1767.82 570.538 1827.08 571.553 1825.91 567.053C1824.74 562.541 1842.8 517.949 1877.24 519.697C1877.24 519.697 1861.66 443.081 1807.95 432.162C1801.49 430.854 1795.81 430.047 1790.81 429.668C1785.1 429.228 1780.27 429.313 1776.15 429.79C1771.74 430.292 1768.16 431.221 1765.21 432.395C1753.18 437.163 1751.56 445.881 1747.42 445.71C1740.48 445.404 1678.87 523.353 1676.75 543.161C1674.64 562.969 1682.29 563.837 1682.29 563.837H1682.28Z" fill="url(#paint49_linear_69_34539)"/>
<path d="M1755.57 713.426C1776.76 714.185 1741.91 731.78 1741.91 731.78C1741.91 731.78 1742.35 712.962 1755.57 713.426Z" fill="url(#paint50_linear_69_34539)"/>
<path d="M1682.28 701.187C1691.08 713.145 1651.87 711.874 1645.36 704.929C1638.86 697.983 1666.83 680.217 1682.28 701.187Z" fill="url(#paint51_linear_69_34539)"/>
<path style="mix-blend-mode:multiply" opacity="0.6" d="M1669.49 674.423C1669.49 674.423 1669.49 674.423 1669.5 674.423C1669.62 674.325 1669.74 674.191 1669.9 674.044C1669.98 673.971 1670.05 673.897 1670.12 673.824C1674.98 668.909 1692.79 683.52 1727.6 691.774C1727.08 698.706 1726.77 711.105 1731.1 713.294C1732.27 713.88 1734.6 713.819 1737.53 713.245C1724.3 699.66 1753.81 687.653 1744.97 687.066C1736.13 686.479 1717.11 587.011 1760.21 567.251C1746.2 570.1 1733.56 574.6 1722.21 580.188C1713.19 561.994 1732.56 543.176 1736.92 540.987C1739.48 539.704 1755.62 532.612 1768.5 526.987C1764.29 523.258 1760.43 513.452 1760.56 490.012C1760.82 438.743 1789.99 432.19 1789.99 432.19C1789.99 432.19 1790.28 431.285 1790.79 429.695C1785.08 429.255 1780.25 429.341 1776.13 429.817C1775.39 419.339 1775.14 399.323 1782.72 389.382C1787.22 383.488 1794.01 378.109 1801.16 374.55C1793.46 374.428 1792.63 350.781 1805.56 332.428C1818.5 314.075 1826.42 319.907 1826.42 319.907C1826.42 319.907 1826.03 318.305 1817.18 309.269C1815.05 307.105 1814.54 304.219 1814.98 301.089C1812.56 301.016 1810.21 301.713 1807.94 303.302C1779.1 323.502 1749.61 423.692 1749.47 424.193C1749.56 424.01 1756.66 410.572 1768.65 397.11C1777.23 394.835 1769.63 419.632 1765.19 432.434C1753.16 437.203 1751.53 445.921 1747.4 445.75C1740.45 445.444 1678.84 523.392 1676.73 543.201C1674.61 563.009 1682.26 563.877 1682.26 563.877C1682.26 563.877 1720.94 537.662 1718.64 554.107C1717.1 565.099 1706.98 582.743 1700.43 593.234C1700.1 593.467 1699.77 593.711 1699.44 593.944C1699.43 593.944 1699.42 593.968 1699.41 593.968C1694.79 597.306 1690.82 600.51 1687.41 603.566C1687.38 603.603 1687.34 603.627 1687.3 603.664C1687.3 603.664 1687.28 603.689 1687.27 603.701C1656.87 631.09 1672.04 646.961 1676.32 649.235C1683.16 652.867 1665.33 678.091 1669.48 674.46L1669.49 674.423Z" fill="url(#paint52_linear_69_34539)"/>
<path d="M1615.49 1030.5L1692.34 1029.98L1836.32 1028.99L1977.03 1028.02C1977.03 1028.02 1912.75 963.499 1899.15 961.75C1894.87 961.2 1887.61 963.181 1879.66 966.14C1862.37 972.596 1841.87 983.735 1841.87 983.735C1841.87 983.735 1825.89 984.052 1808.17 985.776C1807.85 985.801 1807.53 985.838 1807.22 985.874C1806.87 985.911 1806.52 985.948 1806.18 985.984C1790.62 987.586 1774.15 990.288 1766.25 994.812C1760.27 998.236 1752.28 1002.3 1744.38 1006.13C1729.46 1013.39 1714.9 1019.87 1714.9 1019.87C1714.9 1019.87 1709.5 1008.02 1702.92 1001.94C1700.65 999.85 1698.26 998.444 1695.89 998.444C1686.64 998.444 1670.15 1022.47 1670.15 1022.47L1623.55 1028.01L1615.49 1030.49V1030.5Z" fill="url(#paint53_linear_69_34539)"/>
<path style="mix-blend-mode:multiply" opacity="0.8" d="M1841.86 983.746C1841.86 983.746 1825.87 984.064 1808.16 985.788C1830.42 984.235 1915.39 1020.18 1916.69 1020.73C1915.63 1020.24 1856.25 992.721 1856.25 986.803C1856.25 980.885 1879.43 966.285 1879.65 966.139C1862.36 972.595 1841.86 983.734 1841.86 983.734V983.746Z" fill="url(#paint54_linear_69_34539)"/>
<path style="mix-blend-mode:multiply" opacity="0.6" d="M1806.15 985.983C1806.47 985.958 1806.81 985.934 1807.15 985.885C1807.17 985.885 1807.18 985.885 1807.19 985.885C1806.85 985.921 1806.49 985.958 1806.15 985.995V985.983Z" fill="url(#paint55_linear_69_34539)"/>
<path d="M602.81 1173.79L502.034 1172.66L313.221 1170.52L128.7 1168.43C128.7 1168.43 212.994 1028.22 230.822 1024.43C236.434 1023.23 245.959 1027.52 256.376 1033.97C279.046 1048 305.946 1072.22 305.946 1072.22C305.946 1072.22 326.903 1072.92 350.135 1076.66C350.551 1076.72 350.966 1076.79 351.394 1076.87C351.847 1076.94 352.299 1077.01 352.764 1077.1C373.171 1080.57 394.764 1086.44 405.121 1096.27C412.971 1103.72 423.449 1112.53 433.806 1120.87C453.357 1136.63 470.231 1141.29 470.231 1141.29C470.231 1141.29 479.548 1124.96 488.168 1111.76C491.139 1107.23 494.282 1104.18 497.387 1104.18C509.504 1104.18 531.147 1156.41 531.147 1156.41C531.147 1156.41 588.199 1161.96 594.985 1163.57C601.771 1165.19 602.81 1173.82 602.81 1173.82V1173.79Z" fill="url(#paint56_linear_69_34539)"/>
<path style="mix-blend-mode:multiply" opacity="0.8" d="M305.946 1072.21C305.946 1072.21 326.903 1072.9 350.135 1076.65C320.936 1073.28 209.522 1151.38 207.81 1152.58C209.191 1151.51 287.067 1091.71 287.067 1078.85C287.067 1065.98 256.67 1034.27 256.364 1033.96C279.033 1047.99 305.933 1072.21 305.933 1072.21H305.946Z" fill="url(#paint57_linear_69_34539)"/>
<path style="mix-blend-mode:screen" opacity="0.42" d="M984.28 482.024C971.134 484.295 958.631 475.485 956.36 462.339C954.089 449.193 962.899 436.69 976.045 434.419C989.191 432.148 1001.69 440.958 1003.97 454.104C1006.24 467.25 997.426 479.753 984.28 482.024Z" fill="url(#paint58_radial_69_34539)"/>
<path style="mix-blend-mode:screen" opacity="0.42" d="M935.717 714.481C931.094 715.275 926.702 712.183 925.895 707.559C925.102 702.936 928.194 698.545 932.817 697.737C937.441 696.944 941.832 700.036 942.639 704.659C943.433 709.283 940.341 713.674 935.717 714.481Z" fill="url(#paint59_radial_69_34539)"/>
<path style="mix-blend-mode:screen" opacity="0.42" d="M986.77 469.082C979.793 470.286 973.145 465.607 971.941 458.631C970.737 451.654 975.416 445.006 982.392 443.802C989.369 442.598 996.017 447.277 997.221 454.253C998.425 461.23 993.746 467.878 986.77 469.082Z" fill="url(#paint60_radial_69_34539)"/>
<path style="mix-blend-mode:screen" opacity="0.42" d="M1873.28 766.074C1879.75 740.132 1863.97 713.854 1838.03 707.381C1812.09 700.909 1785.81 716.691 1779.34 742.633C1772.86 768.575 1788.65 794.853 1814.59 801.326C1840.53 807.799 1866.81 792.016 1873.28 766.074Z" fill="url(#paint61_radial_69_34539)"/>
<path style="mix-blend-mode:screen" opacity="0.42" d="M1841.94 734.22C1849.24 746.395 1845.29 762.181 1833.11 769.486C1820.94 776.791 1805.15 772.837 1797.85 760.662C1790.54 748.488 1794.5 732.701 1806.67 725.396C1818.85 718.092 1834.63 722.045 1841.94 734.22Z" fill="url(#paint62_radial_69_34539)"/>
<path style="mix-blend-mode:screen" opacity="0.42" d="M915.116 601.485C901.341 590.911 898.755 571.171 909.343 557.396C919.917 543.62 939.657 541.035 953.433 551.623C967.208 562.197 969.793 581.937 959.205 595.712C948.631 609.488 928.891 612.073 915.116 601.485Z" fill="url(#paint63_radial_69_34539)"/>
<path style="mix-blend-mode:screen" opacity="0.42" d="M956.332 382.707C951.49 378.987 950.573 372.051 954.294 367.195C958.015 362.352 964.951 361.436 969.807 365.156C974.649 368.877 975.566 375.827 971.845 380.669C968.124 385.512 961.189 386.428 956.332 382.707Z" fill="url(#paint64_radial_69_34539)"/>
<path style="mix-blend-mode:screen" opacity="0.42" d="M929.712 592.458C922.393 586.836 921.025 576.357 926.648 569.052C932.27 561.733 942.749 560.365 950.054 565.988C957.372 571.61 958.74 582.089 953.118 589.394C947.495 596.712 937.017 598.08 929.712 592.458Z" fill="url(#paint65_radial_69_34539)"/>
<path style="mix-blend-mode:screen" opacity="0.42" d="M315.442 389.37C311.598 385.335 311.762 378.946 315.798 375.116C319.833 371.272 326.222 371.436 330.052 375.472C333.896 379.507 333.732 385.896 329.696 389.726C325.661 393.57 319.272 393.406 315.442 389.37Z" fill="url(#paint66_radial_69_34539)"/>
<path style="mix-blend-mode:screen" opacity="0.42" d="M345.25 449.779C343.349 447.782 343.431 444.622 345.428 442.734C347.425 440.833 350.585 440.915 352.473 442.912C354.374 444.909 354.292 448.069 352.295 449.957C350.298 451.858 347.138 451.776 345.25 449.779Z" fill="url(#paint67_radial_69_34539)"/>
<g opacity="0.3">
<path style="mix-blend-mode:screen" opacity="0.42" d="M362.869 386.128C364.661 354.514 391.747 330.343 423.361 332.135C454.974 333.927 479.146 361.012 477.354 392.626C475.562 424.239 448.476 448.411 416.863 446.619C385.249 444.827 361.077 417.742 362.869 386.128V386.128Z" fill="url(#paint68_radial_69_34539)"/>
<path style="mix-blend-mode:screen" opacity="0.42" d="M532.962 181.411C533.591 170.289 543.112 161.794 554.234 162.423C565.355 163.053 573.85 172.574 573.221 183.695C572.592 194.817 563.071 203.312 551.949 202.683C540.828 202.053 532.333 192.532 532.962 181.411V181.411Z" fill="url(#paint69_radial_69_34539)"/>
<path style="mix-blend-mode:screen" opacity="0.42" d="M391.46 398.836C392.417 382.051 406.795 369.206 423.58 370.164C440.365 371.121 453.21 385.498 452.252 402.283C451.295 419.068 436.917 431.913 420.132 430.956C403.347 429.998 390.502 415.621 391.46 398.836Z" fill="url(#paint70_radial_69_34539)"/>
<path style="mix-blend-mode:screen" opacity="0.42" d="M252.844 263.749C254.267 238.633 275.771 219.441 300.887 220.863C326.003 222.286 345.195 243.79 343.773 268.906C342.35 294.022 320.846 313.214 295.73 311.792C270.614 310.369 251.422 288.865 252.844 263.749Z" fill="url(#paint71_radial_69_34539)"/>
<path style="mix-blend-mode:screen" opacity="0.42" d="M275.552 273.843C276.305 260.505 287.727 250.314 301.065 251.066C314.403 251.819 324.594 263.241 323.841 276.579C323.089 289.917 311.667 300.108 298.329 299.355C284.991 298.603 274.8 287.181 275.552 273.843Z" fill="url(#paint72_radial_69_34539)"/>
<path style="mix-blend-mode:screen" opacity="0.42" d="M1526.64 245.582C1537.02 249.632 1542.15 261.314 1538.1 271.697C1534.05 282.08 1522.37 287.209 1511.98 283.16C1501.6 279.111 1496.47 267.429 1500.52 257.046C1504.57 246.663 1516.25 241.533 1526.64 245.582Z" fill="url(#paint73_radial_69_34539)"/>
<path style="mix-blend-mode:screen" opacity="0.42" d="M1430.32 236.1C1438.61 239.328 1442.71 248.672 1439.47 256.961C1436.24 265.251 1426.9 269.355 1418.61 266.113C1410.32 262.885 1406.21 253.542 1409.46 245.252C1412.68 236.962 1422.03 232.858 1430.32 236.1Z" fill="url(#paint74_radial_69_34539)"/>
<path style="mix-blend-mode:screen" opacity="0.42" d="M1463.5 199.92C1466.42 201.055 1467.85 204.338 1466.72 207.252C1465.58 210.166 1462.3 211.602 1459.39 210.467C1456.47 209.331 1455.04 206.048 1456.17 203.135C1457.31 200.221 1460.59 198.784 1463.5 199.92Z" fill="url(#paint75_radial_69_34539)"/>
<path style="mix-blend-mode:screen" opacity="0.42" d="M1424.44 242.642C1428.84 244.352 1431.01 249.317 1429.29 253.722C1427.58 258.127 1422.62 260.302 1418.21 258.578C1413.81 256.869 1411.63 251.903 1413.35 247.498C1415.06 243.093 1420.03 240.918 1424.44 242.642Z" fill="url(#paint76_radial_69_34539)"/>
<path style="mix-blend-mode:screen" opacity="0.42" d="M1398.96 528.013C1377.1 505.031 1378.02 468.671 1401 446.825C1423.98 424.965 1460.33 425.881 1482.19 448.863C1504.05 471.845 1503.13 508.205 1480.15 530.051C1457.17 551.911 1420.81 550.995 1398.96 528.013Z" fill="url(#paint77_radial_69_34539)"/>
<path style="mix-blend-mode:screen" opacity="0.42" d="M1427.84 515.851C1416.24 503.649 1416.72 484.347 1428.92 472.733C1441.12 461.133 1460.43 461.612 1472.04 473.814C1483.64 486.016 1483.16 505.318 1470.96 516.932C1458.76 528.532 1439.46 528.053 1427.84 515.851Z" fill="url(#paint78_radial_69_34539)"/>
</g>
<path style="mix-blend-mode:screen" opacity="0.7" d="M1887.96 778.971C2047.78 778.971 2177.34 649.413 2177.34 489.595C2177.34 329.777 2047.78 200.219 1887.96 200.219C1728.15 200.219 1598.59 329.777 1598.59 489.595C1598.59 649.413 1728.15 778.971 1887.96 778.971Z" fill="url(#paint79_radial_69_34539)"/>
<path style="mix-blend-mode:screen" opacity="0.79" d="M1889.98 588.737C1944.74 588.737 1989.12 544.35 1989.12 489.596C1989.12 434.842 1944.74 390.455 1889.98 390.455C1835.23 390.455 1790.84 434.842 1790.84 489.596C1790.84 544.35 1835.23 588.737 1889.98 588.737Z" fill="url(#paint80_radial_69_34539)"/>
<path style="mix-blend-mode:screen" opacity="0.7" d="M482.859 698.859C598.812 582.905 598.812 394.907 482.859 278.953C366.905 163 178.907 163 62.9528 278.953C-53.0009 394.907 -53.0009 582.905 62.9529 698.859C178.907 814.813 366.905 814.813 482.859 698.859Z" fill="url(#paint81_radial_69_34539)"/>
<path style="mix-blend-mode:screen" opacity="0.79" d="M350.434 560.845C390.159 521.12 390.159 456.713 350.434 416.988C310.709 377.263 246.302 377.263 206.577 416.988C166.852 456.713 166.852 521.119 206.577 560.844C246.302 600.569 310.709 600.57 350.434 560.845Z" fill="url(#paint82_radial_69_34539)"/>
<path style="mix-blend-mode:screen" opacity="0.79" d="M321.272 743.569C360.997 703.844 360.997 639.437 321.272 599.712C281.547 559.987 217.14 559.987 177.415 599.712C137.69 639.437 137.69 703.844 177.415 743.569C217.14 783.294 281.547 783.294 321.272 743.569Z" fill="url(#paint83_radial_69_34539)"/>
<path style="mix-blend-mode:screen" opacity="0.5" d="M1800.94 1301.16C1977.24 1301.16 2120.15 1237.68 2120.15 1159.37C2120.15 1081.06 1977.24 1017.58 1800.94 1017.58C1624.64 1017.58 1481.73 1081.06 1481.73 1159.37C1481.73 1237.68 1624.64 1301.16 1800.94 1301.16Z" fill="url(#paint84_radial_69_34539)"/>
<path style="mix-blend-mode:screen" opacity="0.5" d="M228.905 1267.87C405.202 1267.87 548.119 1216.76 548.119 1153.72C548.119 1090.67 405.202 1039.56 228.905 1039.56C52.608 1039.56 -90.309 1090.67 -90.309 1153.72C-90.309 1216.76 52.608 1267.87 228.905 1267.87Z" fill="url(#paint85_radial_69_34539)"/>
<rect opacity="0.3" x="-13" y="69" width="1936" height="1018" fill="url(#paint86_radial_69_34539)"/>
</g>
<defs>
<linearGradient id="paint0_linear_69_34539" x1="961.993" y1="1336.09" x2="961.993" y2="236.089" gradientUnits="userSpaceOnUse">
<stop stop-color="#D4E4FD"/>
<stop offset="0.47" stop-color="#7C81BD"/>
<stop offset="1" stop-color="#464688"/>
</linearGradient>
<linearGradient id="paint1_linear_69_34539" x1="1247.33" y1="1274.51" x2="1270.48" y2="-117.609" gradientUnits="userSpaceOnUse">
<stop stop-color="#D4E4FD"/>
<stop offset="0.47" stop-color="#7C81BD"/>
<stop offset="1" stop-color="#464688"/>
</linearGradient>
<linearGradient id="paint2_linear_69_34539" x1="363.426" y1="858.467" x2="466.831" y2="361.492" gradientUnits="userSpaceOnUse">
<stop stop-color="#D4E4FD"/>
<stop offset="0.47" stop-color="#7C81BD"/>
<stop offset="1" stop-color="#464688"/>
</linearGradient>
<linearGradient id="paint3_linear_69_34539" x1="361.825" y1="1512.91" x2="114.908" y2="1020.74" gradientUnits="userSpaceOnUse">
<stop stop-color="#D4E4FD"/>
<stop offset="0.47" stop-color="#7C81BD"/>
<stop offset="1" stop-color="#464688"/>
</linearGradient>
<linearGradient id="paint4_linear_69_34539" x1="254.75" y1="1521.29" x2="227.875" y2="879.62" gradientUnits="userSpaceOnUse">
<stop stop-color="#D4E4FD"/>
<stop offset="0.47" stop-color="#7C81BD"/>
<stop offset="1" stop-color="#464688"/>
</linearGradient>
<linearGradient id="paint5_linear_69_34539" x1="454.347" y1="1657.95" x2="403.959" y2="1126.31" gradientUnits="userSpaceOnUse">
<stop stop-color="#B3C8E8"/>
<stop offset="0.47" stop-color="#6368A8"/>
<stop offset="1" stop-color="#333373"/>
</linearGradient>
<linearGradient id="paint6_linear_69_34539" x1="173.555" y1="1703.48" x2="123.167" y2="1171.84" gradientUnits="userSpaceOnUse">
<stop stop-color="#B3C8E8"/>
<stop offset="0.47" stop-color="#6368A8"/>
<stop offset="1" stop-color="#333373"/>
</linearGradient>
<linearGradient id="paint7_linear_69_34539" x1="810.869" y1="1448.91" x2="563.952" y2="956.737" gradientUnits="userSpaceOnUse">
<stop stop-color="#D4E4FD"/>
<stop offset="0.47" stop-color="#7C81BD"/>
<stop offset="1" stop-color="#464688"/>
</linearGradient>
<linearGradient id="paint8_linear_69_34539" x1="2263.82" y1="1504.91" x2="2016.91" y2="1012.74" gradientUnits="userSpaceOnUse">
<stop stop-color="#D4E4FD"/>
<stop offset="0.47" stop-color="#7C81BD"/>
<stop offset="1" stop-color="#464688"/>
</linearGradient>
<linearGradient id="paint9_linear_69_34539" x1="754.2" y1="1687.14" x2="703.799" y2="1155.49" gradientUnits="userSpaceOnUse">
<stop stop-color="#D4E4FD"/>
<stop offset="0.47" stop-color="#7C81BD"/>
<stop offset="1" stop-color="#464688"/>
</linearGradient>
<linearGradient id="paint10_linear_69_34539" x1="1336.84" y1="1475.97" x2="1309.96" y2="834.307" gradientUnits="userSpaceOnUse">
<stop stop-color="#D4E4FD"/>
<stop offset="0.47" stop-color="#7C81BD"/>
<stop offset="1" stop-color="#464688"/>
</linearGradient>
<linearGradient id="paint11_linear_69_34539" x1="1496.4" y1="1469.28" x2="1469.53" y2="827.619" gradientUnits="userSpaceOnUse">
<stop stop-color="#D4E4FD"/>
<stop offset="0.47" stop-color="#7C81BD"/>
<stop offset="1" stop-color="#464688"/>
</linearGradient>
<linearGradient id="paint12_linear_69_34539" x1="1860.67" y1="1499.64" x2="1833.8" y2="857.975" gradientUnits="userSpaceOnUse">
<stop stop-color="#D4E4FD"/>
<stop offset="0.47" stop-color="#7C81BD"/>
<stop offset="1" stop-color="#464688"/>
</linearGradient>
<linearGradient id="paint13_linear_69_34539" x1="1777.88" y1="1457.49" x2="1751.01" y2="815.82" gradientUnits="userSpaceOnUse">
<stop stop-color="#D4E4FD"/>
<stop offset="0.47" stop-color="#7C81BD"/>
<stop offset="1" stop-color="#464688"/>
</linearGradient>
<linearGradient id="paint14_linear_69_34539" x1="829.98" y1="180.286" x2="845.105" y2="812.715" gradientUnits="userSpaceOnUse">
<stop stop-color="#D4E4FD"/>
<stop offset="0.47" stop-color="#7C81BD"/>
<stop offset="1" stop-color="#464688"/>
</linearGradient>
<linearGradient id="paint15_linear_69_34539" x1="983.81" y1="343.886" x2="883.021" y2="1657.43" gradientUnits="userSpaceOnUse">
<stop stop-color="#16274C"/>
<stop offset="1" stop-color="#293D79"/>
</linearGradient>
<linearGradient id="paint16_linear_69_34539" x1="983.81" y1="343.886" x2="883.021" y2="1657.43" gradientUnits="userSpaceOnUse">
<stop stop-color="#16274C"/>
<stop offset="1" stop-color="#293D79"/>
</linearGradient>
<linearGradient id="paint17_linear_69_34539" x1="1289.04" y1="225.72" x2="1304.17" y2="858.149" gradientUnits="userSpaceOnUse">
<stop stop-color="#D4E4FD"/>
<stop offset="0.47" stop-color="#7C81BD"/>
<stop offset="1" stop-color="#464688"/>
</linearGradient>
<linearGradient id="paint18_linear_69_34539" x1="1161.62" y1="1466.82" x2="1150.66" y2="924.702" gradientUnits="userSpaceOnUse">
<stop stop-color="#E2DAFE"/>
<stop offset="0.99" stop-color="#B7C8F0"/>
</linearGradient>
<linearGradient id="paint19_linear_69_34539" x1="1294.64" y1="1429.74" x2="1294.64" y2="1323.03" gradientUnits="userSpaceOnUse">
<stop stop-color="#E2DAFE"/>
<stop offset="0.99" stop-color="#B7C8F0"/>
</linearGradient>
<linearGradient id="paint20_linear_69_34539" x1="1365.31" y1="776.485" x2="1352.38" y2="1677.23" gradientUnits="userSpaceOnUse">
<stop stop-color="#684B67"/>
<stop offset="1" stop-color="#0D164C"/>
</linearGradient>
<linearGradient id="paint21_linear_69_34539" x1="1525.39" y1="966.937" x2="1536.7" y2="1071.68" gradientUnits="userSpaceOnUse">
<stop stop-color="#E2DAFE"/>
<stop offset="0.99" stop-color="#B7C8F0"/>
</linearGradient>
<linearGradient id="paint22_linear_69_34539" x1="1558.42" y1="1025.79" x2="1561.78" y2="1056.87" gradientUnits="userSpaceOnUse">
<stop stop-color="#E2DAFE"/>
<stop offset="0.99" stop-color="#B7C8F0"/>
</linearGradient>
<linearGradient id="paint23_linear_69_34539" x1="656.136" y1="957.243" x2="665.906" y2="1047.75" gradientUnits="userSpaceOnUse">
<stop stop-color="#E2DAFE"/>
<stop offset="0.99" stop-color="#B7C8F0"/>
</linearGradient>
<linearGradient id="paint24_linear_69_34539" x1="664.866" y1="984.07" x2="670.87" y2="1039.68" gradientUnits="userSpaceOnUse">
<stop stop-color="#E2DAFE"/>
<stop offset="0.99" stop-color="#B7C8F0"/>
</linearGradient>
<linearGradient id="paint25_linear_69_34539" x1="157.758" y1="806.819" x2="157.305" y2="711.312" gradientUnits="userSpaceOnUse">
<stop stop-color="#C7A5B3"/>
<stop offset="1" stop-color="#8E4257"/>
</linearGradient>
<radialGradient id="paint26_radial_69_34539" cx="0" cy="0" r="1" gradientUnits="userSpaceOnUse" gradientTransform="translate(223.307 554.751) rotate(180) scale(35.6683 39.0332)">
<stop stop-color="#DC443A"/>
<stop offset="0.12" stop-color="#AF362E"/>
<stop offset="0.29" stop-color="#7A2520"/>
<stop offset="0.45" stop-color="#4E1814"/>
<stop offset="0.6" stop-color="#2C0D0B"/>
<stop offset="0.75" stop-color="#130605"/>
<stop offset="0.88" stop-color="#050101"/>
<stop offset="0.99"/>
</radialGradient>
<radialGradient id="paint27_radial_69_34539" cx="0" cy="0" r="1" gradientUnits="userSpaceOnUse" gradientTransform="translate(81.9431 520.795) rotate(180) scale(25.3255 27.7147)">
<stop stop-color="#DC443A"/>
<stop offset="0.12" stop-color="#AF362E"/>
<stop offset="0.29" stop-color="#7A2520"/>
<stop offset="0.45" stop-color="#4E1814"/>
<stop offset="0.6" stop-color="#2C0D0B"/>
<stop offset="0.75" stop-color="#130605"/>
<stop offset="0.88" stop-color="#050101"/>
<stop offset="0.99"/>
</radialGradient>
<radialGradient id="paint28_radial_69_34539" cx="0" cy="0" r="1" gradientUnits="userSpaceOnUse" gradientTransform="translate(71.8078 684.546) rotate(-180) scale(44.7539 48.9759)">
<stop stop-color="#DC443A"/>
<stop offset="0.12" stop-color="#AF362E"/>
<stop offset="0.29" stop-color="#7A2520"/>
<stop offset="0.45" stop-color="#4E1814"/>
<stop offset="0.6" stop-color="#2C0D0B"/>
<stop offset="0.75" stop-color="#130605"/>
<stop offset="0.88" stop-color="#050101"/>
<stop offset="0.99"/>
</radialGradient>
<radialGradient id="paint29_radial_69_34539" cx="0" cy="0" r="1" gradientUnits="userSpaceOnUse" gradientTransform="translate(159.786 358.848) rotate(180) scale(25.3255 27.7147)">
<stop stop-color="#DC443A"/>
<stop offset="0.12" stop-color="#AF362E"/>
<stop offset="0.29" stop-color="#7A2520"/>
<stop offset="0.45" stop-color="#4E1814"/>
<stop offset="0.6" stop-color="#2C0D0B"/>
<stop offset="0.75" stop-color="#130605"/>
<stop offset="0.88" stop-color="#050101"/>
<stop offset="0.99"/>
</radialGradient>
<linearGradient id="paint30_linear_69_34539" x1="247.457" y1="629.647" x2="85.0179" y2="646.802" gradientUnits="userSpaceOnUse">
<stop offset="0.02" stop-color="#E6DBFF"/>
<stop offset="1" stop-color="#B7C8F0"/>
</linearGradient>
<linearGradient id="paint31_linear_69_34539" x1="221.718" y1="358.689" x2="58.9863" y2="375.88" gradientUnits="userSpaceOnUse">
<stop offset="0.02" stop-color="#E6DBFF"/>
<stop offset="1" stop-color="#B7C8F0"/>
</linearGradient>
<linearGradient id="paint32_linear_69_34539" x1="216.021" y1="287.759" x2="51.9434" y2="305.085" gradientUnits="userSpaceOnUse">
<stop offset="0.02" stop-color="#E6DBFF"/>
<stop offset="1" stop-color="#B7C8F0"/>
</linearGradient>
<linearGradient id="paint33_linear_69_34539" x1="235.266" y1="497.101" x2="72.4605" y2="514.293" gradientUnits="userSpaceOnUse">
<stop offset="0.02" stop-color="#E6DBFF"/>
<stop offset="1" stop-color="#B7C8F0"/>
</linearGradient>
<linearGradient id="paint34_linear_69_34539" x1="84.9445" y1="722.597" x2="64.4517" y2="722.597" gradientUnits="userSpaceOnUse">
<stop stop-color="#E2DAFE"/>
<stop offset="0.99" stop-color="#B7C8F0"/>
</linearGradient>
<linearGradient id="paint35_linear_69_34539" x1="6.10337" y1="700.722" x2="-33.0727" y2="700.722" gradientUnits="userSpaceOnUse">
<stop stop-color="#E2DAFE"/>
<stop offset="0.99" stop-color="#B7C8F0"/>
</linearGradient>
<linearGradient id="paint36_linear_69_34539" x1="148.954" y1="507.375" x2="-8.70351" y2="507.375" gradientUnits="userSpaceOnUse">
<stop stop-color="#E2DAFE"/>
<stop offset="0.99" stop-color="#B7C8F0"/>
</linearGradient>
<linearGradient id="paint37_linear_69_34539" x1="126.138" y1="935.682" x2="115.684" y2="1068.87" gradientUnits="userSpaceOnUse">
<stop stop-color="#E2DAFE"/>
<stop offset="0.99" stop-color="#B7C8F0"/>
</linearGradient>
<linearGradient id="paint38_linear_69_34539" x1="89.0896" y1="1001.05" x2="85.7883" y2="1043.28" gradientUnits="userSpaceOnUse">
<stop stop-color="#E2DAFE"/>
<stop offset="0.99" stop-color="#B7C8F0"/>
</linearGradient>
<linearGradient id="paint39_linear_69_34539" x1="239.228" y1="993.442" x2="130.699" y2="993.442" gradientUnits="userSpaceOnUse">
<stop stop-color="#E2DAFE"/>
<stop offset="0.99" stop-color="#B7C8F0"/>
</linearGradient>
<linearGradient id="paint40_linear_69_34539" x1="129.733" y1="985.934" x2="128.694" y2="985.934" gradientUnits="userSpaceOnUse">
<stop stop-color="#E2DAFE"/>
<stop offset="0.99" stop-color="#B7C8F0"/>
</linearGradient>
<linearGradient id="paint41_linear_69_34539" x1="1835.22" y1="806.819" x2="1834.78" y2="711.312" gradientUnits="userSpaceOnUse">
<stop stop-color="#C7A5B3"/>
<stop offset="1" stop-color="#8E4257"/>
</linearGradient>
<radialGradient id="paint42_radial_69_34539" cx="0" cy="0" r="1" gradientUnits="userSpaceOnUse" gradientTransform="translate(1908.09 -13.6424) rotate(180) scale(35.6683 39.0332)">
<stop stop-color="#DC443A"/>
<stop offset="0.12" stop-color="#AF362E"/>
<stop offset="0.29" stop-color="#7A2520"/>
<stop offset="0.45" stop-color="#4E1814"/>
<stop offset="0.6" stop-color="#2C0D0B"/>
<stop offset="0.75" stop-color="#130605"/>
<stop offset="0.88" stop-color="#050101"/>
<stop offset="0.99"/>
</radialGradient>
<radialGradient id="paint43_radial_69_34539" cx="0" cy="0" r="1" gradientUnits="userSpaceOnUse" gradientTransform="translate(1766.72 520.795) rotate(180) scale(25.3255 27.7147)">
<stop stop-color="#DC443A"/>
<stop offset="0.12" stop-color="#AF362E"/>
<stop offset="0.29" stop-color="#7A2520"/>
<stop offset="0.45" stop-color="#4E1814"/>
<stop offset="0.6" stop-color="#2C0D0B"/>
<stop offset="0.75" stop-color="#130605"/>
<stop offset="0.88" stop-color="#050101"/>
<stop offset="0.99"/>
</radialGradient>
<radialGradient id="paint44_radial_69_34539" cx="0" cy="0" r="1" gradientUnits="userSpaceOnUse" gradientTransform="translate(1756.57 684.546) rotate(-180) scale(44.7538 48.9759)">
<stop stop-color="#DC443A"/>
<stop offset="0.12" stop-color="#AF362E"/>
<stop offset="0.29" stop-color="#7A2520"/>
<stop offset="0.45" stop-color="#4E1814"/>
<stop offset="0.6" stop-color="#2C0D0B"/>
<stop offset="0.75" stop-color="#130605"/>
<stop offset="0.88" stop-color="#050101"/>
<stop offset="0.99"/>
</radialGradient>
<radialGradient id="paint45_radial_69_34539" cx="0" cy="0" r="1" gradientUnits="userSpaceOnUse" gradientTransform="translate(1844.56 358.848) rotate(180) scale(25.3255 27.7147)">
<stop stop-color="#DC443A"/>
<stop offset="0.12" stop-color="#AF362E"/>
<stop offset="0.29" stop-color="#7A2520"/>
<stop offset="0.45" stop-color="#4E1814"/>
<stop offset="0.6" stop-color="#2C0D0B"/>
<stop offset="0.75" stop-color="#130605"/>
<stop offset="0.88" stop-color="#050101"/>
<stop offset="0.99"/>
</radialGradient>
<linearGradient id="paint46_linear_69_34539" x1="1924.93" y1="629.647" x2="1762.48" y2="646.802" gradientUnits="userSpaceOnUse">
<stop offset="0.02" stop-color="#E6DBFF"/>
<stop offset="1" stop-color="#B7C8F0"/>
</linearGradient>
<linearGradient id="paint47_linear_69_34539" x1="1899.19" y1="358.689" x2="1736.46" y2="375.88" gradientUnits="userSpaceOnUse">
<stop offset="0.02" stop-color="#E6DBFF"/>
<stop offset="1" stop-color="#B7C8F0"/>
</linearGradient>
<linearGradient id="paint48_linear_69_34539" x1="1893.49" y1="287.759" x2="1729.4" y2="305.085" gradientUnits="userSpaceOnUse">
<stop offset="0.02" stop-color="#E6DBFF"/>
<stop offset="1" stop-color="#B7C8F0"/>
</linearGradient>
<linearGradient id="paint49_linear_69_34539" x1="1912.74" y1="497.101" x2="1749.93" y2="514.293" gradientUnits="userSpaceOnUse">
<stop offset="0.02" stop-color="#E6DBFF"/>
<stop offset="1" stop-color="#B7C8F0"/>
</linearGradient>
<linearGradient id="paint50_linear_69_34539" x1="1762.41" y1="722.597" x2="1741.92" y2="722.597" gradientUnits="userSpaceOnUse">
<stop stop-color="#E2DAFE"/>
<stop offset="0.99" stop-color="#B7C8F0"/>
</linearGradient>
<linearGradient id="paint51_linear_69_34539" x1="1683.56" y1="700.722" x2="1644.4" y2="700.722" gradientUnits="userSpaceOnUse">
<stop stop-color="#E2DAFE"/>
<stop offset="0.99" stop-color="#B7C8F0"/>
</linearGradient>
<linearGradient id="paint52_linear_69_34539" x1="1826.42" y1="507.375" x2="1668.77" y2="507.375" gradientUnits="userSpaceOnUse">
<stop stop-color="#E2DAFE"/>
<stop offset="0.99" stop-color="#B7C8F0"/>
</linearGradient>
<linearGradient id="paint53_linear_69_34539" x1="1803.6" y1="935.682" x2="1793.15" y2="1068.87" gradientUnits="userSpaceOnUse">
<stop stop-color="#E2DAFE"/>
<stop offset="0.99" stop-color="#B7C8F0"/>
</linearGradient>
<linearGradient id="paint54_linear_69_34539" x1="1916.69" y1="993.442" x2="1808.17" y2="993.442" gradientUnits="userSpaceOnUse">
<stop stop-color="#E2DAFE"/>
<stop offset="0.99" stop-color="#B7C8F0"/>
</linearGradient>
<linearGradient id="paint55_linear_69_34539" x1="1807.2" y1="985.934" x2="1806.16" y2="985.934" gradientUnits="userSpaceOnUse">
<stop stop-color="#E2DAFE"/>
<stop offset="0.99" stop-color="#B7C8F0"/>
</linearGradient>
<linearGradient id="paint56_linear_69_34539" x1="350.648" y1="978.512" x2="371.153" y2="1239.94" gradientUnits="userSpaceOnUse">
<stop stop-color="#E2DAFE"/>
<stop offset="0.99" stop-color="#B7C8F0"/>
</linearGradient>
<linearGradient id="paint57_linear_69_34539" x1="207.822" y1="1093.26" x2="350.147" y2="1093.26" gradientUnits="userSpaceOnUse">
<stop stop-color="#E2DAFE"/>
<stop offset="0.99" stop-color="#B7C8F0"/>
</linearGradient>
<radialGradient id="paint58_radial_69_34539" cx="0" cy="0" r="1" gradientUnits="userSpaceOnUse" gradientTransform="translate(980.082 458.179) rotate(80.19) scale(24.1582)">
<stop stop-color="#E382A9"/>
<stop offset="0.38" stop-color="#E180A7"/>
<stop offset="0.52" stop-color="#DA7DA2"/>
<stop offset="0.61" stop-color="#CE7699"/>
<stop offset="0.69" stop-color="#BD6C8D"/>
<stop offset="0.76" stop-color="#A75F7C"/>
<stop offset="0.82" stop-color="#8C5068"/>
<stop offset="0.87" stop-color="#6B3D50"/>
<stop offset="0.92" stop-color="#462834"/>
<stop offset="0.97" stop-color="#1D1015"/>
<stop offset="1"/>
</radialGradient>
<radialGradient id="paint59_radial_69_34539" cx="0" cy="0" r="1" gradientUnits="userSpaceOnUse" gradientTransform="translate(934.191 706.06) rotate(80.19) scale(8.49504 8.49508)">
<stop stop-color="#E382A9"/>
<stop offset="0.38" stop-color="#E180A7"/>
<stop offset="0.52" stop-color="#DA7DA2"/>
<stop offset="0.61" stop-color="#CE7699"/>
<stop offset="0.69" stop-color="#BD6C8D"/>
<stop offset="0.76" stop-color="#A75F7C"/>
<stop offset="0.82" stop-color="#8C5068"/>
<stop offset="0.87" stop-color="#6B3D50"/>
<stop offset="0.92" stop-color="#462834"/>
<stop offset="0.97" stop-color="#1D1015"/>
<stop offset="1"/>
</radialGradient>
<radialGradient id="paint60_radial_69_34539" cx="0" cy="0" r="1" gradientUnits="userSpaceOnUse" gradientTransform="translate(984.508 456.399) rotate(80.19) scale(12.8315 12.8315)">
<stop stop-color="#E382A9"/>
<stop offset="0.38" stop-color="#E180A7"/>
<stop offset="0.52" stop-color="#DA7DA2"/>
<stop offset="0.61" stop-color="#CE7699"/>
<stop offset="0.69" stop-color="#BD6C8D"/>
<stop offset="0.76" stop-color="#A75F7C"/>
<stop offset="0.82" stop-color="#8C5068"/>
<stop offset="0.87" stop-color="#6B3D50"/>
<stop offset="0.92" stop-color="#462834"/>
<stop offset="0.97" stop-color="#1D1015"/>
<stop offset="1"/>
</radialGradient>
<radialGradient id="paint61_radial_69_34539" cx="0" cy="0" r="1" gradientUnits="userSpaceOnUse" gradientTransform="translate(1826.48 754.964) rotate(-30.97) scale(48.4122)">
<stop stop-color="#E382A9"/>
<stop offset="0.38" stop-color="#E180A7"/>
<stop offset="0.52" stop-color="#DA7DA2"/>
<stop offset="0.61" stop-color="#CE7699"/>
<stop offset="0.69" stop-color="#BD6C8D"/>
<stop offset="0.76" stop-color="#A75F7C"/>
<stop offset="0.82" stop-color="#8C5068"/>
<stop offset="0.87" stop-color="#6B3D50"/>
<stop offset="0.92" stop-color="#462834"/>
<stop offset="0.97" stop-color="#1D1015"/>
<stop offset="1"/>
</radialGradient>
<radialGradient id="paint62_radial_69_34539" cx="0" cy="0" r="1" gradientUnits="userSpaceOnUse" gradientTransform="translate(1819.88 746.669) rotate(-30.96) scale(25.704 25.704)">
<stop stop-color="#E382A9"/>
<stop offset="0.38" stop-color="#E180A7"/>
<stop offset="0.52" stop-color="#DA7DA2"/>
<stop offset="0.61" stop-color="#CE7699"/>
<stop offset="0.69" stop-color="#BD6C8D"/>
<stop offset="0.76" stop-color="#A75F7C"/>
<stop offset="0.82" stop-color="#8C5068"/>
<stop offset="0.87" stop-color="#6B3D50"/>
<stop offset="0.92" stop-color="#462834"/>
<stop offset="0.97" stop-color="#1D1015"/>
<stop offset="1"/>
</radialGradient>
<radialGradient id="paint63_radial_69_34539" cx="0" cy="0" r="1" gradientUnits="userSpaceOnUse" gradientTransform="translate(933.566 576.512) rotate(127.53) scale(31.4358)">
<stop stop-color="#E3821F"/>
<stop offset="0.38" stop-color="#E1801E"/>
<stop offset="0.52" stop-color="#DA7D1D"/>
<stop offset="0.61" stop-color="#CE761C"/>
<stop offset="0.69" stop-color="#BD6C19"/>
<stop offset="0.76" stop-color="#A75F16"/>
<stop offset="0.82" stop-color="#8C5013"/>
<stop offset="0.87" stop-color="#6B3D0E"/>
<stop offset="0.92" stop-color="#462809"/>
<stop offset="0.97" stop-color="#1D1003"/>
<stop offset="1"/>
</radialGradient>
<radialGradient id="paint64_radial_69_34539" cx="0" cy="0" r="1" gradientUnits="userSpaceOnUse" gradientTransform="translate(962.375 373.912) rotate(127.53) scale(11.0531 11.0531)">
<stop stop-color="#E3821F"/>
<stop offset="0.38" stop-color="#E1801E"/>
<stop offset="0.52" stop-color="#DA7D1D"/>
<stop offset="0.61" stop-color="#CE761C"/>
<stop offset="0.69" stop-color="#BD6C19"/>
<stop offset="0.76" stop-color="#A75F16"/>
<stop offset="0.82" stop-color="#8C5013"/>
<stop offset="0.87" stop-color="#6B3D0E"/>
<stop offset="0.92" stop-color="#462809"/>
<stop offset="0.97" stop-color="#1D1003"/>
<stop offset="1"/>
</radialGradient>
<radialGradient id="paint65_radial_69_34539" cx="0" cy="0" r="1" gradientUnits="userSpaceOnUse" gradientTransform="translate(939.175 579.182) rotate(127.53) scale(16.6891 16.6891)">
<stop stop-color="#E3821F"/>
<stop offset="0.38" stop-color="#E1801E"/>
<stop offset="0.52" stop-color="#DA7D1D"/>
<stop offset="0.61" stop-color="#CE761C"/>
<stop offset="0.69" stop-color="#BD6C19"/>
<stop offset="0.76" stop-color="#A75F16"/>
<stop offset="0.82" stop-color="#8C5013"/>
<stop offset="0.87" stop-color="#6B3D0E"/>
<stop offset="0.92" stop-color="#462809"/>
<stop offset="0.97" stop-color="#1D1003"/>
<stop offset="1"/>
</radialGradient>
<radialGradient id="paint66_radial_69_34539" cx="0" cy="0" r="1" gradientUnits="userSpaceOnUse" gradientTransform="translate(322.609 381.282) rotate(136.44) scale(10.0819)">
<stop stop-color="#E3821F"/>
<stop offset="0.38" stop-color="#E1801E"/>
<stop offset="0.52" stop-color="#DA7D1D"/>
<stop offset="0.61" stop-color="#CE761C"/>
<stop offset="0.69" stop-color="#BD6C19"/>
<stop offset="0.76" stop-color="#A75F16"/>
<stop offset="0.82" stop-color="#8C5013"/>
<stop offset="0.87" stop-color="#6B3D0E"/>
<stop offset="0.92" stop-color="#462809"/>
<stop offset="0.97" stop-color="#1D1003"/>
<stop offset="1"/>
</radialGradient>
<radialGradient id="paint67_radial_69_34539" cx="0" cy="0" r="1" gradientUnits="userSpaceOnUse" gradientTransform="translate(348.724 445.209) rotate(136.44) scale(4.99306)">
<stop stop-color="#E3821F"/>
<stop offset="0.38" stop-color="#E1801E"/>
<stop offset="0.52" stop-color="#DA7D1D"/>
<stop offset="0.61" stop-color="#CE761C"/>
<stop offset="0.69" stop-color="#BD6C19"/>
<stop offset="0.76" stop-color="#A75F16"/>
<stop offset="0.82" stop-color="#8C5013"/>
<stop offset="0.87" stop-color="#6B3D0E"/>
<stop offset="0.92" stop-color="#462809"/>
<stop offset="0.97" stop-color="#1D1003"/>
<stop offset="1"/>
</radialGradient>
<radialGradient id="paint68_radial_69_34539" cx="0" cy="0" r="1" gradientUnits="userSpaceOnUse" gradientTransform="translate(421.264 388.822) rotate(-176.76) scale(57.3313)">
<stop stop-color="#E382A9"/>
<stop offset="0.38" stop-color="#E180A7"/>
<stop offset="0.52" stop-color="#DA7DA2"/>
<stop offset="0.61" stop-color="#CE7699"/>
<stop offset="0.69" stop-color="#BD6C8D"/>
<stop offset="0.76" stop-color="#A75F7C"/>
<stop offset="0.82" stop-color="#8C5068"/>
<stop offset="0.87" stop-color="#6B3D50"/>
<stop offset="0.92" stop-color="#462834"/>
<stop offset="0.97" stop-color="#1D1015"/>
<stop offset="1"/>
</radialGradient>
<radialGradient id="paint69_radial_69_34539" cx="0" cy="0" r="1" gradientUnits="userSpaceOnUse" gradientTransform="translate(554.217 181.986) rotate(-176.76) scale(20.1638)">
<stop stop-color="#E382A9"/>
<stop offset="0.38" stop-color="#E180A7"/>
<stop offset="0.52" stop-color="#DA7DA2"/>
<stop offset="0.61" stop-color="#CE7699"/>
<stop offset="0.69" stop-color="#BD6C8D"/>
<stop offset="0.76" stop-color="#A75F7C"/>
<stop offset="0.82" stop-color="#8C5068"/>
<stop offset="0.87" stop-color="#6B3D50"/>
<stop offset="0.92" stop-color="#462834"/>
<stop offset="0.97" stop-color="#1D1015"/>
<stop offset="1"/>
</radialGradient>
<radialGradient id="paint70_radial_69_34539" cx="0" cy="0" r="1" gradientUnits="userSpaceOnUse" gradientTransform="translate(423 400.018) rotate(-176.76) scale(30.4508 30.4508)">
<stop stop-color="#E382A9"/>
<stop offset="0.38" stop-color="#E180A7"/>
<stop offset="0.52" stop-color="#DA7DA2"/>
<stop offset="0.61" stop-color="#CE7699"/>
<stop offset="0.69" stop-color="#BD6C8D"/>
<stop offset="0.76" stop-color="#A75F7C"/>
<stop offset="0.82" stop-color="#8C5068"/>
<stop offset="0.87" stop-color="#6B3D50"/>
<stop offset="0.92" stop-color="#462834"/>
<stop offset="0.97" stop-color="#1D1015"/>
<stop offset="1"/>
</radialGradient>
<radialGradient id="paint71_radial_69_34539" cx="0" cy="0" r="1" gradientUnits="userSpaceOnUse" gradientTransform="translate(299.448 265.791) rotate(-176.76) scale(45.5395)">
<stop stop-color="#E382A9"/>
<stop offset="0.38" stop-color="#E180A7"/>
<stop offset="0.52" stop-color="#DA7DA2"/>
<stop offset="0.61" stop-color="#CE7699"/>
<stop offset="0.69" stop-color="#BD6C8D"/>
<stop offset="0.76" stop-color="#A75F7C"/>
<stop offset="0.82" stop-color="#8C5068"/>
<stop offset="0.87" stop-color="#6B3D50"/>
<stop offset="0.92" stop-color="#462834"/>
<stop offset="0.97" stop-color="#1D1015"/>
<stop offset="1"/>
</radialGradient>
<radialGradient id="paint72_radial_69_34539" cx="0" cy="0" r="1" gradientUnits="userSpaceOnUse" gradientTransform="translate(300.822 274.677) rotate(-176.76) scale(24.1856)">
<stop stop-color="#E382A9"/>
<stop offset="0.38" stop-color="#E180A7"/>
<stop offset="0.52" stop-color="#DA7DA2"/>
<stop offset="0.61" stop-color="#CE7699"/>
<stop offset="0.69" stop-color="#BD6C8D"/>
<stop offset="0.76" stop-color="#A75F7C"/>
<stop offset="0.82" stop-color="#8C5068"/>
<stop offset="0.87" stop-color="#6B3D50"/>
<stop offset="0.92" stop-color="#462834"/>
<stop offset="0.97" stop-color="#1D1015"/>
<stop offset="1"/>
</radialGradient>
<radialGradient id="paint73_radial_69_34539" cx="0" cy="0" r="1" gradientUnits="userSpaceOnUse" gradientTransform="translate(1518.85 263.974) rotate(-68.7) scale(20.1638 20.1637)">
<stop stop-color="#E382A9"/>
<stop offset="0.38" stop-color="#E180A7"/>
<stop offset="0.52" stop-color="#DA7DA2"/>
<stop offset="0.61" stop-color="#CE7699"/>
<stop offset="0.69" stop-color="#BD6C8D"/>
<stop offset="0.76" stop-color="#A75F7C"/>
<stop offset="0.82" stop-color="#8C5068"/>
<stop offset="0.87" stop-color="#6B3D50"/>
<stop offset="0.92" stop-color="#462834"/>
<stop offset="0.97" stop-color="#1D1015"/>
<stop offset="1"/>
</radialGradient>
<radialGradient id="paint74_radial_69_34539" cx="0" cy="0" r="1" gradientUnits="userSpaceOnUse" gradientTransform="translate(1424.02 250.71) rotate(-68.7) scale(16.1009 16.1009)">
<stop stop-color="#E382A9"/>
<stop offset="0.38" stop-color="#E180A7"/>
<stop offset="0.52" stop-color="#DA7DA2"/>
<stop offset="0.61" stop-color="#CE7699"/>
<stop offset="0.69" stop-color="#BD6C8D"/>
<stop offset="0.76" stop-color="#A75F7C"/>
<stop offset="0.82" stop-color="#8C5068"/>
<stop offset="0.87" stop-color="#6B3D50"/>
<stop offset="0.92" stop-color="#462834"/>
<stop offset="0.97" stop-color="#1D1015"/>
<stop offset="1"/>
</radialGradient>
<radialGradient id="paint75_radial_69_34539" cx="0" cy="0" r="1" gradientUnits="userSpaceOnUse" gradientTransform="translate(1460.99 204.811) rotate(-68.7001) scale(5.66336 5.66334)">
<stop stop-color="#E382A9"/>
<stop offset="0.38" stop-color="#E180A7"/>
<stop offset="0.52" stop-color="#DA7DA2"/>
<stop offset="0.61" stop-color="#CE7699"/>
<stop offset="0.69" stop-color="#BD6C8D"/>
<stop offset="0.76" stop-color="#A75F7C"/>
<stop offset="0.82" stop-color="#8C5068"/>
<stop offset="0.87" stop-color="#6B3D50"/>
<stop offset="0.92" stop-color="#462834"/>
<stop offset="0.97" stop-color="#1D1015"/>
<stop offset="1"/>
</radialGradient>
<radialGradient id="paint76_radial_69_34539" cx="0" cy="0" r="1" gradientUnits="userSpaceOnUse" gradientTransform="translate(1420.88 250.21) rotate(-68.6999) scale(8.54976 8.54978)">
<stop stop-color="#E382A9"/>
<stop offset="0.38" stop-color="#E180A7"/>
<stop offset="0.52" stop-color="#DA7DA2"/>
<stop offset="0.61" stop-color="#CE7699"/>
<stop offset="0.69" stop-color="#BD6C8D"/>
<stop offset="0.76" stop-color="#A75F7C"/>
<stop offset="0.82" stop-color="#8C5068"/>
<stop offset="0.87" stop-color="#6B3D50"/>
<stop offset="0.92" stop-color="#462834"/>
<stop offset="0.97" stop-color="#1D1015"/>
<stop offset="1"/>
</radialGradient>
<radialGradient id="paint77_radial_69_34539" cx="0" cy="0" r="1" gradientUnits="userSpaceOnUse" gradientTransform="translate(1440.33 487.329) rotate(136.44) scale(57.427)">
<stop stop-color="#E3821F"/>
<stop offset="0.38" stop-color="#E1801E"/>
<stop offset="0.52" stop-color="#DA7D1D"/>
<stop offset="0.61" stop-color="#CE761C"/>
<stop offset="0.69" stop-color="#BD6C19"/>
<stop offset="0.76" stop-color="#A75F16"/>
<stop offset="0.82" stop-color="#8C5013"/>
<stop offset="0.87" stop-color="#6B3D0E"/>
<stop offset="0.92" stop-color="#462809"/>
<stop offset="0.97" stop-color="#1D1003"/>
<stop offset="1"/>
</radialGradient>
<radialGradient id="paint78_radial_69_34539" cx="0" cy="0" r="1" gradientUnits="userSpaceOnUse" gradientTransform="translate(1449.7 493.727) rotate(136.44) scale(30.4919)">
<stop stop-color="#E3821F"/>
<stop offset="0.38" stop-color="#E1801E"/>
<stop offset="0.52" stop-color="#DA7D1D"/>
<stop offset="0.61" stop-color="#CE761C"/>
<stop offset="0.69" stop-color="#BD6C19"/>
<stop offset="0.76" stop-color="#A75F16"/>
<stop offset="0.82" stop-color="#8C5013"/>
<stop offset="0.87" stop-color="#6B3D0E"/>
<stop offset="0.92" stop-color="#462809"/>
<stop offset="0.97" stop-color="#1D1003"/>
<stop offset="1"/>
</radialGradient>
<radialGradient id="paint79_radial_69_34539" cx="0" cy="0" r="1" gradientUnits="userSpaceOnUse" gradientTransform="translate(1887.96 489.595) scale(289.376 289.376)">
<stop stop-color="#E3821F"/>
<stop offset="0.07" stop-color="#CF761C"/>
<stop offset="0.32" stop-color="#864C12"/>
<stop offset="0.55" stop-color="#4C2B0A"/>
<stop offset="0.75" stop-color="#221404"/>
<stop offset="0.9" stop-color="#090501"/>
<stop offset="1"/>
</radialGradient>
<radialGradient id="paint80_radial_69_34539" cx="0" cy="0" r="1" gradientUnits="userSpaceOnUse" gradientTransform="translate(1889.98 489.596) scale(99.141)">
<stop stop-color="#E3821F"/>
<stop offset="0.07" stop-color="#CF761C"/>
<stop offset="0.32" stop-color="#864C12"/>
<stop offset="0.55" stop-color="#4C2B0A"/>
<stop offset="0.75" stop-color="#221404"/>
<stop offset="0.9" stop-color="#090501"/>
<stop offset="1"/>
</radialGradient>
<radialGradient id="paint81_radial_69_34539" cx="0" cy="0" r="1" gradientUnits="userSpaceOnUse" gradientTransform="translate(272.9 488.903) scale(296.918)">
<stop stop-color="#E3821F"/>
<stop offset="0.07" stop-color="#CF761C"/>
<stop offset="0.32" stop-color="#864C12"/>
<stop offset="0.55" stop-color="#4C2B0A"/>
<stop offset="0.75" stop-color="#221404"/>
<stop offset="0.9" stop-color="#090501"/>
<stop offset="1"/>
</radialGradient>
<radialGradient id="paint82_radial_69_34539" cx="0" cy="0" r="1" gradientUnits="userSpaceOnUse" gradientTransform="translate(278.508 488.913) scale(101.722)">
<stop stop-color="#E3821F"/>
<stop offset="0.07" stop-color="#CF761C"/>
<stop offset="0.32" stop-color="#864C12"/>
<stop offset="0.55" stop-color="#4C2B0A"/>
<stop offset="0.75" stop-color="#221404"/>
<stop offset="0.9" stop-color="#090501"/>
<stop offset="1"/>
</radialGradient>
<radialGradient id="paint83_radial_69_34539" cx="0" cy="0" r="1" gradientUnits="userSpaceOnUse" gradientTransform="translate(249.34 671.637) scale(101.722)">
<stop stop-color="#E3821F"/>
<stop offset="0.07" stop-color="#CF761C"/>
<stop offset="0.32" stop-color="#864C12"/>
<stop offset="0.55" stop-color="#4C2B0A"/>
<stop offset="0.75" stop-color="#221404"/>
<stop offset="0.9" stop-color="#090501"/>
<stop offset="1"/>
</radialGradient>
<radialGradient id="paint84_radial_69_34539" cx="0" cy="0" r="1" gradientUnits="userSpaceOnUse" gradientTransform="translate(1800.94 1151.85) scale(319.2 140.448)">
<stop stop-color="#E3821F"/>
<stop offset="0.07" stop-color="#CF761C"/>
<stop offset="0.32" stop-color="#864C12"/>
<stop offset="0.55" stop-color="#4C2B0A"/>
<stop offset="0.75" stop-color="#221404"/>
<stop offset="0.9" stop-color="#090501"/>
<stop offset="1"/>
</radialGradient>
<radialGradient id="paint85_radial_69_34539" cx="0" cy="0" r="1" gradientUnits="userSpaceOnUse" gradientTransform="translate(228.905 1158.6) scale(319.228 114.922)">
<stop stop-color="#E3821F"/>
<stop offset="0.07" stop-color="#CF761C"/>
<stop offset="0.32" stop-color="#864C12"/>
<stop offset="0.55" stop-color="#4C2B0A"/>
<stop offset="0.75" stop-color="#221404"/>
<stop offset="0.9" stop-color="#090501"/>
<stop offset="1"/>
</radialGradient>
<radialGradient id="paint86_radial_69_34539" cx="0" cy="0" r="1" gradientUnits="userSpaceOnUse" gradientTransform="translate(955 578) scale(595.5 1132.5)">
<stop/>
<stop offset="1" stop-color="#2B2A30" stop-opacity="0"/>
</radialGradient>
<clipPath id="clip0_69_34539">
<rect width="2936" height="1411.74" fill="white" transform="translate(-209 -110.582)"/>
</clipPath>
</defs>
</svg>
