<svg width="360" height="800" viewBox="0 0 360 800" fill="none" xmlns="http://www.w3.org/2000/svg">
<g clip-path="url(#clip0_104_9101)">
<path d="M567 -66H-553V739H567V-66Z" fill="url(#paint0_linear_104_9101)"/>
<path d="M-126.515 409.876C-126.515 409.876 -72.4032 376.007 -17.2284 375.274C37.9421 374.54 92.7355 403.897 92.7355 403.897C92.7355 403.897 -20.9353 367.799 -27.0292 419.116C-33.1188 470.44 81.4434 431.801 121.002 419.08C160.557 406.36 180.977 384.229 256.747 380.335C332.518 376.441 402.966 441.404 399.52 456.651C396.079 471.899 309.128 471.023 301.886 458.267C294.647 445.511 318.303 433.339 318.303 433.339C318.303 433.339 320.334 463.841 369.501 456.651C418.672 449.469 296.465 387.097 253.889 428.47C211.313 469.842 276.636 512.075 345.931 519.557C415.226 527.038 544.993 433.922 542.435 400.928C539.877 367.935 485.233 373.658 485.319 367.792C485.409 361.927 590.719 326 590.719 326C590.719 326 534.751 351.662 545.962 364.269C557.172 376.882 603.781 377.758 614.199 396.237C624.616 414.71 530.813 567.542 487.012 568.695C443.21 569.848 -141 567.357 -141 567.357L-126.524 409.876H-126.515Z" fill="url(#paint1_linear_104_9101)"/>
<path d="M20.7078 371.461C20.7078 371.461 -29.6785 387.846 -33.2259 379.068C-36.7766 370.289 11.8022 324.935 30.0357 328.593C48.2692 332.25 30.6607 351.121 30.6607 351.121C30.6607 351.121 40.4718 330.496 28.5019 332.25C16.532 334.005 2.54523 347.03 6.85951 358.436C11.1738 369.849 47.1544 369.558 47.1544 369.558L20.7078 371.461Z" fill="url(#paint2_linear_104_9101)"/>
<path d="M232.511 631.023C237.39 662.265 237.39 684.012 237.39 684.012C237.39 684.012 165.028 718.13 134.287 668.7C134.287 668.7 141.665 660.149 155.664 602.97L169.842 569.213L160.042 583.339C162.446 570.698 164.134 557.658 165.303 544.931L173.713 525.01L166.514 529.065C169.084 487.29 166.603 452.547 166.603 452.547C166.603 452.547 183.155 486.857 197.482 518.185L211.671 540.578L206.512 538.262L192.221 531.856L212.739 553.759L218.465 559.874L229.863 582.537L220.463 576.969L209.262 570.335L223.344 587.231L237.39 604.085L232.511 631.037V631.023Z" fill="url(#paint3_linear_104_9101)"/>
<path d="M312.991 695.46L295.503 702.683C292.539 704.317 285.697 707.79 277.079 710.29C271.412 711.937 264.982 713.159 258.38 713.159C243.772 713.159 228.318 707.179 218.465 686.561C218.465 686.561 222.378 680.652 229.875 645.76L230.388 648.146L230.764 641.577C232.362 633.928 234.116 625.007 236.013 614.617C238.917 598.737 240.802 581.77 242.007 565.279L247.327 549.782L242.395 559.661L239.699 557.132L243.206 544.462L248.586 525.01L243.611 532.836C244.566 498.412 243.116 471.964 243.116 471.964C243.116 471.964 253.143 499.03 263.062 526.934L282.256 556.259L271.114 549.902L264.798 546.295L272.844 554.931L286.133 569.199L295.962 594.603L281.719 585.129L274.627 580.413L284.325 596.038L298.885 619.51L313.003 695.46H312.991Z" fill="url(#paint4_linear_104_9101)"/>
<path d="M289.138 700.503L307.628 706.362C310.831 707.868 318.174 710.986 327.109 712.534C332.978 713.557 339.539 713.897 346.058 712.662C360.486 709.934 374.742 699.501 380.998 671.619C380.998 671.619 376.137 664.886 362.86 622.202L362.759 625.313L361.286 617.081C358.417 607.714 355.184 596.777 351.563 584.007C346.022 564.49 341.304 543.411 337.338 522.808L329.471 504.222L336.008 515.777L338.245 512.077L332.65 496.729L324.061 473.157L330.294 482.12C323.554 438.818 320.536 405.14 320.536 405.14C320.536 405.14 315.186 441.198 310.086 478.299L296.063 518.923L306 508.817L311.637 503.085L305.147 515.5L294.423 536.004L288.989 569.923L301.461 555.293L307.67 548.013L300.722 569.561L290.29 601.926L289.132 700.503H289.138Z" fill="#343474"/>
<path d="M380.957 489.52C380.677 488.39 370.71 542.438 370.71 542.438H374.581L377.718 536.713L355.339 604.695C355.339 604.695 333.169 683.265 386.713 688.613C440.251 693.968 453.009 662.712 453.009 662.712L432.515 628.345L445.374 636.69L442.135 623.366L404.702 565.718L418.086 576.052L397.902 542.061L407.207 548.538C407.207 548.538 390.578 528.12 380.963 489.52H380.957Z" fill="url(#paint5_linear_104_9101)"/>
<path d="M5.04649 624.809C9.92549 656.051 9.92548 677.798 9.92548 677.798C9.92548 677.798 -62.4364 711.916 -93.1777 662.485C-93.1777 662.485 -85.7996 653.934 -71.8008 596.755L-57.6231 562.999L-67.4228 577.125C-65.0191 564.483 -63.3311 551.444 -62.1621 538.717L-53.7521 518.795L-60.9513 522.851C-58.3806 481.076 -60.8618 446.333 -60.8618 446.333C-60.8618 446.333 -44.3102 480.643 -29.9833 511.97L-15.7937 534.363L-20.953 532.048L-35.2441 525.642L-14.726 547.545L-9.00006 553.66L2.39822 576.323L-7.00191 570.754L-18.2034 564.121L-4.12103 581.017L9.92548 597.87L5.04649 624.823V624.809Z" fill="url(#paint6_linear_104_9101)"/>
<path d="M85.5262 689.253L68.0382 696.476C65.0738 698.11 58.2324 701.583 49.6137 704.083C43.9473 705.73 37.5176 706.952 30.9148 706.952C16.3076 706.952 0.853439 700.972 -9 680.354C-9 680.354 -5.08725 674.445 2.41019 639.553L2.92317 641.939L3.29894 635.37C4.89744 627.714 6.65101 618.8 8.54774 608.41C11.4525 592.53 13.3373 575.563 14.5421 559.072L19.8625 543.575L14.9238 553.454L12.2279 550.926L15.735 538.255L21.1151 518.803L16.1406 526.629C17.0949 492.205 15.6455 465.757 15.6455 465.757C15.6455 465.757 25.6719 492.823 35.591 520.727L54.7849 550.052L43.6431 543.696L37.3267 540.088L45.3729 548.724L58.6619 562.999L68.4915 588.396L54.2481 578.922L47.1563 574.206L56.8546 589.831L71.4141 613.303L85.5322 689.253H85.5262Z" fill="#2B2B60"/>
<path d="M61.68 694.288L80.1701 700.148C83.373 701.653 90.7154 704.771 99.6443 706.319C105.513 707.342 112.074 707.683 118.594 706.447C133.022 703.72 147.277 693.287 153.534 665.404C153.534 665.404 148.673 658.671 135.396 615.995L135.294 619.105L133.821 610.874C130.952 601.506 127.719 590.569 124.099 577.799C118.558 558.283 113.84 537.204 109.874 516.601L102.006 498.014L108.543 509.569L110.78 505.869L105.185 490.522L96.5965 466.95L102.829 475.913C96.0895 432.611 93.0714 398.933 93.0714 398.933C93.0714 398.933 87.7212 434.99 82.6215 472.092L68.5989 512.716L78.5358 502.609L84.1723 496.878L77.6829 509.292L66.9586 529.796L61.5249 563.716L73.9968 549.086L80.2059 541.806L73.2572 563.354L62.8252 595.718L61.668 694.295L61.68 694.288Z" fill="#343474"/>
<path d="M3.29252 635.369L2.91675 641.939L2.40381 639.552C2.69607 638.203 2.98833 636.811 3.29252 635.369Z" fill="url(#paint7_linear_104_9101)"/>
<path d="M2.40381 639.552C2.69607 638.203 2.98833 636.811 3.29252 635.369L2.91675 641.939L2.40381 639.552Z" fill="url(#paint8_linear_104_9101)"/>
<path d="M161.791 515.833C161.511 514.704 151.544 568.751 151.544 568.751H155.415L158.552 563.027L136.173 631.008C136.173 631.008 114.003 709.579 167.547 714.927C221.085 720.282 233.843 689.025 233.843 689.025L213.349 654.658L226.208 663.003L222.964 649.68L185.53 592.032L198.914 602.365L178.73 568.375L188.035 574.852C188.035 574.852 171.406 554.433 161.791 515.833Z" fill="url(#paint9_linear_104_9101)"/>
<path d="M-584.276 667.498L819.126 667.688L792.714 818.56L-584.276 808.954V667.498Z" fill="url(#paint10_linear_104_9101)"/>
<path style="mix-blend-mode:multiply" d="M830.472 681.613L761.177 693.515H727.335H545.237L542.013 677.639H522.674L509.031 693.266L490.444 689.551L492.057 673.675L365.021 687.185L337.351 677.639L299.191 681.783L253.553 697.489L18.4949 684.292L-54.4011 679.392L-128.37 673.675V685.577L-241.514 687.015L-331.419 681.613H-363.649L-270.178 693.515L-429.72 697.489L-415.21 665.737H-320.134L809.521 661.762L830.472 681.613Z" fill="url(#paint11_linear_104_9101)"/>
<path d="M900.108 787.227L549.243 811.012L168.505 800.268L62.8828 812.47L-423.697 796.823L-421.829 714.355L-215.605 722.793L-183.376 729.743C-150.955 736.273 -100.65 745.07 -57.1926 746.957C13.6794 750.022 68.3513 743.123 68.3513 743.123L62.5916 725.858L163.839 734.296C163.839 734.296 138.137 726.627 139.23 726.627C140.324 726.627 276.926 718.958 331.747 723.172C386.576 727.396 456.198 739.278 456.198 739.278L403.394 744.65C403.394 744.65 491.708 759.229 546.068 756.153C600.427 753.088 658.061 744.65 658.061 744.65L595.449 734.296C595.449 734.296 732.364 706.677 819.279 716.652C906.195 726.627 900.123 787.227 900.123 787.227H900.108Z" fill="url(#paint12_linear_104_9101)"/>
<path d="M50.1201 794.126L111.624 809.353L-64.0534 818.051L-68.542 818.27L-84.4578 819.059L-129.016 810.562L-201.124 796.812L-321.37 740.046L-219.348 733.146L-160.003 746.956C-153.22 750.121 -142.745 752.308 -129.94 753.776C-112.639 755.783 -91.0983 756.492 -68.7124 756.592C-67.1642 756.592 -65.6159 756.602 -64.0534 756.602C-25.9861 756.622 13.8283 755.014 38.9059 755.014C90.7726 755.014 122.86 776.113 122.86 776.113L50.1201 794.146V794.126Z" fill="url(#paint13_linear_104_9101)"/>
<path d="M428.386 702.003H250.755C250.755 702.003 254.214 687.495 255.527 686.117C256.834 684.739 294.056 681.284 299.433 670.34C304.809 659.397 312.387 649.272 318.232 645.817C324.077 642.362 366.157 682.892 369.573 682.892C372.556 682.892 373.075 680.775 375.851 682.402C376.249 682.632 376.689 682.942 377.194 683.351C379.339 685.069 391.796 688.503 402.925 691.329C412.633 693.786 421.333 695.783 421.333 695.783L428.393 702.003H428.386Z" fill="url(#paint14_linear_104_9101)"/>
<path style="mix-blend-mode:multiply" d="M386.725 701.316C386.803 701.555 386.852 701.785 386.874 702.005H310.512C307.501 701.585 305.739 701.316 305.739 701.316C321.776 702.005 329.865 688.994 329.865 688.994C329.865 688.994 381.554 702.184 375.837 682.404C376.235 682.633 376.675 682.943 377.179 683.352C379.324 685.07 391.781 688.505 402.91 691.331C403.315 691.68 403.543 691.87 403.543 691.87C403.543 691.87 382.321 688.305 386.718 701.316H386.725Z" fill="url(#paint15_linear_104_9101)"/>
<path d="M44.749 704.905H-56.2075C-56.2075 704.905 -19.8873 651.634 -15.6118 650.975C-12.6786 650.526 -2.70726 661.22 3.26562 667.98C5.29683 670.276 6.86636 672.114 7.53395 672.912C7.76832 673.192 7.88906 673.342 7.88906 673.342C7.88906 673.342 12.4273 667.421 16.4329 667.421C20.4385 667.421 44.7419 704.915 44.7419 704.915L44.749 704.905Z" fill="url(#paint16_linear_104_9101)"/>
<path style="mix-blend-mode:multiply" d="M15.3677 704.905H-20.0576C-7.69994 702.359 5.40348 693.711 3.26574 667.97C5.29694 670.266 6.86647 672.103 7.53407 672.902C5.89349 677.226 -0.193005 696.188 15.3677 704.905Z" fill="url(#paint17_linear_104_9101)"/>
<path d="M20.9824 669.202C20.9824 669.615 21.943 669.828 23.4034 669.915C24.3205 669.967 25.4376 669.972 26.6329 669.945C31.401 669.832 37.4513 669.202 37.4513 669.202L34.8 588.279L34.0263 564.721L26.2852 567.411C26.2852 567.411 26.1895 569.215 26.0244 572.345L26.0157 572.514C25.807 576.443 25.4941 582.381 25.1203 589.422C23.5599 618.991 20.9824 668.007 20.9824 669.198V669.202Z" fill="#6A1A3A"/>
<g style="mix-blend-mode:color-dodge" opacity="0.3">
<path d="M38.0336 663.847L35.6126 664.56L32.4005 665.503L32.3831 664.59L31.04 608.242H33.2481L32.6004 583.919L32.1658 567.65L32.9916 566.994L33.0003 567.163L33.8827 584.071L38.0336 663.847Z" fill="#E79A47"/>
</g>
<path style="mix-blend-mode:multiply" opacity="0.82" d="M25.1201 589.426H25.1332L26.4154 589.274L34.7998 588.283L34.0261 564.725L26.285 567.416C26.285 567.416 26.1894 569.22 26.0242 572.349L26.0155 572.519C25.8069 576.448 25.4939 582.385 25.1201 589.426Z" fill="url(#paint18_linear_104_9101)"/>
<path d="M-40.7647 554.984C-40.7647 554.984 -29.9245 573.835 7.46844 576.678C21.5772 577.751 38.9589 565.812 54.9975 562.334C81.4807 556.597 104.5 557.571 104.5 557.571L84.5885 539.063L84.3233 539.293C66.9156 528.94 -23.2092 529.227 -23.2092 529.227L-40.769 554.98L-40.7647 554.984Z" fill="#2D9693"/>
<path d="M-27.8687 525.646L-22.0922 527.11L-23.2049 529.231C-23.2049 529.231 66.9199 528.945 84.3276 539.298L84.5928 539.068L81.5111 533.495L91.7862 532.052L91.721 531.965L70.6709 502.913L78.7424 501.162L48.2429 456.545L54.202 454.05C54.202 454.05 45.3351 444.583 36.8899 429.931C28.4446 415.279 33.6995 400.392 33.6995 400.392C16.4309 413.367 -0.50745 456.075 -0.50745 456.075L2.35255 457.479L-24.3915 505.369L-18.0586 506.343L-28.7119 525.437L-27.873 525.65L-27.8687 525.646Z" fill="#2D9693"/>
<path d="M-40.7647 554.989C-40.7647 554.989 -24.2002 578.803 31.5393 583.311C39.024 583.915 45.8828 583.806 52.1461 583.176L54.9974 562.343L61.6258 587.64C68.7802 586.327 75.0174 584.341 80.381 582.059L77.1863 567.211L81.698 575.209C97.7713 567.65 105.108 557.792 105.108 557.792C105.108 557.792 84.9274 549.569 32.3347 564.729C12.5799 570.423 -14.6814 563.021 -14.6814 563.021V542.932L-18.9062 562.191L-40.7734 554.993L-40.7647 554.989Z" fill="#152822"/>
<path d="M-28.7076 525.785L-23.2049 529.232C-23.2049 529.232 66.9198 528.945 84.3276 539.298L84.5927 539.068L92.2556 532.361C92.2556 532.361 92.0774 532.218 91.721 531.961C88.4785 529.61 70.5753 517.67 42.562 518.279C14.1359 518.896 -21.9531 524.672 -27.873 525.646C-28.4207 525.737 -28.7119 525.785 -28.7119 525.785H-28.7076Z" fill="#152822"/>
<path d="M73.4574 506.034L78.7427 501.144C78.7427 501.144 62.978 487.061 41.4889 486.231C19.9997 485.401 5.45198 491.099 5.45198 491.099V480.95L3.15268 491.721L-24.3911 506.012L-19.5056 508.942L-18.0539 506.321C-18.0539 506.321 29.2404 473.235 73.4574 506.034Z" fill="#152822"/>
<path d="M-0.506883 456.097L2.35312 457.497C2.35312 457.497 7.74712 454.598 20.5606 452.576C33.3698 450.555 48.2435 456.562 48.2435 456.562L54.2026 454.024C54.2026 454.024 40.7371 441.341 26.8457 443.875C12.9586 446.413 -0.51123 456.093 -0.51123 456.093L-0.506883 456.097Z" fill="#152822"/>
<path d="M11.7846 451.181L14.6968 435.49L7.93799 452.576L11.7846 451.181Z" fill="#152822"/>
<path d="M55.5195 491.304C55.0979 490.217 41.1152 461.791 41.1152 461.791C41.1152 461.791 47.1699 491.612 47.5915 491.304C48.0131 490.995 55.5195 491.304 55.5195 491.304Z" fill="#152822"/>
<path d="M32.3398 525.58C31.9182 522.42 29.1973 492.912 29.1973 492.912L23.612 524.133L21.8778 507.151L18.5483 525.584H32.3441L32.3398 525.58Z" fill="#284027"/>
<path d="M3.31761 505.908C4.57548 505.908 5.59518 504.783 5.59518 503.396C5.59518 502.009 4.57548 500.884 3.31761 500.884C2.05974 500.884 1.04004 502.009 1.04004 503.396C1.04004 504.783 2.05974 505.908 3.31761 505.908Z" fill="#FFE2B3"/>
<path d="M10.1895 491.173C10.1895 491.873 10.7023 492.442 11.3369 492.442C11.9715 492.442 12.4844 491.873 12.4844 491.173C12.4844 490.473 11.9715 489.904 11.3369 489.904C10.7023 489.904 10.1895 490.473 10.1895 491.173Z" fill="#FFE2B3"/>
<path d="M35.1992 497.802C35.1992 499.189 36.2163 500.314 37.4768 500.314C38.7373 500.314 39.7544 499.189 39.7544 497.802C39.7544 496.416 38.7373 495.29 37.4768 495.29C36.2163 495.29 35.1992 496.416 35.1992 497.802Z" fill="#FFE2B3"/>
<path d="M49.0908 490.243C49.0908 491.03 49.6689 491.668 50.3817 491.668C51.0946 491.668 51.6726 491.03 51.6726 490.243C51.6726 489.456 51.0946 488.817 50.3817 488.817C49.6689 488.817 49.0908 489.456 49.0908 490.243Z" fill="#FFE2B3"/>
<path d="M2.82223 471.627C3.25254 472.419 4.18269 472.679 4.89986 472.206C5.61703 471.732 5.85174 470.706 5.42579 469.915C4.99548 469.124 4.06533 468.863 3.34816 469.337C2.63099 469.811 2.39628 470.836 2.82223 471.627Z" fill="#FFE2B3"/>
<path d="M3.61797 458.419C3.98743 459.097 4.78284 459.318 5.39569 458.914C6.0129 458.51 6.21284 457.632 5.84338 456.949C5.47828 456.271 4.67852 456.05 4.06566 456.454C3.44846 456.858 3.24852 457.736 3.61797 458.419Z" fill="#FFE2B3"/>
<path d="M31.1051 445.813C31.5311 446.6 32.4525 446.857 33.1654 446.387C33.8782 445.918 34.1129 444.901 33.6869 444.114C33.261 443.327 32.3395 443.071 31.6267 443.54C30.9139 444.01 30.6792 445.027 31.1051 445.813Z" fill="#FFE2B3"/>
<path d="M36.8992 434.808C37.5425 435.999 38.942 436.39 40.02 435.677C41.0979 434.969 41.45 433.426 40.8067 432.235C40.1634 431.044 38.7638 430.653 37.6859 431.366C36.608 432.078 36.2515 433.617 36.8992 434.808Z" fill="#FFE2B3"/>
<path d="M63.6125 505.908C64.8704 505.908 65.8901 504.783 65.8901 503.396C65.8901 502.009 64.8704 500.884 63.6125 500.884C62.3547 500.884 61.335 502.009 61.335 503.396C61.335 504.783 62.3547 505.908 63.6125 505.908Z" fill="#FFE2B3"/>
<path d="M78.1343 508.933C78.1343 510.32 79.1514 511.446 80.4118 511.446C81.6723 511.446 82.6894 510.32 82.6894 508.933C82.6894 507.547 81.6723 506.421 80.4118 506.421C79.1514 506.421 78.1343 507.547 78.1343 508.933Z" fill="#FFE2B3"/>
<path d="M79.3554 552.955C79.7249 551.629 79.0468 550.225 77.8428 549.821C76.6432 549.417 75.3697 550.16 75.0002 551.49C74.6308 552.816 75.3088 554.22 76.5128 554.624C77.7168 555.028 78.9859 554.285 79.3554 552.955Z" fill="#FFE2B3"/>
<path d="M64.799 559.513C65.0381 558.648 64.5991 557.736 63.8167 557.47C63.0343 557.205 62.2041 557.692 61.9651 558.557C61.726 559.422 62.165 560.335 62.9474 560.6C63.7298 560.865 64.5599 560.378 64.799 559.513Z" fill="#FFE2B3"/>
<path d="M57.1581 553.911C57.5276 552.585 56.8495 551.181 55.6456 550.777C54.4416 550.373 53.1724 551.116 52.8029 552.446C52.4335 553.772 53.1115 555.176 54.3155 555.58C55.5195 555.984 56.7887 555.241 57.1581 553.911Z" fill="#FFE2B3"/>
<path d="M34.4776 562.817C34.721 561.943 34.2733 561.021 33.4822 560.752C32.6911 560.487 31.8523 560.978 31.6132 561.852C31.3698 562.725 31.8175 563.647 32.6086 563.916C33.3996 564.181 34.2385 563.69 34.4776 562.817Z" fill="#FFE2B3"/>
<path d="M23.0117 548.238C23.3811 546.913 22.7031 545.509 21.4991 545.105C20.2951 544.7 19.0259 545.444 18.6565 546.774C18.287 548.099 18.9651 549.503 20.169 549.908C21.373 550.312 22.6422 549.569 23.0117 548.238Z" fill="#FFE2B3"/>
<path d="M9.89837 550.581C10.2678 549.256 9.58977 547.852 8.38579 547.447C7.18181 547.043 5.91263 547.786 5.54318 549.116C5.17373 550.442 5.85178 551.846 7.05576 552.25C8.25974 552.655 9.52892 551.911 9.89837 550.581Z" fill="#FFE2B3"/>
<path style="mix-blend-mode:screen" opacity="0.5" d="M61.3351 517.348C68.3062 517.348 73.9574 511.113 73.9574 503.422C73.9574 495.731 68.3062 489.496 61.3351 489.496C54.3641 489.496 48.7129 495.731 48.7129 503.422C48.7129 511.113 54.3641 517.348 61.3351 517.348Z" fill="url(#paint19_radial_104_9101)"/>
<path style="mix-blend-mode:screen" opacity="0.5" d="M11.315 501.192C16.2649 501.192 20.2775 496.765 20.2775 491.304C20.2775 485.842 16.2649 481.415 11.315 481.415C6.36518 481.415 2.35254 485.842 2.35254 491.304C2.35254 496.765 6.36518 501.192 11.315 501.192Z" fill="url(#paint20_radial_104_9101)"/>
<path style="mix-blend-mode:screen" opacity="0.5" d="M7.72933 567.207C16.4744 567.207 23.5636 559.384 23.5636 549.734C23.5636 540.084 16.4744 532.261 7.72933 532.261C-1.01571 532.261 -8.10498 540.084 -8.10498 549.734C-8.10498 559.384 -1.01571 567.207 7.72933 567.207Z" fill="url(#paint21_radial_104_9101)"/>
<path style="mix-blend-mode:screen" opacity="0.5" d="M38.859 443.414C43.8088 443.414 47.8215 438.987 47.8215 433.526C47.8215 428.065 43.8088 423.638 38.859 423.638C33.9091 423.638 29.8965 428.065 29.8965 433.526C29.8965 438.987 33.9091 443.414 38.859 443.414Z" fill="url(#paint22_radial_104_9101)"/>
<path d="M-39.1212 547.479C-36.6698 548.783 -31.3192 547.37 -28.933 545.214C-28.933 545.214 -28.933 545.214 -28.9287 545.214C-28.8809 545.171 -28.833 545.123 -28.7852 545.079C-28.7592 545.053 -28.7331 545.027 -28.707 545.001C-26.9814 543.254 -20.6486 548.448 -8.27409 551.382C-8.46099 553.846 -8.56965 558.254 -7.03099 559.032C-6.61372 559.24 -5.78789 559.219 -4.74473 559.014C-1.40227 558.362 4.15257 555.85 5.59995 553.199C8.18177 553.216 10.9201 552.803 13.7975 552.125C13.002 555.811 15.8534 562.252 16.9965 562.339C18.3091 562.444 15.6838 554.781 23.564 549.708C23.564 549.708 23.2424 549.608 22.7121 549.491C42.1584 542.976 66.4597 532.188 92.2562 554.729C92.0084 554.385 62.9173 514.393 26.6674 507.052C22.7513 506.261 18.7525 505.848 14.6972 505.909C13.202 505.93 11.7459 506.004 10.3203 506.122C7.88621 506.326 5.55649 506.661 3.31804 507.117C-1.66306 508.13 -6.15734 509.729 -10.1909 511.716C-12.99 513.093 -15.5675 514.658 -17.932 516.345C-18.0494 516.427 -18.1667 516.514 -18.2841 516.597C-18.2884 516.597 -18.2928 516.605 -18.2971 516.605C-19.8054 517.701 -21.2267 518.844 -22.561 520.017C-22.5741 520.03 -22.5871 520.039 -22.6002 520.052C-22.6002 520.052 -22.6089 520.061 -22.6132 520.065C-35.9048 531.792 -40.6599 546.67 -39.1256 547.487L-39.1212 547.479Z" fill="url(#paint23_linear_104_9101)"/>
<path d="M5.08711 459.179C4.54815 460.735 4.13958 461.791 4.13958 461.791L9.2076 460.652C9.2076 460.652 9.07721 459.713 8.97289 458.253C8.70775 454.528 8.62082 447.413 11.3157 443.879C12.9152 441.784 15.3275 439.872 17.8702 438.607C19.0915 437.998 20.3433 437.533 21.5517 437.272C23.7206 436.799 25.7417 436.968 27.176 438.072C31.0705 441.067 19.6218 449.834 20.2781 450.503C20.9171 451.155 28.4843 439.437 36.7557 442.932C41.9933 446.5 45.8399 450.447 45.8964 450.503C45.8356 450.321 32.8439 412.776 22.7817 412.493C21.9211 412.467 21.0866 412.715 20.2781 413.28C10.0291 420.46 -0.454678 456.075 -0.506836 456.254C-0.472064 456.188 2.04891 451.412 6.31283 446.626C9.36407 445.818 6.66055 454.632 5.08277 459.183L5.08711 459.179Z" fill="url(#paint24_linear_104_9101)"/>
<path d="M29.193 419.182C29.193 419.182 27.1284 413.488 27.55 408.516C27.9716 403.544 34.0741 400.388 33.8829 400.388C33.6916 400.388 26.7502 402.874 21.3562 411.467C18.0094 416.796 22.482 417.678 29.193 419.182Z" fill="url(#paint25_linear_104_9101)"/>
<path d="M-24.3908 505.904C-24.3908 505.904 -10.6428 496.585 -11.46 502.431C-12.0076 506.338 -15.6065 512.61 -17.9319 516.339C-19.0881 518.191 -19.9313 519.417 -19.9313 519.417L-12.564 517.348C-12.564 517.348 -6.97871 518.178 -10.1908 511.71C-13.3985 505.243 -6.51364 498.554 -4.96194 497.776C-4.05352 497.319 1.68387 494.798 6.26508 492.799C9.48149 491.395 12.1242 490.243 12.1242 490.243C12.1242 490.243 31.3096 486.283 27.9759 492.908C25.6679 497.497 16.0317 503.1 10.3204 506.117C7.78201 507.455 6.01733 508.285 6.01733 508.285C6.01733 508.285 27.0848 508.646 26.6676 507.047C26.2503 505.443 32.6701 489.591 44.9142 490.213C44.9142 490.213 39.3767 462.977 20.2826 459.096C17.9876 458.631 15.9665 458.344 14.1888 458.209C12.1589 458.053 10.4421 458.083 8.9773 458.253C7.41256 458.431 6.13903 458.761 5.09152 459.179C0.814564 460.874 0.236483 463.973 -1.23264 463.912C-3.70145 463.803 -25.6035 491.512 -26.3554 498.554C-27.1074 505.595 -24.3865 505.904 -24.3865 505.904H-24.3908Z" fill="url(#paint26_linear_104_9101)"/>
<path d="M1.66608 559.079C9.19857 559.348 -3.18896 565.603 -3.18896 565.603C-3.18896 565.603 -3.03249 558.914 1.66608 559.079Z" fill="url(#paint27_linear_104_9101)"/>
<path style="mix-blend-mode:multiply" opacity="0.6" d="M-28.9377 545.214C-28.9377 545.214 -28.9377 545.214 -28.9334 545.214C-28.8899 545.179 -28.8465 545.131 -28.7899 545.079C-28.7639 545.053 -28.7378 545.027 -28.7117 545.001C-26.9861 543.254 -20.6533 548.448 -8.2788 551.382C-8.4657 553.846 -8.57436 558.254 -7.0357 559.032C-6.61843 559.24 -5.7926 559.218 -4.74944 559.014C-9.45236 554.185 1.03576 549.917 -2.10677 549.708C-5.24929 549.5 -12.0081 514.141 3.31333 507.117C-1.66777 508.13 -6.16205 509.729 -10.1956 511.716C-13.4033 505.248 -6.51847 498.559 -4.96676 497.781C-4.05835 497.324 1.67904 494.803 6.26025 492.804C4.76071 491.478 3.39156 487.992 3.43503 479.66C3.53065 461.435 13.8971 459.105 13.8971 459.105C13.8971 459.105 14.0014 458.784 14.1839 458.219C12.1541 458.062 10.4372 458.093 8.97248 458.262C8.70734 454.537 8.62041 447.422 11.3152 443.888C12.9148 441.793 15.3271 439.881 17.8698 438.616C15.1315 438.573 14.8359 430.166 19.4345 423.642C24.0331 417.118 26.8496 419.192 26.8496 419.192C26.8496 419.192 26.7106 418.622 23.5637 415.41C22.8074 414.641 22.6248 413.615 22.7813 412.502C21.9207 412.476 21.0862 412.724 20.2777 413.289C10.0287 420.469 -0.455091 456.085 -0.50725 456.263C-0.472477 456.198 2.04849 451.421 6.31242 446.635C9.36366 445.827 6.66013 454.642 5.08235 459.192C0.805395 460.888 0.227308 463.987 -1.24181 463.926C-3.71062 463.817 -25.6127 491.526 -26.3646 498.567C-27.1165 505.609 -24.3956 505.917 -24.3956 505.917C-24.3956 505.917 -10.6476 496.598 -11.4648 502.444C-12.0124 506.352 -15.6113 512.624 -17.9367 516.353C-18.0541 516.436 -18.1714 516.523 -18.2888 516.605C-18.2931 516.605 -18.2975 516.614 -18.3018 516.614C-19.9448 517.801 -21.3531 518.939 -22.5658 520.026C-22.5788 520.039 -22.5918 520.048 -22.6049 520.061C-22.6049 520.061 -22.6136 520.07 -22.6179 520.074C-33.4233 529.81 -28.0293 535.452 -26.508 536.26C-24.0783 537.551 -30.4155 546.518 -28.9421 545.227L-28.9377 545.214Z" fill="url(#paint28_linear_104_9101)"/>
<path d="M-48.1318 671.793L-20.8141 671.606L30.366 671.254L80.3856 670.91C80.3856 670.91 57.536 647.974 52.7027 647.352C51.1814 647.157 48.5996 647.861 45.7744 648.913C39.6284 651.208 32.3393 655.167 32.3393 655.167C32.3393 655.167 26.6584 655.28 20.3604 655.893C20.2474 655.902 20.1343 655.915 20.0213 655.928C19.8996 655.941 19.7736 655.954 19.6519 655.967C14.1231 656.537 8.26839 657.497 5.46055 659.105C3.33511 660.322 0.492496 661.765 -2.31535 663.13C-7.61808 665.708 -12.7948 668.011 -12.7948 668.011C-12.7948 668.011 -14.7159 663.8 -17.0543 661.639C-17.8584 660.896 -18.7104 660.396 -19.5536 660.396C-22.8395 660.396 -28.703 668.937 -28.703 668.937L-45.2675 670.906L-48.1318 671.788L-48.1318 671.793Z" fill="url(#paint29_linear_104_9101)"/>
<path style="mix-blend-mode:multiply" opacity="0.8" d="M-3.1802 666.511C-3.30625 665.664 -2.94983 664.473 -2.31959 663.134C-7.62233 665.712 -12.799 668.015 -12.799 668.015C-12.799 668.015 -14.7202 663.804 -17.0586 661.643C-14.5941 665.668 -20.7488 671.54 -20.814 671.605L30.3661 671.253C16.9745 670.532 -2.81075 669.041 -3.18455 666.511H-3.1802Z" fill="url(#paint30_linear_104_9101)"/>
<path style="mix-blend-mode:multiply" opacity="0.8" d="M32.3393 655.172C32.3393 655.172 26.6584 655.285 20.3604 655.897C28.2753 655.345 58.4792 668.124 58.9399 668.32C58.5661 668.146 37.4552 658.362 37.4552 656.258C37.4552 654.154 45.6961 648.965 45.7744 648.913C39.6284 651.208 32.3393 655.167 32.3393 655.167V655.172Z" fill="url(#paint31_linear_104_9101)"/>
<path style="mix-blend-mode:multiply" opacity="0.6" d="M19.6475 655.967C19.7605 655.958 19.8822 655.949 20.0039 655.932C20.0082 655.932 20.0126 655.932 20.0169 655.932C19.8952 655.945 19.7692 655.958 19.6475 655.971V655.967Z" fill="url(#paint32_linear_104_9101)"/>
<path d="M336.974 668.801C336.974 669.278 338.083 669.524 339.77 669.624C340.828 669.685 342.118 669.69 343.498 669.66C349.004 669.529 355.99 668.801 355.99 668.801L352.929 575.363L352.035 548.162L343.097 551.269C343.097 551.269 342.987 553.351 342.796 556.965L342.786 557.16C342.545 561.697 342.184 568.553 341.752 576.683C339.95 610.825 336.974 667.421 336.974 668.796V668.801Z" fill="#6A1A3A"/>
<g style="mix-blend-mode:color-dodge" opacity="0.3">
<path d="M336.974 668.801L339.77 669.624L343.473 670.713L343.498 669.659L345.044 604.597H342.5L343.247 576.512L343.744 557.727L342.796 556.969L342.786 557.165L341.767 576.688L336.974 668.801Z" fill="#E79A47"/>
</g>
<path style="mix-blend-mode:multiply" opacity="0.82" d="M341.752 576.688H341.767L343.248 576.513L352.929 575.368L352.035 548.167L343.097 551.274C343.097 551.274 342.987 553.356 342.796 556.97L342.786 557.165C342.545 561.702 342.184 568.558 341.752 576.688Z" fill="url(#paint33_linear_104_9101)"/>
<path d="M265.673 536.92C265.673 536.92 278.19 558.686 321.365 561.968C337.656 563.208 357.726 549.421 376.245 545.406C406.824 538.782 433.403 539.906 433.403 539.906L410.412 518.536L410.106 518.802C390.006 506.848 285.944 507.179 285.944 507.179L265.668 536.915L265.673 536.92Z" fill="#2D9693"/>
<path d="M280.569 503.043L287.239 504.735L285.954 507.184C285.954 507.184 390.017 506.853 410.116 518.807L410.423 518.541L406.864 512.107L418.728 510.441L418.653 510.341L394.348 476.796L403.667 474.773L368.451 423.256L375.332 420.375C375.332 420.375 365.094 409.445 355.342 392.527C345.591 375.609 351.659 358.419 351.659 358.419C331.719 373.4 312.161 422.714 312.161 422.714L315.469 424.335L284.589 479.631L291.901 480.755L279.6 502.802L280.569 503.048V503.043Z" fill="#2D9693"/>
<path d="M265.674 536.925C265.674 536.925 284.8 564.422 349.16 569.627C357.802 570.324 365.721 570.199 372.953 569.471L376.246 545.417L383.899 574.625C392.16 573.11 399.362 570.816 405.555 568.181L401.866 551.037L407.075 560.272C425.635 551.544 434.106 540.162 434.106 540.162C434.106 540.162 410.804 530.667 350.078 548.172C327.268 554.746 295.791 546.199 295.791 546.199V523.003L290.913 545.241L265.664 536.93L265.674 536.925Z" fill="#152822"/>
<path d="M279.6 503.205L285.953 507.184C285.953 507.184 390.016 506.853 410.116 518.808L410.422 518.542L419.27 510.798C419.27 510.798 419.064 510.632 418.653 510.336C414.909 507.621 394.237 493.835 361.891 494.537C329.069 495.25 287.399 501.92 280.563 503.044C279.931 503.149 279.595 503.205 279.595 503.205H279.6Z" fill="#152822"/>
<path d="M397.564 480.399L403.667 474.753C403.667 474.753 385.464 458.492 360.652 457.534C335.839 456.575 319.042 463.155 319.042 463.155V451.436L316.387 463.872L284.583 480.374L290.225 483.756L291.901 480.73C291.901 480.73 346.514 442.528 397.564 480.399Z" fill="#152822"/>
<path d="M312.162 422.739L315.469 424.355C315.469 424.355 321.697 421.008 336.492 418.674C351.282 416.34 368.456 423.276 368.456 423.276L375.337 420.345C375.337 420.345 359.789 405.701 343.749 408.626C327.715 411.557 312.162 422.734 312.162 422.734V422.739Z" fill="#152822"/>
<path d="M326.354 417.063L329.712 398.945L321.913 418.674L326.354 417.063Z" fill="#152822"/>
<path d="M350.083 502.968C349.596 499.319 346.455 465.247 346.455 465.247L340.005 501.297L338.003 481.689L334.159 502.973H350.088L350.083 502.968Z" fill="#284027"/>
<path d="M289.728 486.678C289.728 488.279 290.902 489.579 292.358 489.579C293.813 489.579 294.988 488.279 294.988 486.678C294.988 485.077 293.813 483.777 292.358 483.777C290.902 483.777 289.728 485.077 289.728 486.678Z" fill="#FFE2B3"/>
<path d="M303.489 473.704C303.489 474.778 304.277 475.646 305.251 475.646C306.224 475.646 307.012 474.778 307.012 473.704C307.012 472.63 306.224 471.762 305.251 471.762C304.277 471.762 303.489 472.63 303.489 473.704Z" fill="#FFE2B3"/>
<path d="M316.578 480.254C318.03 480.254 319.208 478.955 319.208 477.353C319.208 475.751 318.03 474.452 316.578 474.452C315.126 474.452 313.948 475.751 313.948 477.353C313.948 478.955 315.126 480.254 316.578 480.254Z" fill="#FFE2B3"/>
<path d="M324.512 463.24C324.512 464.048 325.104 464.705 325.837 464.705C326.57 464.705 327.162 464.048 327.162 463.24C327.162 462.432 326.57 461.774 325.837 461.774C325.104 461.774 324.512 462.432 324.512 463.24Z" fill="#FFE2B3"/>
<path d="M353.39 470.894C353.39 472.495 354.565 473.795 356.02 473.795C357.475 473.795 358.65 472.495 358.65 470.894C358.65 469.293 357.475 467.993 356.02 467.993C354.565 467.993 353.39 469.293 353.39 470.894Z" fill="#FFE2B3"/>
<path d="M305.015 442.157C305.758 443.532 307.374 443.983 308.618 443.16C309.863 442.342 310.269 440.561 309.527 439.186C308.784 437.81 307.168 437.359 305.923 438.182C304.679 439 304.272 440.781 305.015 442.157Z" fill="#FFE2B3"/>
<path d="M316.005 440.671C316.502 441.585 317.576 441.886 318.404 441.339C319.233 440.792 319.504 439.607 319.012 438.694C318.515 437.781 317.441 437.479 316.613 438.026C315.785 438.574 315.514 439.758 316.005 440.671Z" fill="#FFE2B3"/>
<path d="M316.924 425.42C317.351 426.202 318.27 426.458 318.977 425.992C319.69 425.525 319.921 424.511 319.494 423.723C319.072 422.94 318.149 422.684 317.441 423.151C316.729 423.618 316.498 424.632 316.924 425.42Z" fill="#FFE2B3"/>
<path d="M348.657 410.865C349.149 411.773 350.213 412.07 351.036 411.528C351.859 410.986 352.13 409.811 351.638 408.903C351.146 407.994 350.082 407.698 349.259 408.24C348.436 408.782 348.165 409.957 348.657 410.865Z" fill="#FFE2B3"/>
<path d="M355.348 398.157C356.09 399.533 357.706 399.984 358.951 399.161C360.196 398.343 360.602 396.562 359.859 395.186C359.117 393.811 357.501 393.36 356.256 394.183C355.011 395.006 354.6 396.782 355.348 398.157Z" fill="#FFE2B3"/>
<path d="M352.552 545.963C352.833 544.954 352.316 543.89 351.403 543.579C350.489 543.273 349.521 543.84 349.245 544.849C348.964 545.858 349.48 546.926 350.394 547.233C351.307 547.539 352.276 546.972 352.552 545.963Z" fill="#FFE2B3"/>
<path d="M339.317 529.13C339.744 527.6 338.961 525.979 337.571 525.512C336.181 525.045 334.715 525.903 334.289 527.439C333.862 528.97 334.645 530.591 336.035 531.058C337.425 531.524 338.891 530.666 339.317 529.13Z" fill="#FFE2B3"/>
<path d="M324.176 531.835C324.602 530.305 323.82 528.684 322.429 528.217C321.039 527.75 319.574 528.608 319.147 530.144C318.721 531.675 319.503 533.296 320.894 533.763C322.284 534.229 323.749 533.371 324.176 531.835Z" fill="#FFE2B3"/>
<path d="M310.249 513.984C310.515 513.025 310.024 512.006 309.155 511.715C308.287 511.424 307.364 511.961 307.098 512.92C306.832 513.878 307.323 514.897 308.192 515.188C309.06 515.484 309.983 514.942 310.249 513.984Z" fill="#FFE2B3"/>
<path d="M295.314 500.845C295.741 499.314 294.958 497.693 293.568 497.226C292.177 496.76 290.712 497.618 290.285 499.153C289.859 500.684 290.642 502.305 292.032 502.772C293.422 503.239 294.887 502.38 295.314 500.845Z" fill="#FFE2B3"/>
<path style="mix-blend-mode:screen" opacity="0.5" d="M325.812 474.808C331.528 474.808 336.161 469.696 336.161 463.39C336.161 457.085 331.528 451.973 325.812 451.973C320.097 451.973 315.464 457.085 315.464 463.39C315.464 469.696 320.097 474.808 325.812 474.808Z" fill="url(#paint34_radial_104_9101)"/>
<path style="mix-blend-mode:screen" opacity="0.5" d="M321.667 551.032C331.764 551.032 339.95 542 339.95 530.857C339.95 519.715 331.764 510.682 321.667 510.682C311.569 510.682 303.384 519.715 303.384 530.857C303.384 542 311.569 551.032 321.667 551.032Z" fill="url(#paint35_radial_104_9101)"/>
<path style="mix-blend-mode:screen" opacity="0.5" d="M347.267 396.677C347.267 402.986 351.899 408.095 357.616 408.095C363.332 408.095 367.964 402.981 367.964 396.677C367.964 390.374 363.332 385.26 357.616 385.26C351.899 385.26 347.267 390.374 347.267 396.677Z" fill="url(#paint36_radial_104_9101)"/>
<path d="M267.571 528.253C270.401 529.759 276.579 528.128 279.335 525.638C279.335 525.638 279.335 525.638 279.34 525.638C279.395 525.588 279.45 525.533 279.505 525.483C279.535 525.453 279.565 525.422 279.595 525.392C281.588 523.375 288.9 529.372 303.188 532.76C302.973 535.605 302.847 540.694 304.624 541.593C305.106 541.834 306.059 541.809 307.264 541.573C311.123 540.82 317.537 537.919 319.208 534.858C322.189 534.878 325.351 534.401 328.673 533.618C327.755 537.874 331.047 545.312 332.367 545.412C333.883 545.532 330.851 536.684 339.95 530.828C339.95 530.828 339.579 530.712 338.967 530.577C361.42 523.054 389.48 510.597 419.266 536.624C418.98 536.228 385.39 490.051 343.534 481.574C339.012 480.661 334.395 480.184 329.712 480.254C327.986 480.279 326.305 480.365 324.658 480.5C321.848 480.736 319.158 481.122 316.573 481.649C310.822 482.819 305.633 484.666 300.975 486.959C297.743 488.55 294.767 490.357 292.037 492.304C291.901 492.399 291.766 492.5 291.63 492.595C291.625 492.595 291.62 492.605 291.615 492.605C289.874 493.87 288.233 495.19 286.692 496.545C286.677 496.56 286.662 496.57 286.647 496.585C286.647 496.585 286.637 496.595 286.632 496.6C271.285 510.141 265.794 527.32 267.566 528.263L267.571 528.253Z" fill="url(#paint37_linear_104_9101)"/>
<path d="M318.615 426.298C317.993 428.094 317.521 429.314 317.521 429.314L323.373 427.999C323.373 427.999 323.223 426.915 323.102 425.229C322.796 420.928 322.696 412.712 325.807 408.632C327.654 406.213 330.439 404.004 333.375 402.544C334.786 401.841 336.231 401.304 337.626 401.003C340.13 400.456 342.464 400.652 344.12 401.927C348.617 405.385 335.398 415.507 336.156 416.28C336.893 417.033 345.631 403.503 355.182 407.538C361.229 411.658 365.671 416.215 365.736 416.28C365.666 416.069 350.665 372.718 339.046 372.392C338.053 372.362 337.089 372.648 336.156 373.3C324.322 381.591 312.216 422.714 312.156 422.92C312.196 422.845 315.107 417.329 320.031 411.804C323.554 410.87 320.432 421.048 318.61 426.303L318.615 426.298Z" fill="url(#paint38_linear_104_9101)"/>
<path d="M346.454 380.115C346.454 380.115 344.07 373.541 344.557 367.8C345.044 362.058 352.09 358.415 351.869 358.415C351.649 358.415 343.634 361.285 337.406 371.207C333.541 377.36 338.705 378.379 346.454 380.115Z" fill="url(#paint39_linear_104_9101)"/>
<path d="M284.584 480.248C284.584 480.248 300.458 469.488 299.514 476.238C298.882 480.75 294.727 487.992 292.042 492.298C290.707 494.436 289.733 495.851 289.733 495.851L298.24 493.462C298.24 493.462 304.689 494.421 300.98 486.953C297.276 479.485 305.226 471.762 307.017 470.863C308.066 470.336 314.691 467.425 319.981 465.117C323.694 463.496 326.746 462.166 326.746 462.166C326.746 462.166 348.898 457.594 345.049 465.242C342.384 470.542 331.258 477.011 324.663 480.494C321.732 482.04 319.695 482.998 319.695 482.998C319.695 482.998 344.02 483.415 343.538 481.568C343.057 479.716 350.469 461.413 364.607 462.131C364.607 462.131 358.213 430.684 336.166 426.202C333.516 425.665 331.182 425.334 329.13 425.178C326.786 424.997 324.804 425.033 323.112 425.228C321.306 425.434 319.835 425.815 318.626 426.297C313.687 428.254 313.02 431.833 311.323 431.763C308.473 431.637 283.184 463.631 282.315 471.762C281.447 479.892 284.589 480.248 284.589 480.248H284.584Z" fill="url(#paint40_linear_104_9101)"/>
<path d="M314.666 541.647C323.363 541.958 309.06 549.18 309.06 549.18C309.06 549.18 309.241 541.457 314.666 541.647Z" fill="url(#paint41_linear_104_9101)"/>
<path d="M284.583 536.624C288.197 541.532 272.102 541.01 269.432 538.159C266.762 535.309 278.245 528.017 284.583 536.624Z" fill="url(#paint42_linear_104_9101)"/>
<path style="mix-blend-mode:multiply" opacity="0.6" d="M279.334 525.638C279.334 525.638 279.334 525.638 279.339 525.638C279.389 525.598 279.44 525.543 279.505 525.483C279.535 525.453 279.565 525.422 279.595 525.392C281.587 523.375 288.9 529.372 303.188 532.76C302.972 535.605 302.847 540.694 304.623 541.593C305.105 541.834 306.059 541.808 307.263 541.573C301.833 535.997 313.943 531.068 310.315 530.828C306.686 530.587 298.882 489.76 316.573 481.649C310.821 482.819 305.632 484.666 300.975 486.959C297.271 479.491 305.221 471.768 307.012 470.869C308.061 470.342 314.686 467.431 319.976 465.123C318.244 463.592 316.663 459.567 316.713 449.946C316.824 428.903 328.793 426.213 328.793 426.213C328.793 426.213 328.914 425.841 329.125 425.189C326.781 425.008 324.799 425.043 323.107 425.239C322.801 420.938 322.701 412.723 325.812 408.642C327.659 406.223 330.445 404.015 333.38 402.555C330.219 402.504 329.877 392.798 335.187 385.265C340.497 377.732 343.749 380.126 343.749 380.126C343.749 380.126 343.589 379.469 339.955 375.76C339.082 374.871 338.871 373.687 339.052 372.402C338.058 372.372 337.094 372.658 336.161 373.311C324.327 381.602 312.222 422.725 312.161 422.931C312.202 422.855 315.112 417.34 320.036 411.814C323.559 410.881 320.437 421.059 318.615 426.313C313.677 428.27 313.01 431.849 311.313 431.779C308.463 431.653 283.173 463.647 282.305 471.778C281.437 479.908 284.579 480.264 284.579 480.264C284.579 480.264 300.453 469.504 299.509 476.254C298.877 480.766 294.721 488.008 292.036 492.314C291.901 492.409 291.765 492.51 291.63 492.605C291.625 492.605 291.62 492.615 291.615 492.615C289.718 493.985 288.092 495.3 286.692 496.555C286.676 496.57 286.661 496.58 286.646 496.595C286.646 496.595 286.636 496.605 286.631 496.61C274.155 507.852 280.383 514.366 282.14 515.3C284.945 516.79 277.628 527.144 279.329 525.653L279.334 525.638Z" fill="url(#paint43_linear_104_9101)"/>
<path d="M257.172 671.793L288.714 671.577L347.81 671.17L405.565 670.774C405.565 670.774 379.181 644.29 373.601 643.573C371.844 643.347 368.863 644.16 365.601 645.374C358.504 648.024 350.088 652.596 350.088 652.596C350.088 652.596 343.529 652.727 336.257 653.434C336.126 653.444 335.996 653.459 335.865 653.474C335.725 653.489 335.579 653.505 335.438 653.52C329.055 654.177 322.294 655.286 319.052 657.143C316.598 658.548 313.316 660.215 310.074 661.79C303.951 664.766 297.974 667.426 297.974 667.426C297.974 667.426 295.756 662.563 293.056 660.069C292.127 659.211 291.143 658.634 290.17 658.634C286.376 658.634 279.605 668.495 279.605 668.495L260.479 670.769L257.172 671.788V671.793Z" fill="url(#paint44_linear_104_9101)"/>
<path style="mix-blend-mode:multiply" opacity="0.8" d="M350.083 652.601C350.083 652.601 343.524 652.732 336.251 653.439C345.391 652.802 380.265 667.557 380.797 667.783C380.366 667.582 355.99 656.285 355.99 653.856C355.99 651.427 365.505 645.434 365.596 645.374C358.499 648.024 350.083 652.596 350.083 652.596V652.601Z" fill="url(#paint45_linear_104_9101)"/>
<path style="mix-blend-mode:multiply" opacity="0.6" d="M335.428 653.519C335.559 653.509 335.699 653.499 335.84 653.479C335.845 653.479 335.85 653.479 335.855 653.479C335.714 653.494 335.569 653.509 335.428 653.524V653.519Z" fill="url(#paint46_linear_104_9101)"/>
<path style="mix-blend-mode:screen" opacity="0.42" d="M20.1095 353.211C12.4736 354.53 5.21121 349.413 3.89222 341.777C2.57323 334.141 7.69029 326.879 15.3261 325.56C22.962 324.241 30.2243 329.358 31.5433 336.994C32.8623 344.629 27.7453 351.892 20.1095 353.211Z" fill="url(#paint47_radial_104_9101)"/>
<path style="mix-blend-mode:screen" opacity="0.42" d="M21.5553 345.693C17.503 346.392 13.6414 343.675 12.9422 339.622C12.243 335.57 14.9604 331.708 19.0127 331.009C23.0651 330.31 26.9266 333.027 27.6259 337.08C28.3251 341.132 25.6076 344.994 21.5553 345.693Z" fill="url(#paint48_radial_104_9101)"/>
<path style="mix-blend-mode:screen" opacity="0.42" d="M-20.0639 422.6C-28.0653 416.458 -29.567 404.992 -23.417 396.991C-17.275 388.99 -5.80929 387.488 2.19206 393.638C10.1934 399.78 11.6952 411.246 5.54518 419.247C-0.596867 427.248 -12.0626 428.75 -20.0639 422.6Z" fill="url(#paint49_radial_104_9101)"/>
<path style="mix-blend-mode:screen" opacity="0.42" d="M3.87673 295.524C1.06394 293.363 0.531582 289.334 2.69282 286.514C4.85406 283.701 8.88256 283.169 11.7033 285.33C14.5161 287.491 15.0484 291.527 12.8872 294.34C10.726 297.153 6.69746 297.685 3.87673 295.524Z" fill="url(#paint50_radial_104_9101)"/>
<path style="mix-blend-mode:screen" opacity="0.42" d="M-11.586 417.356C-15.837 414.09 -16.6315 408.004 -13.3658 403.761C-10.1001 399.51 -4.01373 398.715 0.229289 401.981C4.48025 405.247 5.27482 411.333 2.00912 415.576C-1.25657 419.827 -7.34299 420.622 -11.586 417.356Z" fill="url(#paint51_radial_104_9101)"/>
<g opacity="0.3">
<path style="mix-blend-mode:screen" opacity="0.42" d="M335.134 215.875C341.164 218.227 344.144 225.013 341.792 231.044C339.44 237.075 332.654 240.054 326.624 237.702C320.593 235.35 317.613 228.565 319.965 222.534C322.317 216.503 329.103 213.524 335.134 215.875Z" fill="url(#paint52_radial_104_9101)"/>
<path style="mix-blend-mode:screen" opacity="0.42" d="M279.187 210.368C284.002 212.243 286.386 217.67 284.503 222.485C282.628 227.3 277.201 229.684 272.386 227.801C267.571 225.926 265.187 220.499 267.07 215.684C268.945 210.869 274.372 208.485 279.187 210.368Z" fill="url(#paint53_radial_104_9101)"/>
<path style="mix-blend-mode:screen" opacity="0.42" d="M298.464 189.352C300.156 190.012 300.99 191.919 300.331 193.611C299.671 195.304 297.764 196.138 296.072 195.478C294.38 194.819 293.545 192.912 294.205 191.22C294.864 189.527 296.771 188.693 298.464 189.352Z" fill="url(#paint54_radial_104_9101)"/>
<path style="mix-blend-mode:screen" opacity="0.42" d="M275.771 214.167C278.329 215.16 279.592 218.044 278.591 220.603C277.598 223.161 274.714 224.425 272.155 223.424C269.597 222.43 268.333 219.546 269.334 216.988C270.328 214.429 273.212 213.166 275.771 214.167Z" fill="url(#paint55_radial_104_9101)"/>
<path style="mix-blend-mode:screen" opacity="0.42" d="M260.975 379.923C248.278 366.575 248.811 345.455 262.159 332.766C275.508 320.068 296.62 320.601 309.317 333.949C322.015 347.298 321.482 368.418 308.133 381.107C294.785 393.805 273.665 393.272 260.975 379.923Z" fill="url(#paint56_radial_104_9101)"/>
<path style="mix-blend-mode:screen" opacity="0.42" d="M277.749 372.86C271.011 365.772 271.289 354.561 278.377 347.815C285.464 341.077 296.676 341.355 303.421 348.442C310.159 355.53 309.881 366.741 302.794 373.487C295.706 380.225 284.495 379.947 277.749 372.86Z" fill="url(#paint57_radial_104_9101)"/>
</g>
<path style="mix-blend-mode:screen" opacity="0.7" d="M369.01 568.551C434.607 568.551 487.785 515.373 487.785 449.775C487.785 384.177 434.607 331 369.01 331C303.412 331 250.234 384.177 250.234 449.775C250.234 515.373 303.412 568.551 369.01 568.551Z" fill="url(#paint58_radial_104_9101)"/>
<path style="mix-blend-mode:screen" opacity="0.79" d="M369.838 490.468C392.312 490.468 410.531 472.25 410.531 449.776C410.531 427.302 392.312 409.083 369.838 409.083C347.364 409.083 329.146 427.302 329.146 449.776C329.146 472.25 347.364 490.468 369.838 490.468Z" fill="url(#paint59_radial_104_9101)"/>
<path style="mix-blend-mode:screen" opacity="0.7" d="M145.546 553.9C186.764 512.681 186.764 445.852 145.546 404.633C104.327 363.414 37.4975 363.414 -3.72149 404.633C-44.9404 445.852 -44.9404 512.681 -3.72148 553.9C37.4975 595.119 104.327 595.119 145.546 553.9Z" fill="url(#paint60_radial_104_9101)"/>
<path style="mix-blend-mode:screen" opacity="0.79" d="M98.472 504.84C112.593 490.718 112.593 467.823 98.472 453.702C84.3506 439.58 61.4554 439.58 47.3341 453.702C33.2127 467.823 33.2127 490.718 47.3341 504.84C61.4554 518.961 84.3506 518.961 98.472 504.84Z" fill="url(#paint61_radial_104_9101)"/>
<path style="mix-blend-mode:screen" opacity="0.79" d="M88.1053 569.794C102.227 555.672 102.227 532.777 88.1053 518.656C73.9839 504.534 51.0887 504.534 36.9674 518.656C22.846 532.777 22.846 555.672 36.9674 569.794C51.0887 583.915 73.9839 583.915 88.1053 569.794Z" fill="url(#paint62_radial_104_9101)"/>
<path style="mix-blend-mode:screen" opacity="0.5" d="M494.461 829.001C596.862 829.001 679.875 792.128 679.875 746.643C679.875 701.159 596.862 664.286 494.461 664.286C392.06 664.286 309.048 701.159 309.048 746.643C309.048 792.128 392.06 829.001 494.461 829.001Z" fill="url(#paint63_radial_104_9101)"/>
<rect opacity="0.3" y="-66" width="360" height="800" fill="url(#paint64_radial_104_9101)"/>
</g>
<defs>
<linearGradient id="paint0_linear_104_9101" x1="6.99527" y1="877.379" x2="6.99527" y2="72.3787" gradientUnits="userSpaceOnUse">
<stop stop-color="#D4E4FD"/>
<stop offset="0.47" stop-color="#7C81BD"/>
<stop offset="1" stop-color="#464688"/>
</linearGradient>
<linearGradient id="paint1_linear_104_9101" x1="234.022" y1="782.319" x2="256.394" y2="-27.7474" gradientUnits="userSpaceOnUse">
<stop stop-color="#D4E4FD"/>
<stop offset="0.47" stop-color="#7C81BD"/>
<stop offset="1" stop-color="#464688"/>
</linearGradient>
<linearGradient id="paint2_linear_104_9101" x1="-9.57667" y1="539.866" x2="100.997" y2="287.069" gradientUnits="userSpaceOnUse">
<stop stop-color="#D4E4FD"/>
<stop offset="0.47" stop-color="#7C81BD"/>
<stop offset="1" stop-color="#464688"/>
</linearGradient>
<linearGradient id="paint3_linear_104_9101" x1="197.022" y1="954.539" x2="178.448" y2="582.106" gradientUnits="userSpaceOnUse">
<stop stop-color="#D4E4FD"/>
<stop offset="0.47" stop-color="#7C81BD"/>
<stop offset="1" stop-color="#464688"/>
</linearGradient>
<linearGradient id="paint4_linear_104_9101" x1="274.86" y1="950.653" x2="256.286" y2="578.221" gradientUnits="userSpaceOnUse">
<stop stop-color="#D4E4FD"/>
<stop offset="0.47" stop-color="#7C81BD"/>
<stop offset="1" stop-color="#464688"/>
</linearGradient>
<linearGradient id="paint5_linear_104_9101" x1="412.17" y1="943.806" x2="393.596" y2="571.367" gradientUnits="userSpaceOnUse">
<stop stop-color="#D4E4FD"/>
<stop offset="0.47" stop-color="#7C81BD"/>
<stop offset="1" stop-color="#464688"/>
</linearGradient>
<linearGradient id="paint6_linear_104_9101" x1="-50.227" y1="201.949" x2="-39.7686" y2="569.204" gradientUnits="userSpaceOnUse">
<stop stop-color="#D4E4FD"/>
<stop offset="0.47" stop-color="#7C81BD"/>
<stop offset="1" stop-color="#464688"/>
</linearGradient>
<linearGradient id="paint7_linear_104_9101" x1="24.8125" y1="296.975" x2="-44.7259" y2="1058.08" gradientUnits="userSpaceOnUse">
<stop stop-color="#16274C"/>
<stop offset="1" stop-color="#293D79"/>
</linearGradient>
<linearGradient id="paint8_linear_104_9101" x1="24.8125" y1="296.975" x2="-44.7259" y2="1058.08" gradientUnits="userSpaceOnUse">
<stop stop-color="#16274C"/>
<stop offset="1" stop-color="#293D79"/>
</linearGradient>
<linearGradient id="paint9_linear_104_9101" x1="173.708" y1="228.34" x2="184.167" y2="595.595" gradientUnits="userSpaceOnUse">
<stop stop-color="#D4E4FD"/>
<stop offset="0.47" stop-color="#7C81BD"/>
<stop offset="1" stop-color="#464688"/>
</linearGradient>
<linearGradient id="paint10_linear_104_9101" x1="123.115" y1="1043.06" x2="110.541" y2="600.519" gradientUnits="userSpaceOnUse">
<stop stop-color="#E2DAFE"/>
<stop offset="0.99" stop-color="#B7C8F0"/>
</linearGradient>
<linearGradient id="paint11_linear_104_9101" x1="200.38" y1="1012.77" x2="200.38" y2="925.631" gradientUnits="userSpaceOnUse">
<stop stop-color="#E2DAFE"/>
<stop offset="0.99" stop-color="#B7C8F0"/>
</linearGradient>
<linearGradient id="paint12_linear_104_9101" x1="241.43" y1="479.304" x2="226.58" y2="1214.74" gradientUnits="userSpaceOnUse">
<stop stop-color="#684B67"/>
<stop offset="1" stop-color="#0D164C"/>
</linearGradient>
<linearGradient id="paint13_linear_104_9101" x1="-100.026" y1="763.661" x2="-40.9321" y2="546.658" gradientUnits="userSpaceOnUse">
<stop stop-color="#6C5BA8"/>
<stop offset="1" stop-color="#291D4C"/>
</linearGradient>
<linearGradient id="paint14_linear_104_9101" x1="334.411" y1="634.833" x2="347.252" y2="719.414" gradientUnits="userSpaceOnUse">
<stop stop-color="#E2DAFE"/>
<stop offset="0.99" stop-color="#B7C8F0"/>
</linearGradient>
<linearGradient id="paint15_linear_104_9101" x1="353.593" y1="682.893" x2="357.411" y2="707.992" gradientUnits="userSpaceOnUse">
<stop stop-color="#E2DAFE"/>
<stop offset="0.99" stop-color="#B7C8F0"/>
</linearGradient>
<linearGradient id="paint16_linear_104_9101" x1="-10.4912" y1="642.917" x2="0.600896" y2="716.005" gradientUnits="userSpaceOnUse">
<stop stop-color="#E2DAFE"/>
<stop offset="0.99" stop-color="#B7C8F0"/>
</linearGradient>
<linearGradient id="paint17_linear_104_9101" x1="-5.42016" y1="664.824" x2="1.39614" y2="709.732" gradientUnits="userSpaceOnUse">
<stop stop-color="#E2DAFE"/>
<stop offset="0.99" stop-color="#B7C8F0"/>
</linearGradient>
<linearGradient id="paint18_linear_104_9101" x1="29.9795" y1="592.278" x2="29.8187" y2="558.327" gradientUnits="userSpaceOnUse">
<stop stop-color="#C7A5B3"/>
<stop offset="1" stop-color="#8E4257"/>
</linearGradient>
<radialGradient id="paint19_radial_104_9101" cx="0" cy="0" r="1" gradientUnits="userSpaceOnUse" gradientTransform="translate(53.2808 502.674) rotate(180) scale(12.6793 13.8754)">
<stop stop-color="#DC443A"/>
<stop offset="0.12" stop-color="#AF362E"/>
<stop offset="0.29" stop-color="#7A2520"/>
<stop offset="0.45" stop-color="#4E1814"/>
<stop offset="0.6" stop-color="#2C0D0B"/>
<stop offset="0.75" stop-color="#130605"/>
<stop offset="0.88" stop-color="#050101"/>
<stop offset="0.99"/>
</radialGradient>
<radialGradient id="paint20_radial_104_9101" cx="0" cy="0" r="1" gradientUnits="userSpaceOnUse" gradientTransform="translate(3.02851 490.603) rotate(180) scale(9.00265 9.85196)">
<stop stop-color="#DC443A"/>
<stop offset="0.12" stop-color="#AF362E"/>
<stop offset="0.29" stop-color="#7A2520"/>
<stop offset="0.45" stop-color="#4E1814"/>
<stop offset="0.6" stop-color="#2C0D0B"/>
<stop offset="0.75" stop-color="#130605"/>
<stop offset="0.88" stop-color="#050101"/>
<stop offset="0.99"/>
</radialGradient>
<radialGradient id="paint21_radial_104_9101" cx="0" cy="0" r="1" gradientUnits="userSpaceOnUse" gradientTransform="translate(-0.574229 548.813) rotate(180) scale(15.909 17.4098)">
<stop stop-color="#DC443A"/>
<stop offset="0.12" stop-color="#AF362E"/>
<stop offset="0.29" stop-color="#7A2520"/>
<stop offset="0.45" stop-color="#4E1814"/>
<stop offset="0.6" stop-color="#2C0D0B"/>
<stop offset="0.75" stop-color="#130605"/>
<stop offset="0.88" stop-color="#050101"/>
<stop offset="0.99"/>
</radialGradient>
<radialGradient id="paint22_radial_104_9101" cx="0" cy="0" r="1" gradientUnits="userSpaceOnUse" gradientTransform="translate(30.7001 433.034) rotate(180) scale(9.00265 9.85196)">
<stop stop-color="#DC443A"/>
<stop offset="0.12" stop-color="#AF362E"/>
<stop offset="0.29" stop-color="#7A2520"/>
<stop offset="0.45" stop-color="#4E1814"/>
<stop offset="0.6" stop-color="#2C0D0B"/>
<stop offset="0.75" stop-color="#130605"/>
<stop offset="0.88" stop-color="#050101"/>
<stop offset="0.99"/>
</radialGradient>
<linearGradient id="paint23_linear_104_9101" x1="61.8654" y1="529.297" x2="4.12214" y2="535.395" gradientUnits="userSpaceOnUse">
<stop offset="0.02" stop-color="#E6DBFF"/>
<stop offset="1" stop-color="#B7C8F0"/>
</linearGradient>
<linearGradient id="paint24_linear_104_9101" x1="52.7161" y1="432.978" x2="-5.13151" y2="439.089" gradientUnits="userSpaceOnUse">
<stop offset="0.02" stop-color="#E6DBFF"/>
<stop offset="1" stop-color="#B7C8F0"/>
</linearGradient>
<linearGradient id="paint25_linear_104_9101" x1="50.6908" y1="407.764" x2="-7.63495" y2="413.923" gradientUnits="userSpaceOnUse">
<stop offset="0.02" stop-color="#E6DBFF"/>
<stop offset="1" stop-color="#B7C8F0"/>
</linearGradient>
<linearGradient id="paint26_linear_104_9101" x1="57.5321" y1="482.18" x2="-0.3416" y2="488.292" gradientUnits="userSpaceOnUse">
<stop offset="0.02" stop-color="#E6DBFF"/>
<stop offset="1" stop-color="#B7C8F0"/>
</linearGradient>
<linearGradient id="paint27_linear_104_9101" x1="4.09577" y1="562.339" x2="-3.18896" y2="562.339" gradientUnits="userSpaceOnUse">
<stop stop-color="#E2DAFE"/>
<stop offset="0.99" stop-color="#B7C8F0"/>
</linearGradient>
<linearGradient id="paint28_linear_104_9101" x1="26.8496" y1="485.832" x2="-29.1942" y2="485.832" gradientUnits="userSpaceOnUse">
<stop stop-color="#E2DAFE"/>
<stop offset="0.99" stop-color="#B7C8F0"/>
</linearGradient>
<linearGradient id="paint29_linear_104_9101" x1="18.7391" y1="638.086" x2="15.0229" y2="685.432" gradientUnits="userSpaceOnUse">
<stop stop-color="#E2DAFE"/>
<stop offset="0.99" stop-color="#B7C8F0"/>
</linearGradient>
<linearGradient id="paint30_linear_104_9101" x1="5.56931" y1="661.322" x2="4.39576" y2="676.334" gradientUnits="userSpaceOnUse">
<stop stop-color="#E2DAFE"/>
<stop offset="0.99" stop-color="#B7C8F0"/>
</linearGradient>
<linearGradient id="paint31_linear_104_9101" x1="58.9399" y1="658.618" x2="20.3604" y2="658.618" gradientUnits="userSpaceOnUse">
<stop stop-color="#E2DAFE"/>
<stop offset="0.99" stop-color="#B7C8F0"/>
</linearGradient>
<linearGradient id="paint32_linear_104_9101" x1="20.0169" y1="655.949" x2="19.6475" y2="655.949" gradientUnits="userSpaceOnUse">
<stop stop-color="#E2DAFE"/>
<stop offset="0.99" stop-color="#B7C8F0"/>
</linearGradient>
<linearGradient id="paint33_linear_104_9101" x1="347.358" y1="579.98" x2="347.177" y2="540.779" gradientUnits="userSpaceOnUse">
<stop stop-color="#C7A5B3"/>
<stop offset="1" stop-color="#8E4257"/>
</linearGradient>
<radialGradient id="paint34_radial_104_9101" cx="0" cy="0" r="1" gradientUnits="userSpaceOnUse" gradientTransform="translate(319.244 462.581) rotate(180) scale(10.3949 11.3756)">
<stop stop-color="#DC443A"/>
<stop offset="0.12" stop-color="#AF362E"/>
<stop offset="0.29" stop-color="#7A2520"/>
<stop offset="0.45" stop-color="#4E1814"/>
<stop offset="0.6" stop-color="#2C0D0B"/>
<stop offset="0.75" stop-color="#130605"/>
<stop offset="0.88" stop-color="#050101"/>
<stop offset="0.99"/>
</radialGradient>
<radialGradient id="paint35_radial_104_9101" cx="0" cy="0" r="1" gradientUnits="userSpaceOnUse" gradientTransform="translate(315.079 529.793) rotate(180) scale(18.3693 20.1023)">
<stop stop-color="#DC443A"/>
<stop offset="0.12" stop-color="#AF362E"/>
<stop offset="0.29" stop-color="#7A2520"/>
<stop offset="0.45" stop-color="#4E1814"/>
<stop offset="0.6" stop-color="#2C0D0B"/>
<stop offset="0.75" stop-color="#130605"/>
<stop offset="0.88" stop-color="#050101"/>
<stop offset="0.99"/>
</radialGradient>
<radialGradient id="paint36_radial_104_9101" cx="0" cy="0" r="1" gradientUnits="userSpaceOnUse" gradientTransform="translate(351.195 396.11) rotate(180) scale(10.3949 11.3756)">
<stop stop-color="#DC443A"/>
<stop offset="0.12" stop-color="#AF362E"/>
<stop offset="0.29" stop-color="#7A2520"/>
<stop offset="0.45" stop-color="#4E1814"/>
<stop offset="0.6" stop-color="#2C0D0B"/>
<stop offset="0.75" stop-color="#130605"/>
<stop offset="0.88" stop-color="#050101"/>
<stop offset="0.99"/>
</radialGradient>
<linearGradient id="paint37_linear_104_9101" x1="384.18" y1="507.26" x2="317.502" y2="514.301" gradientUnits="userSpaceOnUse">
<stop offset="0.02" stop-color="#E6DBFF"/>
<stop offset="1" stop-color="#B7C8F0"/>
</linearGradient>
<linearGradient id="paint38_linear_104_9101" x1="373.615" y1="396.045" x2="306.821" y2="403.101" gradientUnits="userSpaceOnUse">
<stop offset="0.02" stop-color="#E6DBFF"/>
<stop offset="1" stop-color="#B7C8F0"/>
</linearGradient>
<linearGradient id="paint39_linear_104_9101" x1="371.277" y1="366.931" x2="303.926" y2="374.043" gradientUnits="userSpaceOnUse">
<stop offset="0.02" stop-color="#E6DBFF"/>
<stop offset="1" stop-color="#B7C8F0"/>
</linearGradient>
<linearGradient id="paint40_linear_104_9101" x1="379.176" y1="452.856" x2="312.352" y2="459.912" gradientUnits="userSpaceOnUse">
<stop offset="0.02" stop-color="#E6DBFF"/>
<stop offset="1" stop-color="#B7C8F0"/>
</linearGradient>
<linearGradient id="paint41_linear_104_9101" x1="317.476" y1="545.411" x2="309.065" y2="545.411" gradientUnits="userSpaceOnUse">
<stop stop-color="#E2DAFE"/>
<stop offset="0.99" stop-color="#B7C8F0"/>
</linearGradient>
<linearGradient id="paint42_linear_104_9101" x1="285.11" y1="536.433" x2="269.035" y2="536.433" gradientUnits="userSpaceOnUse">
<stop stop-color="#E2DAFE"/>
<stop offset="0.99" stop-color="#B7C8F0"/>
</linearGradient>
<linearGradient id="paint43_linear_104_9101" x1="343.749" y1="457.073" x2="279.038" y2="457.073" gradientUnits="userSpaceOnUse">
<stop stop-color="#E2DAFE"/>
<stop offset="0.99" stop-color="#B7C8F0"/>
</linearGradient>
<linearGradient id="paint44_linear_104_9101" x1="334.38" y1="632.873" x2="330.094" y2="687.541" gradientUnits="userSpaceOnUse">
<stop stop-color="#E2DAFE"/>
<stop offset="0.99" stop-color="#B7C8F0"/>
</linearGradient>
<linearGradient id="paint45_linear_104_9101" x1="380.797" y1="656.581" x2="336.256" y2="656.581" gradientUnits="userSpaceOnUse">
<stop stop-color="#E2DAFE"/>
<stop offset="0.99" stop-color="#B7C8F0"/>
</linearGradient>
<linearGradient id="paint46_linear_104_9101" x1="335.86" y1="653.499" x2="335.433" y2="653.499" gradientUnits="userSpaceOnUse">
<stop stop-color="#E2DAFE"/>
<stop offset="0.99" stop-color="#B7C8F0"/>
</linearGradient>
<radialGradient id="paint47_radial_104_9101" cx="0" cy="0" r="1" gradientUnits="userSpaceOnUse" gradientTransform="translate(17.6709 339.36) rotate(80.19) scale(14.0321)">
<stop stop-color="#E382A9"/>
<stop offset="0.38" stop-color="#E180A7"/>
<stop offset="0.52" stop-color="#DA7DA2"/>
<stop offset="0.61" stop-color="#CE7699"/>
<stop offset="0.69" stop-color="#BD6C8D"/>
<stop offset="0.76" stop-color="#A75F7C"/>
<stop offset="0.82" stop-color="#8C5068"/>
<stop offset="0.87" stop-color="#6B3D50"/>
<stop offset="0.92" stop-color="#462834"/>
<stop offset="0.97" stop-color="#1D1015"/>
<stop offset="1"/>
</radialGradient>
<radialGradient id="paint48_radial_104_9101" cx="0" cy="0" r="1" gradientUnits="userSpaceOnUse" gradientTransform="translate(20.2417 338.326) rotate(80.19) scale(7.4531 7.45308)">
<stop stop-color="#E382A9"/>
<stop offset="0.38" stop-color="#E180A7"/>
<stop offset="0.52" stop-color="#DA7DA2"/>
<stop offset="0.61" stop-color="#CE7699"/>
<stop offset="0.69" stop-color="#BD6C8D"/>
<stop offset="0.76" stop-color="#A75F7C"/>
<stop offset="0.82" stop-color="#8C5068"/>
<stop offset="0.87" stop-color="#6B3D50"/>
<stop offset="0.92" stop-color="#462834"/>
<stop offset="0.97" stop-color="#1D1015"/>
<stop offset="1"/>
</radialGradient>
<radialGradient id="paint49_radial_104_9101" cx="0" cy="0" r="1" gradientUnits="userSpaceOnUse" gradientTransform="translate(-9.34703 408.094) rotate(127.53) scale(18.2593)">
<stop stop-color="#E3821F"/>
<stop offset="0.38" stop-color="#E1801E"/>
<stop offset="0.52" stop-color="#DA7D1D"/>
<stop offset="0.61" stop-color="#CE761C"/>
<stop offset="0.69" stop-color="#BD6C19"/>
<stop offset="0.76" stop-color="#A75F16"/>
<stop offset="0.82" stop-color="#8C5013"/>
<stop offset="0.87" stop-color="#6B3D0E"/>
<stop offset="0.92" stop-color="#462809"/>
<stop offset="0.97" stop-color="#1D1003"/>
<stop offset="1"/>
</radialGradient>
<radialGradient id="paint50_radial_104_9101" cx="0" cy="0" r="1" gradientUnits="userSpaceOnUse" gradientTransform="translate(7.38657 290.416) rotate(127.53) scale(6.42015 6.42015)">
<stop stop-color="#E3821F"/>
<stop offset="0.38" stop-color="#E1801E"/>
<stop offset="0.52" stop-color="#DA7D1D"/>
<stop offset="0.61" stop-color="#CE761C"/>
<stop offset="0.69" stop-color="#BD6C19"/>
<stop offset="0.76" stop-color="#A75F16"/>
<stop offset="0.82" stop-color="#8C5013"/>
<stop offset="0.87" stop-color="#6B3D0E"/>
<stop offset="0.92" stop-color="#462809"/>
<stop offset="0.97" stop-color="#1D1003"/>
<stop offset="1"/>
</radialGradient>
<radialGradient id="paint51_radial_104_9101" cx="0" cy="0" r="1" gradientUnits="userSpaceOnUse" gradientTransform="translate(-6.08963 409.645) rotate(127.53) scale(9.69379 9.69378)">
<stop stop-color="#E3821F"/>
<stop offset="0.38" stop-color="#E1801E"/>
<stop offset="0.52" stop-color="#DA7D1D"/>
<stop offset="0.61" stop-color="#CE761C"/>
<stop offset="0.69" stop-color="#BD6C19"/>
<stop offset="0.76" stop-color="#A75F16"/>
<stop offset="0.82" stop-color="#8C5013"/>
<stop offset="0.87" stop-color="#6B3D0E"/>
<stop offset="0.92" stop-color="#462809"/>
<stop offset="0.97" stop-color="#1D1003"/>
<stop offset="1"/>
</radialGradient>
<radialGradient id="paint52_radial_104_9101" cx="0" cy="0" r="1" gradientUnits="userSpaceOnUse" gradientTransform="translate(330.613 226.558) rotate(-68.7) scale(11.712 11.712)">
<stop stop-color="#E382A9"/>
<stop offset="0.38" stop-color="#E180A7"/>
<stop offset="0.52" stop-color="#DA7DA2"/>
<stop offset="0.61" stop-color="#CE7699"/>
<stop offset="0.69" stop-color="#BD6C8D"/>
<stop offset="0.76" stop-color="#A75F7C"/>
<stop offset="0.82" stop-color="#8C5068"/>
<stop offset="0.87" stop-color="#6B3D50"/>
<stop offset="0.92" stop-color="#462834"/>
<stop offset="0.97" stop-color="#1D1015"/>
<stop offset="1"/>
</radialGradient>
<radialGradient id="paint53_radial_104_9101" cx="0" cy="0" r="1" gradientUnits="userSpaceOnUse" gradientTransform="translate(275.53 218.854) rotate(-68.7) scale(9.35212 9.35214)">
<stop stop-color="#E382A9"/>
<stop offset="0.38" stop-color="#E180A7"/>
<stop offset="0.52" stop-color="#DA7DA2"/>
<stop offset="0.61" stop-color="#CE7699"/>
<stop offset="0.69" stop-color="#BD6C8D"/>
<stop offset="0.76" stop-color="#A75F7C"/>
<stop offset="0.82" stop-color="#8C5068"/>
<stop offset="0.87" stop-color="#6B3D50"/>
<stop offset="0.92" stop-color="#462834"/>
<stop offset="0.97" stop-color="#1D1015"/>
<stop offset="1"/>
</radialGradient>
<radialGradient id="paint54_radial_104_9101" cx="0" cy="0" r="1" gradientUnits="userSpaceOnUse" gradientTransform="translate(297.004 192.193) rotate(-68.7001) scale(3.28953 3.28952)">
<stop stop-color="#E382A9"/>
<stop offset="0.38" stop-color="#E180A7"/>
<stop offset="0.52" stop-color="#DA7DA2"/>
<stop offset="0.61" stop-color="#CE7699"/>
<stop offset="0.69" stop-color="#BD6C8D"/>
<stop offset="0.76" stop-color="#A75F7C"/>
<stop offset="0.82" stop-color="#8C5068"/>
<stop offset="0.87" stop-color="#6B3D50"/>
<stop offset="0.92" stop-color="#462834"/>
<stop offset="0.97" stop-color="#1D1015"/>
<stop offset="1"/>
</radialGradient>
<radialGradient id="paint55_radial_104_9101" cx="0" cy="0" r="1" gradientUnits="userSpaceOnUse" gradientTransform="translate(273.708 218.563) rotate(-68.6999) scale(4.96608 4.96609)">
<stop stop-color="#E382A9"/>
<stop offset="0.38" stop-color="#E180A7"/>
<stop offset="0.52" stop-color="#DA7DA2"/>
<stop offset="0.61" stop-color="#CE7699"/>
<stop offset="0.69" stop-color="#BD6C8D"/>
<stop offset="0.76" stop-color="#A75F7C"/>
<stop offset="0.82" stop-color="#8C5068"/>
<stop offset="0.87" stop-color="#6B3D50"/>
<stop offset="0.92" stop-color="#462834"/>
<stop offset="0.97" stop-color="#1D1015"/>
<stop offset="1"/>
</radialGradient>
<radialGradient id="paint56_radial_104_9101" cx="0" cy="0" r="1" gradientUnits="userSpaceOnUse" gradientTransform="translate(285.002 356.292) rotate(136.44) scale(33.3562)">
<stop stop-color="#E3821F"/>
<stop offset="0.38" stop-color="#E1801E"/>
<stop offset="0.52" stop-color="#DA7D1D"/>
<stop offset="0.61" stop-color="#CE761C"/>
<stop offset="0.69" stop-color="#BD6C19"/>
<stop offset="0.76" stop-color="#A75F16"/>
<stop offset="0.82" stop-color="#8C5013"/>
<stop offset="0.87" stop-color="#6B3D0E"/>
<stop offset="0.92" stop-color="#462809"/>
<stop offset="0.97" stop-color="#1D1003"/>
<stop offset="1"/>
</radialGradient>
<radialGradient id="paint57_radial_104_9101" cx="0" cy="0" r="1" gradientUnits="userSpaceOnUse" gradientTransform="translate(290.444 360.009) rotate(136.44) scale(17.711)">
<stop stop-color="#E3821F"/>
<stop offset="0.38" stop-color="#E1801E"/>
<stop offset="0.52" stop-color="#DA7D1D"/>
<stop offset="0.61" stop-color="#CE761C"/>
<stop offset="0.69" stop-color="#BD6C19"/>
<stop offset="0.76" stop-color="#A75F16"/>
<stop offset="0.82" stop-color="#8C5013"/>
<stop offset="0.87" stop-color="#6B3D0E"/>
<stop offset="0.92" stop-color="#462809"/>
<stop offset="0.97" stop-color="#1D1003"/>
<stop offset="1"/>
</radialGradient>
<radialGradient id="paint58_radial_104_9101" cx="0" cy="0" r="1" gradientUnits="userSpaceOnUse" gradientTransform="translate(369.01 449.775) scale(118.775 118.775)">
<stop stop-color="#E3821F"/>
<stop offset="0.07" stop-color="#CF761C"/>
<stop offset="0.32" stop-color="#864C12"/>
<stop offset="0.55" stop-color="#4C2B0A"/>
<stop offset="0.75" stop-color="#221404"/>
<stop offset="0.9" stop-color="#090501"/>
<stop offset="1"/>
</radialGradient>
<radialGradient id="paint59_radial_104_9101" cx="0" cy="0" r="1" gradientUnits="userSpaceOnUse" gradientTransform="translate(369.838 449.776) scale(40.6927)">
<stop stop-color="#E3821F"/>
<stop offset="0.07" stop-color="#CF761C"/>
<stop offset="0.32" stop-color="#864C12"/>
<stop offset="0.55" stop-color="#4C2B0A"/>
<stop offset="0.75" stop-color="#221404"/>
<stop offset="0.9" stop-color="#090501"/>
<stop offset="1"/>
</radialGradient>
<radialGradient id="paint60_radial_104_9101" cx="0" cy="0" r="1" gradientUnits="userSpaceOnUse" gradientTransform="translate(70.9101 479.266) scale(105.548)">
<stop stop-color="#E3821F"/>
<stop offset="0.07" stop-color="#CF761C"/>
<stop offset="0.32" stop-color="#864C12"/>
<stop offset="0.55" stop-color="#4C2B0A"/>
<stop offset="0.75" stop-color="#221404"/>
<stop offset="0.9" stop-color="#090501"/>
<stop offset="1"/>
</radialGradient>
<radialGradient id="paint61_radial_104_9101" cx="0" cy="0" r="1" gradientUnits="userSpaceOnUse" gradientTransform="translate(72.9037 479.27) scale(36.16)">
<stop stop-color="#E3821F"/>
<stop offset="0.07" stop-color="#CF761C"/>
<stop offset="0.32" stop-color="#864C12"/>
<stop offset="0.55" stop-color="#4C2B0A"/>
<stop offset="0.75" stop-color="#221404"/>
<stop offset="0.9" stop-color="#090501"/>
<stop offset="1"/>
</radialGradient>
<radialGradient id="paint62_radial_104_9101" cx="0" cy="0" r="1" gradientUnits="userSpaceOnUse" gradientTransform="translate(62.5351 544.223) scale(36.16)">
<stop stop-color="#E3821F"/>
<stop offset="0.07" stop-color="#CF761C"/>
<stop offset="0.32" stop-color="#864C12"/>
<stop offset="0.55" stop-color="#4C2B0A"/>
<stop offset="0.75" stop-color="#221404"/>
<stop offset="0.9" stop-color="#090501"/>
<stop offset="1"/>
</radialGradient>
<radialGradient id="paint63_radial_104_9101" cx="0" cy="0" r="1" gradientUnits="userSpaceOnUse" gradientTransform="translate(494.461 742.275) scale(185.406 81.5785)">
<stop stop-color="#E3821F"/>
<stop offset="0.07" stop-color="#CF761C"/>
<stop offset="0.32" stop-color="#864C12"/>
<stop offset="0.55" stop-color="#4C2B0A"/>
<stop offset="0.75" stop-color="#221404"/>
<stop offset="0.9" stop-color="#090501"/>
<stop offset="1"/>
</radialGradient>
<radialGradient id="paint64_radial_104_9101" cx="0" cy="0" r="1" gradientUnits="userSpaceOnUse" gradientTransform="translate(180 334) scale(110.733 889.983)">
<stop/>
<stop offset="1" stop-color="#2B2A30" stop-opacity="0"/>
</radialGradient>
<clipPath id="clip0_104_9101">
<rect width="360" height="800" fill="white"/>
</clipPath>
</defs>
</svg>
