<svg width="143" height="105" viewBox="0 0 143 105" fill="none" xmlns="http://www.w3.org/2000/svg">
<path d="M133.275 15.0387C117.457 21.7412 109.548 32.1971 109.548 46.4064C109.548 52.8408 110.62 56.9964 112.765 58.8731C115.178 60.4817 118.529 61.286 122.819 61.286C130.057 61.286 135.151 63.1627 138.1 66.9161C141.049 70.6695 142.524 75.2272 142.524 80.5892C142.524 87.5598 140.379 93.1899 136.09 97.4795C131.8 101.501 125.768 103.512 117.993 103.512C99.2258 103.512 89.8423 93.5921 89.8423 73.7526V59.2752C89.8423 43.1892 93.8638 30.4544 101.907 21.0709C109.95 11.4193 120.406 4.58275 133.275 0.561253V15.0387ZM43.5949 16.2451C27.777 23.4838 19.8681 33.9397 19.8681 47.6129C19.8681 52.4387 20.5383 55.924 21.8788 58.0688C23.2193 60.2136 24.6939 61.5541 26.3025 62.0903C28.1792 62.3584 30.8602 62.6265 34.3455 62.8946C41.048 63.1627 45.7397 65.1735 48.4207 68.9269C51.3699 72.4121 52.8444 76.7018 52.8444 81.7957C52.8444 88.7663 50.6996 94.3964 46.41 98.686C42.1204 102.708 36.0881 104.718 28.3132 104.718C9.54619 104.718 0.162679 94.7985 0.162679 74.9591V60.4817C0.162679 44.3957 4.18418 31.6609 12.2272 22.2774C20.2702 12.6258 30.7261 5.92326 43.5949 2.16986V16.2451Z" fill="white"/>
</svg>
