<svg width="24" height="24" viewBox="0 0 24 24" fill="none" xmlns="http://www.w3.org/2000/svg">
<path d="M14.9372 19.7889L14.7423 19.1155C14.6739 18.8788 14.8943 18.6572 15.129 18.7471L16.0276 19.0985C16.3884 19.2307 16.7753 19.0596 16.9012 18.7076C17.0217 18.3374 16.8481 17.934 16.5047 17.7966L14.2275 16.8776C14.1417 16.8432 14.0803 16.7624 14.054 16.6713L13.3431 14.2145C13.1851 13.6684 13.6453 13.1605 14.1795 13.3018L16.5808 13.9284C16.6666 13.9628 16.7403 14.0204 16.7841 14.1063L17.7542 16.4094C17.9173 16.7765 18.3063 16.9401 18.6633 16.7972C19.0153 16.6362 19.1655 16.2376 19.0199 15.8656L18.641 14.9496C18.5374 14.7231 18.7351 14.4884 18.9769 14.5367L19.632 14.7021C19.9998 14.793 20.3709 14.5671 20.4511 14.1889C20.5315 13.8107 20.3051 13.4224 19.9374 13.3317L19.2823 13.1663C19.0528 13.0945 18.9861 12.7984 19.1699 12.6465L19.9049 12.0394C20.1954 11.7975 20.2371 11.3515 19.9969 11.0462C19.7568 10.7409 19.3242 10.6886 19.0337 10.9305L17.1716 12.4951C17.0946 12.5568 17.007 12.5822 16.9213 12.5478L14.52 11.9212C13.9858 11.78 13.7909 11.1065 14.1671 10.7018L15.8275 8.89964C15.8817 8.8248 15.9868 8.79437 16.0674 8.81056L18.4772 9.13875C18.852 9.18809 19.1898 8.91285 19.2297 8.5265C19.2697 8.14013 18.9963 7.78531 18.6215 7.73598L17.6758 7.6152C17.4395 7.58496 17.3323 7.28067 17.4933 7.11573L17.9588 6.62604C18.2212 6.35281 18.2053 5.90383 17.9353 5.62693C17.6654 5.35007 17.2312 5.35729 16.9687 5.63052L16.5032 6.12021C16.3475 6.30341 16.0497 6.19228 15.9987 5.95058L15.8299 4.97374C15.7717 4.57628 15.4144 4.32472 15.0309 4.37653C14.6474 4.42836 14.4113 4.79249 14.4694 5.18994L14.8792 7.65521C14.8881 7.75129 14.8566 7.83924 14.8023 7.91411L13.1068 9.72633C12.7306 10.131 12.0703 9.94744 11.9123 9.40141L11.2065 6.96261C11.1801 6.87158 11.1888 6.77041 11.243 6.69557L12.7125 4.69232C12.9469 4.38783 12.873 3.93579 12.5612 3.71039C12.2616 3.46179 11.8256 3.52882 11.6139 3.8464L11.0418 4.62338C10.8914 4.82473 10.5867 4.7551 10.5182 4.51846L10.3232 3.84525C10.2126 3.46297 9.83074 3.258 9.4806 3.35932C9.11287 3.46574 8.92238 3.85617 9.02771 4.22016L9.22258 4.89353C9.29107 5.13018 9.07064 5.35179 8.83589 5.2619L7.9373 4.91052C7.57649 4.77828 7.18966 4.94939 7.06375 5.30146C6.94323 5.67163 7.11687 6.07499 7.46026 6.21242L9.73742 7.13142C9.8232 7.16576 9.88459 7.24665 9.91093 7.33767L10.622 9.79477C10.78 10.3408 10.3198 10.8488 9.78561 10.7074L7.38431 10.0808C7.29854 10.0464 7.22481 9.98881 7.18104 9.90296L6.21092 7.59983C6.04778 7.23276 5.65883 7.06917 5.30178 7.21202C4.94985 7.37303 4.79957 7.77164 4.94524 8.14363L5.32416 9.05968C5.42769 9.28618 5.22998 9.52088 4.98822 9.47252L4.35755 9.2603C3.98979 9.16942 3.61865 9.39529 3.53842 9.77348C3.45808 10.1517 3.6844 10.54 4.05213 10.6307L4.70723 10.7961C4.93671 10.8679 5.00349 11.164 4.81966 11.3159L4.08465 11.923C3.79411 12.1649 3.75245 12.6109 3.99261 12.9162C4.23278 13.2215 4.66536 13.2738 4.95586 13.0319L6.81792 11.4673C6.89494 11.4056 6.9825 11.3802 7.06827 11.4146L9.46957 12.0412C10.0037 12.1824 10.1986 12.8559 9.82246 13.2606L8.13743 15.1094C8.08325 15.1842 7.9781 15.2147 7.89758 15.1985L5.48777 14.8703C5.11295 14.821 4.77517 15.0962 4.73519 15.4825C4.69519 15.8689 4.96861 16.2237 5.34341 16.2731L6.28908 16.3938C6.52548 16.4241 6.63259 16.7284 6.47161 16.8933L6.00608 17.383C5.74369 17.6562 5.75967 18.1052 6.02959 18.3821C6.2995 18.659 6.73376 18.6518 6.99619 18.3785L7.46171 17.8888C7.61742 17.7056 7.91521 17.8168 7.96621 18.0585L8.11761 19.0404C8.17573 19.4378 8.53308 19.6894 8.91659 19.6376C9.30011 19.5857 9.5362 19.2216 9.4781 18.8242L9.06829 16.3589C9.05941 16.2628 9.09087 16.1749 9.14517 16.1L10.8407 14.2878C11.2169 13.8831 11.8772 14.0667 12.0352 14.6127L12.7463 17.0698C12.7726 17.1608 12.7639 17.262 12.7097 17.3368L11.2524 19.3167C11.018 19.6212 11.0919 20.0733 11.4037 20.2987C11.7033 20.5473 12.1393 20.4802 12.351 20.1626L12.9231 19.3857C13.0735 19.1843 13.3782 19.2539 13.4467 19.4906L13.6416 20.164C13.7522 20.5462 14.1341 20.7512 14.4842 20.6499C14.852 20.5433 15.0425 20.1529 14.9372 19.7889L14.9372 19.7889Z" fill="white"/>
</svg>
