<svg width="24" height="24" viewBox="0 0 24 24" fill="none" xmlns="http://www.w3.org/2000/svg">
<path d="M3.77028 3.2925C4.16028 2.9025 4.79028 2.9025 5.18028 3.2925L20.4903 18.6125C20.8803 19.0025 20.8803 19.6325 20.4903 20.0225C20.1003 20.4125 19.4703 20.4125 19.0803 20.0225L14.0603 15.0025L12.0603 13.0025L3.77028 4.7025C3.38028 4.3125 3.38028 3.6825 3.77028 3.2925Z" fill="white"/>
<path fill-rule="evenodd" clip-rule="evenodd" d="M6.66068 4.82805C6.61021 4.887 6.56943 4.9562 6.5415 5.0343C6.42098 5.40447 6.59462 5.80783 6.93801 5.94526L8.3428 6.51219L6.66068 4.82805ZM9.58786 7.75876L10.0998 9.52761C10.2578 10.0737 9.79753 10.5816 9.26337 10.4403L6.86207 9.81363C6.77629 9.77929 6.70257 9.72165 6.6588 9.6358L5.68868 7.33267C5.52554 6.9656 5.13659 6.80201 4.77954 6.94486C4.42761 7.10587 4.27733 7.50448 4.423 7.87647L4.80192 8.79252C4.90545 9.01902 4.70774 9.25372 4.46598 9.20536L3.83531 8.99314C3.46755 8.90226 3.09641 9.12813 3.01618 9.50632C2.93584 9.88454 3.16216 10.2728 3.52989 10.3636L4.18499 10.529C4.41447 10.6007 4.48125 10.8969 4.29742 11.0487L3.5624 11.6559C3.27186 11.8978 3.2302 12.3438 3.47037 12.649C3.71053 12.9543 4.14311 13.0066 4.43362 12.7647L6.29567 11.2002C6.37269 11.1384 6.46026 11.1131 6.54603 11.1474L8.94733 11.774C9.48149 11.9152 9.67639 12.5887 9.30022 12.9934L7.61518 14.8422C7.56101 14.9171 7.45586 14.9475 7.37534 14.9313L4.96553 14.6031C4.59071 14.5538 4.25293 14.829 4.21295 15.2154C4.17295 15.6018 4.44637 15.9566 4.82116 16.0059L5.76684 16.1267C6.00324 16.1569 6.11035 16.4612 5.94936 16.6262L5.48384 17.1158C5.22145 17.3891 5.23743 17.8381 5.50734 18.115C5.77726 18.3918 6.21152 18.3846 6.47395 18.1114L6.93947 17.6217C7.09518 17.4385 7.39296 17.5496 7.44397 17.7913L7.59537 18.7732C7.65348 19.1707 8.01084 19.4222 8.39434 19.3704C8.77787 19.3186 9.01395 18.9544 8.95586 18.557L8.54604 16.0917C8.53716 15.9956 8.56863 15.9077 8.62293 15.8328L10.3185 14.0206C10.6946 13.6159 11.355 13.7995 11.513 14.3455L12.224 16.8026C12.2504 16.8937 12.2417 16.9948 12.1875 17.0697L10.7302 19.0496C10.4957 19.3541 10.5697 19.8061 10.8814 20.0315C11.181 20.2801 11.6171 20.2131 11.8288 19.8955L12.4008 19.1185C12.5513 18.9172 12.856 18.9868 12.9245 19.2234L13.1194 19.8968C13.23 20.2791 13.6118 20.4841 13.962 20.3827C14.3298 20.2761 14.5203 19.8857 14.415 19.5217L14.415 19.5217L14.2201 18.8483C14.1516 18.6117 14.372 18.3901 14.6068 18.4799L15.5054 18.8313C15.8662 18.9636 16.253 18.7925 16.3789 18.4404C16.4995 18.0702 16.3258 17.6669 15.9824 17.5294L13.7053 16.6104C13.6195 16.5761 13.5581 16.4952 13.5317 16.4042L12.8209 13.9473C12.6629 13.4013 13.1231 12.8933 13.6573 13.0347L15.2841 13.4592L15.0603 13.2353L13.0603 11.2353L9.58786 7.75876ZM16.6969 14.872L17.232 16.1422C17.3951 16.5093 17.784 16.6729 18.1411 16.5301C18.1898 16.5078 18.2346 16.481 18.2753 16.4503L16.6969 14.872ZM19.0719 14.4254L19.1098 14.4349C19.4775 14.5258 19.8487 14.2999 19.9289 13.9218C20.0092 13.5435 19.7829 13.1553 19.4152 13.0645L18.7601 12.8991C18.5306 12.8274 18.4638 12.5312 18.6476 12.3794L19.3827 11.7722C19.6732 11.5303 19.7149 11.0843 19.4747 10.779C19.2345 10.4737 18.8019 10.4214 18.5114 10.6633L16.7725 12.1245L19.0719 14.4254ZM14.3351 9.68548L15.3053 8.63248C15.3594 8.55764 15.4646 8.52721 15.5451 8.5434L17.9549 8.87159C18.3297 8.92093 18.6675 8.64569 18.7075 8.25934C18.7475 7.87297 18.4741 7.51815 18.0993 7.46882L17.1536 7.34803C16.9172 7.31779 16.8101 7.0135 16.9711 6.84857L17.4366 6.35888C17.699 6.08564 17.683 5.63666 17.4131 5.35977C17.1432 5.08291 16.7089 5.09013 16.4465 5.36336L15.981 5.85305C15.8253 6.03625 15.5275 5.92512 15.4765 5.68342L15.3076 4.70658C15.2495 4.30911 14.8921 4.05756 14.5086 4.10937C14.1251 4.16119 13.889 4.52533 13.9471 4.92277L14.3569 7.38805C14.3658 7.48413 14.3344 7.57208 14.28 7.64695L13.3216 8.67136L14.3351 9.68548ZM10.8729 6.22104L12.1903 4.42516C12.4247 4.12067 12.3508 3.66863 12.039 3.44323C11.7394 3.19463 11.3034 3.26166 11.0917 3.57924L10.5196 4.35622C10.3691 4.55757 10.0644 4.48794 9.99594 4.2513L9.80098 3.57808C9.69036 3.19581 9.3085 2.99083 8.95836 3.09216C8.63276 3.18639 8.44611 3.50328 8.48074 3.82732L10.8729 6.22104Z" fill="white"/>
</svg>
