<svg width="597" height="634" viewBox="0 0 597 634" fill="none" xmlns="http://www.w3.org/2000/svg">
<path d="M155.753 172.571C154.483 172.571 153.595 172.127 153.087 171.238C152.579 170.35 152.326 169.398 152.326 168.383C152.453 166.225 152.96 165.019 153.849 164.765C154.737 164.511 155.816 164.384 157.085 164.384C160.513 164.384 163.115 163.686 164.892 162.29C166.669 160.894 168.065 159.053 169.08 156.768C170.223 154.484 171.302 152.136 172.317 149.724L205.636 70.9007C206.905 67.8544 207.159 65.5697 206.398 64.0465C205.636 62.3964 204.367 61.2541 202.59 60.6194C200.813 59.8578 198.845 59.2866 196.687 58.9059C194.784 58.5251 193.514 58.2078 192.88 57.9539C192.245 57.5731 191.928 56.4307 191.928 54.5268C191.928 52.369 192.689 51.2266 194.212 51.0997C195.735 50.8458 197.513 50.7189 199.543 50.7189C204.747 50.7189 209.19 51.2266 212.871 52.2421C216.552 53.2575 219.725 55.2249 222.391 58.1443C225.056 60.9367 227.531 65.1889 229.816 70.9007L261.802 149.724C262.691 151.882 263.643 154.103 264.658 156.388C265.674 158.672 267.006 160.576 268.656 162.1C270.433 163.496 272.655 164.257 275.32 164.384C276.716 164.384 277.795 164.511 278.557 164.765C279.445 165.019 279.953 166.225 280.08 168.383C280.08 169.398 279.763 170.35 279.128 171.238C278.62 172.127 277.795 172.571 276.653 172.571C272.591 172.317 269.037 172.127 265.991 172C262.945 172 259.518 172 255.71 172C248.221 172 240.351 172.19 232.101 172.571C230.831 172.571 229.943 172.127 229.435 171.238C228.928 170.35 228.674 169.398 228.674 168.383C228.801 166.225 229.308 165.019 230.197 164.765C231.085 164.511 232.164 164.384 233.434 164.384C239.653 164.384 243.017 163.242 243.524 160.957C244.159 158.672 243.588 154.928 241.811 149.724L235.337 133.921H188.31C186.406 138.744 185.01 142.235 184.121 144.393C183.36 146.551 182.852 147.947 182.598 148.582C182.471 149.216 182.344 149.597 182.218 149.724C180.821 154.039 180.06 157.276 179.933 159.434C179.933 161.465 180.948 162.798 182.979 163.432C185.137 164.067 188.691 164.384 193.641 164.384C195.037 164.384 196.116 164.511 196.878 164.765C197.766 165.019 198.274 166.225 198.401 168.383C198.401 169.398 198.084 170.35 197.449 171.238C196.941 172.127 196.116 172.571 194.974 172.571C190.912 172.317 187.358 172.127 184.312 172C181.392 172 178.029 172 174.221 172C171.682 172 169.525 172 167.748 172C166.097 172.127 164.384 172.19 162.607 172.19C160.83 172.317 158.545 172.444 155.753 172.571ZM191.928 125.734H231.91L212.681 76.8029H212.109L191.928 125.734Z" fill="white"/>
<path d="M367.79 401.155C362.656 401.155 358.08 400.041 354.061 397.813C350.081 395.544 346.957 392.48 344.689 388.62C342.421 384.72 341.287 380.303 341.287 375.369C341.287 370.434 342.421 365.997 344.689 362.058C346.957 358.118 350.081 355.014 354.061 352.746C358.08 350.438 362.656 349.284 367.79 349.284C372.923 349.284 377.46 350.438 381.399 352.746C385.339 355.014 388.423 358.118 390.651 362.058C392.92 365.997 394.054 370.434 394.054 375.369C394.054 380.303 392.92 384.72 390.651 388.62C388.423 392.48 385.339 395.544 381.399 397.813C377.46 400.041 372.923 401.155 367.79 401.155ZM367.79 390.411C370.655 390.411 373.142 389.754 375.251 388.441C377.36 387.128 378.992 385.337 380.146 383.069C381.3 380.801 381.877 378.214 381.877 375.309C381.877 372.404 381.3 369.817 380.146 367.549C378.992 365.241 377.36 363.411 375.251 362.058C373.142 360.705 370.655 360.028 367.79 360.028C364.925 360.028 362.417 360.705 360.269 362.058C358.16 363.411 356.508 365.241 355.314 367.549C354.16 369.817 353.583 372.404 353.583 375.309C353.583 378.214 354.16 380.801 355.314 383.069C356.508 385.337 358.16 387.128 360.269 388.441C362.417 389.754 364.925 390.411 367.79 390.411ZM400.017 350.716H409.449V337.107C409.449 332.212 410.364 328.233 412.194 325.168C414.025 322.064 416.353 319.796 419.178 318.364C422.043 316.891 424.988 316.155 428.012 316.155C431.713 316.155 434.539 316.672 436.489 317.707C438.478 318.702 439.692 319.398 440.13 319.796L435.116 329.347C434.877 329.108 434.28 328.69 433.325 328.093C432.37 327.457 431.077 327.138 429.445 327.138C428.251 327.138 427.097 327.417 425.983 327.974C424.909 328.531 423.993 329.625 423.237 331.257C422.481 332.888 422.103 335.276 422.103 338.42V350.716H435.534V361.461H422.103V399.723H409.449V361.461H400.017V350.716Z" fill="white"/>
<g filter="url(#filter0_f_69_21807)">
<path d="M113.743 522.181H61.037V583.556H26.5934V430.987H61.037V492.014H113.743V430.987H148.071V583.556H113.743V522.181ZM205.324 507.156C205.324 515.863 207.096 523.761 210.641 530.85C214.262 537.862 219.232 543.449 225.551 547.609C231.946 551.77 239.344 553.851 247.743 553.851C256.142 553.851 263.5 551.77 269.819 547.609C276.214 543.449 281.184 537.862 284.729 530.85C288.351 523.761 290.161 515.863 290.161 507.156C290.161 498.448 288.351 490.589 284.729 483.577C281.184 476.565 276.214 470.978 269.819 466.817C263.5 462.579 256.142 460.46 247.743 460.46C239.344 460.46 231.946 462.579 225.551 466.817C219.232 470.978 214.262 476.565 210.641 483.577C207.096 490.589 205.324 498.448 205.324 507.156ZM169.378 507.156C169.378 496.06 171.342 485.734 175.272 476.179C179.202 466.548 184.712 458.149 191.801 450.982C198.89 443.816 207.212 438.23 216.766 434.223C226.321 430.216 236.647 428.213 247.743 428.213C258.993 428.213 269.356 430.216 278.834 434.223C288.389 438.23 296.672 443.816 303.685 450.982C310.774 458.149 316.244 466.548 320.097 476.179C324.027 485.734 325.992 496.06 325.992 507.156C325.992 518.329 324.104 528.731 320.328 538.363C316.553 547.918 311.159 556.317 304.147 563.56C297.135 570.726 288.851 576.312 279.297 580.319C269.742 584.326 259.224 586.33 247.743 586.33C236.03 586.33 225.358 584.326 215.726 580.319C206.171 576.312 197.926 570.726 190.991 563.56C184.057 556.317 178.701 547.918 174.926 538.363C171.227 528.731 169.378 518.329 169.378 507.156ZM346.031 430.987H401.511C411.297 430.987 420.119 432.72 427.979 436.188C435.839 439.578 442.08 444.78 446.703 451.792C451.404 458.726 453.754 467.434 453.754 477.913C453.754 488.316 451.404 497.177 446.703 504.497C442.08 511.74 435.839 517.288 427.979 521.141C420.119 524.917 411.297 526.805 401.511 526.805H380.59V583.556H346.031V430.987ZM380.59 499.527H391.917C396.618 499.527 400.817 498.834 404.516 497.447C408.292 496.06 411.297 493.864 413.531 490.858C415.766 487.776 416.883 483.731 416.883 478.722C416.883 473.637 415.766 469.63 413.531 466.702C411.297 463.697 408.292 461.539 404.516 460.229C400.817 458.919 396.618 458.264 391.917 458.264H380.59V499.527ZM473.573 430.987H571.009V461.269H508.016V492.361H570.431V521.719H508.016V553.273H571.009V583.556H473.573V430.987Z" fill="#C9E8EA"/>
</g>
<path d="M113.743 522.181H61.037V583.556H26.5934V430.987H61.037V492.014H113.743V430.987H148.071V583.556H113.743V522.181ZM205.324 507.156C205.324 515.863 207.096 523.761 210.641 530.85C214.262 537.862 219.232 543.449 225.551 547.609C231.946 551.77 239.344 553.851 247.743 553.851C256.142 553.851 263.5 551.77 269.819 547.609C276.214 543.449 281.184 537.862 284.729 530.85C288.351 523.761 290.161 515.863 290.161 507.156C290.161 498.448 288.351 490.589 284.729 483.577C281.184 476.565 276.214 470.978 269.819 466.817C263.5 462.579 256.142 460.46 247.743 460.46C239.344 460.46 231.946 462.579 225.551 466.817C219.232 470.978 214.262 476.565 210.641 483.577C207.096 490.589 205.324 498.448 205.324 507.156ZM169.378 507.156C169.378 496.06 171.342 485.734 175.272 476.179C179.202 466.548 184.712 458.149 191.801 450.982C198.89 443.816 207.212 438.23 216.766 434.223C226.321 430.216 236.647 428.213 247.743 428.213C258.993 428.213 269.356 430.216 278.834 434.223C288.389 438.23 296.672 443.816 303.685 450.982C310.774 458.149 316.244 466.548 320.097 476.179C324.027 485.734 325.992 496.06 325.992 507.156C325.992 518.329 324.104 528.731 320.328 538.363C316.553 547.918 311.159 556.317 304.147 563.56C297.135 570.726 288.851 576.312 279.297 580.319C269.742 584.326 259.224 586.33 247.743 586.33C236.03 586.33 225.358 584.326 215.726 580.319C206.171 576.312 197.926 570.726 190.991 563.56C184.057 556.317 178.701 547.918 174.926 538.363C171.227 528.731 169.378 518.329 169.378 507.156ZM346.031 430.987H401.511C411.297 430.987 420.119 432.72 427.979 436.188C435.839 439.578 442.08 444.78 446.703 451.792C451.404 458.726 453.754 467.434 453.754 477.913C453.754 488.316 451.404 497.177 446.703 504.497C442.08 511.74 435.839 517.288 427.979 521.141C420.119 524.917 411.297 526.805 401.511 526.805H380.59V583.556H346.031V430.987ZM380.59 499.527H391.917C396.618 499.527 400.817 498.834 404.516 497.447C408.292 496.06 411.297 493.864 413.531 490.858C415.766 487.776 416.883 483.731 416.883 478.722C416.883 473.637 415.766 469.63 413.531 466.702C411.297 463.697 408.292 461.539 404.516 460.229C400.817 458.919 396.618 458.264 391.917 458.264H380.59V499.527ZM473.573 430.987H571.009V461.269H508.016V492.361H570.431V521.719H508.016V553.273H571.009V583.556H473.573V430.987Z" fill="white"/>
<path d="M127.931 259.482L132.308 258.367C132.876 258.065 133.53 258.081 134.273 258.413C135.015 258.746 135.521 259.164 135.789 259.668C136.057 260.172 136.115 261.878 135.965 264.787C135.814 267.696 135.579 271.053 135.259 274.86C134.969 278.57 134.828 280.585 134.836 280.904C139.55 277.913 142.914 275.881 144.931 274.809C147.01 273.704 148.511 273.108 149.435 273.021C150.325 272.871 151.594 273.206 153.243 274.027C154.921 274.751 156.354 275.242 157.541 275.499C158.695 275.694 159.624 276.452 160.327 277.776C161.031 279.099 160.815 280.668 159.679 282.484C158.573 284.204 157.157 285.644 155.43 286.805C141.583 296.026 133.921 301.07 132.442 301.937C131.493 312.463 130.824 328.457 130.436 349.918C130.077 371.283 130.72 384.195 132.364 388.655C133.117 390.679 133.812 392.29 134.448 393.487C135.755 395.944 137.7 396.486 140.283 395.113C142.866 393.739 145.214 391.238 147.325 387.61C149.403 383.919 151.146 380.204 152.553 376.466C156.259 366.413 158.364 361.253 158.869 360.985C160.507 360.114 162.833 362.514 165.848 368.184C167.49 371.272 167.546 374.798 166.017 378.762C162.568 387.627 159.407 394.602 156.534 399.685C153.661 404.769 150.05 408.467 145.703 410.778C144.758 411.281 143.826 411.655 142.906 411.902C137.363 413.637 132.674 413.786 128.84 412.35C125.034 410.817 121.892 407.72 119.413 403.057C116.997 398.361 115.385 391.985 114.577 383.929C113.798 375.777 113.494 366.846 113.666 357.138C113.972 341.297 114.679 326.212 115.789 311.883L112.449 314.265C105.576 318.97 101.54 321.641 100.343 322.277L99.4928 322.729C97.6656 323.701 95.7172 324.292 93.6476 324.504C91.5444 324.652 90.2081 324.191 89.6386 323.12C89.0691 322.049 88.9574 320.775 89.3035 319.298C89.7125 317.787 89.8608 316.698 89.7483 316.031C89.4524 314.41 90.2697 311.995 92.2004 308.787C94.1942 305.544 95.8988 303.507 97.3144 302.673C98.6966 301.777 100.032 300.945 101.322 300.179C102.675 299.379 104.153 298.512 105.758 297.578C107.426 296.61 108.684 295.86 109.532 295.328L117.837 290.428C118.908 279.675 119.818 272.645 120.565 269.339C121.375 265.998 121.887 264.15 122.102 263.794C122.283 263.374 122.846 262.913 123.791 262.411L127.931 259.482ZM237.559 321.569C239.541 324.233 240.984 326.416 241.889 328.117C242.76 329.755 243.215 331.371 243.255 332.967C243.324 334.465 242.923 336.901 242.049 340.275C241.206 343.552 239.969 347.079 238.34 350.854C234.324 360.021 228.693 366.53 221.448 370.383C211.052 375.91 203.409 374.075 198.517 364.876C194.263 356.874 192.749 337.232 193.977 305.95C194.012 304.8 194.023 303.985 194.011 303.507C190.969 309.489 186.617 323.723 180.956 346.211C175.324 368.601 171.914 384.153 170.728 392.866C170.652 393.634 170.042 394.766 168.898 396.263C167.754 397.76 166.741 398.743 165.859 399.212C165.04 399.648 164.007 399.833 162.761 399.769C161.485 399.801 160.721 399.884 160.469 400.018C159.65 400.453 159.089 400.387 158.788 399.82C158.52 399.316 158.13 395.847 157.617 389.411C157.009 382.946 156.454 374.836 155.954 365.08C154.515 338.206 154.508 302.246 155.934 257.2C156.432 241.418 157.294 229.968 158.521 222.851C159.383 217.786 163.091 213.511 169.644 210.027C171.03 209.29 172.035 209.281 172.659 209.999C173.284 210.718 173.847 211.55 174.35 212.495C174.852 213.44 175.166 214.485 175.29 215.631L173.57 236.791C170.151 278.695 168.83 312.613 169.607 338.546C173.071 321.349 177.708 307.044 183.519 295.63C187.075 288.486 190.271 284.16 193.106 282.653C196.004 281.112 198.87 280.194 201.704 279.899C204.504 279.542 206.825 281.096 208.668 284.561C209.338 285.821 209.769 291.572 209.962 301.815C210.54 332.541 211.549 349.259 212.99 351.968C214.397 354.614 216.203 355.351 218.408 354.179C221.622 352.47 224.909 346.722 228.271 336.933C230.799 329.528 232.373 324.812 232.992 322.785C233.447 321.816 233.989 321.164 234.619 320.829C235.816 320.192 236.796 320.439 237.559 321.569ZM248.906 285.229C254.798 260.438 262.973 245.261 273.431 239.7C276.015 238.327 278.544 237.992 281.02 238.696C283.525 239.304 285.431 240.836 286.737 243.293C288.044 245.751 288.474 250.815 288.028 258.488C287.611 266.064 286.977 272.624 286.126 278.168C285.623 281.021 284.364 282.984 282.347 284.056C280.394 285.095 278.465 285.191 276.561 284.345C274.719 283.465 273.279 282.049 272.241 280.096C269.929 275.748 269.647 269.594 271.395 261.634L271.106 261.545C269.127 262.84 266.138 269.682 262.139 282.073C258.203 294.429 255.028 305.33 252.615 314.776C250.232 324.125 248.082 335.128 246.164 347.785C245.651 351.533 244.702 353.775 243.316 354.512C241.993 355.216 240.011 355.744 237.37 356.098C234.633 356.422 232.943 356.512 232.301 356.368C231.596 356.258 231.009 355.762 230.54 354.88C230.071 353.998 229.787 352.856 229.688 351.454C229.556 349.989 229.613 347.817 229.86 344.938C230.044 342.092 230.218 337.555 230.381 331.326C230.607 325.063 231.039 315.54 231.677 302.755C232.314 289.97 232.664 282.268 232.726 279.649C232.909 274.218 233.254 270.155 233.761 267.461C234.687 262.362 238.521 258.02 245.262 254.436C246.774 253.632 248.033 254.175 249.038 256.065C250.612 259.026 250.836 266.059 249.71 277.165L248.906 285.229ZM319.406 180.706C321.315 184.297 321.572 188.808 320.176 194.237C318.746 199.604 316.204 203.259 312.55 205.202C308.958 207.112 306.158 206.176 304.148 202.396C302.138 198.616 301.803 194.187 303.144 189.11C304.515 183.936 307.122 180.327 310.966 178.284C312.667 177.379 314.273 177.131 315.783 177.541C317.294 177.95 318.501 179.005 319.406 180.706ZM347.964 271.352C348.969 273.242 349.501 274.697 349.558 275.717C349.821 283.659 347.62 291.375 342.955 298.866C338.257 306.294 333.42 311.331 328.442 313.978C323.465 316.624 318.293 317.233 312.926 315.803C307.559 314.373 303.955 311.926 302.112 308.46C300.269 304.995 299.322 299.033 299.27 290.575C299.218 282.117 299.433 274.163 299.917 266.713C300.401 259.263 300.525 255.318 300.291 254.877C300.023 254.373 298.859 253.779 296.799 253.097C294.802 252.381 293.636 251.708 293.301 251.078C292.932 250.385 293.302 247.965 294.412 243.819C295.55 239.577 297.258 235.113 299.535 230.427C301.841 225.645 303.971 222.735 305.924 221.696C307.94 220.624 310.205 220.552 312.718 221.478C315.231 222.405 316.873 223.593 317.643 225.042C318.414 226.491 318.169 244.118 316.909 277.923C316.921 278.402 316.838 279.537 316.659 281.329C316.51 283.025 316.418 284.448 316.383 285.598C316.378 286.651 316.378 287.944 316.384 289.476C316.464 292.666 316.957 295.112 317.861 296.813C319 298.955 321.019 299.256 323.917 297.715C326.815 296.174 329.289 293.606 331.337 290.011C333.416 286.32 334.952 282.675 335.948 279.074C338.486 269.562 340.165 264.588 340.985 264.152C342.623 263.281 344.949 265.681 347.964 271.352ZM355.292 112.77C358.316 111.162 361.448 110.669 364.688 111.29C367.957 111.815 370.53 113.841 372.406 117.37C374.282 120.898 375.277 127.481 375.391 137.118C375.471 146.693 374.864 156.875 373.57 167.666C372.243 178.393 370.459 190.009 368.218 202.515C364.692 222.331 360.854 240.495 356.703 257.007C357.042 257.797 357.512 259.365 358.113 261.712C358.744 263.963 359.613 266.128 360.718 268.207C361.824 270.286 363.774 271.674 366.568 272.37C369.393 272.969 372.222 272.516 375.058 271.008C377.893 269.501 380.381 266.884 382.522 263.16C384.726 259.402 386.372 255.657 387.46 251.927C390.31 242.088 392.491 236.766 394.003 235.962C395.515 235.158 397.494 237.055 399.94 241.655L400.945 243.545C402.251 246.002 402.765 248.032 402.486 249.635C400.644 258.939 397.27 266.956 392.363 273.687C387.422 280.355 381.991 285.263 376.068 288.412C370.146 291.561 364.686 292.161 359.689 290.211C354.659 288.198 350.469 284.042 347.119 277.741C340.586 265.455 336.191 249.285 333.933 229.231C331.704 209.08 331.618 190.982 333.674 174.938C338.257 138.719 345.463 117.997 355.292 112.77ZM359.381 130.72C358.878 129.775 358.312 129.47 357.682 129.805C355.477 130.977 353.031 140.36 350.343 157.953C347.655 175.545 346.194 189.212 345.959 198.955C345.787 208.663 346.858 220.176 349.171 233.494C351.915 220.72 354.882 201.524 358.071 175.907C361.289 150.193 361.726 135.13 359.381 130.72ZM405.192 86.2382C408.216 84.6302 411.348 84.1367 414.588 84.7579C417.857 85.2825 420.43 87.309 422.306 90.8372C424.182 94.3655 425.177 100.948 425.291 110.586C425.371 120.161 424.764 130.343 423.47 141.133C422.143 151.86 420.359 163.477 418.118 175.983C414.592 195.799 410.754 213.963 406.603 230.475C406.942 231.264 407.412 232.833 408.013 235.18C408.644 237.431 409.513 239.595 410.618 241.675C411.724 243.754 413.674 245.141 416.468 245.838C419.293 246.437 422.122 245.983 424.957 244.476C427.793 242.968 430.281 240.352 432.422 236.627C434.626 232.869 436.272 229.125 437.36 225.395C440.21 215.555 442.391 210.234 443.903 209.43C445.415 208.626 447.394 210.523 449.84 215.123L450.845 217.013C452.151 219.47 452.665 221.5 452.386 223.103C450.544 232.407 447.17 240.424 442.263 247.155C437.322 253.822 431.891 258.731 425.968 261.88C420.046 265.029 414.586 265.629 409.589 263.679C404.559 261.666 400.369 257.509 397.019 251.209C390.486 238.923 386.091 222.753 383.833 202.698C381.604 182.548 381.518 164.45 383.574 148.405C388.157 112.187 395.363 91.4643 405.192 86.2382ZM409.281 104.188C408.778 103.243 408.212 102.938 407.582 103.273C405.377 104.445 402.931 113.828 400.243 131.42C397.555 149.013 396.094 162.68 395.859 172.422C395.687 182.131 396.758 193.644 399.071 206.961C401.815 194.188 404.782 174.992 407.971 149.374C411.189 123.66 411.626 108.598 409.281 104.188Z" fill="white"/>
<g clip-path="url(#clip0_69_21807)">
<path d="M509.423 347.421C509.423 347.421 514.853 349.765 518.954 353.183C521.988 355.715 527.276 360.94 527.276 360.94C527.276 360.94 527.185 357.798 531.81 357.529C538.665 357.137 546.939 359.233 546.939 359.233C546.939 359.233 544.164 355.998 547.257 353.168C551.422 349.355 557.352 348.92 557.352 348.92C557.352 348.92 554.204 346.7 556.337 343.442C559.329 338.864 563.565 338.108 563.565 338.108C563.565 338.108 562.569 337.431 563.524 333.794C564.799 328.915 567.611 324.064 567.611 324.064C567.611 324.064 555.735 336.772 544.139 341.428C518.292 350.993 509.423 347.421 509.423 347.421Z" fill="#2D9693"/>
<path d="M509.368 347.713L509.483 347.126C509.535 347.152 515.004 349.527 519.094 352.944C521.633 355.068 525.793 359.12 527.067 360.357C527.258 359.376 528.104 357.433 531.761 357.222C537.46 356.893 544.213 358.296 546.295 358.779C545.96 358.207 545.549 357.313 545.524 356.261C545.488 355.009 546.001 353.879 547.063 352.911C550.444 349.811 555.026 348.912 556.671 348.688C556.467 348.472 555.628 347.346 555.425 346.542C555.163 345.443 555.391 344.326 556.112 343.224C558.624 339.379 561.957 338.193 563.09 337.885C562.819 337.307 562.625 336.096 563.261 333.659C564.532 328.807 567.582 324.117 567.614 324.068C567.582 324.117 565.043 329.151 563.783 333.931C562.94 337.158 563.681 337.848 563.687 337.861L564.349 338.308L563.658 338.417C563.61 338.427 554.68 341.228 556.138 346.849C556.492 348.218 557.457 348.658 557.469 348.674L558.189 349.186L557.413 349.242C557.353 349.246 547.898 349.423 546.563 356.303C546.212 358.087 547.104 359.041 547.112 359.048L547.717 359.757L546.921 359.552C546.841 359.533 536.665 356.563 530.489 358.848C527.869 359.813 527.552 360.966 527.554 360.996L527.572 361.616L527.114 361.173C527.071 361.118 521.803 355.932 518.816 353.438C514.801 350.077 509.42 347.739 509.366 347.72L509.368 347.713Z" fill="#5AC0BD"/>
<path d="M509.422 347.421C509.422 347.421 512.323 344.655 513.909 340.877C514.746 338.85 515.13 334.261 515.13 334.261C515.13 334.261 516.488 337.331 521.094 335.099C524.643 333.382 525.627 328.389 525.627 328.389C525.627 328.389 526.795 331.527 531.919 330.595C537.05 329.671 540.054 325.737 540.054 325.737C540.054 325.737 541.036 328.323 545.262 328.106C551.354 327.8 555.36 324.468 555.36 324.468C555.36 324.468 556.19 325.935 558.71 326.122C564.666 326.553 567.619 324.061 567.619 324.061C567.619 324.061 555.402 337.662 540.689 342.757C528.735 349.019 509.431 347.418 509.431 347.418L509.422 347.421Z" fill="#63C0BE"/>
<path d="M509.231 347.169C509.254 347.139 512.116 344.389 513.655 340.697C514.469 338.742 514.853 334.227 514.851 334.186L514.936 333.186C514.936 333.186 517.64 336.201 520.944 334.809C524.436 333.344 525.345 328.331 525.351 328.282L525.524 327.396C525.524 327.396 525.95 328.552 528.727 329.873C533.562 332.157 539.796 325.549 539.831 325.508L540.113 325.148C540.113 325.148 540.312 326.331 543.279 327.272C547.612 328.644 555.133 324.242 555.171 324.21L555.4 324.022L555.577 324.338C555.611 324.396 556.368 325.65 558.675 325.821C564.475 326.238 567.579 324.099 567.615 324.073C567.489 324.183 564.717 326.885 558.736 326.444C556.739 326.295 555.728 325.38 555.333 324.901C554.44 325.565 550.647 328.156 545.317 328.426C541.953 328.593 540.536 327.048 540.035 326.264C539.224 327.201 536.398 330.123 532.006 330.918C528.135 331.616 526.415 330.077 525.741 329.137C525.351 330.553 524.125 333.996 521.228 335.407C519.294 336.337 517.667 336.491 516.385 335.849C515.914 335.613 515.57 335.309 515.338 335.037C515.193 336.404 514.821 339.468 514.154 341.051C512.576 344.837 509.737 347.567 509.615 347.685L509.23 347.18L509.231 347.169Z" fill="#94E4E3"/>
<path opacity="0.2" d="M509.56 347.427C509.56 347.427 514.135 346.312 517.932 344.82C522.461 343.029 524.79 337.839 524.79 337.839C524.79 337.839 525.446 342.484 527.257 341.922C531.071 340.759 534.701 333.76 534.701 333.76C534.701 333.76 533.951 340.486 537.025 339.365C539 338.647 544.049 331.818 544.049 331.818C544.049 331.818 544.848 337.188 546.166 336.549C549.917 334.733 553.121 330.301 553.121 330.301C553.121 330.301 553.611 333.454 554.127 333.599C555.687 334.022 559.666 331.453 559.666 331.453C559.666 331.453 548.907 340.379 537.029 344.592C526.461 348.688 509.547 347.421 509.547 347.421L509.56 347.427Z" fill="white"/>
<path opacity="0.2" d="M509.819 347.511C509.819 347.511 517.945 349.15 522.154 351.149C526.369 353.14 528.05 355.334 528.05 355.334C528.05 355.334 526.715 351.97 529.131 351.577C531.545 351.181 540.767 353.865 540.767 353.865C540.767 353.865 537.205 349.592 539.669 348.401C542.142 347.207 550.287 348.175 550.287 348.175C550.287 348.175 547.558 346.119 547.869 344.787C548.177 343.451 557.211 338.345 557.211 338.345C557.211 338.345 555.823 337.747 555.996 337.011C556.158 336.286 560.338 331.107 560.338 331.107C560.338 331.107 547.75 341.278 536.075 344.852C522.263 349.107 509.828 347.507 509.828 347.507L509.819 347.511Z" fill="white"/>
<path d="M509.342 347.06C509.342 347.06 510.453 347.176 512.401 347.371C513.361 347.436 514.514 347.488 515.844 347.545C517.151 347.518 518.651 347.571 520.233 347.446C521.83 347.382 523.529 347.188 525.301 346.958C526.186 346.815 527.097 346.697 528.004 346.509C528.907 346.322 529.847 346.162 530.771 345.925C532.64 345.478 534.53 344.956 536.404 344.331C537.343 344.005 538.295 343.7 539.212 343.32L540.607 342.78L541.981 342.19C543.814 341.406 545.586 340.523 547.311 339.628C549.022 338.697 550.678 337.748 552.238 336.755C553.806 335.78 555.268 334.75 556.641 333.767C558.006 332.767 559.271 331.787 560.411 330.843C564.988 327.099 567.612 324.063 567.612 324.063C567.612 324.063 565.028 327.134 560.488 330.941C559.357 331.907 558.1 332.894 556.75 333.919C555.387 334.924 553.936 335.97 552.376 336.962C550.829 337.976 549.18 338.954 547.478 339.906C545.762 340.824 543.995 341.731 542.176 342.535L540.804 343.144L539.41 343.7C538.497 344.088 537.55 344.407 536.617 344.746C534.739 345.399 532.85 345.947 530.99 346.415C530.061 346.654 529.12 346.836 528.218 347.038C527.309 347.222 526.392 347.352 525.509 347.51C523.729 347.759 522.033 347.973 520.428 348.055C518.843 348.198 517.333 348.158 516.019 348.193C514.681 348.155 513.511 348.11 512.545 348.058C510.605 347.881 509.499 347.778 509.499 347.778L509.335 347.057L509.342 347.06Z" fill="white"/>
<path d="M513.011 353.676C513.011 353.676 515.029 347.608 518.331 342.876C520.776 339.369 525.906 333.186 525.906 333.186C525.906 333.186 522.53 333.576 521.812 328.619C520.747 321.279 522.239 312.171 522.239 312.171C522.239 312.171 519.017 315.465 515.677 312.395C511.179 308.265 510.157 301.919 510.157 301.919C510.157 301.919 508.06 305.515 504.351 303.522C499.147 300.721 497.934 296.233 497.934 296.233C497.934 296.233 497.3 297.372 493.296 296.683C487.925 295.761 482.436 293.187 482.436 293.187C482.436 293.187 497.229 304.787 503.327 316.845C516.035 343.794 513.009 353.671 513.009 353.671L513.011 353.676Z" fill="#2D9693"/>
<path d="M513.336 353.711L512.692 353.646C512.707 353.582 514.762 347.478 518.057 342.754C520.111 339.819 524.08 334.957 525.295 333.479C524.22 333.364 522.046 332.634 521.482 328.713C520.598 322.6 521.476 315.204 521.799 312.912C521.223 313.327 520.294 313.851 519.171 313.984C517.824 314.136 516.558 313.685 515.419 312.636C511.765 309.282 510.369 304.429 509.973 302.679C509.762 302.922 508.622 303.928 507.773 304.221C506.617 304.611 505.385 304.467 504.138 303.796C499.765 301.45 498.179 297.967 497.744 296.777C497.143 297.119 495.86 297.452 493.182 296.984C487.828 296.065 482.5 293.217 482.437 293.191C482.5 293.217 488.153 295.485 493.418 296.388C496.976 297.002 497.65 296.136 497.657 296.128L498.076 295.374L498.264 296.116C498.272 296.159 502.121 305.517 508.039 303.422C509.487 302.911 509.872 301.834 509.88 301.815L510.36 300.994L510.496 301.825C510.506 301.888 511.573 312.054 519.106 312.849C521.066 313.06 522.001 312.009 522.008 312.001L522.723 311.285L522.574 312.166C522.564 312.254 520.316 323.485 523.347 329.923C524.628 332.656 525.898 332.893 525.933 332.889L526.6 332.81L526.165 333.337C526.111 333.396 521.021 339.547 518.608 342.993C515.368 347.638 513.35 353.644 513.341 353.709L513.336 353.711Z" fill="#5AC0BD"/>
<path d="M513.01 353.675C513.01 353.675 509.758 350.803 505.541 349.461C503.285 348.745 498.311 348.759 498.311 348.759C498.311 348.759 501.494 347.012 498.662 342.26C496.479 338.598 491.017 338.01 491.017 338.01C491.017 338.01 494.285 336.456 492.802 331.026C491.337 325.579 486.806 322.713 486.806 322.713C486.806 322.713 489.499 321.422 488.878 316.887C487.981 310.354 484.023 306.353 484.023 306.353C484.023 306.353 485.524 305.317 485.49 302.587C485.397 296.132 482.436 293.186 482.436 293.186C482.436 293.186 498.223 305.07 505.079 320.44C512.937 332.73 513.009 353.67 513.009 353.67L513.01 353.675Z" fill="#63C0BE"/>
<path d="M512.757 353.904C512.721 353.878 509.495 351.058 505.379 349.747C503.192 349.048 498.3 349.059 498.254 349.063L497.171 349.065C497.171 349.065 500.165 345.871 498.357 342.438C496.45 338.818 490.97 338.31 490.921 338.304L489.954 338.201C489.954 338.201 491.159 337.64 492.319 334.525C494.33 329.103 486.63 323.003 486.581 322.972L486.17 322.706C486.17 322.706 487.425 322.379 488.158 319.098C489.228 314.31 483.793 306.625 483.753 306.579L483.529 306.35L483.85 306.124C483.913 306.088 485.19 305.15 485.156 302.648C485.069 296.356 482.476 293.222 482.442 293.189V293.189C482.573 293.317 485.74 296.058 485.833 302.529C485.855 304.688 484.956 305.864 484.482 306.335C485.281 307.238 488.421 311.08 489.213 316.795C489.707 320.398 488.175 322.074 487.375 322.685C488.462 323.47 491.873 326.235 493.138 330.898C494.247 334.999 492.755 336.996 491.807 337.813C493.368 338.101 497.186 339.094 498.973 342.085C500.154 344.075 500.475 345.815 499.905 347.259C499.693 347.788 499.398 348.19 499.127 348.463C500.616 348.49 503.947 348.606 505.708 349.175C509.931 350.519 513.139 353.321 513.267 353.444L512.762 353.903L512.757 353.904Z" fill="#94E4E3"/>
<path opacity="0.2" d="M513.006 353.527C513.006 353.527 511.379 348.702 509.409 344.755C507.063 340.035 501.255 338.019 501.255 338.019C501.255 338.019 506.206 336.884 505.43 334.984C503.815 330.979 495.944 327.725 495.944 327.725C495.944 327.725 503.253 327.902 501.761 324.697C500.808 322.643 492.975 317.838 492.975 317.838C492.975 317.838 498.686 316.472 497.874 315.111C495.573 311.239 490.499 308.203 490.499 308.203C490.499 308.203 493.846 307.379 493.949 306.812C494.267 305.099 491.128 301.044 491.128 301.044C491.128 301.044 501.741 311.795 507.391 324.199C512.784 335.195 513.002 353.529 513.002 353.529L513.006 353.527Z" fill="white"/>
<path opacity="0.2" d="M513.074 353.239C513.074 353.239 514.081 344.337 515.84 339.61C517.594 334.896 519.795 332.881 519.795 332.881C519.795 332.881 516.295 334.64 515.651 332.069C515.001 329.506 517.034 319.323 517.034 319.323C517.034 319.323 512.764 323.558 511.252 321.02C509.735 318.468 510.023 309.609 510.023 309.609C510.023 309.609 508.055 312.726 506.596 312.52C505.127 312.318 498.788 303.062 498.788 303.062C498.788 303.062 498.269 304.615 497.474 304.498C496.671 304.389 490.708 300.367 490.708 300.367C490.708 300.367 502.83 312.983 507.769 325.214C513.642 339.689 513.077 353.233 513.077 353.233L513.074 353.239Z" fill="white"/>
<path d="M512.631 353.801C512.631 353.801 512.653 352.588 512.678 350.477C512.662 349.436 512.605 348.194 512.538 346.754C512.396 345.345 512.314 343.729 512.029 342.037C511.812 340.322 511.447 338.512 511.033 336.619C510.798 335.689 510.585 334.709 510.301 333.747C510.011 332.794 509.752 331.791 509.417 330.819C508.765 328.853 508.026 326.866 507.172 324.901C506.732 323.926 506.315 322.932 505.832 321.975L505.112 320.525L504.353 319.101C503.343 317.2 502.219 315.373 501.089 313.594C499.933 311.852 498.755 310.145 497.538 308.558C496.35 306.965 495.106 305.487 493.916 304.102C492.704 302.726 491.538 301.45 490.416 300.306C485.952 295.731 482.44 293.185 482.44 293.185C482.44 293.185 485.989 295.684 490.515 300.218C491.66 301.342 492.835 302.604 494.068 303.967C495.274 305.34 496.538 306.804 497.753 308.387C498.99 309.96 500.189 311.643 501.377 313.387C502.525 315.147 503.672 316.966 504.701 318.853L505.485 320.272L506.213 321.719C506.715 322.668 507.146 323.662 507.593 324.628C508.471 326.589 509.242 328.578 509.915 330.53C510.262 331.507 510.539 332.503 510.842 333.461C511.132 334.425 511.352 335.397 511.597 336.328C512.035 338.227 512.428 340.03 512.659 341.755C512.966 343.449 513.064 345.079 513.227 346.489C513.307 347.935 513.369 349.201 513.406 350.244C513.39 352.351 513.39 353.554 513.39 353.554L512.629 353.796L512.631 353.801Z" fill="white"/>
<path d="M524.946 346.048C519.402 348.232 513.139 345.506 510.955 339.962C508.773 334.423 511.489 328.159 517.037 325.973C522.583 323.794 528.843 326.515 531.027 332.059C533.214 337.597 530.485 343.866 524.946 346.048Z" fill="#C63836"/>
<path d="M515.78 343.06C511.559 339.94 510.67 333.99 513.793 329.768C516.913 325.547 522.864 324.662 527.087 327.786C531.304 330.907 532.193 336.857 529.067 341.075C525.95 345.301 519.994 346.187 515.775 343.062L515.78 343.06Z" fill="#ED5451"/>
<path d="M527.453 330.425C527.099 330.899 526.201 330.834 525.452 330.278C524.697 329.719 524.385 328.878 524.742 328.398C525.097 327.914 525.997 327.983 526.745 328.54C527.494 329.096 527.818 329.942 527.451 330.421L527.453 330.425Z" fill="white"/>
<path d="M516.43 342.052C517.163 348.979 512.136 355.182 505.213 355.914C498.288 356.641 492.083 351.619 491.349 344.692C490.624 337.772 495.648 331.56 502.566 330.83C509.491 330.103 515.705 335.121 516.43 342.052Z" fill="#C63836"/>
<path d="M510.206 351.447C505.371 355.232 498.388 354.375 494.608 349.538C490.825 344.707 491.682 337.724 496.513 333.941C501.346 330.163 508.336 331.012 512.111 335.851C515.894 340.682 515.042 347.663 510.209 351.441L510.206 351.447Z" fill="#ED5451"/>
<path d="M499.61 334.342C500.043 334.899 499.688 335.886 498.821 336.561C497.961 337.228 496.908 337.327 496.479 336.768C496.056 336.222 496.407 335.226 497.269 334.553C498.134 333.884 499.179 333.789 499.61 334.342Z" fill="white"/>
<path d="M504.15 355.816C506.008 348.584 513.374 344.22 520.613 346.086C527.847 347.938 532.209 355.31 530.35 362.541C528.493 369.777 521.124 374.133 513.884 372.278C506.65 370.425 502.287 363.049 504.15 355.816Z" fill="#C63836"/>
<path d="M513.921 348.704C520.194 346.716 526.894 350.185 528.882 356.458C530.874 362.729 527.401 369.431 521.134 371.421C514.86 373.409 508.157 369.942 506.169 363.669C504.176 357.397 507.651 350.7 513.918 348.71L513.921 348.704Z" fill="#ED5451"/>
<path d="M518.173 369.854C517.945 369.139 518.673 368.278 519.792 367.924C520.908 367.576 522 367.872 522.227 368.582C522.446 369.3 521.721 370.155 520.606 370.507C519.482 370.863 518.397 370.571 518.173 369.854Z" fill="white"/>
</g>
<defs>
<filter id="filter0_f_69_21807" x="0.864807" y="402.484" width="595.873" height="209.575" filterUnits="userSpaceOnUse" color-interpolation-filters="sRGB">
<feFlood flood-opacity="0" result="BackgroundImageFix"/>
<feBlend mode="normal" in="SourceGraphic" in2="BackgroundImageFix" result="shape"/>
<feGaussianBlur stdDeviation="12.8645" result="effect1_foregroundBlur_69_21807"/>
</filter>
<clipPath id="clip0_69_21807">
<rect width="87.8086" height="78.8791" fill="white" transform="translate(544.265 267.618) rotate(67.5291)"/>
</clipPath>
</defs>
</svg>
