<svg width="208" height="228" fill="none" xmlns="http://www.w3.org/2000/svg"><path d="m78.813 157.257-35.94 68.519a4.032 4.032 0 0 1-3.564 2.15c-.38 0-.77-.052-1.107-.158a3.976 3.976 0 0 1-1.824-1.117c-.96-1.044-1.37-2.573-.844-4.07l21.34-60.716.231-.654 3.174-9.046 18.534 5.092zM156.368 226.24a3.928 3.928 0 0 1-2.436 1.602 4.033 4.033 0 0 1-4.386-2.066l-35.941-68.519 18.535-5.092 1.887 5.387 1.244 3.532 21.613 61.497a3.988 3.988 0 0 1-.516 3.659z" fill="#F4C95E"/><path d="m60.278 152.165 18.545 5.092-35.951 68.519a4.028 4.028 0 0 1-3.553 2.15c-.39 0-.77-.052-1.118-.158 5.367-16.194 28.36-59.62 28.36-60.716 0-.749-5.208-3.205-9.688-5.187l3.405-9.7z" fill="#2B2A30" style="mix-blend-mode:multiply" opacity=".3"/><path d="m56.873 161.865.232-.654-20.727 65.44c-.96-1.044-1.37-2.573-.844-4.07l21.34-60.716z" fill="#fff"/><path d="M153.931 227.842a4.028 4.028 0 0 1-4.375-2.066l-35.941-68.519 18.535-5.092 3.131 8.919c-3.279 1.856-6.958 3.374-7.696 4.386-.907 1.244 18.945 45.577 26.346 62.372z" fill="#2B2A30" style="mix-blend-mode:multiply" opacity=".3"/><path d="m156.366 226.239-22.341-68.687 1.244 3.532 21.613 61.496a3.984 3.984 0 0 1-.516 3.659z" fill="#fff"/><path d="M176.471 101.559c0 2.245-.148 4.47-.443 6.663-.949 7.106-3.416 13.864-7.127 20.073-12.809 21.424-40.537 36.258-72.693 36.258s-60.801-15.33-73.316-37.333a53.347 53.347 0 0 1-4.28-9.552 50.063 50.063 0 0 1-2.657-16.109h160.516z" fill="#ED5451"/><path d="M176.471 101.559c0 2.245-.148 4.47-.443 6.663-4.839 2.614-12.472 4.586-12.472 4.586s-8.782 8.434-15.108 8.076c-6.326-.348-23.722-3.332-26.716-2.984-2.984.348-18.091 2.984-26.357 2.636-8.255-.348-11.07-2.457-12.82-2.457s-4.924 8.076-8.614 8.076c-3.69 0-14.76-1.75-15.814-4.386-1.055-2.635-1.055-5.977-1.055-5.977s-8.086 3.342-13.526 3.162c-5.45-.179-13.01-4.038-14.412-4.396-.865-.211-6.326 1.655-10.522 3.11a50.063 50.063 0 0 1-2.657-16.109h160.516zM168.901 128.295c-12.809 21.423-40.537 36.257-72.693 36.257s-60.801-15.329-73.315-37.332c8.581 6.252 32.503 21.433 63.173 22.129 30.606.696 66.378-6.747 82.835-21.054z" fill="#2B2A30" style="mix-blend-mode:multiply" opacity=".3"/><path d="M191.169 86.103c-.506 1.95-1.592 4.618-3.11 5.62 0 0-.886 1.929-4.218 4.132 0 0-1.149 4.829-6.062 7.813 0 0-6.157 4.217-12.04 4.923-5.883.707-9.309.612-9.309.612s.084 1.233-.622 2.203c-.696.96-13.79 2.277-15.72 2.014-1.94-.264-6.947-5.356-6.947-5.356s-10.28 1.402-11.334 1.402c-1.054 0-7.285 5.103-9.309 6.062-2.025.97-4.218-5.798-4.218-5.798l-4.923 1.054s0 3.342-.791 3.69c-.791.359-5.967.791-6.59.707-.61-.085-1.928-3.079-1.928-3.079l-6.674 1.676s-3.785 3.068-5.103 3.163c-1.318.085-3.51-13.8-3.51-14.148-.222.453-3.438 12.588-3.775 13.094-.359.527-7.644.084-8.266-.095-.611-.169.443-5.704.443-5.704l-7.116-2.551s-1.055 2.551-1.666 2.636c-.622.084-3.427.084-3.427.084s-1.845 2.288-2.815 2.551c-.97.264-5.187 1.055-8.086.612-2.9-.432-3.954-1.054-3.954-1.054s-4.038.706-7.021.527c-2.994-.169-8.962-3.859-8.962-3.859l3.775-6.421-6.41 5.188s-6.326 1.138-11.429-1.139c-5.092-2.288-7.464-5.799-7.464-5.799S.922 94.706.922 94.274c0-.432 2.456-3.606 2.456-3.606l-1.581-.97s1.76-6.146 7.907-9.573c0 0 3.342-6.062 4.302-7.728.97-1.676 8.35.875 8.35.875s.369-.548.917-1.317c1.128-1.56 3.005-4.007 4.006-4.481 1.487-.707 5.272 1.233 5.272 1.233s2.108-2.203 4.744-3.257c2.636-1.055 6.674.706 6.674.706s3.774-2.984 6.768-4.744c2.984-1.761 12.82.179 12.82.179s1.055-.886 3.342-1.497c2.288-.612 10.016 3.605 10.016 3.605s7.032.085 8.087.696c1.054.622 2.72 1.761 2.72 1.761s.79-2.109 3.605-2.72c2.805-.622 3.596 3.953 3.596 3.953s4.48-2.024 9.056-2.203c4.565-.169 6.062 1.676 6.062 1.676s8.867-5.007 11.502-4.48c2.636.527 4.84 3.51 4.84 3.51l7.116-1.665s6.589-3.258 9.225-2.995c2.636.264 3.954 2.552 3.954 2.552s5.703-2.984 7.728-2.9c2.024.085 5.092 2.552 5.092 2.552s1.845-.18 3.869.169c2.024.358 3.511 2.815 3.511 2.815s5.366-1.14 8.434-.876c3.079.264 6.421 6.147 6.421 6.147s3.426.348 4.829 1.581c1.402 1.234 3.774 8.783 3.774 8.783s.97.97 1.149 1.94c.053.316-.053 1.128-.316 2.108z" fill="#2D9693"/><path d="M54.037 78.585s6.284-2.815 13.79-2.33c0 0 8.435-4.438 16.742-2.024 0 0 8.877-1.455 16.078 2.15 0 0 8.74-4.744 18.714-1.623 0 0 9.615-2.414 19.283.264 0 0 13.358-1.845 18.629 2.983 0 0-7.559.57-11.86 2.763-4.302 2.192-6.368 3.605-6.368 3.605s-7.908-3.205-17.702-3.205-14.496 4.523-14.496 4.523-6.632-4.66-17.881-4.66c-11.25 0-18.492 7.116-18.492 7.116s-5.8-8.655-16.426-9.572l-.01.01z" fill="#326C92" style="mix-blend-mode:multiply" opacity=".3"/><path d="M140.74 85.183c6.611-6.61 15.498-5.978 15.583-5.978a1.049 1.049 0 0 0 .179-2.088c-.39-.031-9.457-.706-16.7 6.063-3.342-1.519-18.018-7.265-33.305 1.117-3.332-2.32-9.773-5.514-19.114-4.428-8.92 1.033-13.97 4.375-16.5 6.716-7.897-8.086-17.385-9.035-17.807-9.067a1.047 1.047 0 0 0-1.128.949c-.053.58.38 1.086.949 1.128.01 0 .158.021.39.053-3.764 1.149-6.115 2.71-6.252 2.794a1.06 1.06 0 0 0-.285 1.455c.2.295.527.463.865.463.2 0 .4-.052.58-.179.042-.02 3.922-2.593 9.615-3.395.632.211 1.307.464 2.013.77-4.765 1.37-7.485 4.26-7.622 4.407a1.038 1.038 0 0 0 .063 1.476c.2.19.453.274.706.274.285 0 .56-.116.77-.337.032-.032 3.395-3.606 9.14-4.323a29.142 29.142 0 0 1 6.538 5.04c-.412.506-.633.832-.665.896a1.045 1.045 0 0 0 .348 1.433 1.038 1.038 0 0 0 1.434-.337c.042-.063 4.291-6.652 17.08-8.139 12.809-1.486 19.905 5.883 19.968 5.946.39.422 1.054.443 1.476.053.422-.39.443-1.054.053-1.476-.053-.063-.338-.348-.823-.77a33.45 33.45 0 0 1 9.225-3.141c.812.506 3.068 2.087 4.913 5.05.201.316.538.495.886.495.19 0 .379-.053.548-.158.496-.306.643-.949.337-1.444a18.71 18.71 0 0 0-3.721-4.344 37.248 37.248 0 0 1 7.042.032c.907.337 4.45 1.845 6.674 5.419.2.316.538.495.886.495a1.045 1.045 0 0 0 .885-1.602 14.985 14.985 0 0 0-2.878-3.353c3.901.96 6.347 2.193 6.41 2.225.401.21.896.126 1.223-.19h.021zM4.547 89.718c.327 0 .654-.159.854-.454.053-.084 5.683-7.97 17.934-8.508a1.047 1.047 0 0 0 1.001-1.086 1.022 1.022 0 0 0-1.086-1.001c-13.263.58-19.304 9.035-19.557 9.393a1.047 1.047 0 0 0 .865 1.645l-.01.01z" fill="#3FABA8"/><path d="M5.465 94.48c.042-.084 4.776-8.233 18.018-10.637.569-.105.948-.643.843-1.212a1.042 1.042 0 0 0-1.212-.844C8.849 84.37 3.852 93.1 3.64 93.47a1.05 1.05 0 0 0 .907 1.56c.369 0 .727-.19.917-.538v-.01zM24.305 90.677a1.051 1.051 0 0 0-1.265-.77c-11.312 2.742-17.332 8.74-17.585 9.005-.4.41-.4 1.075 0 1.475a1.045 1.045 0 0 0 1.487-.01c.052-.053 5.84-5.83 16.583-8.434.56-.138.907-.696.77-1.266h.01zM29.924 91.499a1.05 1.05 0 0 0-1.36-.59c-9.235 3.637-15.234 11.512-15.487 11.85a1.044 1.044 0 0 0 .21 1.465 1.052 1.052 0 0 0 1.465-.2c.064-.074 5.916-7.75 14.582-11.165a1.05 1.05 0 0 0 .59-1.36zM39.688 92.786a1.046 1.046 0 1 0-1.065-1.803c-4.576 2.689-9.014 8.656-9.204 8.91a1.047 1.047 0 0 0 .221 1.465c.19.137.4.2.622.2.317 0 .633-.148.844-.422.042-.063 4.375-5.872 8.582-8.35zM37.558 99.85c-3.132 3.837-4.977 8.898-5.05 9.109a1.044 1.044 0 0 0 .98 1.402c.432 0 .833-.264.98-.696.022-.053 1.803-4.934 4.713-8.498a1.052 1.052 0 0 0-.147-1.476 1.052 1.052 0 0 0-1.476.148v.01zM46.982 96.782a1.045 1.045 0 0 0-1.455.253c-2.931 4.175-5.683 12.388-5.799 12.736a1.042 1.042 0 0 0 .991 1.37c.443 0 .844-.274.991-.717.032-.084 2.773-8.265 5.525-12.198a1.045 1.045 0 0 0-.253-1.455v.01zM52.138 97.12a1.054 1.054 0 0 0-1.392.507c-2.625 5.683-4.428 12.609-4.512 12.904a1.046 1.046 0 0 0 1.012 1.308c.464 0 .886-.317 1.012-.78.021-.074 1.835-7.043 4.386-12.546.242-.528.01-1.15-.517-1.392h.01zM56.017 99.891a1.05 1.05 0 0 0-1.36.58c-.716 1.793-2.16 7.644-2.224 7.897-.137.559.2 1.128.77 1.265a1.036 1.036 0 0 0 1.265-.759c.01-.063 1.476-5.967 2.14-7.622a1.046 1.046 0 0 0-.58-1.36h-.01zM62.86 95.178c-.569-.147-1.128.2-1.275.76-.043.158-.98 3.932-1.592 9.783-.064.58.358 1.086.927 1.15h.106c.527 0 .98-.401 1.044-.939.6-5.682 1.539-9.446 1.539-9.488a1.044 1.044 0 0 0-.76-1.266h.011zM71.01 93.724a1.049 1.049 0 0 0-1.18.897c0 .073-1.045 7.738-1.646 12.651a1.051 1.051 0 0 0 .907 1.17h.127c.516 0 .97-.39 1.033-.917.6-4.902 1.634-12.546 1.644-12.63A1.06 1.06 0 0 0 71 93.714l.01.01zM78 92.944c-.57.116-.938.664-.822 1.234 0 .031.59 3.026.59 7.464 0 .58.464 1.044 1.044 1.044a1.04 1.04 0 0 0 1.044-1.044c0-4.67-.602-7.749-.633-7.876a1.04 1.04 0 0 0-1.234-.822H78zM85.105 93.724c-.569.084-.96.622-.875 1.191.01.095 1.402 9.204 2.045 15.298.053.538.507.939 1.044.939h.116c.57-.064.991-.58.928-1.15-.654-6.146-2.035-15.297-2.056-15.392a1.04 1.04 0 0 0-1.191-.875l-.01-.01zM91.495 95.758a1.049 1.049 0 0 0-.696 1.308c.021.074 2.383 7.896 2.752 12.335.042.548.506.959 1.044.959h.084a1.055 1.055 0 0 0 .96-1.128c-.39-4.66-2.731-12.44-2.826-12.767a1.049 1.049 0 0 0-1.307-.696l-.01-.01zM93.855 91.658a1.037 1.037 0 0 0-.01 1.476c.062.063 5.977 6.178 7.474 15.645a1.05 1.05 0 0 0 1.033.886c.053 0 .106 0 .169-.01a1.04 1.04 0 0 0 .865-1.192c-1.603-10.153-7.781-16.52-8.045-16.784a1.047 1.047 0 0 0-1.476-.01l-.01-.011zM106.001 94.22a1.045 1.045 0 0 0-1.023 1.72c.464.832 2.593 6.357 3.732 12.366.095.506.538.854 1.023.854.063 0 .126 0 .2-.021.569-.105.938-.653.833-1.223-.517-2.699-3.195-13.305-4.765-13.695zM114.278 94.314a1.044 1.044 0 0 0-.443 1.413c.032.063 3.405 6.526 4.481 11.882.095.496.537.844 1.022.844.064 0 .137 0 .211-.022.57-.116.939-.664.823-1.233-1.128-5.641-4.534-12.167-4.671-12.44a1.054 1.054 0 0 0-1.413-.444h-.01zM120.846 94.24a1.046 1.046 0 0 0-1.023 1.771c.591.876 3.469 7.191 4.397 10.797.126.474.548.78 1.012.78.084 0 .179-.01.263-.031.559-.148.896-.717.749-1.276-.432-1.687-4.028-11.587-5.398-12.04zM130.197 96.718a1.037 1.037 0 0 0-1.455-.243c-.474.338-.58.991-.242 1.455.031.042 3.3 4.618 5.651 9.879.168.39.559.622.959.622.137 0 .285-.032.422-.095.527-.232.77-.854.527-1.381-2.435-5.461-5.725-10.058-5.862-10.248v.01zM141.742 96.697a1.04 1.04 0 0 0-1.465-.19 1.034 1.034 0 0 0-.19 1.465c.042.053 3.796 5.008 5.103 10.881.105.485.538.822 1.023.822.073 0 .147 0 .232-.021.558-.127.917-.685.79-1.244-1.402-6.315-5.324-11.481-5.482-11.692l-.011-.021zM146.93 92.775c-.422-.39-1.086-.38-1.476.042a1.037 1.037 0 0 0 .042 1.476c.053.053 5.746 5.482 8.245 11.85.158.411.558.664.969.664a1.05 1.05 0 0 0 .97-1.433c-2.667-6.811-8.508-12.367-8.75-12.6zM154.584 91.942a1.04 1.04 0 0 0-1.476-.106 1.04 1.04 0 0 0-.106 1.476c.053.064 5.577 6.526 7.581 12.778.137.443.548.728.991.728a1.05 1.05 0 0 0 .991-1.371c-2.13-6.663-7.749-13.231-7.981-13.505zM160.14 93.724a1.047 1.047 0 0 0-1.455.263 1.048 1.048 0 0 0 .264 1.455c.074.053 7.317 5.092 9.141 10.648a1.046 1.046 0 0 0 1.318.665c.548-.18.843-.77.664-1.318-2.046-6.21-9.626-11.492-9.942-11.713h.01zM164.568 89.062a1.053 1.053 0 0 0-1.455.295 1.053 1.053 0 0 0 .295 1.455c.074.053 7.359 4.945 9.953 10.923.168.39.558.632.959.632.137 0 .274-.031.411-.084.527-.232.77-.843.548-1.371-2.836-6.547-10.395-11.618-10.711-11.829v-.02zM168.743 87.124a1.046 1.046 0 0 0-1.349.622 1.038 1.038 0 0 0 .622 1.339c.084.032 8.476 3.184 11.07 8.255.189.359.548.57.927.57a.959.959 0 0 0 .475-.117c.516-.263.717-.896.453-1.412-2.962-5.788-11.829-9.13-12.208-9.267l.01.01zM173.698 85.563a1.04 1.04 0 0 0-1.012 1.075c.021.57.485 1.012 1.044 1.012h.032c.052 0 6.252-.137 10.722 3.132.19.137.4.2.611.2.327 0 .643-.148.844-.432a1.05 1.05 0 0 0-.232-1.466c-5.071-3.7-11.735-3.542-12.019-3.532l.01.011zM188.564 81.567c-6.284-3.49-18.271-.864-18.777-.748a1.046 1.046 0 0 0-.791 1.244c.127.559.675.917 1.255.79.116-.031 11.702-2.572 17.311.538.158.085.338.127.506.127a1.045 1.045 0 0 0 .506-1.96l-.01.01zM168.374 76.865c.211 0 .433-.063.622-.2.043-.032 4.228-3.037 10.955-2.678.579.02 1.075-.412 1.096-.991a1.056 1.056 0 0 0-.991-1.108c-7.486-.41-12.124 2.931-12.314 3.08a1.046 1.046 0 0 0-.222 1.465c.201.274.528.421.844.421l.01.01zM156.829 74.683a1.05 1.05 0 0 0 .105 1.476 1.048 1.048 0 0 0 1.476-.105c.042-.042 3.985-4.597 7.549-6.674a1.06 1.06 0 0 0 .38-1.433 1.062 1.062 0 0 0-1.434-.38c-3.859 2.256-7.908 6.916-8.076 7.116zM150.039 76.043c.306 0 .601-.127.812-.38.052-.063 5.018-6.072 9.014-7.78.527-.232.78-.844.548-1.37a1.035 1.035 0 0 0-1.37-.55c-4.46 1.91-9.594 8.108-9.805 8.372a1.043 1.043 0 0 0 .147 1.476c.19.158.433.242.664.242l-.01-.01zM138.043 75.189c.19.147.422.232.654.232.306 0 .611-.138.822-.39.053-.064 5.166-6.474 8.603-8.677.485-.317.633-.96.317-1.445a1.044 1.044 0 0 0-1.445-.316c-3.732 2.383-8.898 8.867-9.109 9.14a1.04 1.04 0 0 0 .169 1.466l-.011-.01zM126.298 75.558c.2.21.485.326.759.326.264 0 .517-.095.717-.284.084-.074 8.234-7.823 12.936-10.08.517-.252.738-.874.496-1.391a1.043 1.043 0 0 0-1.392-.485c-4.997 2.393-13.126 10.121-13.474 10.448a1.038 1.038 0 0 0-.032 1.476l-.01-.01zM118.949 75.684c.432 0 .801-.264.959-.633.317-.57 3.174-5.04 5.925-7.011a1.046 1.046 0 1 0-1.223-1.697c-2.825 2.034-6.715 7.39-6.715 8.297 0 .58.463 1.044 1.043 1.044h.011zM106.065 75.632a1.03 1.03 0 0 0 1.329-.633c.01-.032 1.244-3.49 3.12-6.42a1.05 1.05 0 0 0-.316-1.445 1.041 1.041 0 0 0-1.444.316c-2.003 3.142-3.279 6.695-3.332 6.853-.19.548.095 1.139.633 1.34l.01-.011zM100.257 76.74c.116.042.242.063.358.063.432 0 .833-.263.981-.685.622-1.697 2.561-6.484 4.164-8.213a1.047 1.047 0 0 0-.053-1.476 1.047 1.047 0 0 0-1.476.053c-2.214 2.383-4.501 8.656-4.596 8.92-.2.537.084 1.138.622 1.338zM89.671 76.023c.137.063.285.084.422.084.4 0 .79-.232.96-.622.01-.031 1.592-3.605 3.49-5.777a1.049 1.049 0 0 0-.096-1.476 1.049 1.049 0 0 0-1.476.095c-2.108 2.414-3.763 6.157-3.827 6.315-.232.527 0 1.15.538 1.381h-.01zM84.063 74.579c.17.39.56.622.96.622.137 0 .285-.032.422-.085.527-.232.77-.854.537-1.38-2.604-5.915-7.19-9.215-7.38-9.352a1.045 1.045 0 0 0-1.455.242 1.045 1.045 0 0 0 .243 1.455c.042.032 4.312 3.12 6.673 8.498zM64.737 64.003c.073.042 7.749 4.734 10.943 10.374a1.044 1.044 0 0 0 1.423.39c.507-.284.686-.917.401-1.423-3.458-6.115-11.344-10.933-11.681-11.133a1.046 1.046 0 0 0-1.076 1.792h-.01zM54.394 65.773c.084.032 8.424 3.49 13.158 10.438.2.295.527.453.864.453.2 0 .411-.063.59-.179.475-.327.602-.98.275-1.455-5.082-7.464-13.738-11.049-14.096-11.196a1.044 1.044 0 0 0-1.36.569 1.04 1.04 0 0 0 .57 1.36v.01zM45 69.202c.064.031 6.558 2.773 9.204 6.768.2.306.538.464.875.464.2 0 .401-.052.58-.168a1.05 1.05 0 0 0 .295-1.455c-3.004-4.534-9.857-7.423-10.142-7.55a1.055 1.055 0 0 0-1.37.56c-.222.537.031 1.149.558 1.37v.01zM26.898 75.484c.074.01 7.875 1.097 12.272 5.156.2.19.453.274.706.274.285 0 .559-.116.77-.338a1.038 1.038 0 0 0-.063-1.476c-4.892-4.522-13.074-5.65-13.422-5.693a1.044 1.044 0 0 0-1.17.896c-.074.57.327 1.097.896 1.17l.01.011z" fill="#3FABA8"/><path d="M191.169 86.103c-1.813-6.59-5.324-11.45-7.106-12.124-1.845-.707-15.192.168-15.192.168l8.255-2.456s-.443-3.774-3.953-3.69c-3.511.084-14.581 1.845-14.581 1.845s5.356-4.217 4.565-4.217c-.791 0-3.163.527-4.133.79-.959.264-3.426-4.037-5.271-3.869-1.845.18-6.758 3.163-6.758 3.163s-2.109-2.72-3.427-2.72-4.66 1.054-7.296 2.193c-2.635 1.15-11.333 3.69-11.333 3.69s-1.93-4.302-4.133-4.302c-2.204 0-10.016 3.511-10.016 3.511s-1.138-1.138-3.163-1.402c-2.013-.263-13 3.079-13.526 2.372-.527-.706-.97-3.69-2.109-3.51-1.139.168-.611 3.51-1.139 3.51-.527 0-4.48-3.078-6.062-3.426-1.581-.348-11.07-.18-12.915-.348-1.845-.18-13.8-3.427-15.814-3.079-2.024.348-9.931 2.815-9.931 3.606 0 .79 3.068 4.418 3.32 4.734-.347-.211-6.273-3.67-7.98-3.416-1.75.263-6.59 2.372-6.59 2.372l3.585 3.152c-.527-.232-8.877-3.943-9.383-4.038-.528-.084-4.913 2.373-5.704 3.427 0 0-.042-.032-.106-.084 1.128-1.56 3.005-4.007 4.007-4.481 1.486-.707 5.271 1.233 5.271 1.233s2.109-2.203 4.744-3.257c2.636-1.055 6.674.706 6.674.706s3.774-2.984 6.769-4.744c2.983-1.761 12.82.179 12.82.179s1.054-.886 3.342-1.497c2.288-.612 10.016 3.605 10.016 3.605s7.032.085 8.086.696c1.055.622 2.72 1.761 2.72 1.761s.791-2.109 3.606-2.72c2.804-.622 3.595 3.953 3.595 3.953s4.48-2.024 9.056-2.203c4.566-.169 6.063 1.676 6.063 1.676s8.866-5.007 11.502-4.48c2.636.527 4.839 3.51 4.839 3.51l7.117-1.665s6.589-3.258 9.225-2.995c2.635.264 3.953 2.552 3.953 2.552s5.704-2.984 7.728-2.9c2.024.085 5.092 2.552 5.092 2.552s1.845-.18 3.87.169c2.024.358 3.51 2.815 3.51 2.815s5.367-1.14 8.435-.876c3.078.264 6.42 6.147 6.42 6.147s3.427.348 4.829 1.581c1.402 1.234 3.774 8.783 3.774 8.783s.97.97 1.15 1.94c.052.316-.053 1.128-.317 2.108z" fill="#fff"/><mask id="a" style="mask-type:alpha" maskUnits="userSpaceOnUse" x="28" y="0" width="180" height="87"><path d="M139.801 83.177c7.243-6.769 16.31-6.094 16.7-6.063L208 83.178l-10-61.27-48.5-21.5-99 30-22.5 19.5 14 27.608c2.8-1.88 7.798-.151 9.947.949.042-.57.57-1.002 1.128-.949.422.032 9.91.98 17.807 9.067 2.53-2.34 7.58-5.683 16.5-6.716 9.341-1.086 15.783 2.109 19.114 4.428 15.288-8.381 29.963-2.635 33.305-1.117z" fill="#D9D9D9"/></mask><g mask="url(#a)"><path d="M170.577 66.06c-5.893 8.413-18.386 7.717-18.386 7.717s-6.09 9.89-9.06 12.168c-2.958 2.27-8.012 1.09-8.386 1.188-.376.107-33.591 16.145-53.785 16.331-20.195.186-41.738-5.907-34.652-29.306.375-1.236.85-2.432 1.402-3.58.297-.628.621-1.23.966-1.828 10.955-18.918 44.35-23.836 44.814-24.065.503-.255 7.375-5.066 10.28-5.293 2.915-.224 12.499-.194 12.499-.194s4.387-8.091 17.02-9.872c0 0 15.845-6.246 25.301-4.715 8.695 1.412 14.972 4.976 16.087 13.132.112.732.174 1.497.187 2.295.053 2.59.187 5.047.254 7.404.173 6.57-.211 12.429-4.541 18.617z" fill="#ED5451"/><path d="M174.676 37.743c-1.32-2.489-3.592-5.597-7.358-7.897-7.188-4.39-21.819-2.019-24.296-.814-2.486 1.202-10.337.625-14.581 2.553-4.236 1.94-11.316 9.568-11.316 9.568s-.775-.154-5.115-.386c-4.338-.242-10.359-.185-14.846 3.93-4.499 4.123-13.567 20.86-13.553 19.873.012-.976 7.879-17.51 7.879-17.51s-8.248.063-23.619 7.92C54.305 61.928 48.817 69.015 47.71 70.58c.298-.63.622-1.231.967-1.829C59.631 49.832 93.025 44.914 93.49 44.685c.502-.255 7.375-5.066 10.28-5.293 2.915-.224 12.498-.194 12.498-.194s4.388-8.091 17.02-9.872c0 0 15.845-6.246 25.301-4.715 8.696 1.412 14.973 4.976 16.087 13.132z" fill="#fff"/><path d="M170.577 66.062c-.302.434-.62.844-.965 1.226-6.183 7.12-17.421 6.491-17.421 6.491s-.399.652-1.049 1.65c-1.872 2.917-5.802 8.82-8.011 10.519a5.108 5.108 0 0 1-.693.453c-2.995 1.65-7.341.643-7.693.734-.364.1-31.544 15.155-51.858 16.264l-.023.006c-.64.034-1.28.057-1.904.061-4.859.052-9.795-.266-14.387-1.117-12.566-2.27-22.596-8.42-21.577-21.559.158-2.032.587-4.237 1.322-6.627a25.69 25.69 0 0 1 2.369-5.408c5.518 6.347 18.104.483 16.55 3.752-1.622 3.44-11.773 17.95 4.356 20.629 16.129 2.68 29.882.456 37.575-7.825 7.694-8.28-1.244-18.664 5.084-17.402 6.327 1.262 25.328 3.72 24.166 2.81-1.163-.91-19.984-11.651-13.57-10.77 6.404.88 20.163 6.71 31.318 5.978 8.179-.529 16.708-8.256 20.962-18.48.173 6.57-.21 12.428-4.541 18.617l-.01-.002z" fill="#2B2A30" style="mix-blend-mode:multiply" opacity=".3"/><path d="M105.327 54.486c-3.833-3.689 27.685 18.423 36.474 21.52 0 0-22.045-7.623-36.474-21.52zM94.61 72.969c-4.543-2.767 31.036 11.92 40.297 13.025 0 0-23.171-2.622-40.296-13.025zM69.716 78.12c-4.314-3.108 30.022 14.309 39.153 16.12 0 0-22.899-4.418-39.153-16.12z" fill="#2B2A30" style="mix-blend-mode:multiply" opacity=".3"/><path d="M66.573 102.347c-12.566-2.269-22.596-8.42-21.577-21.558 3.532 8.165 10.99 17.716 21.577 21.558zM142.438 86.399c-2.995 1.65-7.342.642-7.694.734-.363.1-31.544 15.155-51.858 16.264a39.281 39.281 0 0 0 3.372-.897c23.95-7.587 29.585-22.094 32.815-23.954 2.843-1.637 13.331 5.497 23.365 7.853zM169.611 67.288c-6.183 7.12-17.421 6.49-17.421 6.49s-.399.652-1.05 1.651c-6.51-3.363-17.134-8.9-8.834-6.697 9.281 2.465 20.916 2.667 27.305-1.444z" fill="#326C92" style="mix-blend-mode:multiply" opacity=".3"/><path d="M161.996 43.922a41.52 41.52 0 0 1-.632 2.41c-2.26 7.613-9.051 14.386-19.41 13.395-8.619-.827-12.915-5.587-13.667-10.714a11.167 11.167 0 0 1-.036-3.103c.084-.64.2-1.272.358-1.907 1.379-5.455 5.722-10.416 12.171-11.054 7.195-.715 9.806-5.72 16.394-3.717.79.243 1.489.565 2.098.966 3.799 2.51 4.064 7.917 2.724 13.724z" fill="#F99293"/><path d="M159.271 30.198c-5.902-1.618-9.386 1.084-11.7 2.225-2.718 1.34-7.618 1.007-12.635 3.898-2.77 1.598-4.937 4.97-6.327 7.682 1.378-5.455 5.722-10.415 12.171-11.053 7.195-.715 9.805-5.72 16.394-3.718a8.15 8.15 0 0 1 2.097.966z" fill="#fff"/><path d="M161.994 43.92a40.71 40.71 0 0 1-.631 2.412c-2.26 7.612-9.051 14.385-19.41 13.394-8.619-.827-12.916-5.586-13.667-10.714 7.456 10.7 27.149 5.05 33.708-5.091z" fill="#F06E76"/><path d="M162.881 31.445c-.573 1.907-.39 4.33-.39 4.33s-4.121-.36-4.76-4.11c0 0-.127-1.466 1.107-2.8.506-.544 1.234-1.065 2.3-1.455 3.657-1.356 5.139 1.993 5.139 1.993s-2.814.148-3.396 2.043z" fill="#94415D"/><path d="M162.881 31.446c-.574 1.906-.391 4.33-.391 4.33s-4.121-.36-4.76-4.11c0 0-.127-1.466 1.107-2.8-.706 2.568.945 4.047 1.038 4.12-.01-.164-.096-1.514 1.113-3.154 0 0-.336 2.545.182 3.455.527.911-.189-4.768 5.107-3.884 0 0-2.814.149-3.396 2.043z" fill="#326C92" style="mix-blend-mode:multiply" opacity=".3"/><path d="M149.437 32.667s1.698 1.08 2.245 1.737c.533.666.319 1.257.319 1.257s.498-.556.748-.14c.251.415-.684 1.056-1.25 1.04-.567-.016-1.213-2.328-2.06-3.905l-.002.01zM145.273 34.675s-.169.31-.256.745a2.819 2.819 0 0 0 .212 1.794c.327.678.983 1.325 2.102 1.806a.521.521 0 0 0 .69-.281.522.522 0 0 0-.282-.69c-.949-.416-1.363-.875-1.57-1.292a1.805 1.805 0 0 1-.128-1.133c.029-.145.074-.265.101-.346l.039-.088.004-.021-.058-.033.058.033-.058-.033.058.033a.527.527 0 0 0-.213-.71.527.527 0 0 0-.709.214l.01.002zM145.142 40.938s-.278-.334-.702-.688c-.424-.353-1.019-.762-1.743-.907a2.332 2.332 0 0 0-1.594.23 2.116 2.116 0 0 0-1.114 1.488c-.14.703.038 1.427.411 2.038.374.602.939 1.112 1.677 1.292a.523.523 0 0 0 .637-.39.523.523 0 0 0-.389-.636c-.402-.09-.78-.403-1.02-.816-.253-.405-.358-.9-.272-1.28.064-.32.221-.569.571-.757.301-.165.585-.184.895-.122.444.088.922.388 1.272.684.176.142.318.289.416.394l.115.12.027.027a.52.52 0 0 0 .736.082.511.511 0 0 0 .072-.738l.005-.02zM141.463 48.384c-1.967-1.403-3.043-3.068-3.619-4.387a9.665 9.665 0 0 1-.546-1.625 5.348 5.348 0 0 1-.091-.46l-.019-.121.006-.031c-.039-.288-.296-.51-.581-.482a.534.534 0 0 0-.48.571c.003.044.113 1.109.746 2.568.636 1.449 1.828 3.289 3.972 4.824a.53.53 0 0 0 .734-.123.529.529 0 0 0-.122-.734zM152.562 46.095l-.006.193.006-.193-.006.193.006-.193s-.085-.006-.219-.033c-.269-.053-.722-.208-1.047-.574-.325-.366-.613-.971-.481-2.17a.53.53 0 0 0-1.05-.123c-.161 1.397.191 2.38.748 2.986a2.983 2.983 0 0 0 1.625.905c.217.043.366.051.389.045a.528.528 0 0 0 .544-.515.528.528 0 0 0-.515-.543l.006.022zM156.326 44.533s-.094-2.007-.406-2.811c-.305-.792-.929-.895-.929-.895s.73-.156.492-.58c-.238-.423-1.262.072-1.522.568-.273.505 1.42 2.208 2.376 3.72l-.011-.002z" fill="#2B2A30"/></g></svg>