<svg width="295" height="77" fill="none" xmlns="http://www.w3.org/2000/svg"><path d="M11.507 20.593C7.729 22.261.955 28.651.572 32.783c-.325 3.468 2.597 6.567 5.888 7.688 3.305 1.122 6.891.738 10.36.399 28.643-2.79 65.477-1.284 93.929 3.07 4.723.723 12.205 1.505 15.687 4.78 8.294 7.822-.974 27.877 6.361 27.877 6.847 0 4.161-6.596 3.305-16.646-.664-7.88 1.535-14.432 6.966-12.942 7.098 1.963 2.937 13.355 4.885 18.343 2.685 6.848 9.223 3.808 10.271 1.461 1.962-4.397 0-9.666 0-12.219 0-14.181 12.263-11.732 12.263-.752 0 10.98 4.324 11.761 8.028 11.761 6.596 0 7.615-8.116 11.496-12.47 10.02-11.245 60.888-3.172 92.085-9.636 5.106-1.063 13.06-3.572 12.027-8.368-.915-7.422-20.114-4.619-30.282-6.773-28.038-5.962-51.724-29.943-80.323-28.201-24.188 1.475-44.848 21.412-69.064 20.748-17-.457-32.009-11.038-48.596-14.801-21.074-4.782-47.076 4.22-61.686 20.143-2.641 2.878-2.508 4.767-1.977 8.634.531 3.866 5.859 6.758 8.5 3.896" fill="#fff"/><mask id="a" style="mask-type:alpha" maskUnits="userSpaceOnUse" x="0" y="0" width="295" height="77"><path d="M11.507 20.593C7.729 22.261.955 28.651.572 32.783c-.325 3.468 2.597 6.567 5.888 7.688 3.305 1.122 6.891.738 10.36.399 28.643-2.79 65.477-1.284 93.929 3.07 4.723.723 12.205 1.505 15.687 4.78 8.294 7.822-.974 27.877 6.361 27.877 6.847 0 4.161-6.596 3.305-16.646-.664-7.88 1.535-14.432 6.966-12.942 7.098 1.963 2.937 13.355 4.885 18.343 2.685 6.848 9.223 3.808 10.271 1.461 1.962-4.397 0-9.666 0-12.219 0-14.181 12.263-11.732 12.263-.752 0 10.98 4.324 11.761 8.028 11.761 6.596 0 7.615-8.116 11.496-12.47 10.02-11.245 60.888-3.172 92.085-9.636 5.106-1.063 13.06-3.572 12.027-8.368-.915-7.422-20.114-4.619-30.282-6.773-28.038-5.962-51.724-29.943-80.323-28.201-24.188 1.475-44.848 21.412-69.064 20.748-17-.457-32.009-11.038-48.596-14.801-21.074-4.782-47.076 4.22-61.686 20.143-2.641 2.878-2.508 4.767-1.977 8.634.531 3.866 5.859 6.758 8.5 3.896" fill="#fff"/></mask><g mask="url(#a)"><path opacity=".15" d="M306.106 26.954c-.487-4.767-5.269-8.604-9.637-8.412-.575.03-1.121-.221-1.579-.56-6.109-4.664-13.355-4.59-20.719-6.686-3.409-.974-6.744 3.881-3.675 6.316 2.583 2.066 10.478 5.933 14.345 10.006.915.959.885 2.494-.045 3.424-.369.368-.752.737-1.151 1.077a2.255 2.255 0 0 1-.428.31c-6.257 3.748-18.432 2.833-25.235 2.597-10.374-.34-18.092-1.343-30.075-1.712-4.678-.147-22.741.915-25.309 1.653-17.502 5.003-16.69 17.65-21.457 19.435-2.937 1.107-4.073-2.494-6.05-8.44-1.83-5.505-5.859-9.21-13.754-6.051-2.745 1.106-5.313 3.674-8.618 2.567-3.306-1.106-4.56-4.663-8.442-7.703-5.135-4.029-22.003-4.766-32.274-4.766s-24.364-.133-35.107.22c-10.286.326-20.557.768-30.843 1.167-8.721.34-20.41 2.73-28.703-.65-5.047-2.066-4.885-6.006-2.199-10.418 4.295-7.054 13.607-10.7 20.616-14.36 13.178-6.876 4.117-29.204-10.227-24.26C4.35-10.987-19.086 3.726-16.99 29.522c.974 12.027 8.22 22.195 18.815 27.788 11.098 5.858 23.642 5.563 35.802 4.973 24.128-1.166 48.64-3.572 72.797-2.007 1.653.103 3.276.25 4.9.442 1.461.177 2.449 1.476 2.199 2.922-1.048 6.007-.34 11.555 3.025 16.676 1.726 2.612 3.925 4.25 6.286 5.726.222.133.414.31.576.516 2.996 3.704 7.334 6.095 13.916 6.67 8.781.753 15.2-7.54 15.23-15.627 0-.9.531-1.712 1.328-2.096 2.169-1.062 4.132-2.597 5.873-4.619a18.376 18.376 0 0 0 9.932 5.962c.575.133 1.151.222 1.726.295a2.36 2.36 0 0 1 1.402.664c1.609 1.609 3.808 2.553 6.493 2.214 10.154-1.284 20.262-3.32 30.238-5.637 8.013-1.86 18.653-3.335 23.538-10.862a14.616 14.616 0 0 0 1.668-3.586c.339-1.092 1.342-1.844 2.479-1.77 1.476.088 2.966.191 4.457.28 9.238.634 18.003.443 26.223-1.284.148-.03.281-.044.428-.044.649 0 1.314-.06 2.007-.192a49.242 49.242 0 0 0 3.867-.93c.118-.03.236-.059.339-.059 5.445-.546 10.714-2.066 15.451-5.283 7.806-5.298 13.06-14.093 12.086-23.67l.015-.03zM119.161 56.247c.221-.856.206-.767-.015.25-.163.827-.34 1.654-.546 2.48v.03c-1.048-.945-1.432-1.948.561-2.745v-.015z" fill="#336EC2"/></g></svg>