<svg width="383" height="579" fill="none" xmlns="http://www.w3.org/2000/svg"><rect x=".5" y=".049" width="382" height="578.071" rx="191" fill="#FFFDFC"/><g clip-path="url(#a)"><g style="mix-blend-mode:multiply"><path d="M162.897 430.353c-49.718.578-50.818 6.727-62.388 11.278s-26.236 2.77-27.478 10.486c-1.243 7.717 34.704 11.872 102.877 13.652 68.173 1.781 93.166 1.385 118.578-5.342 25.413-6.727 19.422-22.16-12.599-20.181-32.021 1.979-34.91-7.914-55.78-7.519-20.869.396-46.274-2.572-63.21-2.374z" fill="#2B2A30" style="mix-blend-mode:multiply" opacity=".3"/><path d="M175.979 436.945c-23.086.135-54.347 2.77-70.833 6.466-16.485 3.696-14.775 9.632 10.028 8.967 24.795-.657 29.282.53 49.068.657 19.785.134 39.436-3.561 54.473-.657 15.037 2.905 36.145 6.727 52.891 3.3 16.755-3.427.657-13.715-27.565-15.171-28.23-1.449-68.062-3.562-68.062-3.562z" fill="#2B2A30" style="mix-blend-mode:multiply" opacity=".3"/></g><path d="m189.298 145.344-.126 8.777s-3.047 12.995-4.203 18.219c-1.147 5.223.175 19.358.175 19.358l-45.491-6.331s-2.755-13.494-1.852-27.661c.894-14.166 39.349-39.381 39.349-39.381s11.666 16.897 12.148 27.019z" fill="#DD9A3A"/><path d="m189.298 145.344-.126 8.777s-3.047 12.995-4.203 18.219c-1.147 5.223.175 19.358.175 19.358l-45.491-6.331s-2.755-13.494-1.852-27.661c.894-14.166 39.349-39.381 39.349-39.381s11.666 16.897 12.148 27.019z" fill="#2B2A30" style="mix-blend-mode:multiply" opacity=".3"/><path d="M189.172 154.121s-1.591 18.314-1.314 23.125c.277 4.812 2.905 13.961 2.905 13.961l-5.619.491s-1.947-13.708-1.298-18.045c.649-4.337 5.318-19.532 5.318-19.532h.008z" fill="#DD9A3A"/><path d="M204.557 433.796c-.34.506-.815.981-1.393 1.401-2.026 1.464-19.936.229-23.655.34-3.72.111-19.715 1.694-20.736-.902-.577-1.48-.498-5.548-.316-8.753.134-2.398.316-4.314.316-4.314l-.823-5.286-2.216-14.317 15.433-1.82s.91 5.856 1.9 10.7c.593 2.88 1.202 5.405 1.661 6.117 1.243 1.915 22.129 11.254 23.371 11.365 1.235.111 5.065.902 6.419 2.026.118.103.221.214.316.325.617.831.475 2.018-.277 3.118z" fill="#F99293"/><path d="M204.834 430.677c-11.04-2.509-30.383-12.054-30.739-12.544-.395-.554-1.029-7.289-1.029-7.289.594 2.881 1.203 5.405 1.662 6.117 1.243 1.916 22.129 11.254 23.371 11.365 1.235.111 5.065.902 6.418 2.026.119.103.222.214.317.325z" fill="#fff"/><path d="M173.067 410.845c-4.709 2.247-11.025 4.075-15.117 5.437l-2.216-14.317 15.433-1.82s.91 5.856 1.9 10.7zM204.557 433.795c-.34.507-.815.981-1.393 1.401-2.026 1.464-19.936.229-23.656.34-3.719.111-19.714 1.694-20.735-.902-.578-1.48-.498-5.548-.316-8.753 2.999 2.968 6.877 5.769 9.908 6.545 6.522 1.686 11.27-2.169 17.807-.886 4.551.894 10.851 2.326 18.385 2.255z" fill="#326C92" style="mix-blend-mode:multiply" opacity=".3"/><path d="M157.761 434.974s46.044-.221 47.469 0c1.425.222.823 4.504.823 4.804 0 .301-47.24 1.425-47.77 1.053-.53-.372-.602-5.556-.522-5.857z" fill="#94415D"/><path d="M193.739 424.797c-1.583 2.137-2.802 4.416-3.681 6.332-1.163 2.532-1.725 4.408-1.725 4.408h-8.824c.585-2.319 1.226-4.456 1.891-6.316 1.765-4.946 3.712-8.009 5.279-7.732 1.282.23 7.06 3.308 7.06 3.308z" fill="#94415D"/><path d="M190.058 431.128c-1.163 2.533-1.725 4.408-1.725 4.408h-8.824c.585-2.319 1.226-4.455 1.891-6.315 1.559 1.511 5.208 1.915 8.658 1.907z" fill="#326C92" style="mix-blend-mode:multiply" opacity=".3"/><path d="M127.972 443.673c-.729.594-21.044 8.967-27.7 8.904-6.664-.064-17.087-3.103-17.348-4.219-.261-1.123-.443-5.373.53-5.935 3.957-2.311 16.944-5.738 24.265-6.529 7.321-.792 20.909 2.239 21.242 2.833.324.593-.269 4.353-.989 4.946z" fill="#94415D"/><path d="M128.961 438.727c-2.05 2.437-18.796 8.373-26.908 8.769-8.113.396-18.599-5.073-18.599-5.073 3.957-2.311 16.944-5.738 24.265-6.529 7.321-.792 20.909 2.239 21.242 2.833z" fill="#94415D"/><path d="M128.961 438.727c-2.05 2.437-18.796 8.373-26.908 8.769-8.113.396-18.599-5.073-18.599-5.073 3.957-2.311 16.944-5.738 24.265-6.529 7.321-.792 20.909 2.239 21.242 2.833z" fill="#326C92" style="mix-blend-mode:multiply" opacity=".3"/><path d="M126.935 431.257c.047 3.474-.538 6.466-2.398 7.012-3.364.989-10.154 1.844-13.454 4.812-3.293 2.967-6.063 2.374-6.063 2.374-7.06 3.229-8.745-1.187-8.745-1.187-6.68 0-10.423-1.971-10.463-4.116 0-.467.15-.926.491-1.377.23-.324.554-.633.974-.942 3.759-2.77 21.265-13.248 22.159-15.725.444-1.227.8-6.648 1.053-11.824.253-5.326.396-10.399.396-10.399l16.889 1.978s-.895 6.577-1.464 12.521c-.341 3.601-.562 6.972-.388 8.515.53 2.39.981 5.524 1.013 8.342.008.008 0 .008 0 .016z" fill="#F99293"/><path d="M110.489 423.723c-.688 1.028-19.342 12.172-24.186 15.052.23-.324.554-.633.974-.941 3.759-2.77 21.265-13.249 22.159-15.726.444-1.227.8-6.648 1.053-11.824 0 0 .791 12.251 0 13.439z" fill="#fff"/><path d="M127.774 401.863s-.894 6.577-1.464 12.521c-6.395-1.172-12.267-2.929-15.821-4.1.254-5.326.396-10.399.396-10.399l16.889 1.978zM124.537 438.269c-3.364.989-10.154 1.844-13.454 4.812-3.293 2.967-6.063 2.374-6.063 2.374-7.06 3.229-8.745-1.187-8.745-1.187-6.68 0-10.423-1.971-10.463-4.116 2.826 2.28 10.962.657 10.962.657s.894 3.506 4.353 3.609c3.458.095 5.492-3.514 5.492-3.514s4.25-.15 7.566-2.026c3.316-1.883 5.041-2.722 8.808-3.213 2.169-.285 3.419-2.002 3.942-4.408.047 3.474-.538 6.466-2.398 7.012z" fill="#326C92" style="mix-blend-mode:multiply" opacity=".3"/><path d="M90.886 434.28s5.294-3.807 6.972-4.748c1.678-.942 12.513-.396 16.968 3.862 4.456 4.258 2.968 9.251 2.968 9.251l-5.144 1.979s-.942-4.946-3.807-7.321c-2.865-2.374-10.637-5.935-17.957-3.015v-.008z" fill="#94415D"/><path d="M216.041 251.538c-1.164 3.38-3.609 6.506-8.271 7.733-11.278 2.967-28.396-9.007-28.396-9.007l-5.73-76.562c3.142 2.216 5.738 5.121 7.716 8.358.483.783.934 1.59 1.338 2.405v.016a30.944 30.944 0 0 1 2.817 8.405c1.282 7.226 11.571 35.029 11.571 35.029s17.316 10.874 18.796 12.559c.198.222.388.657.562 1.243.602 2.073.879 6.094-.403 9.821z" fill="#F4B753"/><path d="M216.041 251.538c-1.164 3.38-3.609 6.506-8.271 7.733-11.278 2.967-28.396-9.007-28.396-9.007l-5.73-76.562c3.142 2.216 5.738 5.121 7.716 8.358 1.124 11.823 1.053 34.743 2.011 39.222 1.187 5.54 2.635 2.905 4.748.926 2.105-1.978.657 6.197.261 14.507-.395 8.31 4.883 1.718 6.332.792.87-.554 9.885 7.122 21.329 14.031z" fill="#2B2A30" style="mix-blend-mode:multiply" opacity=".1"/><path d="M216.444 241.717c-8.974-5.184-20.513-11.689-20.806-12.655-.467-1.511-9.695-25.65-10.558-30.2-.561-2.984-1.63-9.893-2.382-14.381a30.98 30.98 0 0 1 2.818 8.405c1.282 7.226 11.57 35.029 11.57 35.029s17.317 10.874 18.797 12.56c.197.221.387.656.561 1.242z" fill="#fff"/><path d="M204.866 402.914s-2.335.705-6.007 1.71c-9.212 2.501-26.877 6.846-37.252 6.466-14.515-.523-17.942-.523-17.942-.523l-8.444 2.897-41.415-11.341s13.715-112.382 16.358-127.158c.269-1.488.618-3.585 1.037-6.157 1.108-6.854 2.675-17.095 4.345-28.309 3.949-26.45 8.46-58.336 8.793-63.995.221-3.743 3.355-6.196 6.94-7.779 5.002-2.216 10.867-2.746 10.867-2.746l5.69 1.068 19.437 3.648s1.734.499 3.688 1.401c.285.135.57.269.855.428 1.282.649 2.572 1.472 3.459 2.437 2.477 2.667 3.608 23.632 5.057 36.429 1.456 12.798 8.705 101.563 11.61 115.548.609 2.928 1.527 7.962 2.604 14.087 4.052 23.133 10.32 61.889 10.32 61.889z" fill="#F4C95E"/><path d="M143.665 222.345c-1.804 2.714 14.111 20.576 19.92 22.025 5.809 1.448 13.589-15.694 13.85-18.464.261-2.77-9.758 7.123-13.193 8.31-3.427 1.187-20.316-12.267-20.577-11.871z" fill="#2B2A30" style="mix-blend-mode:multiply" opacity=".1"/><path d="M204.866 402.915s-2.335.704-6.007 1.709c-3.925-31.277-12.465-101.294-14.57-118.84-2.374-19.785-8.294-106.003-9.212-108.773-.602-1.788-2.525-2.944-4.116-4.914 1.544.72 3.229 1.685 4.314 2.865 2.477 2.667 3.609 23.631 5.057 36.429 1.456 12.797 8.705 101.563 11.61 115.547.609 2.929 1.527 7.962 2.604 14.088 4.052 23.133 10.32 61.889 10.32 61.889z" fill="#fff"/><path d="M204.866 402.914s-10.162 3.079-21.456 5.461c-3.814.807-7.756 1.535-11.483 2.034-3.791.514-7.352.792-10.32.681-14.515-.523-17.942-.523-17.942-.523l-8.444 2.897-3.973-1.092-6.814-1.86-30.628-8.389s2.81-23.007 6.125-49.575c4.021-32.147 8.785-69.494 10.233-77.583 2.636-14.768 13.652-89.494 14.175-98.461.53-8.974 17.807-10.525 17.807-10.525l5.69 1.068c1.353 7.906 2.2 24.843 1.369 26.338-.989 1.781-10.288 3.76-10.288 3.76s-8.112 26.512 5.738 42.934c13.849 16.422 30.469 19.588 35.02 21.962 4.551 2.375-14.839 11.872-34.823 4.155-19.983-7.716 22.358 12.663 28.689 17.016 6.332 4.353-13.652 3.759-27.897 5.54-14.246 1.78-13.85 37.592-3.562 55.597 10.289 18.005 34.032-24.336 36.999-30.667 2.968-6.332.99 18.4-6.133 42.934-4.646 16.011 10.249-1.171 21.598-15.591a3127.45 3127.45 0 0 1 3.925 23.046 7866.983 7866.983 0 0 1 6.395 38.843z" fill="#2B2A30" style="mix-blend-mode:multiply" opacity=".1"/><path d="M99.931 352.548c3.91 18.986 18.013 46.504 24.503 57.964l-30.628-8.39s2.81-23.006 6.125-49.574zM171.626 409.776c.095.222.198.427.301.633-3.791.515-7.352.792-10.32.681-14.515-.523-17.942-.523-17.942-.523l-8.444 2.897-3.973-1.092c8.199-12.402 25.104-55.621 28.768-60.37 4.488-5.801 2.644 37.989 11.61 57.774z" fill="#2B2A30" style="mix-blend-mode:multiply" opacity=".3"/><path d="M204.866 402.914s-10.162 3.079-21.455 5.461c5.397-9.457 10.818-27.795 15.06-44.304a7866.983 7866.983 0 0 1 6.395 38.843z" fill="#326C92" style="mix-blend-mode:multiply" opacity=".3"/><path d="M171.816 172.524c-.577 3.862-3.711 5.033-3.711 5.033s-2.343 3.894-8.017 3.894c-5.675 0-7.123-3.562-7.123-3.562s-5.801.918-7.123-3.363c0 0-8.516-.776-14.562-5.801 5.002-2.216 10.866-2.746 10.866-2.746l5.69 1.068 19.438 3.648s1.733.499 3.688 1.401c.285.135.569.269.854.428z" fill="#2B2A30" style="mix-blend-mode:multiply" opacity=".3"/><path d="M163.055 276.484c-3.363 0-2.77 4.749-7.716 10.091-4.076 4.4-27.32-6.49-44.138-17.768 1.108-6.854 2.675-17.095 4.345-28.309 14.475 7.922 50.651 26.964 64.129 27.28 8.777.206-13.256 8.706-16.62 8.706z" fill="#326C92" style="mix-blend-mode:multiply" opacity=".3"/><path d="M237.305 434.634c-1.013 2.588-17.015 1.013-20.735.903-3.712-.111-21.63 1.124-23.656-.341-1.511-1.092-2.271-2.619-2.01-3.791.079-.324.23-.617.467-.87.056-.063.119-.127.19-.182 1.353-1.124 5.184-1.915 6.426-2.026 1.235-.119 22.129-9.45 23.363-11.365.515-.791.744-4.408.831-8.373.119-5.58-.031-11.848-.031-11.848l15.432 1.82-.277 23.007s1.013 10.471 0 13.066z" fill="#F99293"/><path d="M222.181 418.134c-.696.942-20.284 9.664-23.054 11.088-1.512.784-4.954 1.148-7.756 1.314.055-.063.119-.127.19-.182 1.353-1.124 5.184-1.915 6.426-2.026 1.235-.119 22.129-9.45 23.363-11.365.515-.791.744-4.408.831-8.373 0 0 .697 8.595 0 9.544z" fill="#fff"/><path d="M237.305 434.634c-1.013 2.588-17.015 1.013-20.735.903-3.712-.111-21.63 1.124-23.656-.341-1.511-1.092-2.271-2.619-2.01-3.791 4.915 3.34 22.674 1.813 26.457.792 4.06-1.092 5.445-4.258 6.933-4.654 1.48-.395 6.727.499 6.727-.981s-.498-2.58-.498-6.537.894-10.779.894-10.779-5.302-.301-9.236-.657c.119-5.58-.031-11.848-.031-11.848l15.432 1.82-.277 23.007s1.013 10.471 0 13.066z" fill="#326C92" style="mix-blend-mode:multiply" opacity=".3"/><path d="M238.319 435.766s-46.045-.221-47.47 0c-1.424.222-.823 4.504-.823 4.804 0 .301 47.24 1.425 47.77 1.053.523-.372.602-5.556.523-5.857z" fill="#94415D"/><path d="M216.776 435.933h-9.078s-.522-1.749-1.606-4.163c-.902-2.042-2.216-4.551-3.949-6.885 0 0 5.943-3.166 7.257-3.395 1.828-.325 4.179 3.806 6.181 10.201a76.38 76.38 0 0 1 1.195 4.242z" fill="#94415D"/><path d="M216.776 435.932h-9.078s-.522-1.749-1.606-4.162c2.611.308 6.339.158 9.489-.08a76.626 76.626 0 0 1 1.195 4.242z" fill="#326C92" style="mix-blend-mode:multiply" opacity=".3"/><path d="M295.784 443.514c-.523.712-18.757 15.251-25.183 15.971-6.435.72-17.372-1.243-17.95-2.382-.586-1.148-2.018-5.588-1.25-6.292 3.126-2.889 15.765-11.381 22.579-13.074 6.814-1.694 20.791-.111 21.289.467.491.585 1.029 4.598.515 5.31z" fill="#94415D"/><path d="M295.269 438.212c-1.25 2.801-16.762 14.364-24.455 15.733-7.692 1.369-19.405-3.134-19.405-3.134 3.126-2.889 15.765-11.381 22.579-13.074 6.814-1.694 20.791-.111 21.289.467l-.008.008z" fill="#94415D"/><path d="M295.269 438.212c-1.25 2.801-16.762 14.364-24.455 15.733-7.692 1.369-19.405-3.134-19.405-3.134 3.126-2.889 15.765-11.381 22.579-13.074 6.814-1.694 20.791-.111 21.289.467l-.008.008z" fill="#326C92" style="mix-blend-mode:multiply" opacity=".3"/><path d="M291.866 434.066c.293 1.756.507 3.426.451 4.218-.15 2.073-6.774 4.598-7.961 5.785-1.188 1.187-5.247 4.203-7.123 5.445-1.884 1.235-3.269 1.235-3.269 1.235l-4.883.847a10.236 10.236 0 0 1-6.149-.863c-1.575-.76-5.69.245-6.553-.594-.483-.467-.625-1.155-.554-1.939.032-.403.119-.823.253-1.25.562-1.852 1.876-3.846 2.699-4.614 1.385-1.282 17.957-16.074 18.155-16.62.095-.261-.309-6.798-.752-13.557-.475-7.36-1.013-14.982-1.013-14.982l17.807-.198-.997 13.827-1.243 17.3s.665 3.102 1.132 5.96z" fill="#F99293"/><path d="M277.676 427.282c-.649 1.393-17.166 15.077-21.598 19.659.562-1.844 1.876-3.838 2.699-4.606 1.385-1.282 17.957-16.074 18.155-16.62.095-.261-.309-6.798-.752-13.557 0 0 2.192 13.644 1.496 15.124z" fill="#fff"/><path d="m292.974 396.979-.997 13.827c-4.717 1.59-10.676 1.986-15.796 1.353-.475-7.36-1.014-14.982-1.014-14.982l17.807-.198zM292.317 438.284c-.15 2.073-6.774 4.598-7.961 5.785-1.188 1.187-5.247 4.202-7.123 5.445-1.884 1.235-3.269 1.235-3.269 1.235l-4.883.846a10.228 10.228 0 0 1-6.149-.862c-1.575-.76-5.69.245-6.553-.594-.483-.467-.625-1.155-.554-1.939 2.224 1.686 5.904-.728 6.553-1.424.791-.863 3.822 2.303 8.903 1.583 5.081-.729 8.31-6.007 14.111-8.508 3.633-1.575 5.619-3.554 6.474-5.786.293 1.757.507 3.427.451 4.219z" fill="#326C92" style="mix-blend-mode:multiply" opacity=".3"/><path d="m283.152 446.862-.578.34-3.893 2.303s-1.48-4.258-5.065-6.125c-3.578-1.876-9.616-4.393-15.948-.538.159-.238 2.739-4.06 4.068-5.168.42-.349.895-.641 1.409-.887 3.91-1.852 10.289-.744 14.174 1.599 5.738 3.458 5.833 8.476 5.833 8.476z" fill="#94415D"/><path d="M290.473 400.144s-16.873 2.841-35.646 2.817c-1.962 0-3.949-.039-5.935-.111-7.384-.269-14.831-1.06-21.44-2.706l4.931-94.369.862-16.43 2.28-43.6 1.923-36.84 1.583-30.249 17.229-3.276 27.177 6.885 1.298.333 1.567 59.562 4.171 157.984z" fill="#9AC1C4"/><path d="m283.437 182.265-11.831 3.403c-21.029-1.234-29.291 13.067-34.158 23.237l1.583-30.249 17.229-3.276 27.177 6.885zM237.052 319.419c.143 20.91 5.999 68.91 11.84 83.432-7.384-.269-14.831-1.06-21.44-2.706l4.931-94.37c2.817 2.905 4.63 7.258 4.669 13.644zM255.516 400.278c6.862-30.865 4.29-107.965 4.29-107.965s-13.454 5.935-14.048 4.748c-.594-1.187-2.968-6.925-3.759-7.716-.792-.792-8.112 0-8.112 0h-.641l2.279-43.6a1789.527 1789.527 0 0 0 50.778-3.585l4.17 157.984s-16.873 2.841-35.645 2.817c.229-.775.467-1.67.688-2.683z" fill="#326C92" style="mix-blend-mode:multiply" opacity=".3"/><path d="M242.386 178.768s-.015.19-.047.546c-.024.261-.048.601-.087 1.029-.918 10.684-6.347 72.343-10.502 77.361-4.543 5.492-28.096 15.773-28.096 15.773l-.538-.768-12.109-17.261 14.191-8.27s13.153-46.251 15.931-53.832c.047-.135.087-.254.134-.364 2.446-6.308 15.583-14.389 21.123-14.207v-.007z" fill="#C9E8EA"/><path d="M242.252 180.334c-.919 10.684-6.348 72.344-10.503 77.361-4.542 5.493-28.095 15.773-28.095 15.773l-.538-.767c8.8-18.266 16.707-38.416 15.868-42.033-1.179-5.081-2.549-9.117-2.398-11.879.15-2.762 10.605-27.7 17.767-35.638 0 0 3.182-1.187 7.899-2.817z" fill="#326C92" style="mix-blend-mode:multiply" opacity=".3"/><path d="M242.386 178.768s-.015.19-.047.546c-9.782 4.266-17.498 10.375-21.21 14.024.047-.135.087-.254.134-.364 2.446-6.308 15.584-14.388 21.123-14.206z" fill="#fff"/><path d="M249.58 173.798s-1.978 3.166-2.77 9.362a50.357 50.357 0 0 1-.467 2.865c-1.464 7.891-5.318 24.067-6.687 34.103a61.15 61.15 0 0 0-.19 1.464c-1.053 8.99-.61 45.989-1.346 72.28-.182 6.514-.443 12.37-.807 16.976-1.417 17.823-2.991 63.939-3.648 84.405-.198 6.189-.309 10.036-.309 10.036l-18.804-1.464-2.897-.222-5.468-.427s3.426-35.614 4.218-66.741c.174-7.059 1.005-16.185 2.168-26.077a761.077 761.077 0 0 1 2.24-17.214c4.123-29.456 9.616-59.253 9.442-59.594-.238-.483-3.673-12.86-2.351-21.432.127-.807.293-1.582.507-2.31 1.828-6.142 7.281-20.657 12.9-29.077 2.121-3.158 4.25-5.453 6.228-6.142l8.041-.791z" fill="#C9E8EA"/><path d="M249.58 173.798s-1.979 3.166-2.77 9.362a50.357 50.357 0 0 1-.467 2.865 25.845 25.845 0 0 1-11.032-5.294c2.121-3.158 4.249-5.453 6.228-6.142l8.041-.791z" fill="#326C92" style="mix-blend-mode:multiply" opacity=".3"/><path d="M212.573 310.357c-.902 24.796-1.361 71.292-.918 93.246l-5.468-.428s3.426-35.614 4.218-66.74c.174-7.06 1.005-16.185 2.168-26.078z" fill="#fff"/><path d="M233.665 395.253c-.198 6.189-.309 10.036-.309 10.036l-18.804-1.465c3.047-24.304 7.866-78.2 9.046-85.853 1.345-8.761 1.931 49.67 10.067 77.282zM239.656 220.128c-.072.507-.135.99-.19 1.464-1.053 8.991-.61 45.99-1.346 72.281-7.74-.324-16.604-.641-23.307-.728 4.123-29.457 9.616-59.254 9.442-59.594-.238-.483-3.673-12.861-2.351-21.432 3.142 6.411 11.112 7.946 17.752 8.009z" fill="#326C92" style="mix-blend-mode:multiply" opacity=".3"/><path d="M309.602 399.487a35.653 35.653 0 0 1-3.198 1.456 51.291 51.291 0 0 1-3.387 1.227c-8.911 2.881-19.596 3.902-26.758 4.266-4.843.237-8.08.174-8.08.174s-4.219-51.181-5.01-80.203c-.214-7.906-.768-17.886-1.433-28.515-.3-4.629-.617-9.386-.941-14.15-.689-10.178-1.417-20.379-2.003-29.441-.19-2.976-.364-5.833-.522-8.516-.499-8.745-.784-15.757-.641-19.619.53-14.246 9.236-52.764 9.236-52.764s9.228-.657 13.454 1.187c.878.38 2.002.973 3.237 1.67 4.487 2.548 10.431 6.513 10.969 6.877.016.008.024.016.04.024l-.08 1.836-.269 6.395-3.086 72.494s.237 1.203.641 3.3c.411 2.161 1.005 5.271 1.694 8.983 2.136 11.602 5.183 29.116 6.64 42.064 1.749 15.583 9.497 81.255 9.497 81.255z" fill="#C9E8EA"/><path d="M276.259 406.435c2.754-24.55-.554-77.733 1.416-75.541 2.375 2.635 6.071 69.384 13.455 65.949 7.391-3.427-1.053-85.204 2.374-69.906 2.643 11.776 6.537 57.639 9.513 75.232-8.912 2.881-19.596 3.902-26.758 4.266z" fill="#326C92" style="mix-blend-mode:multiply" opacity=".3"/><path d="M309.601 399.487a35.633 35.633 0 0 1-3.197 1.456c-1.306-17.292-6.972-89.066-12.94-124.775 2.137 11.602 5.184 29.116 6.64 42.064 1.749 15.583 9.497 81.255 9.497 81.255z" fill="#fff"/><path d="M292.364 270.28c.317 1.701.689 3.688 1.101 5.888-11.785 6.078-23.316 14.744-31.729 21.724-.197-3.047-.403-6.141-.609-9.267l-.332-4.883c-.459-6.822-.942-13.66-1.385-20.158a1730.337 1730.337 0 0 1-1.14-17.799c6.885-2.984 13.367-7.693 14.531-15.005 2.263-14.278 8.23-30.897 21.415-39.389l-2.516 59.095-.57 13.399s.237 1.203.641 3.3c.166.886.364 1.923.593 3.095z" fill="#326C92" style="mix-blend-mode:multiply" opacity=".3"/><path d="M292.364 270.279c-6.806 5.033-20.007 14.198-31.237 18.345l-.332-4.883c-.459-6.822-.942-13.66-1.385-20.158l32.29-13.098-.57 13.399s.237 1.203.641 3.3c.166.887.364 1.924.593 3.095z" fill="#326C92" style="mix-blend-mode:multiply" opacity=".3"/><path d="m294.564 183.16-.079 1.836c-.277-.301-.562-.57-.847-.815a75.883 75.883 0 0 0-1.693-1.401c-3.53-2.857-8.397-6.513-8.397-6.513h.008c4.487 2.54 10.431 6.505 10.969 6.869.016.008.024.016.039.024z" fill="#fff"/><path d="M238.057 199.298c.332 2.026.578 3.387.578 3.387s-12.362-13.454-14.547-22.753c-2.168-9.299 7.424-32.947 7.424-32.947s.562-1.424 1.377-3.411c1.575-3.854 4.107-9.79 5.35-11.42 1.883-2.477 3.759 9.497 3.759 9.497s-5.936 36.991-5.833 42.436c.064 3.696 1.18 10.937 1.892 15.211z" fill="#9AC1C4"/><path d="M236.165 184.087c.063 3.696 1.179 10.937 1.891 15.211-3.688-5.833-5.991-15.005-6.244-21.843-.301-7.812 2.865-12.267 2.865-19.089 0-5.374-1.907-8.421-1.789-14.792 1.575-3.854 4.108-9.79 5.35-11.42 1.884-2.477 3.76 9.497 3.76 9.497s-5.936 36.991-5.833 42.436z" fill="#326C92" style="mix-blend-mode:multiply" opacity=".3"/><path d="M255.39 126.873c-2.572-2.279-13.589-2.144-16.62 3-3.031 5.144-4.685 15.235-2.833 21.827 1.844 6.593 2.113 8.967-.46 14.048-2.572 5.081-1.582 13.984 5.01 14.182 6.593.198 29.283.728 33.042-1.646 3.759-2.374 3.894-29.544-.855-39.041-4.748-9.497-17.276-12.362-17.276-12.362l-.008-.008z" fill="#94415D"/><path d="M273.521 178.284c-2.153 1.361-10.526 1.764-18.519 1.828a395.261 395.261 0 0 1-14.523-.182c-6.125-.182-7.415-7.883-5.5-13.043a9.65 9.65 0 0 1 .49-1.132c2.573-5.081 2.311-7.455.46-14.047-1.844-6.601-.198-16.692 2.841-21.836 3.031-5.144 14.047-5.271 16.62-2.999 0 0 12.528 2.873 17.276 12.37 4.749 9.497 4.614 36.666.855 39.041z" fill="#326C92" style="mix-blend-mode:multiply" opacity=".3"/><path d="M256.11 174.627c-.404 1.963-.768 3.799-1.108 5.485a395.261 395.261 0 0 1-14.523-.182c-6.125-.182-7.415-7.883-5.5-13.043 1.551 6.553 5.318 8.104 7.542 9.086 2.841 1.258-3.561-4.218-4.02-6.988-.459-2.77 3.197 1.646 4.614 2.176 1.883.696-5.896-2.865-4.519-15.338 1.393-12.457-2.074-13.85 3.371-19.287 5.437-5.437 17.411 22.16 14.143 38.091z" fill="#326C92" style="mix-blend-mode:multiply" opacity=".3"/><path d="M264.435 180.129s-5.12 2.477-9.473 2.477c-4.353 0-6.133-2.177-6.133-2.177v-11.08l13.849-1.883.119.87 1.638 11.793z" fill="#FF8B61"/><path d="M262.797 168.336c-2.073 3.934-6.125 8.579-13.968 10.091v-9.078l13.849-1.883.119.87z" fill="#0C1A3B"/><path d="M267.221 164.497c-1.377 2.873-5.183 4.844-8.848 6.062-2.912.974-5.73 1.465-7.17 1.56-.973.055-2.026-.159-3.087-.586-2.492-1.005-4.985-3.205-6.315-5.849-1.884-3.759-1.884-12.765-1.884-19.983 0-5.746-.253-12.877 5.184-15.544 1.306-.641 2.936-1.028 4.986-1.068.135-.008.269-.008.412-.008 7.122 0 15.527.198 16.817 4.844 1.29 4.653 2.375 25.428-.103 30.572h.008z" fill="#FF8B61"/><path d="M267.222 164.497c-1.377 2.873-5.184 4.844-8.849 6.062 3.997-9.964-1.385-13.58.578-19.579 2.105-6.466 2.438-8.508-3.759-11.943-3.364-1.86-4.709-5.714-5.097-9.948.135-.008.269-.008.412-.008 7.123 0 15.527.198 16.817 4.844 1.29 4.653 2.375 25.428-.102 30.572z" fill="#326C92" style="mix-blend-mode:multiply" opacity=".3"/><path d="M269.501 178.417c-10.4 0-11.262-4.653-9.442-8.586.142-.309.301-.618.475-.911 2.374-4.091 4.218-8.903 2.24-12.599-1.979-3.696-1.52-6.925.459-10.882 1.978-3.957 1.519-6.331-5.999-7.716-4.788-.887-6.071-3.855-6.371-5.897-.032-.174-.048-.348-.064-.514-.063-.886.04-1.504.04-1.504s-.142-.759.514-1.654c.918-1.258 3.404-2.778 10.036-2.833 15.963-.135 17.079 20.577 18.202 34.031 1.124 13.454 1.124 19.065-10.09 19.065z" fill="#94415D"/><path d="M250.997 131.296c-.039.174-.087.349-.134.531-.974 3.339-3.775 7.55-11.745 7.463h-1.353s0-.064.015-.174c.127-1.433 1.441-11.27 13.565-11.27a12.136 12.136 0 0 1-.348 3.45z" fill="#94415D"/><path d="M269.501 178.418c-10.399 0-11.262-4.653-9.442-8.587.008.064.008.135.008.206-.063 5.342 5.738 6.727 4.021 4.622-1.71-2.113-1.908-2.247 1.321-8.049 3.229-5.801 2.77-6.925.926-11.214-1.852-4.282 1.116-7.321 1.116-10.289 0-2.967-2.572-14.688-16.453-13.81-.064 0-.127.008-.198.016-.095 0-.19.008-.293.016-6.434.53-10.36 4.06-12.726 7.787.126-1.432 1.44-11.269 13.565-11.269 0 0 .008.11.008.308.918-1.258 3.403-2.778 10.035-2.833 15.963-.135 17.079 20.577 18.203 34.031 1.123 13.454 1.123 19.065-10.091 19.065z" fill="#326C92" style="mix-blend-mode:multiply" opacity=".3"/><path d="M254.891 153.498a1.804 1.804 0 1 0 3.61 0 1.804 1.804 0 0 0-3.61 0z" fill="#2B2A30"/><path d="M257.637 153.094a.4.4 0 0 1-.451.332.4.4 0 0 1-.333-.451.4.4 0 0 1 .451-.332.4.4 0 0 1 .333.451z" fill="#fff"/><path d="M243.518 153.498c0 .997.807 1.804 1.805 1.804a1.804 1.804 0 1 0-1.805-1.804z" fill="#2B2A30"/><path d="M246.391 153.062a.4.4 0 0 1-.451.332.398.398 0 0 1-.332-.451.398.398 0 0 1 .451-.332.398.398 0 0 1 .332.451z" fill="#fff"/><path d="M260.075 149.414s-3.396-1.551-4.812-1.551c-1.417 0-.958-2.042-.333-2.406.626-.364.792.926.792.926s2.406-2.374 4.353 3.031zM240.882 149.414s3.396-1.551 4.812-1.551c1.417 0 .958-2.042.333-2.406-.626-.364-.792.926-.792.926s-2.406-2.374-4.353 3.031z" fill="#94415D"/><path d="M249.818 164.736s3.102.031 5.904-1.093c2.802-1.123-1.124 5.604-5.904 1.093z" fill="#fff"/><path d="M249.121 155.792s-1.25 2.936-.76 4.416c.491 1.48 2.493.942 3.016.079 0 0-1.52.293-2.058-.332-.459-.53-.428-2.905-.198-4.171v.008z" fill="#2B2A30"/><path d="M287.26 151.693c-1.543 7.091-5.69 14.878-3.886 18.535.127.253.277.491.467.704 1.504 1.702 1.947 3.103 1.963 4.139.016 1.338-.68 2.098-.768 2.185 0 0-9.101-2.367-14.435 5.943-5.35 8.31-12.964 42.967-12.964 42.967s-1.266-29.544 1.71-38.851c2.485-7.804 11.412-26.727 12.156-36.635v-.016c.135-1.876.087-3.443-.214-4.567-1.875-7.027-10.882-18.4-23.244-15.828-12.37 2.572-16.524 16.715-16.524 16.715 2.089-14.531 7.518-22.382 17.245-25.484 4.582-1.456 10.106-1.868 16.691-1.425 20.577 1.393 21.859 17.807 22.349 26.323.095 1.662-.126 3.459-.538 5.295h-.008z" fill="#C9E8EA"/><path d="M285.804 175.071c.016 1.338-.681 2.098-.768 2.185 0 0-9.101-2.367-14.435 5.943-5.35 8.31-12.964 42.966-12.964 42.966s-.008-.15-.015-.435v-.047c.3-9.212 2.136-32.053 2.849-34.997.886-3.656 3.759-13.984 7.225-22.69 3.245-8.16 3.752-16.24 3.799-17.221.008-.064.008-.095.008-.095.736 3.221 1.076 6.806 1.868 10.755 1.48 7.416 8.895-.997 13.153-8.611.293-.514.538-.886.744-1.131-1.543 7.091-5.69 14.878-3.886 18.535-2.413.696-7.423.918-10.312 4.06-2.714 2.96 6.118.562 12.742.783h-.008z" fill="#326C92" style="mix-blend-mode:multiply" opacity=".3"/><path d="M283.841 170.932c3.435 3.91 1.345 6.165 1.195 6.324 1.717-3.902-3.925-5.176-3.997-8.603-.055-2.778 2.802-8.405 4.092-15.631 1.29-7.225 2.082-27.802-15.931-31.063-7.772-1.409-14.879-1.171-20.443-.459 4.583-1.456 10.107-1.868 16.691-1.425 20.577 1.393 21.859 17.807 22.35 26.323.499 8.5-7.518 20.474-3.957 24.534z" fill="#fff"/><path d="M272.208 237.175c-3.103 7.06-12.402 8.381-12.402 8.381s-3.031 8.176-4.883 10.289c-1.844 2.105-5.738 1.978-5.999 2.105-.261.134-22.358 16.818-37.197 19.92-14.839 3.102-31.593 1.781-29.813-16.485.095-.966.269-1.916.507-2.842.126-.506.277-.997.443-1.487 5.287-15.536 29.148-24.06 29.457-24.297.332-.261 4.685-4.812 6.79-5.406 2.113-.593 9.173-1.978 9.173-1.978s2.042-6.601 11.08-9.766c0 0 10.747-6.925 17.933-7.186 6.609-.238 11.753 1.464 13.771 7.305.19.522.348 1.076.475 1.662.419 1.899.878 3.688 1.274 5.413 1.092 4.812 1.67 9.18-.609 14.372z" fill="#ED5451"/><path d="M271.068 215.728c-1.337-1.639-3.466-3.594-6.577-4.733-5.935-2.177-16.358 1.717-18.005 2.968-1.654 1.25-7.518 1.978-10.359 4.02-2.834 2.05-6.925 8.706-6.925 8.706s-.594 0-3.823.467c-3.229.459-7.653 1.385-10.352 5.073-2.706 3.696-6.924 17.348-7.059 16.62-.135-.721 3.229-14.048 3.229-14.048s-6.062 1.258-16.224 9.299c-8.967 7.107-11.966 13.13-12.552 14.443.127-.506.277-.997.443-1.487 5.287-15.536 29.148-24.06 29.457-24.297.332-.261 4.685-4.812 6.79-5.406 2.113-.593 9.173-1.978 9.173-1.978s2.042-6.601 11.08-9.766c0 0 10.747-6.925 17.933-7.186 6.609-.238 11.753 1.464 13.771 7.305z" fill="#fff"/><path d="M272.208 237.176a9.392 9.392 0 0 1-.531 1.045c-3.506 6.149-11.871 7.336-11.871 7.336s-.198.538-.53 1.369c-.95 2.422-2.976 7.345-4.353 8.92-.135.158-.285.3-.443.435-1.963 1.654-5.311 1.551-5.556 1.67-.253.126-20.996 15.789-35.788 19.587l-.016.008c-.467.119-.934.23-1.393.325-3.569.752-7.249 1.242-10.755 1.29-9.584.174-17.871-2.881-19.05-12.702-.182-1.52-.19-3.206 0-5.073.151-1.496.475-2.945.95-4.33 4.994 3.863 13.399-2.303 12.734.333-.689 2.77-6.031 14.942 6.236 14.546 12.267-.396 22.065-4.052 26.513-11.278 4.448-7.225-3.656-13.557 1.187-13.557 4.844 0 19.192-.981 18.203-1.48-.99-.498-16.422-5.642-11.571-5.935 4.844-.293 15.829 1.978 23.933-.198 5.943-1.591 11.088-8.532 12.718-16.683 1.092 4.812 1.67 9.18-.609 14.372h-.008z" fill="#2B2A30" style="mix-blend-mode:multiply" opacity=".3"/><path d="M222.474 238.236c-3.363-2.152 23.086 9.498 30.011 10.487 0 0-17.348-2.374-30.011-10.487zM217.299 253.416c-3.752-1.369 24.597 4.218 31.578 3.672 0 0-17.443 1.472-31.578-3.672zM199.729 260.864c-3.632-1.654 24.202 6.125 31.19 6.117 0 0-17.506.111-31.19-6.117z" fill="#2B2A30" style="mix-blend-mode:multiply" opacity=".3"/><path d="M200.972 279.16c-9.584.174-17.87-2.88-19.05-12.702 3.799 5.492 10.692 11.428 19.05 12.702zM254.48 256.28c-1.963 1.654-5.311 1.551-5.556 1.67-.253.126-20.997 15.789-35.788 19.588a29.59 29.59 0 0 0 2.35-1.156c16.517-9.101 18.535-20.609 20.641-22.453 1.851-1.622 10.62 2.09 18.353 2.351zM271.677 238.221c-3.506 6.149-11.871 7.336-11.871 7.336s-.198.538-.53 1.369c-5.287-1.519-13.922-4.036-7.487-3.632 7.194.451 15.789-1.108 19.888-5.073z" fill="#326C92" style="mix-blend-mode:multiply" opacity=".3"/><path d="M262.639 222.138a30.317 30.317 0 0 1-.111 1.868c-.546 5.936-4.55 11.919-12.322 12.71-6.466.657-10.328-2.216-11.634-5.88a8.398 8.398 0 0 1-.483-2.279 13.095 13.095 0 0 1-.016-1.457c.214-4.218 2.683-8.507 7.337-9.924 5.192-1.583 6.379-5.651 11.523-5.144a6.108 6.108 0 0 1 1.686.403c3.165 1.29 4.155 5.232 4.02 9.703z" fill="#F99293"/><path d="M258.619 212.435c-4.583-.324-6.751 2.177-8.287 3.356-1.804 1.385-5.46 1.86-8.729 4.725-1.804 1.583-2.905 4.384-3.53 6.584.214-4.218 2.683-8.507 7.337-9.924 5.191-1.583 6.379-5.651 11.523-5.144a6.108 6.108 0 0 1 1.686.403z" fill="#fff"/><path d="M262.639 222.138a30.286 30.286 0 0 1-.111 1.867c-.546 5.936-4.551 11.919-12.322 12.711-6.466.657-10.328-2.216-11.634-5.881 7.059 6.783 20.727-.269 24.067-8.697z" fill="#F06E76"/><path d="M261.46 212.823c-.142 1.488.348 3.245.348 3.245s-3.086.341-4.107-2.327c0 0-.309-1.06.403-2.223.293-.475.752-.966 1.48-1.409 2.493-1.536 4.076.712 4.076.712s-2.05.522-2.2 2.002z" fill="#94415D"/><path d="M261.46 212.824c-.142 1.487.348 3.244.348 3.244s-3.086.341-4.107-2.326c0 0-.309-1.061.403-2.224-.142 1.994 1.29 2.841 1.37 2.881-.032-.119-.293-1.101.356-2.486 0 0 .126 1.924.641 2.517.522.594-.839-3.482 3.189-3.609 0 0-2.05.523-2.2 2.003z" fill="#326C92" style="mix-blend-mode:multiply" opacity=".3"/><path d="M251.742 215.696s1.408.546 1.907.95c.491.412.419.879.419.879s.285-.483.531-.214c.245.269-.348.878-.768.95-.419.071-1.235-1.536-2.089-2.573v.008zM248.971 217.787s-.079.253-.079.586c0 .356.079.839.42 1.29.34.451.918.831 1.812 1.021a.392.392 0 0 0 .467-.309.392.392 0 0 0-.309-.467c-.76-.166-1.132-.443-1.345-.72a1.351 1.351 0 0 1-.261-.815c0-.111.015-.206.023-.269l.016-.072v-.015l-.047-.016.047.016-.047-.016.047.016a.395.395 0 0 0-.261-.491.396.396 0 0 0-.491.261h.008zM249.794 222.417s-.253-.206-.617-.404c-.364-.198-.863-.411-1.417-.411-.379 0-.791.11-1.139.403-.412.333-.61.807-.602 1.259 0 .538.238 1.044.602 1.44.364.388.854.681 1.424.704a.392.392 0 0 0 .412-.38.392.392 0 0 0-.38-.411c-.309-.008-.633-.182-.871-.451-.245-.261-.395-.61-.387-.902 0-.246.079-.452.308-.641a.93.93 0 0 1 .641-.222c.341 0 .736.15 1.037.316.15.08.277.167.364.23l.103.071.024.016a.39.39 0 0 0 .554-.047.385.385 0 0 0-.056-.554v-.016zM248.18 228.439c-1.654-.744-2.691-1.813-3.308-2.699a7.142 7.142 0 0 1-.641-1.116 4.145 4.145 0 0 1-.135-.324l-.032-.087v-.024c-.071-.206-.292-.333-.498-.269a.399.399 0 0 0-.269.49c.008.032.245.8.926 1.781.68.974 1.828 2.153 3.632 2.968.198.087.436 0 .523-.198a.397.397 0 0 0-.198-.522zM256.015 225.123l.024.143-.024-.143.024.143-.024-.143s-.063.008-.166.008c-.206 0-.562-.047-.855-.269-.293-.221-.594-.625-.673-1.527a.397.397 0 0 0-.791.063c.087 1.053.491 1.725.989 2.09a2.24 2.24 0 0 0 1.33.427c.166 0 .277-.016.293-.024a.396.396 0 0 0 .324-.459.395.395 0 0 0-.459-.324l.008.015zM258.555 223.421s-.364-1.464-.712-2.01c-.34-.538-.815-.522-.815-.522s.514-.222.277-.499-.918.237-1.037.641c-.126.412 1.369 1.417 2.295 2.39h-.008z" fill="#2B2A30"/><path d="M301.814 219.168c0 6.767-1.068 16.177-2.255 24.542-.048.317-.087.626-.135.934a506.468 506.468 0 0 1-2.881 17.657c-.189 1.053-1.931 2.786-4.772 4.883-6.41 4.772-18.456 11.452-30.976 16.557a153.642 153.642 0 0 1-7.067 2.683 111.352 111.352 0 0 1-7.376 2.326s-4.891-5.603-6.086-15.274a34.902 34.902 0 0 1-.198-6.458c.055-.926.15-1.884.285-2.865l5.437-2.905 13.003-6.948 14.134-7.558s5.113-31.428 7.78-45.452c.008-.023.008-.039.016-.063.293-1.559.554-2.897.783-3.949 1.773-8.366 6.704-13.747 10.439-14.499.966-.198 1.852-.087 2.58.356.016.008.024.016.04.024 8.824 5.556 7.249 22.16 7.249 36.009z" fill="#C9E8EA"/><path d="M301.814 219.168c0 6.767-1.068 16.177-2.255 24.542-.048.317-.087.626-.135.934-.071-.008-.111-.015-.111-.015s2.24-28.294 1.449-39.769c-.72-10.495-3.269-16.691-6.276-19.865-.277-.301-.562-.57-.847-.815a76.079 76.079 0 0 0-1.694-1.401c.966-.198 1.852-.087 2.58.356.016.008.024.016.04.024 8.824 5.556 7.249 22.16 7.249 36.009z" fill="#fff"/><path d="M253.728 286.423a110.782 110.782 0 0 1-7.376 2.327s-8.112-9.299-5.999-24.597l5.437-2.905c3.229 3.712 8.326 14.151 7.938 25.175z" fill="#9AD7D6"/><path d="M299.559 243.71a509.247 509.247 0 0 1-3.015 18.59c-.705 3.878-22.413 16.976-42.816 24.123a111.372 111.372 0 0 1-7.376 2.327s-4.891-5.603-6.086-15.275c13.667-2.825 44.264-6.996 46.052-8.468 2.272-1.876-18.305-.498-24.241-1.084-5.935-.602 20.878-4.788 25.492-6.632 3.047-1.219 8.223-4.962 11.99-13.581z" fill="#326C92" style="mix-blend-mode:multiply" opacity=".3"/><path d="M280.707 201.29c-2.184 15.828-5.69 46.449-6.323 46.765-.784.396-34.166 18.963-34.316 18.963.055-.926.15-1.884.285-2.865l5.437-2.905 27.138-14.507s5.112-31.427 7.779-45.451z" fill="#fff"/><path d="M246.352 288.75s-2.62-3.008-4.496-8.421c-1.211-3.49-2.113-7.985-1.788-13.312.055-.926.15-1.883.285-2.865 0 0 .633.998 1.487 2.865 1.203 2.636 2.85 6.996 3.783 12.726.444 2.707.729 5.722.729 9.007z" fill="#0C1A3B"/><path d="M245.623 279.745c-1.084.19-2.849.483-3.767.586a4.441 4.441 0 0 1-.514.047c-.728 0-17.412 5.603-19.525 5.208-2.113-.396-3.102-1.844-5.476-2.573-2.375-.728-5.01-2.706-5.01-2.706s-2.509-.261-4.487-.989c-1.148-.42-2.114-1.346-2.43-2.201-.23-.617-.119-1.187.522-1.487 1.512-.729 8.508.063 11.998-1.124 3.387-1.148 8.263-3.411 8.563-3.554 0-.008.016-.008.016-.008s-5.54.459-7.518.198c-1.211-.158-2.169-1.084-2.09-1.963.032-.356.238-.704.673-.997.245-.158.554-.293.95-.403.38-.103.807-.238 1.274-.38 2.999-.926 7.408-2.454 8.951-2.454 1.219 0 6.949 1.053 10.447 1.718.752.142 1.393.261 1.867.356.554.103.879.166.879.166l.894-.166c1.203 2.635 2.849 6.996 3.783 12.726z" fill="#FF8B61"/><path d="m227.524 269.844-2.011 1.1s-5.54.459-7.518.197c-1.211-.158-2.169-1.084-2.09-1.962 2.731 1.772 11.057.854 11.619.665z" fill="#326C92" style="mix-blend-mode:multiply" opacity=".3"/><path d="M245.623 279.745c-1.084.19-2.849.483-3.767.586a4.207 4.207 0 0 1-.514.047c-.728 0-17.411 5.604-19.525 5.208-2.113-.396-3.102-1.844-5.476-2.572s-5.01-2.707-5.01-2.707-2.509-.261-4.487-.989c-1.148-.42-2.113-1.345-2.43-2.2 1.725 1.915 6.79 1.765 10.281 2.184 3.711.451 15.234 3.664 20.727-2.026 4.543-4.709 1.876-7.724 2.778-10.613.752.143 1.393.261 1.868.356.554.103.878.166.878.166l.894-.166c1.203 2.636 2.85 6.996 3.783 12.726z" fill="#326C92" style="mix-blend-mode:multiply" opacity=".3"/><path d="M212.985 280.347s6.03.696 10.154.823c0 0-6.102.427-10.154-.823zM217.132 282.633s6.07.237 10.193.055c0 0-6.054.887-10.193-.055z" fill="#0C1A3B"/><path d="M219.166 269.281s-2.034.396-2.097.309c-.056-.072-.562-.673-.491-1.409.245-.158.554-.293.95-.404.38-.103.807-.237 1.274-.38-.087.895.364 1.884.364 1.884z" fill="#FFA88D"/><path d="M159.549 265.684c-2.121 12.718-8.587 17.996-8.587 17.996a128.85 128.85 0 0 1-5.429-2.714c-19.976-10.573-45.254-29.845-45.087-39.888.047-3.34.063-5.492.174-7.281.269-4.076 1.108-6.197 4.384-16.089 2.454-7.408 5.825-16.478 9.26-23.727 3.15-6.664 6.339-11.777 8.872-12.615 7.083-2.335 13.367.854 12.275 9.726-.056.475-.143.997-.246 1.575-.49 2.659-1.464 6.363-2.635 10.391-3.34 11.5-8.302 25.658-8.302 25.658s4.828 3.625 12.18 11.302c4.582 4.78 12.678 9.821 18.139 12.955 3.316 1.9 5.667 3.103 5.667 3.103.008.388.016.767.008 1.147a49.023 49.023 0 0 1-.673 8.453v.008z" fill="#F4C95E"/><path d="M135.41 191.092c-.055.475-.142.997-.245 1.575-4.028.324-9.307-.412-13.161-.253-2.454.103-5.224.775-7.74 1.567 3.15-6.664 6.339-11.777 8.872-12.615 7.083-2.335 13.367.854 12.274 9.726z" fill="#326C92" style="mix-blend-mode:multiply" opacity=".3"/><path d="M150.962 283.681a128.905 128.905 0 0 1-5.429-2.715c-1.765-16.43 5.603-24.977 9.014-27.985 3.317 1.9 5.667 3.103 5.667 3.103.412 19.706-9.26 27.597-9.26 27.597h.008z" fill="#B56E10"/><path d="M159.549 265.684c-2.121 12.718-8.587 17.997-8.587 17.997a128.85 128.85 0 0 1-5.429-2.714c-19.976-10.574-45.254-29.845-45.087-39.888.047-3.34.063-5.493.174-7.281 6.426 11.096 28.72 13.074 31.957 13.921 3.926 1.021-14.728 2.271-15.353 3.332-.641 1.06 14.206 4.25 22.666 5.817 5.303.989 13.708 5.381 19.651 8.808l.008.008z" fill="#2B2A30" style="mix-blend-mode:multiply" opacity=".1"/><path d="M160.222 257.231c-4.44-1.1-10.851-3.719-15.148-7.107-6.553-5.183-10.993-9.877-15.409-13.984-4.416-4.108-5.983-6.047-7.74-6.656-1.765-.609-4.369-1.282-4.693-1.741-.333-.451 4.653-.237 5.049-.222.277.008 6.046-14.245 10.241-24.455-3.34 11.5-8.302 25.658-8.302 25.658s4.828 3.625 12.18 11.302c4.582 4.78 12.679 9.821 18.139 12.955 3.316 1.9 5.667 3.103 5.667 3.103.008.388.016.767.008 1.147h.008z" fill="#fff"/><path d="M158.148 271.533c-2.73 8.507-7.186 12.148-7.186 12.148-.38-5.176.159-9.6 1.14-13.288 1.543-5.872 4.21-9.901 6.062-12.148 1.195-1.449 2.05-2.161 2.05-2.161 0 .499.016.989 0 1.472-.016 5.643-.878 10.273-2.073 13.977h.007z" fill="#326C92" style="mix-blend-mode:multiply" opacity=".3"/><path d="M193.208 259.415c-.221 1.005-1.361 2.366-3.118 2.968 0 0 .665 2.596-2.002 4.289 0 0 .206 2.675-2.509 3.87 0 0-.229 1.868-2.398 2.62-.443.15-.973.325-1.575.507-2.366.728-5.73 1.575-7.922 1.709-2.16.135-11.594-2.651-15.535-3.846l-1.742-.538-4.305-.61c1.543-5.872 4.21-9.9 6.062-12.148l.768-.158.728-.151s.032-.024.095-.063c.095-.071.261-.182.467-.325 1.876-1.258 7.835-5.239 9.078-5.547 1.377-.357 8.935-.27 10.225-.056a.736.736 0 0 1 .166.048c.111.055.087.229-.032.482-.419.831-1.954 2.43-3.102 2.715-1.504.38-4.25.546-4.25.546s-.688.997-.902 2.208c-.016.111.055.214.221.317.167.11.428.205.76.293h.016c2.762.736 10.542.941 12.663.617 2.619-.404 5.136-.815 7.194-.942.847-.047 1.139.475.965 1.187l-.016.008z" fill="#FF8B61"/><path d="M181.598 273.669c-2.366.728-5.729 1.575-7.922 1.71-2.16.134-11.594-2.652-15.535-3.847l-1.741-.538-4.306-.609c1.544-5.873 4.211-9.901 6.063-12.149l.767-.158c-.593 3.744.396 7.384 2.644 10.209 2.231 2.81 10.581 5.77 20.023 5.374l.007.008zM176.541 255.189c-1.504.38-4.25.546-4.25.546s-.688.997-.902 2.208c-.016.111.055.214.222.317-3.008-.523-3.926-2.446-3.285-2.928.728-.554 1.274-.602 4.947-1.085 2.722-.356 5.167-1.211 6.236-2.295a.736.736 0 0 1 .166.048c.491.245-1.646 2.817-3.142 3.197l.008-.008z" fill="#326C92" style="mix-blend-mode:multiply" opacity=".3"/><path d="M185.159 270.432s-2.572.902-9.085 1.211c0 0 5.413.846 9.085-1.211zM186.339 266.609s-2.604.808-9.117.879c0 0 5.381 1.045 9.117-.879zM188.262 262.438s-2.604.816-9.117.911c0 0 5.382 1.021 9.117-.911z" fill="#0C1A3B"/><path d="M193.209 259.415c-.167-.443-.626-.689-1.583-.515-3.293.578-8.231 1.338-13.241 1.069-3.134-.174-5.025-.895-5.999-1.417 2.762.736 10.542.942 12.663.617 2.62-.403 5.136-.815 7.194-.941.847-.048 1.14.474.966 1.187zM179.652 252.474c-2.731.19-9.11-.182-10.043.103-.998.309-8.864 4.749-9.854 5.303.095-.072.262-.183.467-.325 1.876-1.258 7.835-5.239 9.078-5.548 1.377-.356 8.935-.269 10.225-.055a.73.73 0 0 1 .166.047c.111.056.087.23-.031.483l-.008-.008z" fill="#fff"/><path d="M180.823 156.569c-.261 1.987-1.274 5.382-3.688 8.112-2.501 2.857-6.522 4.994-12.766 4.06a23.976 23.976 0 0 1-4.171-.997c-9.259-3.134-13.383-11.159-13.826-16.034-.506-5.54 2.889-21.812 6.395-27.945 3.126-5.485 24.431-6.957 29.488 3.221.594 1.187.958 2.548 1.053 4.076 0 0-.143 1.543-.356 3.878-.586 6.37-1.734 18.653-2.121 21.629h-.008z" fill="#FF8B61"/><path d="M182.247 126.993a93.303 93.303 0 0 1-7.55 1.322c-1.994 4.947-11.19 6.601-14.142 6.537-2.636-.063-7.685 20.577-.364 32.908-9.26-3.134-13.383-11.159-13.827-16.035-.506-5.54 2.889-21.811 6.395-27.945 3.126-5.484 24.431-6.956 29.488 3.221v-.008z" fill="#326C92" style="mix-blend-mode:multiply" opacity=".3"/><path d="M180.324 170.798s.356 2.707-2.596 3.221c-.301.056-.633.08-1.005.088 0 0-.008 1.487-.973 2.667-.839 1.021-2.383 1.804-5.232 1.25 0 0-1.305 2.794-7.273 2.192-5.967-.593-6.45-4.329-6.45-4.329s-3.664.079-5.643-2.057c-1.97-2.145-1.385-4.535-1.385-4.535s-3.822-2.161-3.901-5.311c-.087-3.15.451-4.258.451-4.258s-2.351-1.82-2.034-7.178c.316-5.342 2.635-9.98 2.635-9.98s1.48 4.432 3.467 6.237c1.978 1.812 2.469 1.741 2.524 5.848 0 .728.182 1.338.475 1.844.055.087.111.167.166.246 1.52 2.168 5.366 2.326 7.139 1.472l2.002-1.512 6.11.91s1.092 3.34 4.772 3.926c1.116.182 2.05.15 2.841-.048 1.813-.427 2.834-1.725 3.34-3.245.451-1.361.997-3.411 1.338-4.748.206-.799.34-1.353.34-1.353s2.992 5.429.261 10.122c0 0 1.401 4.495-1.377 8.516l.008.015z" fill="#94415D"/><path d="M173.463 164.927c-3.989.538-8.445-6.007-8.445-6.007s-4.764 3.672-10.019 2.659c-5.255-1.005-3.664-6.458-3.664-6.458s.657.926 2.057 1.369c.056.087.111.166.167.246 1.519 2.168 5.365 2.326 7.138 1.472l2.002-1.512 6.11.91s1.092 3.34 4.772 3.926c1.116.182 2.05.15 2.842-.048a2.254 2.254 0 0 0 1.337-.538s-.316 3.419-4.297 3.957v.024z" fill="#326C92" style="mix-blend-mode:multiply" opacity=".4"/><path d="M175.75 176.774c-.839 1.021-2.383 1.804-5.232 1.25 0 0-1.305 2.794-7.273 2.192-5.967-.593-6.45-4.329-6.45-4.329s-3.664.079-5.643-2.057c-1.97-2.145-1.385-4.535-1.385-4.535s-3.822-2.161-3.901-5.311c-.087-3.15.451-4.258.451-4.258s-2.351-1.82-2.034-7.178c.316-5.342 2.635-9.98 2.635-9.98s1.48 4.432 3.467 6.237c1.978 1.812 2.469 1.741 2.524 5.848 0 .847.253 1.536.649 2.09-.047 4.25 2.612 7.035 2.612 7.035s-.91 3.467 1.14 5.715c2.049 2.247 4.764 1.495 4.764 1.495s.894 2.042 3.094 2.343c2.145.293 4.045-1.496 4.045-1.496s3.181 4.424 6.545 4.947l-.008-.008z" fill="#326C92" style="mix-blend-mode:multiply" opacity=".3"/><path d="M161.955 156.22c-.071.056.483 3.427 3.499 3.878 3.007.451 4.4-2.754 4.4-2.754s-7.851-1.155-7.899-1.124z" fill="#2B2A30"/><path d="M178.575 160.353c-.396 1.052-1.424 2.659-4.052 3.015-3.989.538-8.452-5.999-8.452-5.999s-4.757 3.664-10.012 2.651c-4.653-.894-3.941-5.27-3.712-6.252.024-.126.048-.198.048-.198.127.175 1.306 1.615 3.664 1.599 2.493-.008 4.005-2.366 6.933-3.007s4.076 1.567 4.076 1.567.886-.998 2.58-.847c1.702.142 2.493 1.369 3.261 3.617.775 2.255 4.012 4.511 5.904 2.904 0 0-.032.404-.246.95h.008z" fill="#94415D"/><path d="M178.575 160.353c-.396 1.053-1.424 2.659-4.052 3.015-3.989.539-8.452-5.998-8.452-5.998s-4.757 3.664-10.012 2.651c-4.653-.895-3.941-5.271-3.712-6.252.285 1.203 1.188 3.498 3.871 3.727 3.616.317 6.632-1.147 6.632-1.147s-3.475.285-3.673.308c-.197.024 2.106-1.314 3.831-1.701 1.717-.38 3.704 1.416 3.704 1.416s1.258-.451 2.39-.087c1.14.364 2.596 2.074 2.596 2.074l-2.303-.736s1.029 2.604 3.83 3.68c2.343.918 4.306.174 5.358-.958l-.008.008z" fill="#326C92" style="mix-blend-mode:multiply" opacity=".3"/><path d="M163.72 144.396a2.006 2.006 0 0 1-2.272 1.686 2.006 2.006 0 0 1-1.685-2.272 2.004 2.004 0 0 1 2.271-1.685 2.006 2.006 0 0 1 1.686 2.271z" fill="#2B2A30"/><path d="M163.063 143.746a.4.4 0 0 1-.451.333.4.4 0 0 1-.332-.451.4.4 0 0 1 .451-.333.4.4 0 0 1 .332.451z" fill="#fff"/><path d="M176.193 146.263a2.006 2.006 0 0 1-2.271 1.686 2.001 2.001 0 0 1-1.686-2.272 2.004 2.004 0 0 1 2.271-1.685 2.006 2.006 0 0 1 1.686 2.271z" fill="#2B2A30"/><path d="M175.528 145.432a.398.398 0 0 1-.451.332.4.4 0 0 1-.332-.451.399.399 0 0 1 .451-.332.398.398 0 0 1 .332.451z" fill="#fff"/><path d="M168.967 144.602s.942 4.835-.744 9.204c0 0-1.701.483-3.593-1.908l2.992.8s1.282-3.372 1.345-8.096z" fill="#2B2A30"/><path d="M158.71 139.077s3.981-1.14 5.532-.91c1.552.229 1.385-2.082.76-2.588-.625-.499-1.021.886-1.021.886s-2.247-2.999-5.271 2.612zM179.754 142.218s-3.466-2.255-5.025-2.485c-1.551-.229-.712-2.398.032-2.691.744-.292.72 1.14.72 1.14s3.031-2.208 4.273 4.036z" fill="#94415D"/><path d="M186.181 134.401c-1.362 2.864-5.216 3.347-7.25.918-1.131-1.338-1.701-2.683-1.701-2.683a3.538 3.538 0 0 1-1.559-.317c-1.552-.657-2.454-2.168-2.454-2.168s-2.224 2.991-6.3 3.221c-4.075.213-6.806-3.403-6.806-3.403-3.134 7.621-13.216 7.953-13.367 7.811 0 0 .032-9.465 5.144-16.636 2.905-4.068 10.162-6.252 17.119-5.975 5.287.222 10.407 1.876 13.327 5.2 5.572 6.363 5.24 11.08 3.847 14.024v.008z" fill="#94415D"/><path d="M175.671 132.319c-1.552-.657-2.454-2.168-2.454-2.168s-2.224 2.991-6.3 3.221c-4.075.213-6.806-3.403-6.806-3.403-3.134 7.621-13.216 7.953-13.367 7.811 0 0 .032-9.465 5.144-16.636 2.905-4.068 10.162-6.252 17.119-5.975.285 3.498.119 7.17.119 7.17-5.509 3.459-1.583 8.112 1.179 7.669 2.762-.427 3.561-1.567 3.561-1.567s-.016 1.812 1.805 3.878z" fill="#326C92" style="mix-blend-mode:multiply" opacity=".3"/><path d="m127.457 187.126 2.438-7.787-5.05.024-2.184 3.498 4.796 4.265z" fill="#B56E10"/><path d="M189.172 154.124s-.451-2.524-1.1-5.999c-1.385-7.423-3.664-19.184-4.408-19.952-1.092-1.123-17.008-3.87-22.627-3.379a1.909 1.909 0 0 0-.712.206c-5.532 2.517-12.679 27.969-14.507 38.321-1.219 6.893-1.947 15.456-2.311 20.727a273.851 273.851 0 0 0-.301 4.938l-.221-.079-17.602-6.474 2.066 4.693s-10.842-3.838-14.024-4.091c-3.173-.253-5.342.142-5.342.142s1.662-1.828 3.783-4.25c3.079-3.506 7.131-8.246 8.508-10.438 2.327-3.696 12.908-23.237 14.934-27.368 2.018-4.131 3.221-12.156 5.207-17.031.776-1.923 2.604-4.25 5.058-6.442a34.13 34.13 0 0 1 5.595-4.053s0-.007.008 0c2.738-1.582 5.746-2.801 8.761-3.3 8.714-1.432 24.083 2.754 27.193 8.651 1.741 3.292 3.767 9.465 3.126 22.959v.023c-.166 3.53-.514 7.582-1.1 12.204l.016-.008z" fill="#F4C95E"/><path d="M188.072 148.118c-1.385-7.424-3.664-19.184-4.408-19.952-1.092-1.124-17.008-3.87-22.627-3.379a1.92 1.92 0 0 0-.712.205l.221-.427s2.011-1.029 11.555-.19c9.56.831 12.291 2.351 12.948 3.403.459.76 2.065 13.027 3.015 20.34h.008z" fill="#326C92" style="mix-blend-mode:multiply" opacity=".3"/><path d="m125.383 182.434 2.066 4.693s-10.842-3.839-14.024-4.092c-3.173-.253-5.342.143-5.342.143s1.662-1.829 3.783-4.25c1.377.126 2.81.269 3.672.372 2.018.245 9.845 3.142 9.845 3.142v-.008z" fill="#B56E10"/><path d="m126.737 178.033 6.331-19.92-11.863 26.924 6.252 2.09-2.073-4.693 1.353-4.401z" fill="#326C92" style="mix-blend-mode:multiply" opacity=".3"/><path d="M190.264 141.897c-1.155-12.283-4.012-21.456-6.228-23.648-2.897-2.873-13.723-6.814-20.648-6.521-4.646.206-9.505 1.211-12.196 1.86 2.738-1.583 5.746-2.802 8.761-3.301 8.713-1.432 24.083 2.755 27.193 8.651 1.741 3.292 3.767 9.465 3.126 22.959h-.008z" fill="#fff"/><path d="m143.198 188.986-17.815-6.545 1.354-4.4 16.77 6.007a273.851 273.851 0 0 0-.301 4.938h-.008z" fill="#B56E10"/><path d="m125.383 182.433 2.066 4.693s-10.842-3.838-14.024-4.091c-3.173-.254-5.342.142-5.342.142s1.662-1.828 3.783-4.25c3.079-3.506 7.131-8.246 8.508-10.439 2.327-3.696 12.908-23.236 14.934-27.367 2.018-4.131 3.221-12.156 5.207-17.031.776-1.924 2.604-4.25 5.058-6.443-5.121 15.037-7.701 36.627-8.136 41.313-.459 5.104 6.711-14.23 8.159-17.997 1.433-3.728-8.262 32.329-2.627 47.944l-17.601-6.474h.015z" fill="#2B2A30" style="mix-blend-mode:multiply" opacity=".1"/><path d="M190.249 126.892c0 .063 0 .135-.016.198-.111.783-.902 1.345-1.718 1.092-4.091-1.243-13.707-3.878-22.231-4.107-8.895-.238-20.165-.032-24.399.055a1.351 1.351 0 0 1-1.354-1.638l.087-.364v-.048a1.357 1.357 0 0 1 1.338-1.06c4.028.047 18.108.229 26.109.482 7.962.254 18.274 3.206 21.234 4.1.506.15.87.586.942 1.108v.182h.008z" fill="#B56E10"/><path d="M190.233 127.09c-.111.784-.902 1.346-1.718 1.092-4.091-1.242-13.707-3.878-22.231-4.107-8.895-.238-20.165-.032-24.399.055a1.351 1.351 0 0 1-1.354-1.638l.087-.364c2.549 1.108 8.682 1.1 14.04 1.06 6.775-.055 13.059.048 16.478.444 3.411.395 14.586 2.77 17.506 3.411.72.158 1.235.15 1.591.047z" fill="#326C92" style="mix-blend-mode:multiply" opacity=".3"/><path d="m183.102 397.438-26.98 51.434a3.026 3.026 0 0 1-2.675 1.615c-.285 0-.578-.04-.831-.119a3.009 3.009 0 0 1-2.002-3.894l16.018-45.578.174-.49 2.382-6.791 13.914 3.823zM241.319 449.221a2.955 2.955 0 0 1-1.828 1.203 3.029 3.029 0 0 1-3.293-1.552l-26.979-51.434 13.913-3.823 1.417 4.044.933 2.652 16.225 46.163c.34.982.158 1.987-.388 2.747z" fill="#F4C95E"/><path d="m169.189 393.615 13.921 3.823-26.988 51.434a3.023 3.023 0 0 1-2.667 1.615c-.293 0-.578-.04-.839-.119 4.029-12.156 21.289-44.755 21.289-45.578 0-.562-3.909-2.406-7.273-3.894l2.557-7.281z" fill="#2B2A30" style="mix-blend-mode:multiply" opacity=".3"/><path d="m166.632 400.897.174-.491-15.559 49.124a3.009 3.009 0 0 1-.633-3.055l16.018-45.578z" fill="#fff"/><path d="M239.491 450.424a3.023 3.023 0 0 1-3.285-1.552l-26.979-51.434 13.913-3.823 2.35 6.696c-2.461 1.393-5.223 2.532-5.777 3.292-.681.934 14.222 34.213 19.778 46.821z" fill="#2B2A30" style="mix-blend-mode:multiply" opacity=".3"/><path d="m241.319 449.22-16.771-51.561.934 2.651 16.224 46.164a2.988 2.988 0 0 1-.387 2.746z" fill="#fff"/><path d="M256.411 355.627c0 1.686-.111 3.356-.332 5.002-.713 5.334-2.565 10.407-5.35 15.068-9.616 16.082-30.431 27.217-54.569 27.217s-45.641-11.507-55.035-28.024a40.042 40.042 0 0 1-3.214-7.17 37.603 37.603 0 0 1-1.994-12.093h120.494z" fill="#ED5451"/><path d="M256.411 355.627c0 1.686-.111 3.356-.332 5.002-3.633 1.962-9.363 3.442-9.363 3.442s-6.593 6.332-11.341 6.063c-4.749-.261-17.807-2.501-20.055-2.24-2.239.261-13.58 2.24-19.785 1.979-6.197-.262-8.31-1.844-9.624-1.844s-3.696 6.062-6.466 6.062-11.08-1.314-11.871-3.292c-.792-1.979-.792-4.488-.792-4.488s-6.07 2.509-10.154 2.374c-4.091-.134-9.766-3.031-10.818-3.3-.649-.158-4.749 1.243-7.899 2.335a37.603 37.603 0 0 1-1.994-12.093h120.494zM250.729 375.698c-9.616 16.082-30.431 27.217-54.569 27.217s-45.641-11.507-55.035-28.024c6.442 4.693 24.399 16.089 47.421 16.612 22.975.522 49.828-5.066 62.183-15.805z" fill="#2B2A30" style="mix-blend-mode:multiply" opacity=".3"/><path d="M267.444 344.026c-.38 1.464-1.195 3.466-2.335 4.218 0 0-.665 1.449-3.166 3.103 0 0-.862 3.624-4.55 5.864 0 0-4.622 3.166-9.038 3.696-4.416.53-6.988.459-6.988.459s.063.926-.467 1.654c-.523.72-10.352 1.71-11.8 1.512-1.457-.198-5.216-4.021-5.216-4.021s-7.716 1.053-8.508 1.053c-.791 0-5.468 3.83-6.988 4.55-1.52.729-3.166-4.352-3.166-4.352l-3.696.791s0 2.509-.593 2.77c-.594.269-4.48.594-4.947.53-.459-.063-1.448-2.311-1.448-2.311l-5.01 1.259s-2.841 2.303-3.83 2.374c-.989.063-2.635-10.36-2.635-10.621-.167.34-2.581 9.45-2.834 9.83-.269.395-5.738.063-6.205-.072-.459-.126.333-4.281.333-4.281l-5.342-1.915s-.792 1.915-1.251 1.978c-.467.063-2.572.063-2.572.063s-1.385 1.718-2.113 1.916c-.728.197-3.894.791-6.07.459-2.177-.325-2.968-.792-2.968-.792s-3.031.53-5.271.396c-2.247-.127-6.727-2.897-6.727-2.897l2.833-4.819-4.811 3.893s-4.749.855-8.579-.854c-3.823-1.718-5.604-4.353-5.604-4.353s-1.25-4.622-1.25-4.947c0-.324 1.844-2.706 1.844-2.706l-1.187-.728s1.321-4.614 5.935-7.186c0 0 2.509-4.551 3.229-5.802.728-1.258 6.268.657 6.268.657s.277-.411.689-.989c.847-1.171 2.256-3.007 3.007-3.363 1.116-.531 3.957.925 3.957.925s1.583-1.654 3.562-2.445c1.978-.791 5.01.53 5.01.53s2.833-2.239 5.081-3.561c2.239-1.322 9.623.134 9.623.134s.792-.664 2.509-1.123c1.717-.459 7.519 2.706 7.519 2.706s5.278.064 6.07.523c.791.466 2.042 1.321 2.042 1.321s.593-1.583 2.706-2.042c2.105-.467 2.699 2.968 2.699 2.968s3.364-1.519 6.798-1.654c3.427-.127 4.551 1.258 4.551 1.258s6.656-3.759 8.634-3.363c1.979.396 3.633 2.635 3.633 2.635l5.342-1.25s4.947-2.446 6.925-2.248c1.979.198 2.968 1.916 2.968 1.916s4.281-2.24 5.801-2.177c1.52.063 3.823 1.915 3.823 1.915s1.385-.134 2.904.127c1.52.269 2.636 2.113 2.636 2.113s4.028-.855 6.331-.657c2.311.198 4.82 4.614 4.82 4.614s2.572.261 3.624 1.187c1.053.926 2.834 6.593 2.834 6.593s.728.728.862 1.456c.04.238-.039.847-.237 1.583z" fill="#2D9693"/><path d="M164.503 338.383s4.717-2.113 10.352-1.749c0 0 6.332-3.332 12.568-1.52 0 0 6.664-1.092 12.069 1.615 0 0 6.561-3.562 14.048-1.219 0 0 7.218-1.813 14.475.198 0 0 10.027-1.385 13.984 2.239 0 0-5.674.428-8.903 2.074s-4.78 2.707-4.78 2.707-5.936-2.406-13.288-2.406c-7.353 0-10.882 3.395-10.882 3.395s-4.978-3.498-13.423-3.498c-8.444 0-13.881 5.342-13.881 5.342s-4.353-6.498-12.331-7.186l-.008.008z" fill="#326C92" style="mix-blend-mode:multiply" opacity=".3"/><path d="M229.59 343.336c4.962-4.963 11.634-4.488 11.697-4.488a.786.786 0 0 0 .135-1.567c-.293-.024-7.099-.53-12.536 4.551-2.509-1.14-13.526-5.453-25.001.839-2.501-1.741-7.337-4.139-14.349-3.324-6.695.775-10.486 3.284-12.385 5.041-5.928-6.07-13.051-6.782-13.368-6.806a.785.785 0 0 0-.846.712.777.777 0 0 0 .712.847c.008 0 .119.016.293.04-2.826.862-4.59 2.034-4.693 2.097a.786.786 0 0 0 .435 1.44.74.74 0 0 0 .435-.134c.032-.016 2.944-1.947 7.218-2.549.475.159.981.349 1.512.578-3.578 1.029-5.62 3.197-5.722 3.308a.78.78 0 0 0 .047 1.108c.15.143.34.206.53.206.214 0 .42-.087.578-.253.024-.024 2.548-2.707 6.862-3.245a21.898 21.898 0 0 1 4.907 3.783c-.309.38-.475.625-.499.673a.784.784 0 0 0 .261 1.076.778.778 0 0 0 1.076-.253c.032-.048 3.221-4.994 12.821-6.11 9.616-1.116 14.942 4.416 14.99 4.464a.787.787 0 0 0 1.108.039.787.787 0 0 0 .04-1.108 8.522 8.522 0 0 0-.618-.578 25.086 25.086 0 0 1 6.925-2.358c.61.38 2.303 1.567 3.688 3.791a.791.791 0 0 0 .665.372.785.785 0 0 0 .665-1.203 14.038 14.038 0 0 0-2.794-3.261 27.996 27.996 0 0 1 5.287.024c.68.253 3.34 1.385 5.009 4.068a.778.778 0 0 0 1.077.253.784.784 0 0 0 .253-1.084 11.244 11.244 0 0 0-2.161-2.517c2.929.72 4.765 1.646 4.812 1.67a.796.796 0 0 0 .918-.142h.016zM127.354 346.739a.775.775 0 0 0 .641-.34c.04-.064 4.266-5.983 13.463-6.387a.785.785 0 0 0 .751-.815.766.766 0 0 0-.815-.752c-9.956.435-14.491 6.782-14.681 7.051a.788.788 0 0 0 .649 1.235l-.008.008z" fill="#3FABA8"/><path d="M128.043 350.315c.031-.063 3.585-6.181 13.525-7.985a.781.781 0 0 0 .633-.91.78.78 0 0 0-.91-.633c-10.708 1.939-14.459 8.492-14.617 8.769a.788.788 0 0 0 .68 1.171.78.78 0 0 0 .689-.404v-.008zM142.185 347.46a.788.788 0 0 0-.949-.578c-8.492 2.057-13.011 6.561-13.201 6.759a.793.793 0 0 0 0 1.108.789.789 0 0 0 1.116-.008c.039-.04 4.384-4.377 12.449-6.332a.784.784 0 0 0 .577-.949h.008zM146.404 348.076a.787.787 0 0 0-1.021-.443c-6.933 2.73-11.436 8.642-11.626 8.895a.785.785 0 0 0 .158 1.1.789.789 0 0 0 1.1-.15c.048-.055 4.44-5.817 10.946-8.381a.79.79 0 0 0 .443-1.021zM153.732 349.043a.785.785 0 1 0-.799-1.354c-3.435 2.019-6.767 6.498-6.909 6.688a.78.78 0 0 0 .633 1.25.8.8 0 0 0 .633-.316c.032-.048 3.284-4.408 6.442-6.268zM152.134 354.345c-2.351 2.881-3.736 6.679-3.791 6.838a.782.782 0 1 0 1.472.53c.016-.04 1.353-3.704 3.537-6.379a.79.79 0 0 0-.11-1.108.79.79 0 0 0-1.108.111v.008zM159.209 352.042a.785.785 0 0 0-1.092.19c-2.2 3.134-4.266 9.299-4.353 9.561a.782.782 0 1 0 1.488.49c.024-.063 2.081-6.205 4.147-9.157a.785.785 0 0 0-.19-1.092v.008zM163.079 352.296a.791.791 0 0 0-1.045.38c-1.97 4.266-3.324 9.465-3.387 9.687a.784.784 0 1 0 1.52.396c.015-.056 1.377-5.287 3.292-9.418a.788.788 0 0 0-.388-1.045h.008zM165.992 354.376a.788.788 0 0 0-1.021.435c-.539 1.346-1.623 5.738-1.67 5.928a.783.783 0 0 0 .767.973.777.777 0 0 0 .76-.593c.008-.048 1.108-4.48 1.607-5.722a.785.785 0 0 0-.436-1.021h-.007zM171.128 350.839a.786.786 0 0 0-.958.57c-.032.119-.736 2.952-1.195 7.344a.784.784 0 0 0 .696.863h.08a.794.794 0 0 0 .783-.705c.451-4.265 1.156-7.091 1.156-7.122a.785.785 0 0 0-.57-.95h.008zM177.245 349.747a.787.787 0 0 0-.886.673c0 .055-.784 5.809-1.235 9.497a.79.79 0 0 0 .681.878h.095a.783.783 0 0 0 .775-.688c.451-3.68 1.227-9.418 1.235-9.481a.797.797 0 0 0-.673-.887l.008.008zM182.493 349.162a.784.784 0 0 0-.618.925c0 .024.444 2.272.444 5.604a.78.78 0 0 0 .783.783.78.78 0 0 0 .784-.783c0-3.506-.452-5.817-.475-5.912a.78.78 0 0 0-.926-.617h.008zM187.827 349.747a.785.785 0 0 0-.657.894c.008.071 1.052 6.909 1.535 11.484.04.403.38.704.784.704h.087a.788.788 0 0 0 .696-.863c-.491-4.614-1.527-11.483-1.543-11.555a.78.78 0 0 0-.894-.656l-.008-.008zM192.623 351.274a.787.787 0 0 0-.522.982c.015.055 1.788 5.927 2.065 9.259.032.412.38.72.784.72h.063a.791.791 0 0 0 .72-.846c-.293-3.498-2.05-9.339-2.121-9.585a.788.788 0 0 0-.981-.522l-.008-.008zM194.395 348.195a.779.779 0 0 0-.008 1.108c.048.048 4.488 4.638 5.611 11.745a.79.79 0 0 0 .776.665c.04 0 .079 0 .127-.008a.78.78 0 0 0 .649-.895c-1.203-7.621-5.841-12.401-6.039-12.599a.785.785 0 0 0-1.108-.008l-.008-.008zM203.513 350.12a.784.784 0 0 0-.768 1.29c.348.625 1.947 4.772 2.801 9.283.072.38.404.641.768.641.048 0 .095 0 .151-.016a.784.784 0 0 0 .625-.918c-.388-2.026-2.398-9.988-3.577-10.28zM209.725 350.19a.784.784 0 0 0-.332 1.06c.024.048 2.556 4.899 3.364 8.92a.785.785 0 0 0 .767.633c.048 0 .103 0 .158-.016a.785.785 0 0 0 .618-.926c-.847-4.234-3.403-9.133-3.506-9.339a.791.791 0 0 0-1.061-.332h-.008zM214.656 350.134a.786.786 0 0 0-.768 1.33c.443.657 2.604 5.397 3.3 8.104a.784.784 0 0 0 .76.585.785.785 0 0 0 .76-.981c-.325-1.266-3.023-8.698-4.052-9.038zM221.676 351.994a.78.78 0 0 0-1.093-.182.778.778 0 0 0-.182 1.092c.024.032 2.478 3.467 4.242 7.416.127.293.42.467.721.467a.76.76 0 0 0 .316-.072.779.779 0 0 0 .396-1.036c-1.828-4.1-4.298-7.55-4.4-7.693v.008zM230.342 351.978a.781.781 0 0 0-1.1-.143.776.776 0 0 0-.143 1.1c.032.04 2.849 3.759 3.831 8.168a.785.785 0 0 0 .767.617c.056 0 .111 0 .175-.016a.785.785 0 0 0 .593-.934c-1.052-4.74-3.997-8.618-4.115-8.777l-.008-.015zM234.236 349.034a.785.785 0 0 0-1.077 1.14c.04.039 4.314 4.115 6.189 8.895.119.309.42.499.728.499a.788.788 0 0 0 .728-1.076c-2.002-5.113-6.386-9.284-6.568-9.458zM239.982 348.409a.78.78 0 0 0-1.108-.079.78.78 0 0 0-.08 1.108c.04.047 4.187 4.898 5.691 9.592a.779.779 0 0 0 .744.546.787.787 0 0 0 .744-1.029c-1.599-5.002-5.817-9.933-5.991-10.138zM244.152 349.747a.785.785 0 1 0-.894 1.29c.055.039 5.492 3.822 6.862 7.993a.785.785 0 0 0 .989.499.783.783 0 0 0 .498-.99c-1.535-4.661-7.225-8.626-7.463-8.792h.008zM247.476 346.247a.79.79 0 0 0-1.092.222.79.79 0 0 0 .222 1.092c.055.04 5.524 3.712 7.471 8.199a.791.791 0 0 0 .72.475.874.874 0 0 0 .309-.063.791.791 0 0 0 .411-1.029c-2.129-4.915-7.803-8.721-8.041-8.88v-.016zM250.61 344.792a.787.787 0 0 0-1.013.467.78.78 0 0 0 .467 1.005c.064.024 6.363 2.39 8.31 6.197a.791.791 0 0 0 .697.428.712.712 0 0 0 .356-.088.786.786 0 0 0 .34-1.06c-2.224-4.345-8.88-6.854-9.164-6.957l.007.008zM254.33 343.621a.78.78 0 0 0-.76.807c.016.428.364.76.783.76h.024c.04 0 4.693-.103 8.049 2.351a.781.781 0 0 0 1.092-.175.787.787 0 0 0-.174-1.1c-3.807-2.778-8.809-2.659-9.022-2.651l.008.008zM265.489 340.621c-4.717-2.619-13.716-.649-14.096-.562a.785.785 0 0 0-.593.934c.095.42.506.689.942.594.087-.024 8.784-1.931 12.995.403a.808.808 0 0 0 .38.095.785.785 0 0 0 .38-1.472l-.008.008zM250.333 337.091a.803.803 0 0 0 .467-.15c.032-.024 3.174-2.28 8.223-2.011a.781.781 0 0 0 .823-.744.793.793 0 0 0-.744-.831c-5.619-.308-9.101 2.201-9.244 2.311a.785.785 0 0 0 .467 1.417l.008.008zM241.667 335.454a.788.788 0 0 0 .079 1.108.788.788 0 0 0 1.108-.079c.032-.032 2.992-3.451 5.667-5.01a.795.795 0 0 0 .285-1.076.797.797 0 0 0-1.077-.285c-2.896 1.693-5.935 5.191-6.062 5.342zM236.57 336.474c.23 0 .452-.095.61-.285.039-.048 3.767-4.559 6.766-5.841a.784.784 0 0 0-.617-1.44c-3.348 1.432-7.202 6.086-7.36 6.284a.783.783 0 0 0 .111 1.108.792.792 0 0 0 .498.182l-.008-.008zM227.564 335.833a.808.808 0 0 0 .491.174c.23 0 .459-.103.617-.293.04-.047 3.878-4.859 6.458-6.513a.784.784 0 1 0-.846-1.322c-2.802 1.789-6.68 6.656-6.838 6.862a.781.781 0 0 0 .126 1.1l-.008-.008zM218.748 336.11c.15.158.364.245.57.245a.77.77 0 0 0 .538-.214c.063-.055 6.181-5.872 9.711-7.566a.792.792 0 0 0 .372-1.044.783.783 0 0 0-1.045-.364c-3.751 1.796-9.853 7.597-10.114 7.843a.778.778 0 0 0-.024 1.108l-.008-.008zM213.231 336.205a.785.785 0 0 0 .721-.475c.237-.427 2.382-3.783 4.447-5.263a.784.784 0 0 0 .182-1.092.787.787 0 0 0-1.1-.182c-2.121 1.527-5.041 5.548-5.041 6.228a.78.78 0 0 0 .783.784h.008zM203.56 336.165a.771.771 0 0 0 .997-.474c.008-.024.934-2.62 2.343-4.82a.789.789 0 0 0-.237-1.084.782.782 0 0 0-1.085.237c-1.503 2.358-2.461 5.026-2.501 5.144a.795.795 0 0 0 .475 1.005l.008-.008zM199.199 336.997a.774.774 0 0 0 1.005-.467c.467-1.274 1.924-4.867 3.126-6.165a.787.787 0 0 0-.039-1.108.786.786 0 0 0-1.108.04c-1.662 1.788-3.379 6.497-3.451 6.695a.787.787 0 0 0 .467 1.005zM191.254 336.459a.74.74 0 0 0 .316.063.784.784 0 0 0 .72-.466c.008-.024 1.195-2.707 2.62-4.337a.788.788 0 0 0-.071-1.108.787.787 0 0 0-1.108.071c-1.583 1.812-2.826 4.622-2.873 4.74a.783.783 0 0 0 .403 1.037h-.007zM187.044 335.375a.784.784 0 0 0 .72.467.912.912 0 0 0 .316-.063.79.79 0 0 0 .404-1.037c-1.955-4.44-5.398-6.917-5.54-7.02a.784.784 0 0 0-1.092.182.784.784 0 0 0 .182 1.092c.031.024 3.237 2.343 5.01 6.379zM172.537 327.436c.055.032 5.817 3.554 8.215 7.788a.783.783 0 0 0 1.068.293.783.783 0 0 0 .301-1.069c-2.596-4.59-8.516-8.207-8.769-8.357a.785.785 0 0 0-.807 1.345h-.008zM164.773 328.765c.063.024 6.323 2.62 9.877 7.835.15.222.395.341.648.341a.833.833 0 0 0 .444-.135.787.787 0 0 0 .205-1.092c-3.814-5.603-10.312-8.294-10.581-8.405a.784.784 0 0 0-1.021.427.781.781 0 0 0 .428 1.021v.008zM157.721 331.339c.047.023 4.923 2.081 6.909 5.081.15.229.404.348.657.348.15 0 .301-.04.435-.127a.789.789 0 0 0 .222-1.092c-2.256-3.403-7.4-5.572-7.614-5.666a.791.791 0 0 0-1.029.419.79.79 0 0 0 .42 1.029v.008zM144.133 336.055c.055.008 5.911.823 9.212 3.87.15.142.34.206.53.206a.792.792 0 0 0 .578-.254.779.779 0 0 0-.048-1.107c-3.672-3.396-9.813-4.243-10.075-4.274a.783.783 0 0 0-.205 1.551l.008.008z" fill="#3FABA8"/><path d="M267.444 344.026c-1.361-4.946-3.997-8.595-5.334-9.101-1.385-.531-11.405.126-11.405.126l6.197-1.844s-.332-2.833-2.968-2.77c-2.635.064-10.945 1.385-10.945 1.385s4.021-3.165 3.427-3.165c-.594 0-2.374.395-3.102.593-.721.198-2.573-3.031-3.958-2.904-1.384.134-5.073 2.374-5.073 2.374s-1.582-2.042-2.572-2.042c-.989 0-3.498.791-5.476 1.646-1.979.863-8.508 2.77-8.508 2.77s-1.448-3.229-3.102-3.229c-1.655 0-7.519 2.636-7.519 2.636s-.855-.855-2.374-1.053c-1.512-.198-9.758 2.311-10.154 1.781-.396-.531-.728-2.77-1.583-2.636-.855.127-.459 2.636-.855 2.636-.395 0-3.363-2.311-4.55-2.572-1.188-.262-8.31-.135-9.695-.262-1.385-.134-10.36-2.572-11.872-2.311-1.519.262-7.455 2.113-7.455 2.707 0 .594 2.303 3.316 2.493 3.554-.261-.159-4.709-2.755-5.991-2.565-1.314.198-4.946 1.781-4.946 1.781l2.691 2.366c-.396-.174-6.664-2.96-7.044-3.031-.396-.063-3.688 1.781-4.282 2.572 0 0-.031-.023-.079-.063.847-1.171 2.256-3.007 3.008-3.363 1.115-.531 3.957.925 3.957.925s1.583-1.654 3.561-2.445c1.979-.791 5.01.53 5.01.53s2.833-2.239 5.081-3.561c2.239-1.322 9.623.134 9.623.134s.792-.664 2.509-1.123c1.718-.459 7.519 2.706 7.519 2.706s5.278.064 6.07.523c.791.466 2.042 1.321 2.042 1.321s.593-1.583 2.706-2.042c2.106-.467 2.699 2.968 2.699 2.968s3.364-1.519 6.798-1.654c3.427-.127 4.551 1.258 4.551 1.258s6.656-3.759 8.635-3.363c1.978.396 3.632 2.635 3.632 2.635l5.342-1.25s4.947-2.446 6.925-2.248c1.979.198 2.968 1.916 2.968 1.916s4.282-2.24 5.801-2.177c1.52.063 3.823 1.915 3.823 1.915s1.385-.134 2.904.127c1.52.269 2.636 2.113 2.636 2.113s4.028-.855 6.331-.657c2.311.198 4.82 4.614 4.82 4.614s2.572.261 3.625 1.187c1.052.926 2.833 6.593 2.833 6.593s.728.728.862 1.456c.04.238-.039.847-.237 1.583z" fill="#fff"/></g><defs><clipPath id="a"><path fill="#fff" transform="translate(73 110)" d="M0 0h237.284v356.67H0z"/></clipPath></defs></svg>