<svg width="1920" height="130" fill="none" xmlns="http://www.w3.org/2000/svg"><g clip-path="url(#a)"><path d="m-1.62 24.797 1941.6.213-36.55 169.216L-1.62 183.452V24.797z" fill="url(#b)"/><path style="mix-blend-mode:multiply" d="m1957.82 40.61-109.5 13.377h-341.23L1502 36.143h-30.56l-21.56 17.563-29.37-4.174 2.55-17.844-200.74 15.184-43.73-10.73-60.3 4.658-72.11 17.654H669.306l-104.404-13.39-122.238-13.377v13.378L263.876 46.68l-142.068-6.072H70.879l147.702 13.378-252.106 4.467 22.916-35.689h150.25L1924.71 18.3l33.11 22.31z" fill="url(#c)"/><path d="m2067.86 159.313-554.44 26.733-601.636-12.076-166.903 13.714-768.889-17.586 2.952-92.688 325.873 9.483 50.928 7.811c51.232 7.34 130.722 17.227 199.394 19.348 111.991 3.446 198.383-4.309 198.383-4.309l-9.102-19.404 159.991 9.483s-40.615-8.62-38.887-8.62c1.729 0 217.586-8.618 304.216-3.882 86.64 4.747 196.65 18.102 196.65 18.102l-83.44 6.038s139.56 16.385 225.45 12.928c85.9-3.445 176.98-12.928 176.98-12.928l-98.94-11.638s216.35-31.042 353.69-19.83c137.34 11.21 127.75 79.321 127.75 79.321h-.02z" fill="url(#d)"/><path d="m724.714 167.068 97.189 17.115-277.605 9.775-7.092.247-25.15.886-70.411-9.55-113.944-15.454-190.012-63.801 161.214-7.755 93.777 15.521c10.718 3.558 27.271 6.016 47.506 7.665 27.338 2.256 61.376 3.053 96.75 3.165 2.447 0 4.893.011 7.362.011 60.154.023 123.068-1.784 162.696-1.784 81.959 0 132.663 23.713 132.663 23.713l-114.943 20.269v-.023z" fill="url(#e)"/><path d="M1503.77 191.971c-.55-.326-284.09-18.866-284.09-18.866s68.42-29.313 114.2-32.77c45.78-3.445 256.97-13.366 256.97-13.366l119.62 19.83-206.7 45.16v.012z" fill="url(#f)"/><path d="M1322.44 63.54h-280.69s5.47-16.307 7.55-17.856c2.06-1.549 60.88-5.432 69.37-17.732 8.5-12.3 20.47-23.68 29.71-27.563 9.24-3.883 75.73 41.67 81.13 41.67 4.71 0 5.53-2.38 9.92-.55.63.258 1.32.606 2.12 1.066 3.39 1.93 23.08 5.791 40.66 8.967a2048.36 2048.36 0 0 0 29.09 5.005l11.16 6.992h-.02z" fill="url(#g)"/><path style="mix-blend-mode:multiply" d="M1256.61 62.754c.12.27.2.527.24.774h-120.67c-4.76-.471-7.54-.774-7.54-.774 25.34.774 38.12-13.849 38.12-13.849s81.68 14.825 72.65-7.407c.62.258 1.32.606 2.12 1.066 3.39 1.93 23.07 5.791 40.66 8.967.64.393 1 .606 1 .606s-33.54-4.006-26.59 10.617h.01z" fill="url(#h)"/><path d="M713.364 62.203h-159.53S611.227 2.33 617.983 1.59c4.635-.505 20.391 11.514 29.83 19.112a356.99 356.99 0 0 1 6.745 5.544c.37.314.561.482.561.482s7.171-6.655 13.501-6.655c6.329 0 44.733 42.142 44.733 42.142l.011-.012z" fill="url(#i)"/><path style="mix-blend-mode:multiply" d="M666.938 62.204h-55.979c19.527-2.862 40.233-12.58 36.855-41.513 3.21 2.582 5.69 4.647 6.745 5.544-2.592 4.86-12.21 26.172 12.379 35.97z" fill="url(#j)"/><path style="mix-blend-mode:multiply" opacity=".8" d="M54.683 84.66s19.235.639 40.558 4.073c-26.8-3.086-129.06 68.593-130.632 69.693 1.268-.976 72.746-55.867 72.746-67.673 0-11.806-27.9-40.918-28.18-41.198C29.98 62.427 54.67 84.659 54.67 84.659h.012z" fill="url(#k)"/></g><defs><linearGradient id="b" x1="977.055" y1="446.018" x2="965.619" y2="-50.462" gradientUnits="userSpaceOnUse"><stop stop-color="#E2DAFE"/><stop offset=".99" stop-color="#B7C8F0"/></linearGradient><linearGradient id="c" x1="962.14" y1="412.81" x2="962.14" y2="314.881" gradientUnits="userSpaceOnUse"><stop stop-color="#E2DAFE"/><stop offset=".99" stop-color="#B7C8F0"/></linearGradient><linearGradient id="d" x1="1027.02" y1="-186.772" x2="1015.15" y2="639.97" gradientUnits="userSpaceOnUse"><stop stop-color="#684B67"/><stop offset="1" stop-color="#0D164C"/></linearGradient><linearGradient id="e" x1="487.456" y1="132.828" x2="536.364" y2="-119.683" gradientUnits="userSpaceOnUse"><stop stop-color="#6C5BA8"/><stop offset="1" stop-color="#291D4C"/></linearGradient><linearGradient id="f" x1="1458.92" y1="29.836" x2="1476.05" y2="392.071" gradientUnits="userSpaceOnUse"><stop stop-color="#6C5BA8"/><stop offset="1" stop-color="#291D4C"/></linearGradient><linearGradient id="g" x1="1173.95" y1="-11.967" x2="1184.33" y2="84.166" gradientUnits="userSpaceOnUse"><stop stop-color="#E2DAFE"/><stop offset=".99" stop-color="#B7C8F0"/></linearGradient><linearGradient id="h" x1="1204.26" y1="42.048" x2="1207.33" y2="70.576" gradientUnits="userSpaceOnUse"><stop stop-color="#E2DAFE"/><stop offset=".99" stop-color="#B7C8F0"/></linearGradient><linearGradient id="i" x1="626.074" y1="-7.467" x2="635.041" y2="75.603" gradientUnits="userSpaceOnUse"><stop stop-color="#E2DAFE"/><stop offset=".99" stop-color="#B7C8F0"/></linearGradient><linearGradient id="j" x1="634.089" y1="17.156" x2="639.599" y2="68.197" gradientUnits="userSpaceOnUse"><stop stop-color="#E2DAFE"/><stop offset=".99" stop-color="#B7C8F0"/></linearGradient><linearGradient id="k" x1="-35.379" y1="103.996" x2="95.253" y2="103.996" gradientUnits="userSpaceOnUse"><stop stop-color="#E2DAFE"/><stop offset=".99" stop-color="#B7C8F0"/></linearGradient><clipPath id="a"><path fill="#fff" transform="translate(-108 .14)" d="M0 0h2176v254.452H0z"/></clipPath></defs></svg>