<svg width="1920" height="1080" fill="none" xmlns="http://www.w3.org/2000/svg"><g clip-path="url(#a)"><path d="M1926 47H-2v1100h1928V47z" fill="url(#b)"/><path d="M218.643 634.769s154.393-58.177 311.819-59.437c157.413-1.259 313.75 49.166 313.75 49.166s-324.327-62.004-341.714 26.142c-17.375 88.158 309.496 21.789 422.365-.061 112.857-21.851 171.117-59.865 387.307-66.553 216.19-6.689 417.2 104.897 407.37 131.088-9.82 26.191-257.91 24.687-278.58 2.775-20.65-21.911 46.84-42.819 46.84-42.819s5.8 52.393 146.08 40.044c140.3-12.337-208.39-119.472-329.86-48.408-121.48 71.065 64.9 143.609 262.61 156.46 197.72 12.851 567.97-147.094 560.67-203.767-7.3-56.673-163.21-46.842-162.96-56.918.25-10.075 300.73-71.786 300.73-71.786s-159.69 44.079-127.71 65.734c31.99 21.667 164.97 23.17 194.7 54.912 29.72 31.73-237.92 294.249-362.89 296.229-124.98 1.981-1791.855-2.298-1791.855-2.298l41.304-270.503h.024z" fill="url(#c)"/><path d="M473.03 568.535s-182.356 28.208-195.195 13.095c-12.851-15.112 162.964-93.195 228.955-86.898 65.99 6.297 2.262 38.784 2.262 38.784s35.508-35.508-7.813-32.487c-43.321 3.02-93.942 25.444-78.328 45.081 15.614 19.65 145.834 19.148 145.834 19.148l-95.715 3.277z" fill="url(#d)"/><path d="m-7.682 1094.8 37.904 10.09c6.566 2.59 21.618 7.96 39.922 10.62 12.032 1.76 25.482 2.35 38.846.22 29.578-4.69 58.801-22.66 71.627-70.66 0 0-9.965-11.59-37.183-85.076l-.208 5.355-3.02-14.171c-5.881-16.128-12.508-34.958-19.93-56.942-11.359-33.601-21.031-69.891-29.162-105.362l-16.128-31.999 13.401 19.894 4.585-6.371-11.469-26.423-17.607-40.582 12.778 15.431C62.857 644.274 56.67 586.293 56.67 586.293s-10.968 62.078-21.422 125.953L6.5 782.185l20.371-17.399 11.555-9.867-13.303 21.373-21.985 35.3L-8 869.989l25.567-25.188 12.729-12.533-14.245 37.097-21.385 55.72-2.373 169.715h.025z" fill="url(#e)"/><path d="M325.264 911.178c10.002 53.788 10.002 91.232 10.002 91.232s-148.34 58.74-211.36-26.366c0 0 15.126-14.722 43.823-113.163l29.064-58.116-20.089 24.32c4.927-21.765 8.388-44.214 10.784-66.125l17.24-34.297-14.758 6.981c5.27-71.92.184-131.736.184-131.736s33.93 59.07 63.3 113.004l29.089 38.553-10.577-3.986-29.296-11.029 42.061 37.708 11.738 10.528 23.367 39.017-19.271-9.586-22.962-11.42 28.868 29.088 28.795 29.016-10.002 46.402v-.025z" fill="url(#f)"/><path d="m490.246 1022.12-35.85 12.43c-6.077 2.82-20.101 8.79-37.77 13.1-11.616 2.84-24.797 4.94-38.332 4.94-29.945 0-61.625-10.3-81.825-45.79 0 0 8.021-10.175 23.391-70.248l1.052 4.109.77-11.31c3.277-13.181 6.872-28.527 10.76-46.415 5.955-27.34 9.818-56.551 12.288-84.943l10.907-26.679-10.124 17.008-5.527-4.353 7.19-21.814 11.029-33.49-10.198 13.474c1.956-59.265-1.015-104.799-1.015-104.799s20.554 46.598 40.888 94.639l39.347 50.486-22.84-10.944-12.949-6.211 16.495 14.868 27.242 24.577 20.15 43.725-29.198-16.312-14.538-8.118 19.881 26.9 29.847 40.41 28.942 130.76h-.013z" fill="url(#g)"/><path d="m209.454 1067.65-35.85 12.44c-6.077 2.81-20.102 8.79-37.77 13.09-11.616 2.84-24.797 4.94-38.332 4.94-29.945 0-61.626-10.29-81.825-45.79 0 0 8.021-10.17 23.39-70.244l1.052 4.108.77-11.31c3.277-13.181 6.872-28.526 10.76-46.415 5.955-27.34 9.819-56.551 12.289-84.942l10.907-26.68-10.125 17.008-5.526-4.353 7.19-21.813 11.028-33.491-10.197 13.475c1.956-59.266-1.015-104.8-1.015-104.8s20.554 46.598 40.888 94.639l39.347 50.486-22.841-10.943-12.948-6.212 16.494 14.869 27.243 24.576 20.15 43.725-29.198-16.311-14.539-8.119 19.882 26.9 29.846 40.411 28.942 130.756h-.012z" fill="url(#h)"/><path d="m441.362 1030.8 37.904 10.08c6.567 2.6 21.618 7.96 39.922 10.63 12.032 1.76 25.482 2.35 38.846.22 29.578-4.7 58.801-22.66 71.627-70.661 0 0-9.965-11.592-37.183-85.077l-.207 5.355-3.021-14.171c-5.881-16.128-12.508-34.958-19.93-56.942-11.359-33.601-21.031-69.891-29.162-105.362l-16.128-31.999 13.401 19.894 4.586-6.371-11.47-26.423-17.607-40.582 12.778 15.431c-13.817-74.549-20.004-132.531-20.004-132.531s-10.968 62.078-21.422 125.953l-28.746 69.939 20.37-17.399 11.555-9.867-13.303 21.373-21.985 35.3-11.139 58.397 25.567-25.188 12.729-12.533-14.245 37.098-21.385 55.719-2.372 169.717h.024z" fill="url(#i)"/><path d="m1894.32 1086.8 37.9 10.09c6.57 2.59 21.62 7.96 39.92 10.62 12.04 1.76 25.49 2.35 38.85.22 29.58-4.69 58.8-22.66 71.63-70.66 0 0-9.97-11.59-37.19-85.076l-.2 5.355-3.02-14.171c-5.89-16.128-12.51-34.958-19.93-56.942-11.36-33.601-21.03-69.891-29.17-105.362l-16.12-31.999 13.4 19.894 4.58-6.371-11.47-26.423-17.6-40.582 12.77 15.431c-13.81-74.55-20-132.531-20-132.531s-10.97 62.078-21.42 125.953l-28.75 69.939 20.37-17.399 11.56-9.867-13.31 21.373-21.98 35.3-11.14 58.397 25.57-25.188 12.73-12.533-14.25 37.097-21.38 55.72-2.38 169.715h.03z" fill="url(#j)"/><path d="M646.588 723.565c-.575-1.944-21.006 91.105-21.006 91.105h7.935l6.432-9.855-45.877 117.039s-45.449 135.266 64.315 144.476c109.752 9.22 135.906-44.59 135.906-44.59l-42.013-59.169 26.362 14.367L772.003 954l-76.738-99.249 27.438 17.791-41.377-58.52 19.074 11.151s-34.089-35.153-53.8-101.608h-.012z" fill="url(#k)"/><path d="M1409.59 918.993c10 53.787 10 91.227 10 91.227s-148.34 58.74-211.36-26.362c0 0 15.12-14.721 43.82-113.163l29.07-58.116-20.09 24.32c4.92-21.764 8.38-44.213 10.78-66.125l17.24-34.297-14.76 6.982c5.27-71.921.19-131.736.19-131.736s33.93 59.069 63.3 113.004l29.08 38.552-10.57-3.986-29.3-11.029 42.06 37.709 11.74 10.528 23.37 39.017-19.27-9.587-22.96-11.42 28.86 29.089 28.8 29.015-10 46.402v-.024z" fill="url(#l)"/><path d="m1574.57 1029.93-35.85 12.44c-6.08 2.81-20.1 8.79-37.77 13.09-11.62 2.84-24.8 4.94-38.33 4.94-29.95 0-61.63-10.29-81.83-45.79 0 0 8.02-10.17 23.39-70.245l1.05 4.108.78-11.31c3.27-13.169 6.87-28.526 10.76-46.415 5.95-27.34 9.81-56.551 12.28-84.942l10.91-26.68-10.11 17.008-5.53-4.353 7.19-21.813 11.03-33.49-10.2 13.474c1.96-59.265-1.01-104.8-1.01-104.8s20.55 46.598 40.89 94.639l39.34 50.486-22.84-10.943-12.95-6.211 16.5 14.868 27.24 24.564 20.15 43.737-29.2-16.311-14.54-8.119 19.89 26.9 29.84 40.411 28.94 130.757h-.02z" fill="url(#m)"/><path d="m1938.84 1060.29-35.85 12.43c-6.08 2.81-20.1 8.79-37.77 13.1-11.62 2.83-24.8 4.94-38.33 4.94-29.95 0-61.63-10.3-81.83-45.79 0 0 8.02-10.18 23.39-70.25l1.06 4.109.77-11.31c3.27-13.169 6.87-28.527 10.76-46.415 5.95-27.34 9.81-56.551 12.28-84.943l10.91-26.679-10.11 17.008-5.53-4.353 7.19-21.814 11.03-33.49-10.2 13.474c1.96-59.265-1.01-104.799-1.01-104.799s20.55 46.598 40.89 94.639l39.34 50.486-22.84-10.944-12.95-6.211 16.5 14.868 27.24 24.565 20.15 43.737-29.2-16.312-14.53-8.118 19.88 26.899 29.84 40.412 28.95 130.761h-.03z" fill="url(#n)"/><path d="m1525.67 1038.61 37.91 10.09c6.56 2.59 21.61 7.96 39.93 10.63 12.03 1.76 25.48 2.34 38.85.22 29.57-4.7 58.8-22.66 71.62-70.665 0 0-9.96-11.591-37.18-85.077l-.21 5.356-3.02-14.172c-5.88-16.127-12.51-34.957-19.93-56.942-11.36-33.6-21.03-69.891-29.16-105.362l-16.13-31.999 13.4 19.894 4.59-6.37-11.47-26.423-17.61-40.582 12.78 15.43c-13.82-74.549-20-132.531-20-132.531s-10.97 62.078-21.43 125.953L1539.87 726l20.37-17.399 11.55-9.868-13.3 21.373-21.98 35.3-11.14 58.398 25.56-25.189 12.73-12.532-14.24 37.097-21.39 55.719-2.37 169.711h.01z" fill="#343474"/><path d="M1713.9 675.378c-.58-1.944-21.01 91.105-21.01 91.105h7.94l6.43-9.855-45.88 117.039s-45.45 135.273 64.32 144.473c109.75 9.22 135.9-44.589 135.9-44.589l-42.01-59.168 26.36 14.367-6.64-22.938-76.74-99.248 27.44 17.79-41.37-58.519 19.07 11.151s-34.09-35.153-53.8-101.608h-.01z" fill="url(#o)"/><path d="M943.29 908.296c10.001 53.787 10.001 91.227 10.001 91.227s-148.34 58.737-211.359-26.362c0 0 15.125-14.722 43.822-113.163l29.064-58.116-20.089 24.32c4.927-21.764 8.388-44.214 10.784-66.125l17.241-34.297-14.759 6.982c5.27-71.921.184-131.737.184-131.737s33.93 59.07 63.3 113.004l29.089 38.553-10.577-3.986-29.296-11.029 42.061 37.709 11.738 10.527 23.367 39.017-19.27-9.586-22.963-11.42 28.868 29.089 28.795 29.015-10.001 46.402v-.024z" fill="url(#p)"/><path d="m1108.27 1019.25-35.85 12.43c-6.08 2.81-20.1 8.79-37.77 13.1-11.61 2.83-24.8 4.94-38.331 4.94-29.944 0-61.625-10.3-81.825-45.8 0 0 8.021-10.168 23.391-70.241l1.052 4.109.77-11.311c3.277-13.181 6.872-28.526 10.76-46.414 5.955-27.34 9.818-56.551 12.288-84.943l10.907-26.679-10.124 17.008-5.527-4.353 7.19-21.814 11.029-33.49-10.198 13.474c1.957-59.265-1.015-104.799-1.015-104.799s20.554 46.598 40.893 94.639l39.34 50.486-22.84-10.944-12.95-6.211 16.5 14.868 27.24 24.577 20.15 43.725-29.2-16.312-14.54-8.118 19.89 26.899 29.84 40.411 28.94 130.763h-.01z" fill="#2B2B60"/><path d="m1059.39 1027.91 37.9 10.09c6.57 2.59 21.62 7.96 39.92 10.63 12.04 1.76 25.49 2.34 38.85.22 29.58-4.7 58.8-22.66 71.63-70.665 0 0-9.97-11.591-37.19-85.064l-.2 5.355-3.02-14.171c-5.89-16.128-12.51-34.958-19.93-56.942-11.36-33.601-21.04-69.891-29.17-105.362l-16.12-31.999 13.4 19.894 4.58-6.371-11.47-26.423-17.6-40.582 12.77 15.431c-13.81-74.55-20-132.531-20-132.531s-10.97 62.078-21.42 125.953l-28.75 69.939 20.37-17.399 11.56-9.867-13.31 21.373-21.98 35.3-11.14 58.397 25.57-25.188 12.73-12.533-14.25 37.097-21.39 55.72-2.37 169.718.03-.02z" fill="#343474"/><path d="m939.695 926.477-.771 11.31-1.051-4.109c.599-2.323 1.198-4.719 1.822-7.201z" fill="url(#q)"/><path d="M937.873 933.678c.599-2.323 1.198-4.719 1.822-7.201l-.771 11.31-1.051-4.109z" fill="url(#r)"/><path d="M1264.61 720.678c-.57-1.944-21 91.106-21 91.106h7.93l6.43-9.856-45.87 117.039s-45.45 135.273 64.31 144.473c109.75 9.22 135.91-44.59 135.91-44.59l-42.01-59.166 26.36 14.367-6.65-22.938-76.74-99.249 27.44 17.791-41.38-58.52 19.07 11.152s-34.09-35.154-53.8-101.609z" fill="url(#s)"/><path d="m-56.25 1006.94 2416.14.23-45.47 184.75-2370.67-11.77v-173.21z" fill="url(#t)"/><path style="mix-blend-mode:multiply" d="m2379.43 1024.22-119.31 14.57h-371.76l-5.55-19.44h-33.3l-23.49 19.14-32-4.55 2.78-19.44-218.71 16.54-47.64-11.69-65.69 5.08-78.58 19.23-404.68-16.16-125.5-6-127.347-7v14.57l-194.792 1.76-154.785-6.61h-55.487l160.923 14.57-274.673 4.87 24.981-38.88h163.685l1944.855-4.868 36.07 24.308z" fill="url(#u)"/><path d="m2499.31 1153.55-604.06 29.12-655.49-13.15-181.84 14.94-837.712-19.16 3.216-100.99 355.042 10.34 55.487 8.51c55.817 7.99 142.423 18.77 217.241 21.08 122.016 3.75 216.136-4.7 216.136-4.7l-9.91-21.14 174.31 10.33s-44.25-9.39-42.37-9.39c1.89 0 237.06-9.39 331.45-4.23 94.39 5.17 214.25 19.72 214.25 19.72l-90.91 6.58s152.05 17.85 245.64 14.09c93.58-3.76 192.81-14.09 192.81-14.09l-107.8-12.68s235.72-33.82 385.36-21.6c149.63 12.21 139.18 86.42 139.18 86.42h-.03z" fill="url(#v)"/><path d="M1687.18 1049.19h-305.81s5.95-17.77 8.21-19.45c2.25-1.69 66.34-5.92 75.59-19.32 9.26-13.404 22.3-25.803 32.37-30.033 10.06-4.231 82.51 45.403 88.39 45.403 5.13 0 6.03-2.6 10.81-.6.68.28 1.44.66 2.31 1.16 3.69 2.1 25.14 6.31 44.3 9.77 16.71 3.01 31.69 5.45 31.69 5.45l12.15 7.62h-.01z" fill="url(#w)"/><path style="mix-blend-mode:multiply" d="M1615.46 1048.35c.13.29.22.57.25.84h-131.46c-5.19-.51-8.22-.84-8.22-.84 27.61.84 41.54-15.09 41.54-15.09s88.99 16.15 79.14-8.07c.69.28 1.45.66 2.31 1.16 3.7 2.1 25.14 6.31 44.3 9.77.7.43 1.09.66 1.09.66s-36.53-4.36-28.97 11.57h.02z" fill="url(#x)"/><path d="M751.24 1033.15H577.43s62.53-65.232 69.891-66.039c5.049-.551 22.216 12.545 32.5 20.822a386.904 386.904 0 0 1 7.348 6.041c.404.342.611.525.611.525s7.814-7.25 14.71-7.25c6.896 0 48.738 45.911 48.738 45.911l.012-.01z" fill="url(#y)"/><path style="mix-blend-mode:multiply" d="M700.655 1033.15h-60.989c21.275-3.12 43.835-13.71 40.154-45.228a388.536 388.536 0 0 1 7.349 6.04c-2.825 5.295-13.303 28.518 13.486 39.188z" fill="url(#z)"/><path d="M132.447 1023.21c0 1.17 2.702 1.77 6.811 2.01 2.58.15 5.722.16 9.085.09 13.413-.32 30.433-2.1 30.433-2.1l-7.458-227.642-2.177-66.271-21.777 7.569-.733 13.877-.025.477c-.587 11.054-1.467 27.756-2.518 47.564-4.39 83.182-11.641 221.066-11.641 224.416v.01z" fill="#6A1A3A"/><path d="m180.415 1008.15-6.811 2.01-9.036 2.65-.049-2.57-3.778-158.512h6.212l-1.822-68.424-1.223-45.766 2.323-1.847.025.477 2.482 47.564 11.677 224.418z" fill="#E79A47" style="mix-blend-mode:color-dodge" opacity=".3"/><path style="mix-blend-mode:multiply" opacity=".82" d="M144.088 798.798h.036l3.607-.428 23.587-2.788-2.177-66.271-21.776 7.568-.734 13.878-.024.477c-.587 11.053-1.468 27.756-2.519 47.564z" fill="url(#A)"/><path d="M-41.252 701.908s30.494 53.03 135.685 61.026c39.69 3.02 88.586-30.568 133.705-40.35 74.5-16.14 139.256-13.401 139.256-13.401l-56.013-52.063-.746.648c-48.97-29.126-302.502-28.319-302.502-28.319l-49.398 72.447.013.012z" fill="#2D9693"/><path d="m-4.974 619.373 16.25 4.121-3.13 5.967s253.531-.807 302.501 28.318l.746-.648-8.669-15.675 28.905-4.06-.183-.244-59.217-81.727 22.706-4.927-85.798-125.513 16.763-7.018s-24.943-26.631-48.701-67.849c-23.757-41.218-8.975-83.097-8.975-83.097-48.578 36.499-96.228 156.643-96.228 156.643l8.046 3.95L4.807 562.333l17.816 2.739-29.97 53.715 2.36.599.013-.013z" fill="#2D9693"/><path d="M-41.253 701.92s46.598 66.993 203.4 79.673c21.056 1.699 40.35 1.394 57.97-.379l8.021-58.605 18.646 71.162c20.126-3.692 37.672-9.28 52.761-15.7l-8.987-41.768 12.691 22.498c45.217-21.263 65.856-48.994 65.856-48.994s-56.771-23.134-204.72 19.514c-55.573 16.018-132.262-4.805-132.262-4.805v-56.514l-11.885 54.179-61.515-20.248.024-.013zM-7.334 619.766l15.48 9.696s253.531-.807 302.501 28.318l.746-.648 21.557-18.867s-.502-.403-1.504-1.125c-9.122-6.614-59.486-40.203-138.29-38.491-79.966 1.736-181.49 17.986-198.143 20.725-1.54.257-2.36.392-2.36.392h.013zM280.067 564.204l14.868-13.756s-44.348-39.616-104.8-41.951c-60.451-2.336-101.376 13.694-101.376 13.694v-28.55l-6.468 30.299-77.484 40.203 13.744 8.241 4.084-7.373s133.044-93.074 257.432-.807zM71.996 423.725l8.046 3.937s15.174-8.155 51.219-13.841c36.034-5.686 77.876 11.212 77.876 11.212l16.763-7.14s-37.88-35.679-76.958-28.551c-39.066 7.141-76.958 34.371-76.958 34.371l.012.012z" fill="#152822"/><path d="m106.575 409.896 8.192-44.14-19.014 48.065 10.822-3.925zM229.605 522.767c-1.186-3.057-40.521-83.023-40.521-83.023s17.033 83.891 18.219 83.023c1.186-.868 22.302 0 22.302 0z" fill="#152822"/><path d="M164.397 619.189c-1.186-8.889-8.84-91.9-8.84-91.9l-15.712 87.828-4.879-47.772-9.366 51.856h38.809l-.012-.012z" fill="#284027"/><path d="M17.352 579.501c0 3.9 2.862 7.067 6.407 7.067 3.546 0 6.408-3.167 6.408-7.067 0-3.901-2.862-7.067-6.408-7.067-3.545 0-6.407 3.166-6.407 7.067zM50.88 547.894c0 2.617 1.92 4.732 4.291 4.732 2.372 0 4.292-2.115 4.292-4.732s-1.92-4.732-4.292-4.732-4.292 2.115-4.292 4.732zM82.756 563.85c3.538 0 6.407-3.165 6.407-7.068 0-3.903-2.869-7.067-6.407-7.067-3.539 0-6.407 3.164-6.407 7.067s2.868 7.068 6.407 7.068zM102.087 522.398c0 1.969 1.443 3.571 3.228 3.571 1.785 0 3.228-1.602 3.228-3.571 0-1.968-1.443-3.57-3.228-3.57-1.785 0-3.228 1.602-3.228 3.57zM172.443 541.046c0 3.9 2.861 7.067 6.407 7.067 3.545 0 6.407-3.167 6.407-7.067 0-3.901-2.862-7.067-6.407-7.067-3.546 0-6.407 3.166-6.407 7.067zM211.521 519.782c0 2.213 1.626 4.011 3.631 4.011 2.006 0 3.632-1.798 3.632-4.011s-1.626-4.011-3.632-4.011c-2.005 0-3.631 1.798-3.631 4.011zM54.584 471.034c1.81 3.35 5.747 4.45 8.78 2.445 3.032-1.993 4.022-6.334 2.212-9.684-1.81-3.35-5.746-4.451-8.779-2.445-3.032 1.993-4.022 6.333-2.213 9.684zM81.362 467.414c1.21 2.225 3.827 2.959 5.845 1.626 2.017-1.333 2.677-4.218 1.48-6.444-1.211-2.225-3.828-2.959-5.846-1.626-2.017 1.333-2.677 4.218-1.48 6.444zM83.6 430.255c1.039 1.907 3.276 2.531 5 1.394 1.737-1.137 2.3-3.607 1.26-5.527-1.027-1.907-3.277-2.531-5.001-1.394-1.736 1.137-2.299 3.607-1.26 5.527zM160.924 394.796c1.199 2.213 3.791 2.934 5.796 1.614 2.005-1.321 2.666-4.182 1.467-6.395-1.198-2.213-3.79-2.935-5.795-1.614-2.006 1.32-2.666 4.181-1.468 6.395zM177.223 363.836c1.81 3.351 5.747 4.451 8.78 2.446 3.032-1.993 4.022-6.334 2.213-9.684-1.81-3.35-5.747-4.451-8.78-2.446-3.032 2.006-4.034 6.334-2.213 9.684zM252.372 563.85c3.538 0 6.407-3.165 6.407-7.068 0-3.903-2.869-7.067-6.407-7.067-3.539 0-6.407 3.164-6.407 7.067s2.868 7.068 6.407 7.068zM293.223 572.36c0 3.901 2.861 7.068 6.407 7.068s6.407-3.167 6.407-7.068c0-3.9-2.861-7.067-6.407-7.067s-6.407 3.167-6.407 7.067zM296.659 696.198c1.039-3.73-.868-7.679-4.255-8.816-3.375-1.137-6.958.954-7.997 4.695-1.039 3.729.868 7.679 4.255 8.816 3.387 1.137 6.957-.954 7.997-4.695zM255.71 714.647c.672-2.433-.563-5-2.764-5.746-2.201-.746-4.536.623-5.208 3.056-.673 2.434.562 5.001 2.763 5.747 2.201.746 4.536-.623 5.209-3.057zM234.214 698.887c1.04-3.729-.868-7.678-4.255-8.816-3.387-1.137-6.957.954-7.996 4.696-1.04 3.729.868 7.678 4.255 8.815 3.387 1.138 6.957-.953 7.996-4.695zM170.413 723.94c.685-2.458-.575-5.05-2.8-5.808-2.226-.746-4.585.636-5.258 3.093-.685 2.458.575 5.05 2.8 5.808 2.225.746 4.585-.636 5.258-3.093zM138.157 682.93c1.04-3.729-.868-7.679-4.255-8.816-3.387-1.137-6.957.954-7.996 4.696-1.04 3.729.868 7.678 4.255 8.815 3.387 1.138 6.957-.953 7.996-4.695zM101.268 689.52c1.039-3.729-.868-7.679-4.255-8.816-3.387-1.137-6.958.954-7.997 4.695-1.04 3.73.868 7.679 4.255 8.816 3.387 1.137 6.957-.953 7.997-4.695zM67.35 646.028c.648-2.335-.55-4.818-2.666-5.527-2.115-.709-4.365.599-5.013 2.935-.648 2.335.55 4.817 2.665 5.527 2.116.709 4.365-.6 5.013-2.935zM30.961 614.016c1.04-3.729-.868-7.679-4.255-8.816-3.387-1.137-6.957.954-7.996 4.696-1.04 3.729.868 7.678 4.255 8.815 3.387 1.137 6.957-.953 7.996-4.695z" fill="#FFE2B3"/><path style="mix-blend-mode:screen" opacity=".5" d="M245.965 596.032c19.61 0 35.508-17.54 35.508-39.176 0-21.637-15.898-39.176-35.508-39.176-19.61 0-35.508 17.539-35.508 39.176 0 21.636 15.898 39.176 35.508 39.176z" fill="url(#B)"/><path style="mix-blend-mode:screen" opacity=".5" d="M105.254 550.583c13.925 0 25.213-12.454 25.213-27.817s-11.288-27.817-25.213-27.817-25.213 12.454-25.213 27.817 11.288 27.817 25.213 27.817z" fill="url(#C)"/><path style="mix-blend-mode:screen" opacity=".5" d="M95.167 736.291c24.601 0 44.544-22.006 44.544-49.153s-19.943-49.154-44.544-49.154c-24.601 0-44.544 22.007-44.544 49.154 0 27.147 19.943 49.153 44.544 49.153z" fill="url(#D)"/><path style="mix-blend-mode:screen" opacity=".5" d="M182.738 388.048c13.925 0 25.213-12.454 25.213-27.817s-11.288-27.817-25.213-27.817c-13.924 0-25.212 12.454-25.212 27.817s11.288 27.817 25.212 27.817z" fill="url(#E)"/><path d="M-36.63 680.794c6.895 3.668 21.947-.306 28.66-6.371h.012c.135-.122.269-.256.404-.379l.22-.22c4.854-4.915 22.669 9.696 57.48 17.95-.526 6.933-.832 19.331 3.497 21.52 1.174.587 3.497.525 6.431-.049 9.403-1.834 25.03-8.902 29.101-16.36 7.263.049 14.966-1.113 23.061-3.02-2.238 10.368 5.783 28.489 8.999 28.734 3.693.293-3.693-21.264 18.475-35.533 0 0-.905-.281-2.396-.611 54.704-18.329 123.067-48.677 195.635 14.734-.697-.966-82.533-113.469-184.508-134.121-11.017-2.225-22.266-3.387-33.674-3.216-4.206.062-8.303.269-12.313.6a169.186 169.186 0 0 0-19.698 2.8c-14.013 2.849-26.656 7.348-38.002 12.936a156.572 156.572 0 0 0-21.777 13.022c-.33.232-.66.477-.99.709-.013 0-.025.025-.037.025a164.875 164.875 0 0 0-11.995 9.598c-.037.037-.073.061-.11.098l-.037.037c-37.39 32.989-50.767 74.842-46.451 77.141l.012-.024z" fill="url(#F)"/><path d="M87.733 432.394a242.168 242.168 0 0 1-2.666 7.349l14.257-3.203s-.367-2.642-.66-6.75c-.746-10.479-.99-30.495 6.59-40.435 4.5-5.894 11.286-11.274 18.439-14.832 3.436-1.712 6.957-3.02 10.356-3.754 6.102-1.332 11.787-.856 15.822 2.25 10.956 8.425-21.251 33.087-19.404 34.97 1.797 1.834 23.085-31.131 46.353-21.3 14.734 10.039 25.555 21.141 25.714 21.3-.171-.514-36.718-106.132-65.024-106.927-2.421-.073-4.769.623-7.043 2.213-28.832 20.199-58.324 120.389-58.47 120.891.097-.184 7.189-13.622 19.184-27.084 8.583-2.274.978 22.523-3.46 35.325l.011-.013z" fill="url(#G)"/><path d="M155.545 319.88s-5.808-16.017-4.622-30.005 18.353-22.865 17.815-22.865c-.538 0-20.065 6.994-35.239 31.167-9.415 14.991 3.167 17.473 22.046 21.703z" fill="url(#H)"/><path d="M4.807 563.837s38.675-26.215 36.376-9.769c-1.54 10.992-11.665 28.636-18.206 39.127-3.253 5.209-5.625 8.657-5.625 8.657l20.726-5.82s15.711 2.335 6.676-15.859c-9.024-18.194 10.344-37.012 14.709-39.201 2.555-1.283 18.695-8.375 31.583-14 9.048-3.949 16.482-7.189 16.482-7.189s53.971-11.139 44.593 7.495c-6.493 12.912-33.601 28.673-49.667 37.158-7.14 3.766-12.105 6.102-12.105 6.102s59.265 1.015 58.091-3.485c-1.173-4.512 16.886-49.104 51.33-47.356 0 0-15.577-76.616-69.291-87.535-6.456-1.308-12.142-2.115-17.143-2.494-5.71-.44-10.54-.355-14.66.122-4.402.502-7.985 1.431-10.931 2.605-12.032 4.768-13.658 13.486-17.791 13.315-6.945-.306-68.558 77.643-70.673 97.451-2.116 19.808 5.538 20.676 5.538 20.676h-.012z" fill="url(#I)"/><path d="M78.11 713.426c21.19.759-13.658 18.354-13.658 18.354s.44-18.818 13.657-18.354z" fill="url(#J)"/><path d="M4.807 701.187c8.804 11.958-30.409 10.687-36.914 3.742-6.505-6.946 21.471-24.712 36.914-3.742z" fill="url(#K)"/><path style="mix-blend-mode:multiply" opacity=".6" d="M-7.982 674.423h.012c.122-.098.245-.232.404-.379l.22-.22c4.854-4.915 22.669 9.696 57.48 17.95-.526 6.932-.831 19.331 3.497 21.52 1.174.586 3.497.525 6.431-.049-13.23-13.585 16.275-25.592 7.435-26.179-8.84-.587-27.854-100.055 15.247-119.815-14.013 2.849-26.655 7.349-38.002 12.937-9.024-18.194 10.344-37.012 14.71-39.201 2.555-1.283 18.695-8.375 31.582-14-4.218-3.729-8.07-13.535-7.948-36.975.27-51.269 29.431-57.822 29.431-57.822s.294-.905.807-2.495c-5.71-.44-10.54-.354-14.66.122-.746-10.478-.99-30.494 6.59-40.435 4.5-5.894 11.286-11.273 18.439-14.832-7.703-.122-8.535-23.769 4.402-42.122 12.936-18.353 20.859-12.521 20.859-12.521s-.391-1.602-9.243-10.638c-2.128-2.164-2.642-5.05-2.201-8.18-2.421-.073-4.769.624-7.043 2.213-28.832 20.2-58.324 120.39-58.47 120.891.097-.183 7.189-13.621 19.184-27.083 8.583-2.275.978 22.522-3.46 35.324-12.032 4.769-13.658 13.487-17.791 13.316-6.945-.306-68.558 77.642-70.674 97.451-2.115 19.808 5.54 20.676 5.54 20.676s38.674-26.215 36.375-9.77c-1.54 10.992-11.664 28.636-18.206 39.127-.33.233-.66.477-.99.71-.013 0-.025.024-.037.024-4.622 3.338-8.584 6.542-11.995 9.598-.037.037-.073.061-.11.098l-.037.037C-20.6 631.09-5.427 646.961-1.147 649.235c6.835 3.632-10.992 28.856-6.847 25.225l.012-.037z" fill="url(#L)"/><path d="m-61.978 1030.5 76.848-.52 143.976-.99 140.711-.97s-64.279-64.521-77.875-66.27c-4.28-.55-11.543 1.431-19.491 4.39-17.289 6.456-37.794 17.595-37.794 17.595s-15.981.317-33.698 2.041c-.318.025-.636.062-.954.098l-1.039.11c-15.553 1.602-32.023 4.304-39.922 8.828-5.98 3.424-13.976 7.488-21.875 11.318-14.917 7.26-29.48 13.74-29.48 13.74s-5.404-11.85-11.982-17.93c-2.262-2.09-4.659-3.496-7.03-3.496-9.245 0-25.74 24.026-25.74 24.026l-46.597 5.54-8.058 2.48v.01z" fill="url(#M)"/><path style="mix-blend-mode:multiply" opacity=".8" d="M64.476 1015.65c-.354-2.39.648-5.74 2.421-9.5-14.917 7.25-29.48 13.73-29.48 13.73s-5.404-11.85-11.982-17.93c6.933 11.32-10.381 27.84-10.565 28.03l143.976-.99c-37.672-2.03-93.33-6.23-94.382-13.34h.012z" fill="url(#N)"/><path style="mix-blend-mode:multiply" opacity=".8" d="M164.397 983.746s-15.981.318-33.698 2.042c22.266-1.553 107.233 34.392 108.529 34.942-1.052-.49-60.439-28.009-60.439-33.927 0-5.918 23.182-20.518 23.403-20.664-17.29 6.456-37.795 17.595-37.795 17.595v.012z" fill="url(#O)"/><path style="mix-blend-mode:multiply" opacity=".6" d="M128.694 985.983c.318-.025.66-.049 1.002-.098h.037l-1.039.11v-.012z" fill="url(#P)"/><path d="M1809.92 1023.21c0 1.17 2.7 1.77 6.81 2.01 2.58.15 5.72.16 9.08.09 13.42-.32 30.44-2.1 30.44-2.1l-7.46-227.642-2.18-66.271-21.78 7.569s-.26 5.074-.73 13.877l-.02.477c-.59 11.054-1.47 27.756-2.52 47.564-4.39 83.182-11.64 221.066-11.64 224.416v.01z" fill="#6A1A3A"/><path d="m1809.92 1023.22 6.81 2 9.02 2.65.06-2.56 3.77-158.518h-6.2l1.82-68.423 1.21-45.767-2.31-1.846-.02.477-2.49 47.564-11.67 224.423z" fill="#E79A47" style="mix-blend-mode:color-dodge" opacity=".3"/><path style="mix-blend-mode:multiply" opacity=".82" d="M1821.56 798.798h.03l3.61-.428 23.59-2.788-2.18-66.271-21.78 7.568s-.26 5.075-.73 13.878l-.02.477c-.59 11.053-1.47 27.756-2.52 47.564z" fill="url(#Q)"/><path d="M1636.2 701.908s30.5 53.03 135.69 61.026c39.69 3.02 88.59-30.568 133.71-40.35 74.5-16.14 139.25-13.401 139.25-13.401l-56.01-52.063-.75.648c-48.97-29.126-302.5-28.319-302.5-28.319l-49.4 72.447.01.012z" fill="#2D9693"/><path d="m1672.5 619.373 16.25 4.121-3.13 5.967s253.53-.807 302.5 28.318l.74-.648-8.67-15.675 28.91-4.06-.18-.244-59.22-81.727 22.7-4.927-85.79-125.513 16.76-7.018s-24.94-26.631-48.7-67.849-8.98-83.097-8.98-83.097c-48.57 36.499-96.22 156.643-96.22 156.643l8.05 3.95-75.23 134.719 17.81 2.739-29.96 53.715 2.36.599v-.013z" fill="#2D9693"/><path d="M1636.21 701.92s46.59 66.993 203.4 79.673c21.05 1.699 40.34 1.394 57.96-.379l8.03-58.605 18.64 71.162c20.13-3.692 37.67-9.28 52.76-15.7l-8.98-41.768 12.69 22.498c45.21-21.263 65.85-48.994 65.85-48.994s-56.77-23.134-204.72 19.514c-55.57 16.018-132.26-4.805-132.26-4.805v-56.514l-11.88 54.179-61.52-20.248.03-.013zM1670.14 619.766l15.48 9.696s253.53-.807 302.5 28.318l.74-.648 21.56-18.867s-.5-.403-1.5-1.125c-9.13-6.614-59.49-40.203-138.29-38.491-79.97 1.736-181.49 17.986-198.15 20.725-1.54.257-2.36.392-2.36.392h.02zM1957.54 564.204l14.86-13.756s-44.34-39.616-104.8-41.951c-60.45-2.336-101.37 13.694-101.37 13.694v-28.55l-6.47 30.299-77.48 40.203 13.74 8.241 4.08-7.373s133.06-93.074 257.44-.807zM1749.47 423.725l8.05 3.937s15.18-8.155 51.22-13.841 77.88 11.212 77.88 11.212l16.76-7.14s-37.88-35.679-76.96-28.551c-39.06 7.141-76.95 34.371-76.95 34.371v.012z" fill="#152822"/><path d="m1784.04 409.896 8.18-44.14-19 48.065 10.82-3.925zM1907.06 522.767c-1.18-3.057-40.52-83.023-40.52-83.023s17.03 83.891 18.22 83.023c1.19-.868 22.3 0 22.3 0z" fill="#152822"/><path d="M1841.85 619.189c-1.18-8.889-8.84-91.9-8.84-91.9l-15.71 87.828-4.88-47.772-9.36 51.856h38.81l-.02-.012z" fill="#284027"/><path d="M1694.81 579.501c0 3.9 2.86 7.067 6.41 7.067 3.54 0 6.4-3.167 6.4-7.067 0-3.901-2.86-7.067-6.4-7.067-3.55 0-6.41 3.166-6.41 7.067zM1728.34 547.894c0 2.617 1.92 4.732 4.29 4.732s4.29-2.115 4.29-4.732-1.92-4.732-4.29-4.732-4.29 2.115-4.29 4.732zM1760.23 563.85c3.53 0 6.4-3.165 6.4-7.068 0-3.903-2.87-7.067-6.4-7.067-3.54 0-6.41 3.164-6.41 7.067s2.87 7.068 6.41 7.068zM1779.56 522.398c0 1.969 1.44 3.571 3.22 3.571 1.79 0 3.23-1.602 3.23-3.571 0-1.968-1.44-3.57-3.23-3.57-1.78 0-3.22 1.602-3.22 3.57zM1849.91 541.046c0 3.9 2.86 7.067 6.41 7.067 3.55 0 6.41-3.167 6.41-7.067 0-3.901-2.86-7.067-6.41-7.067-3.55 0-6.41 3.166-6.41 7.067zM1888.98 519.782c0 2.213 1.62 4.011 3.63 4.011 2 0 3.63-1.798 3.63-4.011s-1.63-4.011-3.63-4.011c-2.01 0-3.63 1.798-3.63 4.011zM1732.05 471.034c1.81 3.35 5.75 4.45 8.78 2.445 3.04-1.993 4.03-6.334 2.22-9.684-1.81-3.35-5.75-4.451-8.78-2.445-3.04 1.993-4.03 6.333-2.22 9.684zM1758.83 467.414c1.21 2.225 3.83 2.959 5.85 1.626 2.01-1.333 2.67-4.218 1.48-6.444-1.21-2.225-3.83-2.959-5.85-1.626-2.02 1.333-2.68 4.218-1.48 6.444zM1761.07 430.255c1.04 1.907 3.28 2.531 5 1.394 1.74-1.137 2.3-3.607 1.26-5.527-1.03-1.907-3.28-2.531-5-1.394-1.74 1.137-2.3 3.607-1.26 5.527zM1838.38 394.796c1.2 2.213 3.79 2.934 5.8 1.614 2-1.321 2.66-4.182 1.46-6.395-1.19-2.213-3.79-2.935-5.79-1.614-2.01 1.32-2.67 4.181-1.47 6.395zM1854.68 363.836c1.81 3.351 5.75 4.451 8.78 2.446 3.03-1.993 4.02-6.334 2.21-9.684-1.81-3.35-5.74-4.451-8.78-2.446-3.03 2.006-4.03 6.334-2.21 9.684zM1911.68 698.887c1.04-3.729-.86-7.678-4.25-8.816-3.39-1.137-6.96.954-8 4.696-1.04 3.729.87 7.678 4.26 8.815 3.38 1.138 6.95-.953 7.99-4.695zM1847.87 723.94c.69-2.458-.57-5.05-2.8-5.808-2.22-.746-4.58.636-5.26 3.093-.68 2.458.58 5.062 2.8 5.808 2.23.746 4.59-.636 5.26-3.093zM1815.63 682.93c1.04-3.729-.87-7.679-4.26-8.816-3.38-1.137-6.96.954-7.99 4.696-1.04 3.729.86 7.678 4.25 8.815 3.39 1.138 6.96-.953 8-4.695zM1778.74 689.52c1.04-3.729-.87-7.679-4.26-8.816-3.38-1.137-6.95.954-7.99 4.695-1.04 3.73.86 7.679 4.25 8.816 3.39 1.137 6.96-.953 8-4.695zM1744.81 646.028c.65-2.335-.55-4.818-2.67-5.527-2.11-.709-4.36.599-5.01 2.935-.65 2.335.55 4.817 2.66 5.527 2.12.721 4.37-.6 5.02-2.935zM1708.42 614.016c1.04-3.729-.87-7.679-4.26-8.816-3.38-1.137-6.95.954-7.99 4.696-1.04 3.729.87 7.678 4.25 8.815 3.39 1.137 6.96-.953 8-4.695z" fill="#FFE2B3"/><path style="mix-blend-mode:screen" opacity=".5" d="M1923.43 596.032c19.62 0 35.51-17.54 35.51-39.176 0-21.637-15.89-39.176-35.51-39.176-19.61 0-35.5 17.539-35.5 39.176 0 21.636 15.89 39.176 35.5 39.176z" fill="url(#R)"/><path style="mix-blend-mode:screen" opacity=".5" d="M1782.72 550.583c13.93 0 25.22-12.454 25.22-27.817s-11.29-27.817-25.22-27.817c-13.92 0-25.21 12.454-25.21 27.817s11.29 27.817 25.21 27.817z" fill="url(#S)"/><path style="mix-blend-mode:screen" opacity=".5" d="M1772.62 736.291c24.61 0 44.55-22.006 44.55-49.153s-19.94-49.154-44.55-49.154c-24.6 0-44.54 22.007-44.54 49.154 0 27.147 19.94 49.153 44.54 49.153z" fill="url(#T)"/><path style="mix-blend-mode:screen" opacity=".5" d="M1835 360.231c0 15.37 11.28 27.817 25.21 27.817 13.92 0 25.21-12.46 25.21-27.817s-11.29-27.817-25.21-27.817c-13.93 0-25.21 12.46-25.21 27.817z" fill="url(#U)"/><path d="M1640.83 680.794c6.89 3.668 21.94-.306 28.66-6.371h.01l.4-.379c.08-.073.15-.146.22-.22 4.86-4.915 22.67 9.696 57.48 17.95-.52 6.933-.83 19.331 3.5 21.52 1.17.587 3.5.525 6.43-.049 9.4-1.834 25.03-8.902 29.1-16.36 7.27.049 14.97-1.113 23.06-3.02-2.23 10.368 5.79 28.489 9 28.734 3.7.293-3.69-21.264 18.48-35.533 0 0-.91-.281-2.4-.611 54.71-18.329 123.07-48.677 195.64 14.734-.7-.966-82.54-113.469-184.51-134.121-11.02-2.225-22.27-3.387-33.68-3.216-4.2.062-8.3.269-12.31.6-6.85.574-13.4 1.516-19.7 2.8-14.01 2.849-26.65 7.348-38 12.936a157.352 157.352 0 0 0-21.78 13.022c-.33.232-.66.477-.99.709-.01 0-.02.025-.03.025a164.771 164.771 0 0 0-12 9.598c-.03.037-.07.061-.11.098l-.03.037c-37.4 32.989-50.77 74.842-46.46 77.141l.02-.024z" fill="url(#V)"/><path d="M1765.19 432.394c-1.52 4.378-2.67 7.349-2.67 7.349l14.26-3.203s-.37-2.642-.66-6.75c-.74-10.479-.99-30.495 6.59-40.435 4.5-5.894 11.29-11.274 18.44-14.832 3.44-1.712 6.96-3.02 10.36-3.754 6.1-1.332 11.78-.856 15.82 2.25 10.95 8.425-21.25 33.087-19.41 34.97 1.8 1.834 23.09-31.131 46.36-21.3 14.73 10.039 25.55 21.141 25.71 21.3-.17-.514-36.72-106.132-65.02-106.927-2.42-.073-4.77.623-7.05 2.213-28.83 20.199-58.32 120.389-58.47 120.891.1-.184 7.19-13.622 19.19-27.084 8.58-2.274.98 22.523-3.46 35.325l.01-.013z" fill="url(#W)"/><path d="M1833.01 319.88s-5.8-16.017-4.62-30.005c1.19-13.988 18.36-22.865 17.82-22.865-.54 0-20.07 6.994-35.24 31.167-9.42 14.991 3.17 17.473 22.04 21.703z" fill="url(#X)"/><path d="M1682.28 563.837s38.67-26.215 36.37-9.769c-1.54 10.992-11.66 28.636-18.2 39.127-3.26 5.209-5.63 8.657-5.63 8.657l20.73-5.82s15.71 2.335 6.67-15.859c-9.02-18.194 10.35-37.012 14.71-39.201 2.56-1.283 18.7-8.375 31.59-14 9.04-3.949 16.48-7.189 16.48-7.189s53.97-11.139 44.59 7.495c-6.49 12.912-33.6 28.673-49.67 37.158-7.14 3.766-12.1 6.102-12.1 6.102s59.26 1.015 58.09-3.485c-1.17-4.512 16.89-49.104 51.33-47.356 0 0-15.58-76.616-69.29-87.535-6.46-1.308-12.14-2.115-17.14-2.494-5.71-.44-10.54-.355-14.66.122-4.41.502-7.99 1.431-10.94 2.605-12.03 4.768-13.65 13.486-17.79 13.315-6.94-.306-68.55 77.643-70.67 97.451-2.11 19.808 5.54 20.676 5.54 20.676h-.01z" fill="url(#Y)"/><path d="M1755.57 713.426c21.19.759-13.66 18.354-13.66 18.354s.44-18.818 13.66-18.354z" fill="url(#Z)"/><path d="M1682.28 701.187c8.8 11.958-30.41 10.687-36.92 3.742-6.5-6.946 21.47-24.712 36.92-3.742z" fill="url(#aa)"/><path style="mix-blend-mode:multiply" opacity=".6" d="M1669.49 674.423h.01c.12-.098.24-.232.4-.379.08-.073.15-.147.22-.22 4.86-4.915 22.67 9.696 57.48 17.95-.52 6.932-.83 19.331 3.5 21.52 1.17.586 3.5.525 6.43-.049-13.23-13.585 16.28-25.592 7.44-26.179-8.84-.587-27.86-100.055 15.24-119.815-14.01 2.849-26.65 7.349-38 12.937-9.02-18.194 10.35-37.012 14.71-39.201 2.56-1.283 18.7-8.375 31.58-14-4.21-3.729-8.07-13.535-7.94-36.975.26-51.269 29.43-57.822 29.43-57.822l.8-2.495c-5.71-.44-10.54-.354-14.66.122-.74-10.478-.99-30.494 6.59-40.435 4.5-5.894 11.29-11.273 18.44-14.832-7.7-.122-8.53-23.769 4.4-42.122 12.94-18.353 20.86-12.521 20.86-12.521s-.39-1.602-9.24-10.638c-2.13-2.164-2.64-5.05-2.2-8.18-2.42-.073-4.77.624-7.04 2.213-28.84 20.2-58.33 120.39-58.47 120.891.09-.183 7.19-13.621 19.18-27.083 8.58-2.275.98 22.522-3.46 35.324-12.03 4.769-13.66 13.487-17.79 13.316-6.95-.306-68.56 77.642-70.67 97.451-2.12 19.808 5.53 20.676 5.53 20.676s38.68-26.215 36.38-9.77c-1.54 10.992-11.66 28.636-18.21 39.127-.33.233-.66.477-.99.71-.01 0-.02.024-.03.024-4.62 3.338-8.59 6.542-12 9.598-.03.037-.07.061-.11.098l-.03.037c-30.4 27.389-15.23 43.26-10.95 45.534 6.84 3.632-10.99 28.856-6.84 25.225l.01-.037z" fill="url(#ab)"/><path d="m1615.49 1030.5 76.85-.52 143.98-.99 140.71-.97s-64.28-64.521-77.88-66.27c-4.28-.55-11.54 1.431-19.49 4.39-17.29 6.456-37.79 17.595-37.79 17.595s-15.98.317-33.7 2.041c-.32.025-.64.062-.95.098l-1.04.11c-15.56 1.602-32.03 4.304-39.93 8.828-5.98 3.424-13.97 7.488-21.87 11.318-14.92 7.26-29.48 13.74-29.48 13.74s-5.4-11.85-11.98-17.93c-2.27-2.09-4.66-3.496-7.03-3.496-9.25 0-25.74 24.026-25.74 24.026l-46.6 5.54-8.06 2.48v.01z" fill="url(#ac)"/><path style="mix-blend-mode:multiply" opacity=".8" d="M1841.86 983.746s-15.99.318-33.7 2.042c22.26-1.553 107.23 34.392 108.53 34.942-1.06-.49-60.44-28.009-60.44-33.927 0-5.918 23.18-20.518 23.4-20.664-17.29 6.456-37.79 17.595-37.79 17.595v.012z" fill="url(#ad)"/><path style="mix-blend-mode:multiply" opacity=".6" d="M1806.15 985.983c.32-.025.66-.049 1-.098h.04c-.34.036-.7.073-1.04.11v-.012z" fill="url(#ae)"/><path d="m602.81 1173.79-100.776-1.13-188.813-2.14-184.521-2.09s84.294-140.21 102.122-144c5.612-1.2 15.137 3.09 25.554 9.54 22.67 14.03 49.57 38.25 49.57 38.25s20.957.7 44.189 4.44c.416.06.831.13 1.259.21.453.07.905.14 1.37.23 20.407 3.47 42 9.34 52.357 19.17 7.85 7.45 18.328 16.26 28.685 24.6 19.551 15.76 36.425 20.42 36.425 20.42s9.317-16.33 17.937-29.53c2.971-4.53 6.114-7.58 9.219-7.58 12.117 0 33.76 52.23 33.76 52.23s57.052 5.55 63.838 7.16c6.786 1.62 7.825 10.25 7.825 10.25v-.03z" fill="url(#af)"/><path style="mix-blend-mode:multiply" opacity=".8" d="M305.946 1072.21s20.957.69 44.189 4.44c-29.199-3.37-140.613 74.73-142.325 75.93 1.381-1.07 79.257-60.87 79.257-73.73 0-12.87-30.397-44.58-30.703-44.89 22.669 14.03 49.569 38.25 49.569 38.25h.013z" fill="url(#ag)"/><path style="mix-blend-mode:screen" opacity=".42" d="M984.28 482.024c-13.146 2.271-25.649-6.539-27.92-19.685-2.271-13.146 6.539-25.649 19.685-27.92 13.146-2.271 25.645 6.539 27.925 19.685 2.27 13.146-6.544 25.649-19.69 27.92z" fill="url(#ah)"/><path style="mix-blend-mode:screen" opacity=".42" d="M935.717 714.481a8.505 8.505 0 0 1-9.822-6.922 8.507 8.507 0 0 1 6.922-9.822 8.506 8.506 0 0 1 9.822 6.922 8.505 8.505 0 0 1-6.922 9.822z" fill="url(#ai)"/><path style="mix-blend-mode:screen" opacity=".42" d="M986.77 469.082c-6.977 1.204-13.625-3.475-14.829-10.451-1.204-6.977 3.475-13.625 10.451-14.829 6.977-1.204 13.625 3.475 14.829 10.451 1.204 6.977-3.475 13.625-10.451 14.829z" fill="url(#aj)"/><path style="mix-blend-mode:screen" opacity=".42" d="M1873.28 766.074c6.47-25.942-9.31-52.22-35.25-58.693-25.94-6.472-52.22 9.31-58.69 35.252-6.48 25.942 9.31 52.22 35.25 58.693 25.94 6.473 52.22-9.31 58.69-35.252z" fill="url(#ak)"/><path style="mix-blend-mode:screen" opacity=".42" d="M1841.94 734.22c7.3 12.175 3.35 27.961-8.83 35.266-12.17 7.305-27.96 3.351-35.26-8.824-7.31-12.174-3.35-27.961 8.82-35.266 12.18-7.304 27.96-3.351 35.27 8.824z" fill="url(#al)"/><path style="mix-blend-mode:screen" opacity=".42" d="M915.116 601.485c-13.775-10.574-16.361-30.314-5.773-44.089 10.574-13.776 30.314-16.361 44.09-5.773 13.775 10.574 16.36 30.314 5.772 44.089-10.574 13.776-30.314 16.361-44.089 5.773z" fill="url(#am)"/><path style="mix-blend-mode:screen" opacity=".42" d="M956.332 382.707c-4.842-3.72-5.759-10.656-2.038-15.512 3.721-4.843 10.657-5.759 15.513-2.039 4.842 3.721 5.759 10.671 2.038 15.513-3.721 4.843-10.656 5.759-15.513 2.038z" fill="url(#an)"/><path style="mix-blend-mode:screen" opacity=".42" d="M929.712 592.458c-7.319-5.622-8.687-16.101-3.064-23.406 5.622-7.319 16.101-8.687 23.406-3.064 7.318 5.622 8.686 16.101 3.064 23.406-5.623 7.318-16.101 8.686-23.406 3.064z" fill="url(#ao)"/><path style="mix-blend-mode:screen" opacity=".42" d="M315.442 389.37c-3.844-4.035-3.68-10.424.356-14.254 4.035-3.844 10.424-3.68 14.254.356 3.844 4.035 3.68 10.424-.356 14.254-4.035 3.844-10.424 3.68-14.254-.356z" fill="url(#ap)"/><path style="mix-blend-mode:screen" opacity=".42" d="M345.25 449.779a4.976 4.976 0 0 1 .178-7.045 4.976 4.976 0 0 1 7.045.178 4.976 4.976 0 0 1-.178 7.045 4.976 4.976 0 0 1-7.045-.178z" fill="url(#aq)"/><g opacity=".3"><path style="mix-blend-mode:screen" opacity=".42" d="M362.869 386.128c1.792-31.614 28.878-55.785 60.492-53.993 31.613 1.792 55.785 28.877 53.993 60.491-1.792 31.613-28.878 55.785-60.491 53.993-31.614-1.792-55.786-28.877-53.994-60.491z" fill="url(#ar)"/><path style="mix-blend-mode:screen" opacity=".42" d="M532.962 181.411c.629-11.122 10.15-19.617 21.272-18.988 11.121.63 19.616 10.151 18.987 21.272-.629 11.122-10.15 19.617-21.272 18.988-11.121-.63-19.616-10.151-18.987-21.272z" fill="url(#as)"/><path style="mix-blend-mode:screen" opacity=".42" d="M391.46 398.836c.957-16.785 15.335-29.63 32.12-28.672 16.785.957 29.63 15.334 28.672 32.119-.957 16.785-15.335 29.63-32.12 28.673-16.785-.958-29.63-15.335-28.672-32.12z" fill="url(#at)"/><path style="mix-blend-mode:screen" opacity=".42" d="M252.844 263.749c1.423-25.116 22.927-44.308 48.043-42.886 25.116 1.423 44.308 22.927 42.886 48.043-1.423 25.116-22.927 44.308-48.043 42.886-25.116-1.423-44.308-22.927-42.886-48.043z" fill="url(#au)"/><path style="mix-blend-mode:screen" opacity=".42" d="M275.552 273.843c.753-13.338 12.175-23.529 25.513-22.777 13.338.753 23.529 12.175 22.776 25.513-.752 13.338-12.174 23.529-25.512 22.776-13.338-.752-23.529-12.174-22.777-25.512z" fill="url(#av)"/><path style="mix-blend-mode:screen" opacity=".42" d="M1526.64 245.582c10.38 4.05 15.51 15.732 11.46 26.115-4.05 10.383-15.73 15.512-26.12 11.463-10.38-4.049-15.51-15.731-11.46-26.114 4.05-10.383 15.73-15.513 26.12-11.464z" fill="url(#aw)"/><path style="mix-blend-mode:screen" opacity=".42" d="M1430.32 236.1c8.29 3.228 12.39 12.572 9.15 20.861-3.23 8.29-12.57 12.394-20.86 9.152-8.29-3.228-12.4-12.571-9.15-20.861 3.22-8.29 12.57-12.394 20.86-9.152z" fill="url(#ax)"/><path style="mix-blend-mode:screen" opacity=".42" d="M1463.5 199.92c2.92 1.135 4.35 4.418 3.22 7.332a5.662 5.662 0 0 1-10.55-4.117 5.66 5.66 0 0 1 7.33-3.215z" fill="url(#ay)"/><path style="mix-blend-mode:screen" opacity=".42" d="M1424.44 242.642c4.4 1.71 6.57 6.675 4.85 11.08-1.71 4.405-6.67 6.58-11.08 4.856-4.4-1.709-6.58-6.675-4.86-11.08 1.71-4.405 6.68-6.58 11.09-4.856z" fill="url(#az)"/><path style="mix-blend-mode:screen" opacity=".42" d="M1398.96 528.013c-21.86-22.982-20.94-59.342 2.04-81.188 22.98-21.86 59.33-20.944 81.19 2.038s20.94 59.342-2.04 81.188c-22.98 21.86-59.34 20.944-81.19-2.038z" fill="url(#aA)"/><path style="mix-blend-mode:screen" opacity=".42" d="M1427.84 515.851c-11.6-12.202-11.12-31.504 1.08-43.118 12.2-11.6 31.51-11.121 43.12 1.081 11.6 12.202 11.12 31.504-1.08 43.118-12.2 11.6-31.5 11.121-43.12-1.081z" fill="url(#aB)"/></g><path style="mix-blend-mode:screen" opacity=".7" d="M1887.96 778.971c159.82 0 289.38-129.558 289.38-289.376 0-159.818-129.56-289.376-289.38-289.376-159.81 0-289.37 129.558-289.37 289.376 0 159.818 129.56 289.376 289.37 289.376z" fill="url(#aC)"/><path style="mix-blend-mode:screen" opacity=".79" d="M1889.98 588.737c54.76 0 99.14-44.387 99.14-99.141 0-54.754-44.38-99.141-99.14-99.141-54.75 0-99.14 44.387-99.14 99.141 0 54.754 44.39 99.141 99.14 99.141z" fill="url(#aD)"/><path style="mix-blend-mode:screen" opacity=".7" d="M482.859 698.859c115.953-115.954 115.953-303.952 0-419.906C366.905 163 178.907 163 62.953 278.953c-115.954 115.954-115.954 303.952 0 419.906 115.954 115.954 303.952 115.954 419.906 0z" fill="url(#aE)"/><path style="mix-blend-mode:screen" opacity=".79" d="M350.434 560.845c39.725-39.725 39.725-104.132 0-143.857-39.725-39.725-104.132-39.725-143.857 0-39.725 39.725-39.725 104.131 0 143.856 39.725 39.725 104.132 39.726 143.857.001z" fill="url(#aF)"/><path style="mix-blend-mode:screen" opacity=".79" d="M321.272 743.569c39.725-39.725 39.725-104.132 0-143.857-39.725-39.725-104.132-39.725-143.857 0-39.725 39.725-39.725 104.132 0 143.857 39.725 39.725 104.132 39.725 143.857 0z" fill="url(#aG)"/><path style="mix-blend-mode:screen" opacity=".5" d="M1800.94 1301.16c176.3 0 319.21-63.48 319.21-141.79s-142.91-141.79-319.21-141.79c-176.3 0-319.21 63.48-319.21 141.79s142.91 141.79 319.21 141.79z" fill="url(#aH)"/><path style="mix-blend-mode:screen" opacity=".5" d="M228.905 1267.87c176.297 0 319.214-51.11 319.214-114.15 0-63.05-142.917-114.16-319.214-114.16s-319.214 51.11-319.214 114.16c0 63.04 142.917 114.15 319.214 114.15z" fill="url(#aI)"/><path opacity=".3" fill="url(#aJ)" d="M-13 69h1936v1018H-13z"/></g><defs><linearGradient id="b" x1="961.993" y1="1336.09" x2="961.993" y2="236.089" gradientUnits="userSpaceOnUse"><stop stop-color="#D4E4FD"/><stop offset=".47" stop-color="#7C81BD"/><stop offset="1" stop-color="#464688"/></linearGradient><linearGradient id="c" x1="1247.33" y1="1274.51" x2="1270.48" y2="-117.609" gradientUnits="userSpaceOnUse"><stop stop-color="#D4E4FD"/><stop offset=".47" stop-color="#7C81BD"/><stop offset="1" stop-color="#464688"/></linearGradient><linearGradient id="d" x1="363.426" y1="858.467" x2="466.831" y2="361.492" gradientUnits="userSpaceOnUse"><stop stop-color="#D4E4FD"/><stop offset=".47" stop-color="#7C81BD"/><stop offset="1" stop-color="#464688"/></linearGradient><linearGradient id="e" x1="361.825" y1="1512.91" x2="114.908" y2="1020.74" gradientUnits="userSpaceOnUse"><stop stop-color="#D4E4FD"/><stop offset=".47" stop-color="#7C81BD"/><stop offset="1" stop-color="#464688"/></linearGradient><linearGradient id="f" x1="254.75" y1="1521.29" x2="227.875" y2="879.62" gradientUnits="userSpaceOnUse"><stop stop-color="#D4E4FD"/><stop offset=".47" stop-color="#7C81BD"/><stop offset="1" stop-color="#464688"/></linearGradient><linearGradient id="g" x1="454.347" y1="1657.95" x2="403.959" y2="1126.31" gradientUnits="userSpaceOnUse"><stop stop-color="#B3C8E8"/><stop offset=".47" stop-color="#6368A8"/><stop offset="1" stop-color="#333373"/></linearGradient><linearGradient id="h" x1="173.555" y1="1703.48" x2="123.167" y2="1171.84" gradientUnits="userSpaceOnUse"><stop stop-color="#B3C8E8"/><stop offset=".47" stop-color="#6368A8"/><stop offset="1" stop-color="#333373"/></linearGradient><linearGradient id="i" x1="810.869" y1="1448.91" x2="563.952" y2="956.737" gradientUnits="userSpaceOnUse"><stop stop-color="#D4E4FD"/><stop offset=".47" stop-color="#7C81BD"/><stop offset="1" stop-color="#464688"/></linearGradient><linearGradient id="j" x1="2263.82" y1="1504.91" x2="2016.91" y2="1012.74" gradientUnits="userSpaceOnUse"><stop stop-color="#D4E4FD"/><stop offset=".47" stop-color="#7C81BD"/><stop offset="1" stop-color="#464688"/></linearGradient><linearGradient id="k" x1="754.2" y1="1687.14" x2="703.799" y2="1155.49" gradientUnits="userSpaceOnUse"><stop stop-color="#D4E4FD"/><stop offset=".47" stop-color="#7C81BD"/><stop offset="1" stop-color="#464688"/></linearGradient><linearGradient id="l" x1="1336.84" y1="1475.97" x2="1309.96" y2="834.307" gradientUnits="userSpaceOnUse"><stop stop-color="#D4E4FD"/><stop offset=".47" stop-color="#7C81BD"/><stop offset="1" stop-color="#464688"/></linearGradient><linearGradient id="m" x1="1496.4" y1="1469.28" x2="1469.53" y2="827.619" gradientUnits="userSpaceOnUse"><stop stop-color="#D4E4FD"/><stop offset=".47" stop-color="#7C81BD"/><stop offset="1" stop-color="#464688"/></linearGradient><linearGradient id="n" x1="1860.67" y1="1499.64" x2="1833.8" y2="857.975" gradientUnits="userSpaceOnUse"><stop stop-color="#D4E4FD"/><stop offset=".47" stop-color="#7C81BD"/><stop offset="1" stop-color="#464688"/></linearGradient><linearGradient id="o" x1="1777.88" y1="1457.49" x2="1751.01" y2="815.82" gradientUnits="userSpaceOnUse"><stop stop-color="#D4E4FD"/><stop offset=".47" stop-color="#7C81BD"/><stop offset="1" stop-color="#464688"/></linearGradient><linearGradient id="p" x1="829.98" y1="180.286" x2="845.105" y2="812.715" gradientUnits="userSpaceOnUse"><stop stop-color="#D4E4FD"/><stop offset=".47" stop-color="#7C81BD"/><stop offset="1" stop-color="#464688"/></linearGradient><linearGradient id="q" x1="983.81" y1="343.886" x2="883.021" y2="1657.43" gradientUnits="userSpaceOnUse"><stop stop-color="#16274C"/><stop offset="1" stop-color="#293D79"/></linearGradient><linearGradient id="r" x1="983.81" y1="343.886" x2="883.021" y2="1657.43" gradientUnits="userSpaceOnUse"><stop stop-color="#16274C"/><stop offset="1" stop-color="#293D79"/></linearGradient><linearGradient id="s" x1="1289.04" y1="225.72" x2="1304.17" y2="858.149" gradientUnits="userSpaceOnUse"><stop stop-color="#D4E4FD"/><stop offset=".47" stop-color="#7C81BD"/><stop offset="1" stop-color="#464688"/></linearGradient><linearGradient id="t" x1="1161.62" y1="1466.82" x2="1150.66" y2="924.702" gradientUnits="userSpaceOnUse"><stop stop-color="#E2DAFE"/><stop offset=".99" stop-color="#B7C8F0"/></linearGradient><linearGradient id="u" x1="1294.64" y1="1429.74" x2="1294.64" y2="1323.03" gradientUnits="userSpaceOnUse"><stop stop-color="#E2DAFE"/><stop offset=".99" stop-color="#B7C8F0"/></linearGradient><linearGradient id="v" x1="1365.31" y1="776.485" x2="1352.38" y2="1677.23" gradientUnits="userSpaceOnUse"><stop stop-color="#684B67"/><stop offset="1" stop-color="#0D164C"/></linearGradient><linearGradient id="w" x1="1525.39" y1="966.937" x2="1536.7" y2="1071.68" gradientUnits="userSpaceOnUse"><stop stop-color="#E2DAFE"/><stop offset=".99" stop-color="#B7C8F0"/></linearGradient><linearGradient id="x" x1="1558.42" y1="1025.79" x2="1561.78" y2="1056.87" gradientUnits="userSpaceOnUse"><stop stop-color="#E2DAFE"/><stop offset=".99" stop-color="#B7C8F0"/></linearGradient><linearGradient id="y" x1="656.136" y1="957.243" x2="665.906" y2="1047.75" gradientUnits="userSpaceOnUse"><stop stop-color="#E2DAFE"/><stop offset=".99" stop-color="#B7C8F0"/></linearGradient><linearGradient id="z" x1="664.866" y1="984.07" x2="670.87" y2="1039.68" gradientUnits="userSpaceOnUse"><stop stop-color="#E2DAFE"/><stop offset=".99" stop-color="#B7C8F0"/></linearGradient><linearGradient id="A" x1="157.758" y1="806.819" x2="157.305" y2="711.312" gradientUnits="userSpaceOnUse"><stop stop-color="#C7A5B3"/><stop offset="1" stop-color="#8E4257"/></linearGradient><linearGradient id="F" x1="247.457" y1="629.647" x2="85.018" y2="646.802" gradientUnits="userSpaceOnUse"><stop offset=".02" stop-color="#E6DBFF"/><stop offset="1" stop-color="#B7C8F0"/></linearGradient><linearGradient id="G" x1="221.718" y1="358.689" x2="58.986" y2="375.88" gradientUnits="userSpaceOnUse"><stop offset=".02" stop-color="#E6DBFF"/><stop offset="1" stop-color="#B7C8F0"/></linearGradient><linearGradient id="H" x1="216.021" y1="287.759" x2="51.943" y2="305.085" gradientUnits="userSpaceOnUse"><stop offset=".02" stop-color="#E6DBFF"/><stop offset="1" stop-color="#B7C8F0"/></linearGradient><linearGradient id="I" x1="235.266" y1="497.101" x2="72.46" y2="514.293" gradientUnits="userSpaceOnUse"><stop offset=".02" stop-color="#E6DBFF"/><stop offset="1" stop-color="#B7C8F0"/></linearGradient><linearGradient id="J" x1="84.945" y1="722.597" x2="64.452" y2="722.597" gradientUnits="userSpaceOnUse"><stop stop-color="#E2DAFE"/><stop offset=".99" stop-color="#B7C8F0"/></linearGradient><linearGradient id="K" x1="6.103" y1="700.722" x2="-33.073" y2="700.722" gradientUnits="userSpaceOnUse"><stop stop-color="#E2DAFE"/><stop offset=".99" stop-color="#B7C8F0"/></linearGradient><linearGradient id="L" x1="148.954" y1="507.375" x2="-8.704" y2="507.375" gradientUnits="userSpaceOnUse"><stop stop-color="#E2DAFE"/><stop offset=".99" stop-color="#B7C8F0"/></linearGradient><linearGradient id="M" x1="126.138" y1="935.682" x2="115.684" y2="1068.87" gradientUnits="userSpaceOnUse"><stop stop-color="#E2DAFE"/><stop offset=".99" stop-color="#B7C8F0"/></linearGradient><linearGradient id="N" x1="89.09" y1="1001.05" x2="85.788" y2="1043.28" gradientUnits="userSpaceOnUse"><stop stop-color="#E2DAFE"/><stop offset=".99" stop-color="#B7C8F0"/></linearGradient><linearGradient id="O" x1="239.228" y1="993.442" x2="130.699" y2="993.442" gradientUnits="userSpaceOnUse"><stop stop-color="#E2DAFE"/><stop offset=".99" stop-color="#B7C8F0"/></linearGradient><linearGradient id="P" x1="129.733" y1="985.934" x2="128.694" y2="985.934" gradientUnits="userSpaceOnUse"><stop stop-color="#E2DAFE"/><stop offset=".99" stop-color="#B7C8F0"/></linearGradient><linearGradient id="Q" x1="1835.22" y1="806.819" x2="1834.78" y2="711.312" gradientUnits="userSpaceOnUse"><stop stop-color="#C7A5B3"/><stop offset="1" stop-color="#8E4257"/></linearGradient><linearGradient id="V" x1="1924.93" y1="629.647" x2="1762.48" y2="646.802" gradientUnits="userSpaceOnUse"><stop offset=".02" stop-color="#E6DBFF"/><stop offset="1" stop-color="#B7C8F0"/></linearGradient><linearGradient id="W" x1="1899.19" y1="358.689" x2="1736.46" y2="375.88" gradientUnits="userSpaceOnUse"><stop offset=".02" stop-color="#E6DBFF"/><stop offset="1" stop-color="#B7C8F0"/></linearGradient><linearGradient id="X" x1="1893.49" y1="287.759" x2="1729.4" y2="305.085" gradientUnits="userSpaceOnUse"><stop offset=".02" stop-color="#E6DBFF"/><stop offset="1" stop-color="#B7C8F0"/></linearGradient><linearGradient id="Y" x1="1912.74" y1="497.101" x2="1749.93" y2="514.293" gradientUnits="userSpaceOnUse"><stop offset=".02" stop-color="#E6DBFF"/><stop offset="1" stop-color="#B7C8F0"/></linearGradient><linearGradient id="Z" x1="1762.41" y1="722.597" x2="1741.92" y2="722.597" gradientUnits="userSpaceOnUse"><stop stop-color="#E2DAFE"/><stop offset=".99" stop-color="#B7C8F0"/></linearGradient><linearGradient id="aa" x1="1683.56" y1="700.722" x2="1644.4" y2="700.722" gradientUnits="userSpaceOnUse"><stop stop-color="#E2DAFE"/><stop offset=".99" stop-color="#B7C8F0"/></linearGradient><linearGradient id="ab" x1="1826.42" y1="507.375" x2="1668.77" y2="507.375" gradientUnits="userSpaceOnUse"><stop stop-color="#E2DAFE"/><stop offset=".99" stop-color="#B7C8F0"/></linearGradient><linearGradient id="ac" x1="1803.6" y1="935.682" x2="1793.15" y2="1068.87" gradientUnits="userSpaceOnUse"><stop stop-color="#E2DAFE"/><stop offset=".99" stop-color="#B7C8F0"/></linearGradient><linearGradient id="ad" x1="1916.69" y1="993.442" x2="1808.17" y2="993.442" gradientUnits="userSpaceOnUse"><stop stop-color="#E2DAFE"/><stop offset=".99" stop-color="#B7C8F0"/></linearGradient><linearGradient id="ae" x1="1807.2" y1="985.934" x2="1806.16" y2="985.934" gradientUnits="userSpaceOnUse"><stop stop-color="#E2DAFE"/><stop offset=".99" stop-color="#B7C8F0"/></linearGradient><linearGradient id="af" x1="350.648" y1="978.512" x2="371.153" y2="1239.94" gradientUnits="userSpaceOnUse"><stop stop-color="#E2DAFE"/><stop offset=".99" stop-color="#B7C8F0"/></linearGradient><linearGradient id="ag" x1="207.822" y1="1093.26" x2="350.147" y2="1093.26" gradientUnits="userSpaceOnUse"><stop stop-color="#E2DAFE"/><stop offset=".99" stop-color="#B7C8F0"/></linearGradient><radialGradient id="B" cx="0" cy="0" r="1" gradientUnits="userSpaceOnUse" gradientTransform="matrix(-35.6683 0 0 -39.0332 223.307 554.751)"><stop stop-color="#DC443A"/><stop offset=".12" stop-color="#AF362E"/><stop offset=".29" stop-color="#7A2520"/><stop offset=".45" stop-color="#4E1814"/><stop offset=".6" stop-color="#2C0D0B"/><stop offset=".75" stop-color="#130605"/><stop offset=".88" stop-color="#050101"/><stop offset=".99"/></radialGradient><radialGradient id="C" cx="0" cy="0" r="1" gradientUnits="userSpaceOnUse" gradientTransform="matrix(-25.3255 0 0 -27.7147 81.943 520.795)"><stop stop-color="#DC443A"/><stop offset=".12" stop-color="#AF362E"/><stop offset=".29" stop-color="#7A2520"/><stop offset=".45" stop-color="#4E1814"/><stop offset=".6" stop-color="#2C0D0B"/><stop offset=".75" stop-color="#130605"/><stop offset=".88" stop-color="#050101"/><stop offset=".99"/></radialGradient><radialGradient id="D" cx="0" cy="0" r="1" gradientUnits="userSpaceOnUse" gradientTransform="matrix(-44.7539 0 0 -48.9759 71.808 684.546)"><stop stop-color="#DC443A"/><stop offset=".12" stop-color="#AF362E"/><stop offset=".29" stop-color="#7A2520"/><stop offset=".45" stop-color="#4E1814"/><stop offset=".6" stop-color="#2C0D0B"/><stop offset=".75" stop-color="#130605"/><stop offset=".88" stop-color="#050101"/><stop offset=".99"/></radialGradient><radialGradient id="E" cx="0" cy="0" r="1" gradientUnits="userSpaceOnUse" gradientTransform="matrix(-25.3255 0 0 -27.7147 159.786 358.848)"><stop stop-color="#DC443A"/><stop offset=".12" stop-color="#AF362E"/><stop offset=".29" stop-color="#7A2520"/><stop offset=".45" stop-color="#4E1814"/><stop offset=".6" stop-color="#2C0D0B"/><stop offset=".75" stop-color="#130605"/><stop offset=".88" stop-color="#050101"/><stop offset=".99"/></radialGradient><radialGradient id="R" cx="0" cy="0" r="1" gradientUnits="userSpaceOnUse" gradientTransform="matrix(-35.6683 0 0 -39.0332 1908.09 -13.642)"><stop stop-color="#DC443A"/><stop offset=".12" stop-color="#AF362E"/><stop offset=".29" stop-color="#7A2520"/><stop offset=".45" stop-color="#4E1814"/><stop offset=".6" stop-color="#2C0D0B"/><stop offset=".75" stop-color="#130605"/><stop offset=".88" stop-color="#050101"/><stop offset=".99"/></radialGradient><radialGradient id="S" cx="0" cy="0" r="1" gradientUnits="userSpaceOnUse" gradientTransform="matrix(-25.3255 0 0 -27.7147 1766.72 520.795)"><stop stop-color="#DC443A"/><stop offset=".12" stop-color="#AF362E"/><stop offset=".29" stop-color="#7A2520"/><stop offset=".45" stop-color="#4E1814"/><stop offset=".6" stop-color="#2C0D0B"/><stop offset=".75" stop-color="#130605"/><stop offset=".88" stop-color="#050101"/><stop offset=".99"/></radialGradient><radialGradient id="T" cx="0" cy="0" r="1" gradientUnits="userSpaceOnUse" gradientTransform="matrix(-44.7538 0 0 -48.9759 1756.57 684.546)"><stop stop-color="#DC443A"/><stop offset=".12" stop-color="#AF362E"/><stop offset=".29" stop-color="#7A2520"/><stop offset=".45" stop-color="#4E1814"/><stop offset=".6" stop-color="#2C0D0B"/><stop offset=".75" stop-color="#130605"/><stop offset=".88" stop-color="#050101"/><stop offset=".99"/></radialGradient><radialGradient id="U" cx="0" cy="0" r="1" gradientUnits="userSpaceOnUse" gradientTransform="matrix(-25.3255 0 0 -27.7147 1844.56 358.848)"><stop stop-color="#DC443A"/><stop offset=".12" stop-color="#AF362E"/><stop offset=".29" stop-color="#7A2520"/><stop offset=".45" stop-color="#4E1814"/><stop offset=".6" stop-color="#2C0D0B"/><stop offset=".75" stop-color="#130605"/><stop offset=".88" stop-color="#050101"/><stop offset=".99"/></radialGradient><radialGradient id="ah" cx="0" cy="0" r="1" gradientUnits="userSpaceOnUse" gradientTransform="rotate(80.19 217.94 811.135) scale(24.1582)"><stop stop-color="#E382A9"/><stop offset=".38" stop-color="#E180A7"/><stop offset=".52" stop-color="#DA7DA2"/><stop offset=".61" stop-color="#CE7699"/><stop offset=".69" stop-color="#BD6C8D"/><stop offset=".76" stop-color="#A75F7C"/><stop offset=".82" stop-color="#8C5068"/><stop offset=".87" stop-color="#6B3D50"/><stop offset=".92" stop-color="#462834"/><stop offset=".97" stop-color="#1D1015"/><stop offset="1"/></radialGradient><radialGradient id="ai" cx="0" cy="0" r="1" gradientUnits="userSpaceOnUse" gradientTransform="matrix(1.4474 8.37083 -8.37087 1.4474 934.191 706.06)"><stop stop-color="#E382A9"/><stop offset=".38" stop-color="#E180A7"/><stop offset=".52" stop-color="#DA7DA2"/><stop offset=".61" stop-color="#CE7699"/><stop offset=".69" stop-color="#BD6C8D"/><stop offset=".76" stop-color="#A75F7C"/><stop offset=".82" stop-color="#8C5068"/><stop offset=".87" stop-color="#6B3D50"/><stop offset=".92" stop-color="#462834"/><stop offset=".97" stop-color="#1D1015"/><stop offset="1"/></radialGradient><radialGradient id="aj" cx="0" cy="0" r="1" gradientUnits="userSpaceOnUse" gradientTransform="rotate(80.19 221.21 812.873) scale(12.8315)"><stop stop-color="#E382A9"/><stop offset=".38" stop-color="#E180A7"/><stop offset=".52" stop-color="#DA7DA2"/><stop offset=".61" stop-color="#CE7699"/><stop offset=".69" stop-color="#BD6C8D"/><stop offset=".76" stop-color="#A75F7C"/><stop offset=".82" stop-color="#8C5068"/><stop offset=".87" stop-color="#6B3D50"/><stop offset=".92" stop-color="#462834"/><stop offset=".97" stop-color="#1D1015"/><stop offset="1"/></radialGradient><radialGradient id="ak" cx="0" cy="0" r="1" gradientUnits="userSpaceOnUse" gradientTransform="rotate(-30.97 2275.781 -2918.906) scale(48.4122)"><stop stop-color="#E382A9"/><stop offset=".38" stop-color="#E180A7"/><stop offset=".52" stop-color="#DA7DA2"/><stop offset=".61" stop-color="#CE7699"/><stop offset=".69" stop-color="#BD6C8D"/><stop offset=".76" stop-color="#A75F7C"/><stop offset=".82" stop-color="#8C5068"/><stop offset=".87" stop-color="#6B3D50"/><stop offset=".92" stop-color="#462834"/><stop offset=".97" stop-color="#1D1015"/><stop offset="1"/></radialGradient><radialGradient id="al" cx="0" cy="0" r="1" gradientUnits="userSpaceOnUse" gradientTransform="rotate(-30.96 2257.968 -2912.256) scale(25.704)"><stop stop-color="#E382A9"/><stop offset=".38" stop-color="#E180A7"/><stop offset=".52" stop-color="#DA7DA2"/><stop offset=".61" stop-color="#CE7699"/><stop offset=".69" stop-color="#BD6C8D"/><stop offset=".76" stop-color="#A75F7C"/><stop offset=".82" stop-color="#8C5068"/><stop offset=".87" stop-color="#6B3D50"/><stop offset=".92" stop-color="#462834"/><stop offset=".97" stop-color="#1D1015"/><stop offset="1"/></radialGradient><radialGradient id="am" cx="0" cy="0" r="1" gradientUnits="userSpaceOnUse" gradientTransform="rotate(127.53 324.725 518.296) scale(31.4358)"><stop stop-color="#E3821F"/><stop offset=".38" stop-color="#E1801E"/><stop offset=".52" stop-color="#DA7D1D"/><stop offset=".61" stop-color="#CE761C"/><stop offset=".69" stop-color="#BD6C19"/><stop offset=".76" stop-color="#A75F16"/><stop offset=".82" stop-color="#8C5013"/><stop offset=".87" stop-color="#6B3D0E"/><stop offset=".92" stop-color="#462809"/><stop offset=".97" stop-color="#1D1003"/><stop offset="1"/></radialGradient><radialGradient id="an" cx="0" cy="0" r="1" gradientUnits="userSpaceOnUse" gradientTransform="rotate(127.53 389.052 424.095) scale(11.0531)"><stop stop-color="#E3821F"/><stop offset=".38" stop-color="#E1801E"/><stop offset=".52" stop-color="#DA7D1D"/><stop offset=".61" stop-color="#CE761C"/><stop offset=".69" stop-color="#BD6C19"/><stop offset=".76" stop-color="#A75F16"/><stop offset=".82" stop-color="#8C5013"/><stop offset=".87" stop-color="#6B3D0E"/><stop offset=".92" stop-color="#462809"/><stop offset=".97" stop-color="#1D1003"/><stop offset="1"/></radialGradient><radialGradient id="ao" cx="0" cy="0" r="1" gradientUnits="userSpaceOnUse" gradientTransform="rotate(127.53 326.871 521.013) scale(16.6891)"><stop stop-color="#E3821F"/><stop offset=".38" stop-color="#E1801E"/><stop offset=".52" stop-color="#DA7D1D"/><stop offset=".61" stop-color="#CE761C"/><stop offset=".69" stop-color="#BD6C19"/><stop offset=".76" stop-color="#A75F16"/><stop offset=".82" stop-color="#8C5013"/><stop offset=".87" stop-color="#6B3D0E"/><stop offset=".92" stop-color="#462809"/><stop offset=".97" stop-color="#1D1003"/><stop offset="1"/></radialGradient><radialGradient id="ap" cx="0" cy="0" r="1" gradientUnits="userSpaceOnUse" gradientTransform="rotate(136.44 85.13 255.093) scale(10.0819)"><stop stop-color="#E3821F"/><stop offset=".38" stop-color="#E1801E"/><stop offset=".52" stop-color="#DA7D1D"/><stop offset=".61" stop-color="#CE761C"/><stop offset=".69" stop-color="#BD6C19"/><stop offset=".76" stop-color="#A75F16"/><stop offset=".82" stop-color="#8C5013"/><stop offset=".87" stop-color="#6B3D0E"/><stop offset=".92" stop-color="#462809"/><stop offset=".97" stop-color="#1D1003"/><stop offset="1"/></radialGradient><radialGradient id="aq" cx="0" cy="0" r="1" gradientUnits="userSpaceOnUse" gradientTransform="rotate(136.44 85.417 292.274) scale(4.99306)"><stop stop-color="#E3821F"/><stop offset=".38" stop-color="#E1801E"/><stop offset=".52" stop-color="#DA7D1D"/><stop offset=".61" stop-color="#CE761C"/><stop offset=".69" stop-color="#BD6C19"/><stop offset=".76" stop-color="#A75F16"/><stop offset=".82" stop-color="#8C5013"/><stop offset=".87" stop-color="#6B3D0E"/><stop offset=".92" stop-color="#462809"/><stop offset=".97" stop-color="#1D1003"/><stop offset="1"/></radialGradient><radialGradient id="ar" cx="0" cy="0" r="1" gradientUnits="userSpaceOnUse" gradientTransform="rotate(-176.76 216.13 188.454) scale(57.3313)"><stop stop-color="#E382A9"/><stop offset=".38" stop-color="#E180A7"/><stop offset=".52" stop-color="#DA7DA2"/><stop offset=".61" stop-color="#CE7699"/><stop offset=".69" stop-color="#BD6C8D"/><stop offset=".76" stop-color="#A75F7C"/><stop offset=".82" stop-color="#8C5068"/><stop offset=".87" stop-color="#6B3D50"/><stop offset=".92" stop-color="#462834"/><stop offset=".97" stop-color="#1D1015"/><stop offset="1"/></radialGradient><radialGradient id="as" cx="0" cy="0" r="1" gradientUnits="userSpaceOnUse" gradientTransform="rotate(-176.76 279.682 83.156) scale(20.1638)"><stop stop-color="#E382A9"/><stop offset=".38" stop-color="#E180A7"/><stop offset=".52" stop-color="#DA7DA2"/><stop offset=".61" stop-color="#CE7699"/><stop offset=".69" stop-color="#BD6C8D"/><stop offset=".76" stop-color="#A75F7C"/><stop offset=".82" stop-color="#8C5068"/><stop offset=".87" stop-color="#6B3D50"/><stop offset=".92" stop-color="#462834"/><stop offset=".97" stop-color="#1D1015"/><stop offset="1"/></radialGradient><radialGradient id="at" cx="0" cy="0" r="1" gradientUnits="userSpaceOnUse" gradientTransform="rotate(-176.76 217.157 194.027) scale(30.4508)"><stop stop-color="#E382A9"/><stop offset=".38" stop-color="#E180A7"/><stop offset=".52" stop-color="#DA7DA2"/><stop offset=".61" stop-color="#CE7699"/><stop offset=".69" stop-color="#BD6C8D"/><stop offset=".76" stop-color="#A75F7C"/><stop offset=".82" stop-color="#8C5068"/><stop offset=".87" stop-color="#6B3D50"/><stop offset=".92" stop-color="#462834"/><stop offset=".97" stop-color="#1D1015"/><stop offset="1"/></radialGradient><radialGradient id="au" cx="0" cy="0" r="1" gradientUnits="userSpaceOnUse" gradientTransform="rotate(-176.76 153.483 128.661) scale(45.5395)"><stop stop-color="#E382A9"/><stop offset=".38" stop-color="#E180A7"/><stop offset=".52" stop-color="#DA7DA2"/><stop offset=".61" stop-color="#CE7699"/><stop offset=".69" stop-color="#BD6C8D"/><stop offset=".76" stop-color="#A75F7C"/><stop offset=".82" stop-color="#8C5068"/><stop offset=".87" stop-color="#6B3D50"/><stop offset=".92" stop-color="#462834"/><stop offset=".97" stop-color="#1D1015"/><stop offset="1"/></radialGradient><radialGradient id="av" cx="0" cy="0" r="1" gradientUnits="userSpaceOnUse" gradientTransform="rotate(-176.76 154.295 133.085) scale(24.1856)"><stop stop-color="#E382A9"/><stop offset=".38" stop-color="#E180A7"/><stop offset=".52" stop-color="#DA7DA2"/><stop offset=".61" stop-color="#CE7699"/><stop offset=".69" stop-color="#BD6C8D"/><stop offset=".76" stop-color="#A75F7C"/><stop offset=".82" stop-color="#8C5068"/><stop offset=".87" stop-color="#6B3D50"/><stop offset=".92" stop-color="#462834"/><stop offset=".97" stop-color="#1D1015"/><stop offset="1"/></radialGradient><radialGradient id="aw" cx="0" cy="0" r="1" gradientUnits="userSpaceOnUse" gradientTransform="rotate(-68.7 952.548 -979.204) scale(20.1638 20.1637)"><stop stop-color="#E382A9"/><stop offset=".38" stop-color="#E180A7"/><stop offset=".52" stop-color="#DA7DA2"/><stop offset=".61" stop-color="#CE7699"/><stop offset=".69" stop-color="#BD6C8D"/><stop offset=".76" stop-color="#A75F7C"/><stop offset=".82" stop-color="#8C5068"/><stop offset=".87" stop-color="#6B3D50"/><stop offset=".92" stop-color="#462834"/><stop offset=".97" stop-color="#1D1015"/><stop offset="1"/></radialGradient><radialGradient id="ax" cx="0" cy="0" r="1" gradientUnits="userSpaceOnUse" gradientTransform="rotate(-68.7 895.43 -916.459) scale(16.1009)"><stop stop-color="#E382A9"/><stop offset=".38" stop-color="#E180A7"/><stop offset=".52" stop-color="#DA7DA2"/><stop offset=".61" stop-color="#CE7699"/><stop offset=".69" stop-color="#BD6C8D"/><stop offset=".76" stop-color="#A75F7C"/><stop offset=".82" stop-color="#8C5068"/><stop offset=".87" stop-color="#6B3D50"/><stop offset=".92" stop-color="#462834"/><stop offset=".97" stop-color="#1D1015"/><stop offset="1"/></radialGradient><radialGradient id="ay" cx="0" cy="0" r="1" gradientUnits="userSpaceOnUse" gradientTransform="matrix(2.05721 -5.2765 5.27649 2.0572 1460.99 204.811)"><stop stop-color="#E382A9"/><stop offset=".38" stop-color="#E180A7"/><stop offset=".52" stop-color="#DA7DA2"/><stop offset=".61" stop-color="#CE7699"/><stop offset=".69" stop-color="#BD6C8D"/><stop offset=".76" stop-color="#A75F7C"/><stop offset=".82" stop-color="#8C5068"/><stop offset=".87" stop-color="#6B3D50"/><stop offset=".92" stop-color="#462834"/><stop offset=".97" stop-color="#1D1015"/><stop offset="1"/></radialGradient><radialGradient id="az" cx="0" cy="0" r="1" gradientUnits="userSpaceOnUse" gradientTransform="matrix(3.10572 -7.96573 7.96575 3.10573 1420.88 250.21)"><stop stop-color="#E382A9"/><stop offset=".38" stop-color="#E180A7"/><stop offset=".52" stop-color="#DA7DA2"/><stop offset=".61" stop-color="#CE7699"/><stop offset=".69" stop-color="#BD6C8D"/><stop offset=".76" stop-color="#A75F7C"/><stop offset=".82" stop-color="#8C5068"/><stop offset=".87" stop-color="#6B3D50"/><stop offset=".92" stop-color="#462834"/><stop offset=".97" stop-color="#1D1015"/><stop offset="1"/></radialGradient><radialGradient id="aA" cx="0" cy="0" r="1" gradientUnits="userSpaceOnUse" gradientTransform="rotate(136.44 622.805 531.418) scale(57.427)"><stop stop-color="#E3821F"/><stop offset=".38" stop-color="#E1801E"/><stop offset=".52" stop-color="#DA7D1D"/><stop offset=".61" stop-color="#CE761C"/><stop offset=".69" stop-color="#BD6C19"/><stop offset=".76" stop-color="#A75F16"/><stop offset=".82" stop-color="#8C5013"/><stop offset=".87" stop-color="#6B3D0E"/><stop offset=".92" stop-color="#462809"/><stop offset=".97" stop-color="#1D1003"/><stop offset="1"/></radialGradient><radialGradient id="aB" cx="0" cy="0" r="1" gradientUnits="userSpaceOnUse" gradientTransform="rotate(136.44 626.212 536.49) scale(30.4919)"><stop stop-color="#E3821F"/><stop offset=".38" stop-color="#E1801E"/><stop offset=".52" stop-color="#DA7D1D"/><stop offset=".61" stop-color="#CE761C"/><stop offset=".69" stop-color="#BD6C19"/><stop offset=".76" stop-color="#A75F16"/><stop offset=".82" stop-color="#8C5013"/><stop offset=".87" stop-color="#6B3D0E"/><stop offset=".92" stop-color="#462809"/><stop offset=".97" stop-color="#1D1003"/><stop offset="1"/></radialGradient><radialGradient id="aC" cx="0" cy="0" r="1" gradientUnits="userSpaceOnUse" gradientTransform="translate(1887.96 489.595) scale(289.376)"><stop stop-color="#E3821F"/><stop offset=".07" stop-color="#CF761C"/><stop offset=".32" stop-color="#864C12"/><stop offset=".55" stop-color="#4C2B0A"/><stop offset=".75" stop-color="#221404"/><stop offset=".9" stop-color="#090501"/><stop offset="1"/></radialGradient><radialGradient id="aD" cx="0" cy="0" r="1" gradientUnits="userSpaceOnUse" gradientTransform="translate(1889.98 489.596) scale(99.141)"><stop stop-color="#E3821F"/><stop offset=".07" stop-color="#CF761C"/><stop offset=".32" stop-color="#864C12"/><stop offset=".55" stop-color="#4C2B0A"/><stop offset=".75" stop-color="#221404"/><stop offset=".9" stop-color="#090501"/><stop offset="1"/></radialGradient><radialGradient id="aE" cx="0" cy="0" r="1" gradientUnits="userSpaceOnUse" gradientTransform="translate(272.9 488.903) scale(296.918)"><stop stop-color="#E3821F"/><stop offset=".07" stop-color="#CF761C"/><stop offset=".32" stop-color="#864C12"/><stop offset=".55" stop-color="#4C2B0A"/><stop offset=".75" stop-color="#221404"/><stop offset=".9" stop-color="#090501"/><stop offset="1"/></radialGradient><radialGradient id="aF" cx="0" cy="0" r="1" gradientUnits="userSpaceOnUse" gradientTransform="translate(278.508 488.913) scale(101.722)"><stop stop-color="#E3821F"/><stop offset=".07" stop-color="#CF761C"/><stop offset=".32" stop-color="#864C12"/><stop offset=".55" stop-color="#4C2B0A"/><stop offset=".75" stop-color="#221404"/><stop offset=".9" stop-color="#090501"/><stop offset="1"/></radialGradient><radialGradient id="aG" cx="0" cy="0" r="1" gradientUnits="userSpaceOnUse" gradientTransform="translate(249.34 671.637) scale(101.722)"><stop stop-color="#E3821F"/><stop offset=".07" stop-color="#CF761C"/><stop offset=".32" stop-color="#864C12"/><stop offset=".55" stop-color="#4C2B0A"/><stop offset=".75" stop-color="#221404"/><stop offset=".9" stop-color="#090501"/><stop offset="1"/></radialGradient><radialGradient id="aH" cx="0" cy="0" r="1" gradientUnits="userSpaceOnUse" gradientTransform="matrix(319.2 0 0 140.448 1800.94 1151.85)"><stop stop-color="#E3821F"/><stop offset=".07" stop-color="#CF761C"/><stop offset=".32" stop-color="#864C12"/><stop offset=".55" stop-color="#4C2B0A"/><stop offset=".75" stop-color="#221404"/><stop offset=".9" stop-color="#090501"/><stop offset="1"/></radialGradient><radialGradient id="aI" cx="0" cy="0" r="1" gradientUnits="userSpaceOnUse" gradientTransform="matrix(319.228 0 0 114.922 228.905 1158.6)"><stop stop-color="#E3821F"/><stop offset=".07" stop-color="#CF761C"/><stop offset=".32" stop-color="#864C12"/><stop offset=".55" stop-color="#4C2B0A"/><stop offset=".75" stop-color="#221404"/><stop offset=".9" stop-color="#090501"/><stop offset="1"/></radialGradient><radialGradient id="aJ" cx="0" cy="0" r="1" gradientUnits="userSpaceOnUse" gradientTransform="matrix(595.5 0 0 1132.5 955 578)"><stop/><stop offset="1" stop-color="#2B2A30" stop-opacity="0"/></radialGradient><clipPath id="a"><path fill="#fff" transform="translate(-209 -110.582)" d="M0 0h2936v1411.74H0z"/></clipPath></defs></svg>