<svg width="360" height="800" fill="none" xmlns="http://www.w3.org/2000/svg"><g clip-path="url(#a)"><path d="M567-66H-553v805H567V-66z" fill="url(#b)"/><path d="M-126.515 409.876s54.112-33.869 109.287-34.602c55.17-.734 109.964 28.623 109.964 28.623S-20.936 367.799-27.03 419.116c-6.09 51.324 108.472 12.685 148.031-.036 39.555-12.72 59.975-34.851 135.745-38.745 75.771-3.894 146.219 61.069 142.773 76.316-3.441 15.248-90.392 14.372-97.634 1.616-7.239-12.756 16.417-24.928 16.417-24.928s2.031 30.502 51.198 23.312c49.171-7.182-73.036-69.554-115.612-28.181-42.576 41.372 22.747 83.605 92.042 91.087 69.295 7.481 199.062-85.635 196.504-118.629-2.558-32.993-57.202-27.27-57.116-33.136.09-5.865 105.4-41.792 105.4-41.792s-55.968 25.662-44.757 38.269c11.21 12.613 57.819 13.489 68.237 31.968 10.417 18.473-83.386 171.305-127.187 172.458C443.21 569.848-141 567.357-141 567.357l14.476-157.481h.009z" fill="url(#c)"/><path d="M20.708 371.461s-50.386 16.385-53.934 7.607c-3.55-8.779 45.028-54.133 63.262-50.475 18.233 3.657.625 22.528.625 22.528s9.81-20.625-2.16-18.871c-11.969 1.755-25.956 14.78-21.641 26.186 4.314 11.413 40.294 11.122 40.294 11.122l-26.446 1.903z" fill="url(#d)"/><path d="M232.511 631.023c4.879 31.242 4.879 52.989 4.879 52.989S165.028 718.13 134.287 668.7c0 0 7.378-8.551 21.377-65.73l14.178-33.757-9.8 14.126c2.404-12.641 4.092-25.681 5.261-38.408l8.41-19.921-7.199 4.055c2.57-41.775.089-76.518.089-76.518s16.552 34.31 30.879 65.638l14.189 22.393-5.159-2.316-14.291-6.406 20.518 21.903 5.726 6.115 11.398 22.663-9.4-5.568-11.201-6.634 14.082 16.896 14.046 16.854-4.879 26.952v-.014z" fill="url(#e)"/><path d="m312.991 695.46-17.488 7.223c-2.964 1.634-9.806 5.107-18.424 7.607-5.667 1.647-12.097 2.869-18.699 2.869-14.608 0-30.062-5.98-39.915-26.598 0 0 3.913-5.909 11.41-40.801l.513 2.386.376-6.569c1.598-7.649 3.352-16.57 5.249-26.96 2.904-15.88 4.789-32.847 5.994-49.338l5.32-15.497-4.932 9.879-2.696-2.529 3.507-12.67 5.38-19.452-4.975 7.826c.955-34.424-.495-60.872-.495-60.872s10.027 27.066 19.946 54.97l19.194 29.325-11.142-6.357-6.316-3.607 8.046 8.636 13.289 14.268 9.829 25.404-14.243-9.474-7.092-4.716 9.698 15.625 14.56 23.472 14.118 75.95h-.012z" fill="url(#f)"/><path d="m289.138 700.503 18.49 5.859c3.203 1.506 10.546 4.624 19.481 6.172 5.869 1.023 12.43 1.363 18.949.128 14.428-2.728 28.684-13.161 34.94-41.043 0 0-4.861-6.733-18.138-49.417l-.101 3.111-1.473-8.232c-2.869-9.367-6.102-20.304-9.723-33.074-5.541-19.517-10.259-40.596-14.225-61.199l-7.867-18.586 6.537 11.555 2.237-3.7-5.595-15.348-8.589-23.572 6.233 8.963c-6.74-43.302-9.758-76.98-9.758-76.98s-5.35 36.058-10.45 73.159l-14.023 40.624L306 508.817l5.637-5.732-6.49 12.415-10.724 20.504-5.434 33.919 12.472-14.63 6.209-7.28-6.948 21.548-10.432 32.365-1.158 98.577h.006z" fill="#343474"/><path d="M380.957 489.52c-.28-1.13-10.247 52.918-10.247 52.918h3.871l3.137-5.725-22.379 67.982s-22.17 78.57 31.374 83.918c53.538 5.355 66.296-25.901 66.296-25.901l-20.494-34.367 12.859 8.345-3.239-13.324-37.433-57.648 13.384 10.334-20.184-33.991 9.305 6.477s-16.629-20.418-26.244-59.018h-.006z" fill="url(#g)"/><path d="M5.046 624.809c4.88 31.242 4.88 52.989 4.88 52.989s-72.362 34.118-103.104-15.313c0 0 7.378-8.551 21.377-65.73l14.178-33.756-9.8 14.126c2.404-12.642 4.092-25.681 5.26-38.408l8.41-19.922-7.198 4.056c2.57-41.775.09-76.518.09-76.518s16.55 34.31 30.878 65.637l14.19 22.393-5.16-2.315-14.291-6.406 20.518 21.903L-9 553.66l11.398 22.663-9.4-5.569-11.201-6.633 14.082 16.896L9.925 597.87l-4.879 26.953v-.014z" fill="url(#h)"/><path d="m85.526 689.253-17.488 7.223c-2.964 1.634-9.806 5.107-18.424 7.607-5.667 1.647-12.096 2.869-18.7 2.869-14.606 0-30.06-5.98-39.914-26.598 0 0 3.913-5.909 11.41-40.801l.513 2.386.376-6.569c1.598-7.656 3.352-16.57 5.249-26.96 2.905-15.88 4.79-32.847 5.994-49.338l5.32-15.497-4.938 9.879-2.696-2.528 3.507-12.671 5.38-19.452-4.974 7.826c.954-34.424-.495-60.872-.495-60.872s10.026 27.066 19.945 54.97l19.194 29.325-11.142-6.356-6.316-3.608 8.046 8.636 13.289 14.275 9.83 25.397-14.244-9.474-7.092-4.716 9.699 15.625 14.56 23.472 14.117 75.95h-.006z" fill="#2B2B60"/><path d="m61.68 694.288 18.49 5.86c3.203 1.505 10.545 4.623 19.474 6.171 5.869 1.023 12.43 1.364 18.95.128 14.428-2.727 28.683-13.16 34.94-41.043 0 0-4.861-6.733-18.138-49.409l-.102 3.11-1.473-8.231c-2.869-9.368-6.102-20.305-9.722-33.075-5.541-19.516-10.259-40.595-14.225-61.198l-7.868-18.587 6.537 11.555 2.237-3.7-5.595-15.347-8.588-23.572 6.232 8.963c-6.74-43.302-9.758-76.98-9.758-76.98s-5.35 36.057-10.45 73.159L68.6 512.716l9.937-10.107 5.636-5.731-6.49 12.414-10.723 20.504-5.434 33.92 12.472-14.63 6.209-7.28-6.949 21.548-10.432 32.364-1.157 98.577.012-.007z" fill="#343474"/><path d="m3.293 635.369-.376 6.57-.513-2.387c.292-1.349.584-2.741.889-4.183z" fill="url(#i)"/><path d="M2.404 639.552c.292-1.349.584-2.741.889-4.183l-.376 6.57-.513-2.387z" fill="url(#j)"/><path d="M161.791 515.833c-.28-1.129-10.247 52.918-10.247 52.918h3.871l3.137-5.724-22.379 67.981s-22.17 78.571 31.374 83.919c53.538 5.355 66.296-25.902 66.296-25.902l-20.494-34.367 12.859 8.345-3.244-13.323-37.434-57.648 13.384 10.333-20.184-33.99 9.305 6.477s-16.629-20.419-26.244-59.019z" fill="url(#k)"/><path d="m-584.276 667.498 1403.402.19-26.412 150.872-1376.99-9.606V667.498z" fill="url(#l)"/><path style="mix-blend-mode:multiply" d="m830.472 681.613-69.295 11.902h-215.94l-3.224-15.876h-19.339l-13.643 15.627-18.587-3.715 1.613-15.876-127.036 13.51-27.67-9.546-38.16 4.144-45.638 15.706-235.058-13.197-72.896-4.9-73.969-5.717v11.902l-113.144 1.438-89.905-5.402h-32.23l93.471 11.902-159.542 3.974 14.51-31.752h95.076l1129.655-3.975 20.951 19.851z" fill="url(#m)"/><path d="m900.108 787.227-350.865 23.785-380.738-10.744L62.883 812.47l-486.58-15.647 1.868-82.468 206.224 8.438 32.229 6.95c32.421 6.53 82.726 15.327 126.183 17.214 70.872 3.065 125.544-3.834 125.544-3.834l-5.76-17.265 101.248 8.438s-25.702-7.669-24.609-7.669c1.094 0 137.696-7.669 192.517-3.455 54.829 4.224 124.451 16.106 124.451 16.106l-52.804 5.372s88.314 14.579 142.674 11.503c54.359-3.065 111.993-11.503 111.993-11.503l-62.612-10.354s136.915-27.619 223.83-17.644c86.916 9.975 80.844 70.575 80.844 70.575h-.015z" fill="url(#n)"/><path d="m50.12 794.126 61.504 15.227-175.677 8.698-4.489.219-15.916.789-44.558-8.497-72.108-13.75-120.246-56.766 102.022-6.9 59.345 13.81c6.783 3.165 17.258 5.352 30.063 6.82 17.301 2.007 38.842 2.716 61.228 2.816 1.548 0 3.096.01 4.659.01 38.067.02 77.881-1.588 102.959-1.588 51.867 0 83.954 21.099 83.954 21.099l-72.74 18.033v-.02z" fill="url(#o)"/><path d="M428.386 702.003H250.755s3.459-14.508 4.772-15.886c1.307-1.378 38.529-4.833 43.906-15.777 5.376-10.943 12.954-21.068 18.799-24.523 5.845-3.455 47.925 37.075 51.341 37.075 2.983 0 3.502-2.117 6.278-.49.398.23.838.54 1.343.949 2.145 1.718 14.602 5.152 25.731 7.978a959.48 959.48 0 0 0 18.408 4.454l7.06 6.22h-.007z" fill="url(#p)"/><path style="mix-blend-mode:multiply" d="M386.725 701.316c.078.239.127.469.149.689h-76.362c-3.011-.42-4.773-.689-4.773-.689 16.037.689 24.126-12.322 24.126-12.322s51.689 13.19 45.972-6.59c.398.229.838.539 1.342.948 2.145 1.718 14.602 5.153 25.731 7.979.405.349.633.539.633.539s-21.222-3.565-16.825 9.446h.007z" fill="url(#q)"/><path d="M44.749 704.905H-56.208s36.32-53.271 40.596-53.93c2.933-.449 12.905 10.245 18.878 17.005 2.03 2.296 3.6 4.134 4.268 4.932.234.28.355.43.355.43s4.538-5.921 8.544-5.921 28.309 37.494 28.309 37.494l.007-.01z" fill="url(#r)"/><path style="mix-blend-mode:multiply" d="M15.368 704.905h-35.426C-7.7 702.359 5.403 693.711 3.266 667.97c2.03 2.296 3.6 4.133 4.268 4.932-1.64 4.324-7.727 23.286 7.834 32.003z" fill="url(#s)"/><path d="M20.982 669.202c0 .413.961.626 2.421.713.918.052 2.035.057 3.23.03 4.768-.113 10.818-.743 10.818-.743L34.8 588.279l-.774-23.558-7.74 2.69s-.097 1.804-.262 4.934l-.008.169-.896 16.908c-1.56 29.569-4.138 78.585-4.138 79.776v.004z" fill="#6A1A3A"/><path d="m38.034 663.847-2.421.713-3.212.943-.018-.913-1.343-56.348h2.208l-.648-24.323-.434-16.269.826-.656.008.169.883 16.908 4.15 79.776z" fill="#E79A47" style="mix-blend-mode:color-dodge" opacity=".3"/><path style="mix-blend-mode:multiply" opacity=".82" d="M25.12 589.426h.013l1.282-.152 8.385-.991-.774-23.558-7.741 2.691-.26 4.933-.01.17c-.208 3.929-.521 9.866-.895 16.907z" fill="url(#t)"/><path d="M-40.765 554.984s10.84 18.851 48.233 21.694c14.11 1.073 31.49-10.866 47.53-14.344 26.483-5.737 49.502-4.763 49.502-4.763l-19.912-18.508-.265.23C66.916 528.94-23.209 529.227-23.209 529.227l-17.56 25.753.004.004z" fill="#2D9693"/><path d="m-27.869 525.646 5.777 1.464-1.113 2.121s90.125-.286 107.533 10.067l.265-.23-3.082-5.573 10.275-1.443-.065-.087-21.05-29.052 8.071-1.751-30.5-44.617 5.96-2.495s-8.867-9.467-17.312-24.119-3.19-29.539-3.19-29.539C16.43 413.367-.508 456.075-.508 456.075l2.86 1.404-26.745 47.89 6.333.974-10.653 19.094.839.213.004-.004z" fill="#2D9693"/><path d="M-40.765 554.989s16.565 23.814 72.304 28.322c7.485.604 14.344.495 20.607-.135l2.851-20.833 6.629 25.297c7.154-1.313 13.391-3.299 18.755-5.581l-3.195-14.848 4.512 7.998c16.073-7.559 23.41-17.417 23.41-17.417s-20.18-8.223-72.773 6.937c-19.755 5.694-47.016-1.708-47.016-1.708v-20.089l-4.225 19.259-21.867-7.198.008-.004zM-28.708 525.785l5.503 3.447s90.125-.287 107.533 10.066l.265-.23 7.663-6.707s-.179-.143-.535-.4c-3.243-2.351-21.146-14.291-49.159-13.682-28.426.617-64.515 6.393-70.435 7.367l-.839.139h.004zM73.457 506.034l5.286-4.89s-15.765-14.083-37.254-14.913c-21.49-.83-36.037 4.868-36.037 4.868V480.95l-2.3 10.771-27.543 14.291 4.885 2.93 1.452-2.621s47.294-33.086 91.511-.287zM-.507 456.097l2.86 1.4s5.394-2.899 18.208-4.921c12.809-2.021 27.682 3.986 27.682 3.986l5.96-2.538s-13.466-12.683-27.357-10.149C12.959 446.413-.511 456.093-.511 456.093l.004.004z" fill="#152822"/><path d="m11.785 451.181 2.912-15.691-6.759 17.086 3.847-1.395zM55.52 491.304c-.422-1.087-14.405-29.513-14.405-29.513s6.055 29.821 6.477 29.513c.421-.309 7.928 0 7.928 0z" fill="#152822"/><path d="M32.34 525.58c-.422-3.16-3.143-32.668-3.143-32.668l-5.585 31.221-1.734-16.982-3.33 18.433h13.796l-.004-.004z" fill="#284027"/><path d="M3.318 505.908c1.257 0 2.277-1.125 2.277-2.512s-1.02-2.512-2.277-2.512c-1.258 0-2.278 1.125-2.278 2.512s1.02 2.512 2.278 2.512zM10.19 491.173c0 .7.512 1.269 1.147 1.269s1.147-.569 1.147-1.269-.512-1.269-1.147-1.269-1.147.569-1.147 1.269zM35.2 497.802c0 1.387 1.016 2.512 2.277 2.512 1.26 0 2.277-1.125 2.277-2.512 0-1.386-1.017-2.512-2.277-2.512-1.26 0-2.278 1.126-2.278 2.512zM49.09 490.243c0 .787.579 1.425 1.292 1.425.713 0 1.29-.638 1.29-1.425s-.577-1.426-1.29-1.426c-.713 0-1.291.639-1.291 1.426zM2.822 471.627c.43.792 1.36 1.052 2.078.579.717-.474.952-1.5.526-2.291-.43-.791-1.36-1.052-2.078-.578-.717.474-.952 1.499-.526 2.29zM3.618 458.419c.37.678 1.165.899 1.778.495.617-.404.817-1.282.447-1.965-.365-.678-1.164-.899-1.777-.495-.618.404-.817 1.282-.448 1.965zM31.105 445.813c.426.787 1.348 1.044 2.06.574.713-.469.948-1.486.522-2.273-.426-.787-1.347-1.043-2.06-.574-.713.47-.948 1.487-.522 2.273zM36.9 434.808c.642 1.191 2.042 1.582 3.12.869 1.078-.708 1.43-2.251.787-3.442-.644-1.191-2.043-1.582-3.121-.869-1.078.712-1.434 2.251-.787 3.442zM63.612 505.908c1.258 0 2.278-1.125 2.278-2.512s-1.02-2.512-2.278-2.512c-1.257 0-2.277 1.125-2.277 2.512s1.02 2.512 2.277 2.512zM78.134 508.933c0 1.387 1.017 2.513 2.278 2.513 1.26 0 2.277-1.126 2.277-2.513 0-1.386-1.017-2.512-2.277-2.512-1.26 0-2.278 1.126-2.278 2.512zM79.355 552.955c.37-1.326-.308-2.73-1.512-3.134-1.2-.404-2.473.339-2.843 1.669-.37 1.326.309 2.73 1.513 3.134 1.204.404 2.473-.339 2.842-1.669zM64.799 559.513c.24-.865-.2-1.777-.982-2.043-.783-.265-1.613.222-1.852 1.087-.239.865.2 1.778.982 2.043.783.265 1.613-.222 1.852-1.087zM57.158 553.911c.37-1.326-.309-2.73-1.512-3.134-1.204-.404-2.474.339-2.843 1.669-.37 1.326.309 2.73 1.513 3.134 1.203.404 2.473-.339 2.842-1.669zM34.478 562.817c.243-.874-.205-1.796-.996-2.065-.79-.265-1.63.226-1.869 1.1-.243.873.204 1.795.996 2.064.79.265 1.63-.226 1.869-1.099zM23.012 548.238c.37-1.325-.309-2.729-1.513-3.133-1.204-.405-2.473.339-2.842 1.669-.37 1.325.308 2.729 1.512 3.134 1.204.404 2.473-.339 2.843-1.67zM9.898 550.581c.37-1.325-.308-2.729-1.512-3.134-1.204-.404-2.473.339-2.843 1.669-.37 1.326.309 2.73 1.513 3.134 1.204.405 2.473-.339 2.842-1.669z" fill="#FFE2B3"/><path style="mix-blend-mode:screen" opacity=".5" d="M61.335 517.348c6.971 0 12.622-6.235 12.622-13.926s-5.65-13.926-12.622-13.926c-6.97 0-12.622 6.235-12.622 13.926s5.651 13.926 12.622 13.926z" fill="url(#u)"/><path style="mix-blend-mode:screen" opacity=".5" d="M11.315 501.192c4.95 0 8.963-4.427 8.963-9.888 0-5.462-4.013-9.889-8.963-9.889-4.95 0-8.962 4.427-8.962 9.889 0 5.461 4.012 9.888 8.962 9.888z" fill="url(#v)"/><path style="mix-blend-mode:screen" opacity=".5" d="M7.73 567.207c8.744 0 15.834-7.823 15.834-17.473 0-9.65-7.09-17.473-15.835-17.473-8.745 0-15.834 7.823-15.834 17.473 0 9.65 7.09 17.473 15.834 17.473z" fill="url(#w)"/><path style="mix-blend-mode:screen" opacity=".5" d="M38.859 443.414c4.95 0 8.962-4.427 8.962-9.888s-4.012-9.888-8.962-9.888-8.963 4.427-8.963 9.888 4.013 9.888 8.963 9.888z" fill="url(#x)"/><path d="M-39.121 547.479c2.451 1.304 7.802-.109 10.188-2.265h.004c.048-.043.096-.091.144-.135l.078-.078c1.726-1.747 8.058 3.447 20.433 6.381-.187 2.464-.296 6.872 1.243 7.65.417.208 1.243.187 2.286-.018 3.343-.652 8.898-3.164 10.345-5.815 2.582.017 5.32-.396 8.198-1.074-.796 3.686 2.055 10.127 3.199 10.214 1.312.105-1.313-7.558 6.567-12.631 0 0-.322-.1-.852-.217 19.446-6.515 43.748-17.303 69.544 5.238-.248-.344-29.339-40.336-65.589-47.677-3.916-.791-7.915-1.204-11.97-1.143a63.848 63.848 0 0 0-4.377.213 60.226 60.226 0 0 0-7.002.995 55.483 55.483 0 0 0-13.509 4.599 55.517 55.517 0 0 0-7.741 4.629c-.117.082-.235.169-.352.252-.004 0-.009.008-.013.008a58.902 58.902 0 0 0-4.264 3.412c-.013.013-.026.022-.04.035l-.012.013c-13.292 11.727-18.047 26.605-16.513 27.422l.005-.008z" fill="url(#y)"/><path d="M5.087 459.179c-.539 1.556-.947 2.612-.947 2.612l5.068-1.139s-.13-.939-.235-2.399c-.265-3.725-.352-10.84 2.343-14.374 1.6-2.095 4.011-4.007 6.554-5.272 1.221-.609 2.473-1.074 3.682-1.335 2.169-.473 4.19-.304 5.624.8 3.895 2.995-7.554 11.762-6.898 12.431.64.652 8.206-11.066 16.478-7.571 5.237 3.568 9.084 7.515 9.14 7.571-.06-.182-13.052-37.727-23.114-38.01-.86-.026-1.695.222-2.504.787C10.03 420.46-.455 456.075-.507 456.254c.035-.066 2.556-4.842 6.82-9.628 3.051-.808.348 8.006-1.23 12.557l.004-.004z" fill="url(#z)"/><path d="M29.193 419.182s-2.065-5.694-1.643-10.666c.422-4.972 6.524-8.128 6.333-8.128-.191 0-7.133 2.486-12.527 11.079-3.347 5.329 1.126 6.211 7.837 7.715z" fill="url(#A)"/><path d="M-24.39 505.904s13.747-9.319 12.93-3.473c-.548 3.907-4.146 10.179-6.472 13.908-1.156 1.852-2 3.078-2 3.078l7.368-2.069s5.585.83 2.373-5.638c-3.207-6.467 3.677-13.156 5.23-13.934.907-.457 6.645-2.978 11.226-4.977 3.216-1.404 5.86-2.556 5.86-2.556s19.185-3.96 15.85 2.665c-2.307 4.589-11.943 10.192-17.655 13.209a117.416 117.416 0 0 1-4.303 2.168s21.068.361 20.65-1.238c-.417-1.604 6.003-17.456 18.247-16.834 0 0-5.537-27.236-24.631-31.117-2.295-.465-4.317-.752-6.094-.887-2.03-.156-3.747-.126-5.212.044-1.564.178-2.838.508-3.885.926-4.277 1.695-4.856 4.794-6.325 4.733-2.468-.109-24.37 27.6-25.122 34.642-.752 7.041 1.968 7.35 1.968 7.35h-.004z" fill="url(#B)"/><path d="M1.666 559.079c7.533.269-4.855 6.524-4.855 6.524s.157-6.689 4.855-6.524z" fill="url(#C)"/><path style="mix-blend-mode:multiply" opacity=".6" d="M-28.938 545.214h.005c.043-.035.087-.083.143-.135l.078-.078c1.726-1.747 8.059 3.447 20.433 6.381-.187 2.464-.295 6.872 1.243 7.65.418.208 1.243.186 2.287-.018-4.703-4.829 5.785-9.097 2.642-9.306-3.142-.208-9.901-35.567 5.42-42.591a55.483 55.483 0 0 0-13.509 4.599c-3.207-6.468 3.678-13.157 5.23-13.935.908-.457 6.645-2.978 11.226-4.977-1.5-1.326-2.868-4.812-2.825-13.144.096-18.225 10.462-20.555 10.462-20.555l.287-.886c-2.03-.157-3.747-.126-5.212.043-.265-3.725-.352-10.84 2.343-14.374 1.6-2.095 4.012-4.007 6.555-5.272-2.739-.043-3.034-8.45 1.564-14.974 4.6-6.524 7.416-4.45 7.416-4.45s-.14-.57-3.286-3.782c-.757-.769-.94-1.795-.783-2.908-.86-.026-1.695.222-2.503.787-10.25 7.18-20.733 42.796-20.785 42.974.035-.065 2.555-4.842 6.82-9.628 3.05-.808.347 8.007-1.23 12.557-4.278 1.696-4.856 4.795-6.325 4.734-2.469-.109-24.37 27.6-25.123 34.641-.752 7.042 1.97 7.35 1.97 7.35s13.747-9.319 12.93-3.473c-.547 3.908-4.146 10.18-6.472 13.909-.117.083-.234.17-.352.252-.004 0-.008.009-.013.009a51.992 51.992 0 0 0-4.264 3.412l-.039.035-.013.013c-10.805 9.736-5.411 15.378-3.89 16.186 2.43 1.291-3.908 10.258-2.434 8.967l.004-.013z" fill="url(#D)"/><path d="m-48.132 671.793 27.318-.187 51.18-.352 50.02-.344s-22.85-22.936-27.683-23.558c-1.522-.195-4.103.509-6.929 1.561-6.146 2.295-13.435 6.254-13.435 6.254s-5.68.113-11.979.726a9.737 9.737 0 0 0-.339.035l-.37.039c-5.528.57-11.383 1.53-14.19 3.138-2.126 1.217-4.969 2.66-7.776 4.025-5.303 2.578-10.48 4.881-10.48 4.881s-1.92-4.211-4.26-6.372c-.803-.743-1.655-1.243-2.499-1.243-3.286 0-9.149 8.541-9.149 8.541l-16.564 1.969-2.865.882v.005z" fill="url(#E)"/><path style="mix-blend-mode:multiply" opacity=".8" d="M-3.18 666.511c-.126-.847.23-2.038.86-3.377-5.302 2.578-10.479 4.881-10.479 4.881s-1.921-4.211-4.26-6.372c2.465 4.025-3.69 9.897-3.755 9.962l51.18-.352c-13.392-.721-33.177-2.212-33.55-4.742h.004z" fill="url(#F)"/><path style="mix-blend-mode:multiply" opacity=".8" d="M32.34 655.172s-5.682.113-11.98.725c7.915-.552 38.12 12.227 38.58 12.423-.374-.174-21.485-9.958-21.485-12.062 0-2.104 8.241-7.293 8.32-7.345-6.147 2.295-13.436 6.254-13.436 6.254v.005z" fill="url(#G)"/><path style="mix-blend-mode:multiply" opacity=".6" d="M19.648 655.967c.113-.009.234-.018.356-.035h.013l-.37.039v-.004z" fill="url(#H)"/><path d="M336.974 668.801c0 .477 1.109.723 2.796.823 1.058.061 2.348.066 3.728.036 5.506-.131 12.492-.859 12.492-.859l-3.061-93.438-.894-27.201-8.938 3.107-.301 5.696-.01.195c-.241 4.537-.602 11.393-1.034 19.523-1.802 34.142-4.778 90.738-4.778 92.113v.005z" fill="#6A1A3A"/><path d="m336.974 668.801 2.796.823 3.703 1.089.025-1.054 1.546-65.062H342.5l.747-28.085.497-18.785-.948-.758-.01.196-1.019 19.523-4.793 92.113z" fill="#E79A47" style="mix-blend-mode:color-dodge" opacity=".3"/><path style="mix-blend-mode:multiply" opacity=".82" d="M341.752 576.688h.015l1.481-.175 9.681-1.145-.894-27.201-8.938 3.107-.301 5.696-.01.195c-.241 4.537-.602 11.393-1.034 19.523z" fill="url(#I)"/><path d="M265.673 536.92s12.517 21.766 55.692 25.048c16.291 1.24 36.361-12.547 54.88-16.562 30.579-6.624 57.158-5.5 57.158-5.5l-22.991-21.37-.306.266c-20.1-11.954-124.162-11.623-124.162-11.623l-20.276 29.736.005.005z" fill="#2D9693"/><path d="m280.569 503.043 6.67 1.692-1.285 2.449s104.063-.331 124.162 11.623l.307-.266-3.559-6.434 11.864-1.666-.075-.1-24.305-33.545 9.319-2.023-35.216-51.517 6.881-2.881s-10.238-10.93-19.99-27.848c-9.751-16.918-3.683-34.108-3.683-34.108-19.94 14.981-39.498 64.295-39.498 64.295l3.308 1.621-30.88 55.296 7.312 1.124-12.301 22.047.969.246v-.005z" fill="#2D9693"/><path d="M265.674 536.925s19.126 27.497 83.486 32.702c8.642.697 16.561.572 23.793-.156l3.293-24.054 7.653 29.208c8.261-1.515 15.463-3.809 21.656-6.444l-3.689-17.144 5.209 9.235c18.56-8.728 27.031-20.11 27.031-20.11s-23.302-9.495-84.028 8.01c-22.81 6.574-54.287-1.973-54.287-1.973v-23.196l-4.878 22.238-25.249-8.311.01-.005zM279.6 503.205l6.353 3.979s104.063-.331 124.163 11.624l.306-.266 8.848-7.744s-.206-.166-.617-.462c-3.744-2.715-24.416-16.501-56.762-15.799-32.822.713-74.492 7.383-81.328 8.507l-.968.161h.005zM397.564 480.399l6.103-5.646s-18.203-16.261-43.015-17.219c-24.813-.959-41.61 5.621-41.61 5.621v-11.719l-2.655 12.436-31.804 16.502 5.642 3.382 1.676-3.026s54.613-38.202 105.663-.331zM312.162 422.739l3.307 1.616s6.228-3.347 21.023-5.681c14.79-2.334 31.964 4.602 31.964 4.602l6.881-2.931s-15.548-14.644-31.588-11.719c-16.034 2.931-31.587 14.108-31.587 14.108v.005z" fill="#152822"/><path d="m326.354 417.063 3.358-18.118-7.799 19.729 4.441-1.611z" fill="#152822"/><path d="M350.083 502.968c-.487-3.649-3.628-37.721-3.628-37.721l-6.45 36.05-2.002-19.608-3.844 21.284h15.929l-.005-.005z" fill="#284027"/><path d="M289.728 486.678c0 1.601 1.174 2.901 2.63 2.901 1.455 0 2.63-1.3 2.63-2.901 0-1.601-1.175-2.901-2.63-2.901-1.456 0-2.63 1.3-2.63 2.901zM303.489 473.704c0 1.074.788 1.942 1.762 1.942.973 0 1.761-.868 1.761-1.942 0-1.074-.788-1.942-1.761-1.942-.974 0-1.762.868-1.762 1.942zM316.578 480.254c1.452 0 2.63-1.299 2.63-2.901 0-1.602-1.178-2.901-2.63-2.901s-2.63 1.299-2.63 2.901c0 1.602 1.178 2.901 2.63 2.901zM324.512 463.24c0 .808.592 1.465 1.325 1.465s1.325-.657 1.325-1.465-.592-1.466-1.325-1.466-1.325.658-1.325 1.466zM353.39 470.894c0 1.601 1.175 2.901 2.63 2.901 1.455 0 2.63-1.3 2.63-2.901 0-1.601-1.175-2.901-2.63-2.901-1.455 0-2.63 1.3-2.63 2.901zM305.015 442.157c.743 1.375 2.359 1.826 3.603 1.003 1.245-.818 1.651-2.599.909-3.974-.743-1.376-2.359-1.827-3.604-1.004-1.244.818-1.651 2.599-.908 3.975zM316.005 440.671c.497.914 1.571 1.215 2.399.668.829-.547 1.1-1.732.608-2.645-.497-.913-1.571-1.215-2.399-.668-.828.548-1.099 1.732-.608 2.645zM316.924 425.42c.427.782 1.346 1.038 2.053.572.713-.467.944-1.481.517-2.269-.422-.783-1.345-1.039-2.053-.572-.712.467-.943 1.481-.517 2.269zM348.657 410.865c.492.908 1.556 1.205 2.379.663s1.094-1.717.602-2.625c-.492-.909-1.556-1.205-2.379-.663s-1.094 1.717-.602 2.625zM355.348 398.157c.742 1.376 2.358 1.827 3.603 1.004 1.245-.818 1.651-2.599.908-3.975-.742-1.375-2.358-1.826-3.603-1.003-1.245.823-1.656 2.599-.908 3.974zM352.552 545.963c.281-1.009-.236-2.073-1.149-2.384-.914-.306-1.882.261-2.158 1.27-.281 1.009.235 2.077 1.149 2.384.913.306 1.882-.261 2.158-1.27zM339.317 529.13c.427-1.53-.356-3.151-1.746-3.618-1.39-.467-2.856.391-3.282 1.927-.427 1.531.356 3.152 1.746 3.619 1.39.466 2.856-.392 3.282-1.928zM324.176 531.835c.426-1.53-.356-3.151-1.747-3.618-1.39-.467-2.855.391-3.282 1.927-.426 1.531.356 3.152 1.747 3.619 1.39.466 2.855-.392 3.282-1.928zM310.249 513.984c.266-.959-.225-1.978-1.094-2.269-.868-.291-1.791.246-2.057 1.205-.266.958.225 1.977 1.094 2.268.868.296 1.791-.246 2.057-1.204zM295.314 500.845c.427-1.531-.356-3.152-1.746-3.619-1.391-.466-2.856.392-3.283 1.927-.426 1.531.357 3.152 1.747 3.619 1.39.467 2.855-.392 3.282-1.927z" fill="#FFE2B3"/><path style="mix-blend-mode:screen" opacity=".5" d="M325.812 474.808c5.716 0 10.349-5.112 10.349-11.418 0-6.305-4.633-11.417-10.349-11.417-5.715 0-10.348 5.112-10.348 11.417 0 6.306 4.633 11.418 10.348 11.418z" fill="url(#J)"/><path style="mix-blend-mode:screen" opacity=".5" d="M321.667 551.032c10.097 0 18.283-9.032 18.283-20.175 0-11.142-8.186-20.175-18.283-20.175-10.098 0-18.283 9.033-18.283 20.175 0 11.143 8.185 20.175 18.283 20.175z" fill="url(#K)"/><path style="mix-blend-mode:screen" opacity=".5" d="M347.267 396.677c0 6.309 4.632 11.418 10.349 11.418 5.716 0 10.348-5.114 10.348-11.418 0-6.303-4.632-11.417-10.348-11.417-5.717 0-10.349 5.114-10.349 11.417z" fill="url(#L)"/><path d="M267.571 528.253c2.83 1.506 9.008-.125 11.764-2.615h.005c.055-.05.11-.105.165-.155l.09-.091c1.993-2.017 9.305 3.98 23.593 7.368-.215 2.845-.341 7.934 1.436 8.833.482.241 1.435.216 2.64-.02 3.859-.753 10.273-3.654 11.944-6.715 2.981.02 6.143-.457 9.465-1.24-.918 4.256 2.374 11.694 3.694 11.794 1.516.12-1.516-8.728 7.583-14.584 0 0-.371-.116-.983-.251 22.453-7.523 50.513-19.98 80.299 6.047-.286-.396-33.876-46.573-75.732-55.05-4.522-.913-9.139-1.39-13.822-1.32a75.067 75.067 0 0 0-5.054.246c-2.81.236-5.5.622-8.085 1.149a64.147 64.147 0 0 0-15.598 5.31 64.278 64.278 0 0 0-8.938 5.345c-.136.095-.271.196-.407.291-.005 0-.01.01-.015.01a67.91 67.91 0 0 0-4.923 3.94c-.015.015-.03.025-.045.04l-.015.015c-15.347 13.541-20.838 30.72-19.066 31.663l.005-.01z" fill="url(#M)"/><path d="M318.615 426.298c-.622 1.796-1.094 3.016-1.094 3.016l5.852-1.315s-.15-1.084-.271-2.77c-.306-4.301-.406-12.517 2.705-16.597 1.847-2.419 4.632-4.628 7.568-6.088 1.411-.703 2.856-1.24 4.251-1.541 2.504-.547 4.838-.351 6.494.924 4.497 3.458-8.722 13.58-7.964 14.353.737.753 9.475-12.777 19.026-8.742 6.047 4.12 10.489 8.677 10.554 8.742-.07-.211-15.071-43.562-26.69-43.888-.993-.03-1.957.256-2.89.908-11.834 8.291-23.94 49.414-24 49.62.04-.075 2.951-5.591 7.875-11.116 3.523-.934.401 9.244-1.421 14.499l.005-.005z" fill="url(#N)"/><path d="M346.454 380.115s-2.384-6.574-1.897-12.315c.487-5.742 7.533-9.385 7.312-9.385-.22 0-8.235 2.87-14.463 12.792-3.865 6.153 1.299 7.172 9.048 8.908z" fill="url(#O)"/><path d="M284.584 480.248s15.874-10.76 14.93-4.01c-.632 4.512-4.787 11.754-7.472 16.06a105.061 105.061 0 0 1-2.309 3.553l8.507-2.389s6.449.959 2.74-6.509c-3.704-7.468 4.246-15.191 6.037-16.09 1.049-.527 7.674-3.438 12.964-5.746 3.713-1.621 6.765-2.951 6.765-2.951s22.152-4.572 18.303 3.076c-2.665 5.3-13.791 11.769-20.386 15.252-2.931 1.546-4.968 2.504-4.968 2.504s24.325.417 23.843-1.43c-.481-1.852 6.931-20.155 21.069-19.437 0 0-6.394-31.447-28.441-35.929-2.65-.537-4.984-.868-7.036-1.024-2.344-.181-4.326-.145-6.018.05-1.806.206-3.277.587-4.486 1.069-4.939 1.957-5.606 5.536-7.303 5.466-2.85-.126-28.139 31.868-29.008 39.999-.868 8.13 2.274 8.486 2.274 8.486h-.005z" fill="url(#P)"/><path d="M314.666 541.647c8.697.311-5.606 7.533-5.606 7.533s.181-7.723 5.606-7.533z" fill="url(#Q)"/><path d="M284.583 536.624c3.614 4.908-12.481 4.386-15.151 1.535-2.67-2.85 8.813-10.142 15.151-1.535z" fill="url(#R)"/><path style="mix-blend-mode:multiply" opacity=".6" d="M279.334 525.638h.005c.05-.04.101-.095.166-.155l.09-.091c1.992-2.017 9.305 3.98 23.593 7.368-.216 2.845-.341 7.934 1.435 8.833.482.241 1.436.215 2.64-.02-5.43-5.576 6.68-10.505 3.052-10.745-3.629-.241-11.433-41.068 6.258-49.179a64.118 64.118 0 0 0-15.598 5.31c-3.704-7.468 4.246-15.191 6.037-16.09 1.049-.527 7.674-3.438 12.964-5.746-1.732-1.531-3.313-5.556-3.263-15.177.111-21.043 12.08-23.733 12.08-23.733l.332-1.024c-2.344-.181-4.326-.146-6.018.05-.306-4.301-.406-12.516 2.705-16.597 1.847-2.419 4.633-4.627 7.568-6.087-3.161-.051-3.503-9.757 1.807-17.29 5.31-7.533 8.562-5.139 8.562-5.139s-.16-.657-3.794-4.366c-.873-.889-1.084-2.073-.903-3.358-.994-.03-1.958.256-2.891.909-11.834 8.291-23.939 49.414-24 49.62.041-.076 2.951-5.591 7.875-11.117 3.523-.933.401 9.245-1.421 14.499-4.938 1.957-5.605 5.536-7.302 5.466-2.85-.126-28.14 31.868-29.008 39.999-.868 8.13 2.274 8.486 2.274 8.486s15.874-10.76 14.93-4.01c-.632 4.512-4.788 11.754-7.473 16.06-.135.095-.271.196-.406.291-.005 0-.01.01-.015.01a59.895 59.895 0 0 0-4.923 3.94c-.016.015-.031.025-.046.04l-.015.015c-12.476 11.242-6.248 17.756-4.491 18.69 2.805 1.49-4.512 11.844-2.811 10.353l.005-.015z" fill="url(#S)"/><path d="m257.172 671.793 31.542-.216 59.096-.407 57.755-.396s-26.384-26.484-31.964-27.201c-1.757-.226-4.738.587-8 1.801-7.097 2.65-15.513 7.222-15.513 7.222s-6.559.131-13.831.838c-.131.01-.261.025-.392.04l-.427.046c-6.383.657-13.144 1.766-16.386 3.623-2.454 1.405-5.736 3.072-8.978 4.647-6.123 2.976-12.1 5.636-12.1 5.636s-2.218-4.863-4.918-7.357c-.929-.858-1.913-1.435-2.886-1.435-3.794 0-10.565 9.861-10.565 9.861l-19.126 2.274-3.307 1.019v.005z" fill="url(#T)"/><path style="mix-blend-mode:multiply" opacity=".8" d="M350.083 652.601s-6.559.131-13.832.838c9.14-.637 44.014 14.118 44.546 14.344-.431-.201-24.807-11.498-24.807-13.927 0-2.429 9.515-8.422 9.606-8.482-7.097 2.65-15.513 7.222-15.513 7.222v.005z" fill="url(#U)"/><path style="mix-blend-mode:multiply" opacity=".6" d="M335.428 653.519c.131-.01.271-.02.412-.04h.015l-.427.045v-.005z" fill="url(#V)"/><path style="mix-blend-mode:screen" opacity=".42" d="M20.11 353.211c-7.636 1.319-14.899-3.798-16.218-11.434-1.319-7.636 3.798-14.898 11.434-16.217 7.636-1.319 14.898 3.798 16.217 11.434 1.32 7.635-3.798 14.898-11.433 16.217z" fill="url(#W)"/><path style="mix-blend-mode:screen" opacity=".42" d="M21.555 345.693c-4.052.699-7.914-2.018-8.613-6.071-.699-4.052 2.018-7.914 6.07-8.613 4.053-.699 7.915 2.018 8.614 6.071.7 4.052-2.018 7.914-6.07 8.613z" fill="url(#X)"/><path style="mix-blend-mode:screen" opacity=".42" d="M-20.064 422.6c-8.001-6.142-9.503-17.608-3.353-25.609 6.142-8.001 17.608-9.503 25.61-3.353 8 6.142 9.502 17.608 3.352 25.609-6.142 8.001-17.608 9.503-25.609 3.353z" fill="url(#Y)"/><path style="mix-blend-mode:screen" opacity=".42" d="M3.877 295.524a6.427 6.427 0 0 1 7.826-10.194 6.428 6.428 0 0 1 1.184 9.01 6.428 6.428 0 0 1-9.01 1.184z" fill="url(#Z)"/><path style="mix-blend-mode:screen" opacity=".42" d="M-11.586 417.356c-4.251-3.266-5.045-9.352-1.78-13.595 3.266-4.251 9.352-5.046 13.595-1.78 4.251 3.266 5.046 9.352 1.78 13.595-3.266 4.251-9.352 5.046-13.595 1.78z" fill="url(#aa)"/><g opacity=".3"><path style="mix-blend-mode:screen" opacity=".42" d="M335.134 215.875c6.03 2.352 9.01 9.138 6.658 15.169-2.352 6.031-9.138 9.01-15.168 6.658-6.031-2.352-9.011-9.137-6.659-15.168 2.352-6.031 9.138-9.01 15.169-6.659z" fill="url(#ab)"/><path style="mix-blend-mode:screen" opacity=".42" d="M279.187 210.368c4.815 1.875 7.199 7.302 5.316 12.117-1.875 4.815-7.302 7.199-12.117 5.316-4.815-1.875-7.199-7.302-5.316-12.117 1.875-4.815 7.302-7.199 12.117-5.316z" fill="url(#ac)"/><path style="mix-blend-mode:screen" opacity=".42" d="M298.464 189.352a3.289 3.289 0 1 1-2.394 6.127 3.289 3.289 0 0 1 2.394-6.127z" fill="url(#ad)"/><path style="mix-blend-mode:screen" opacity=".42" d="M275.771 214.167a4.962 4.962 0 0 1 2.82 6.436 4.962 4.962 0 0 1-6.436 2.821 4.963 4.963 0 0 1-2.821-6.436 4.963 4.963 0 0 1 6.437-2.821z" fill="url(#ae)"/><path style="mix-blend-mode:screen" opacity=".42" d="M260.975 379.923c-12.697-13.348-12.164-34.468 1.184-47.157 13.349-12.698 34.461-12.165 47.158 1.183 12.698 13.349 12.165 34.469-1.184 47.158-13.348 12.698-34.468 12.165-47.158-1.184z" fill="url(#af)"/><path style="mix-blend-mode:screen" opacity=".42" d="M277.749 372.86c-6.738-7.088-6.46-18.299.628-25.045 7.087-6.738 18.299-6.46 25.044.627 6.738 7.088 6.46 18.299-.627 25.045-7.088 6.738-18.299 6.46-25.045-.627z" fill="url(#ag)"/></g><path style="mix-blend-mode:screen" opacity=".7" d="M369.01 568.551c65.597 0 118.775-53.178 118.775-118.776S434.607 331 369.01 331c-65.598 0-118.776 53.177-118.776 118.775 0 65.598 53.178 118.776 118.776 118.776z" fill="url(#ah)"/><path style="mix-blend-mode:screen" opacity=".79" d="M369.838 490.468c22.474 0 40.693-18.218 40.693-40.692s-18.219-40.693-40.693-40.693c-22.474 0-40.692 18.219-40.692 40.693 0 22.474 18.218 40.692 40.692 40.692z" fill="url(#ai)"/><path style="mix-blend-mode:screen" opacity=".7" d="M145.546 553.9c41.218-41.219 41.218-108.048 0-149.267-41.219-41.219-108.048-41.219-149.267 0-41.22 41.219-41.22 108.048 0 149.267 41.218 41.219 108.048 41.219 149.267 0z" fill="url(#aj)"/><path style="mix-blend-mode:screen" opacity=".79" d="M98.472 504.84c14.121-14.122 14.121-37.017 0-51.138-14.121-14.122-37.017-14.122-51.138 0-14.121 14.121-14.121 37.016 0 51.138 14.121 14.121 37.017 14.121 51.138 0z" fill="url(#ak)"/><path style="mix-blend-mode:screen" opacity=".79" d="M88.105 569.794c14.122-14.122 14.122-37.017 0-51.138-14.121-14.122-37.016-14.122-51.138 0-14.121 14.121-14.121 37.016 0 51.138 14.122 14.121 37.017 14.121 51.138 0z" fill="url(#al)"/><path style="mix-blend-mode:screen" opacity=".5" d="M494.461 829.001c102.401 0 185.414-36.873 185.414-82.358 0-45.484-83.013-82.357-185.414-82.357-102.401 0-185.413 36.873-185.413 82.357 0 45.485 83.012 82.358 185.413 82.358z" fill="url(#am)"/><path opacity=".3" fill="url(#an)" d="M0-66h360v800H0z"/></g><defs><linearGradient id="b" x1="6.995" y1="877.379" x2="6.995" y2="72.379" gradientUnits="userSpaceOnUse"><stop stop-color="#D4E4FD"/><stop offset=".47" stop-color="#7C81BD"/><stop offset="1" stop-color="#464688"/></linearGradient><linearGradient id="c" x1="234.022" y1="782.319" x2="256.394" y2="-27.747" gradientUnits="userSpaceOnUse"><stop stop-color="#D4E4FD"/><stop offset=".47" stop-color="#7C81BD"/><stop offset="1" stop-color="#464688"/></linearGradient><linearGradient id="d" x1="-9.577" y1="539.866" x2="100.997" y2="287.069" gradientUnits="userSpaceOnUse"><stop stop-color="#D4E4FD"/><stop offset=".47" stop-color="#7C81BD"/><stop offset="1" stop-color="#464688"/></linearGradient><linearGradient id="e" x1="197.022" y1="954.539" x2="178.448" y2="582.106" gradientUnits="userSpaceOnUse"><stop stop-color="#D4E4FD"/><stop offset=".47" stop-color="#7C81BD"/><stop offset="1" stop-color="#464688"/></linearGradient><linearGradient id="f" x1="274.86" y1="950.653" x2="256.286" y2="578.221" gradientUnits="userSpaceOnUse"><stop stop-color="#D4E4FD"/><stop offset=".47" stop-color="#7C81BD"/><stop offset="1" stop-color="#464688"/></linearGradient><linearGradient id="g" x1="412.17" y1="943.806" x2="393.596" y2="571.367" gradientUnits="userSpaceOnUse"><stop stop-color="#D4E4FD"/><stop offset=".47" stop-color="#7C81BD"/><stop offset="1" stop-color="#464688"/></linearGradient><linearGradient id="h" x1="-50.227" y1="201.949" x2="-39.769" y2="569.204" gradientUnits="userSpaceOnUse"><stop stop-color="#D4E4FD"/><stop offset=".47" stop-color="#7C81BD"/><stop offset="1" stop-color="#464688"/></linearGradient><linearGradient id="i" x1="24.813" y1="296.975" x2="-44.726" y2="1058.08" gradientUnits="userSpaceOnUse"><stop stop-color="#16274C"/><stop offset="1" stop-color="#293D79"/></linearGradient><linearGradient id="j" x1="24.813" y1="296.975" x2="-44.726" y2="1058.08" gradientUnits="userSpaceOnUse"><stop stop-color="#16274C"/><stop offset="1" stop-color="#293D79"/></linearGradient><linearGradient id="k" x1="173.708" y1="228.34" x2="184.167" y2="595.595" gradientUnits="userSpaceOnUse"><stop stop-color="#D4E4FD"/><stop offset=".47" stop-color="#7C81BD"/><stop offset="1" stop-color="#464688"/></linearGradient><linearGradient id="l" x1="123.115" y1="1043.06" x2="110.541" y2="600.519" gradientUnits="userSpaceOnUse"><stop stop-color="#E2DAFE"/><stop offset=".99" stop-color="#B7C8F0"/></linearGradient><linearGradient id="m" x1="200.38" y1="1012.77" x2="200.38" y2="925.631" gradientUnits="userSpaceOnUse"><stop stop-color="#E2DAFE"/><stop offset=".99" stop-color="#B7C8F0"/></linearGradient><linearGradient id="n" x1="241.43" y1="479.304" x2="226.58" y2="1214.74" gradientUnits="userSpaceOnUse"><stop stop-color="#684B67"/><stop offset="1" stop-color="#0D164C"/></linearGradient><linearGradient id="o" x1="-100.026" y1="763.661" x2="-40.932" y2="546.658" gradientUnits="userSpaceOnUse"><stop stop-color="#6C5BA8"/><stop offset="1" stop-color="#291D4C"/></linearGradient><linearGradient id="p" x1="334.411" y1="634.833" x2="347.252" y2="719.414" gradientUnits="userSpaceOnUse"><stop stop-color="#E2DAFE"/><stop offset=".99" stop-color="#B7C8F0"/></linearGradient><linearGradient id="q" x1="353.593" y1="682.893" x2="357.411" y2="707.992" gradientUnits="userSpaceOnUse"><stop stop-color="#E2DAFE"/><stop offset=".99" stop-color="#B7C8F0"/></linearGradient><linearGradient id="r" x1="-10.491" y1="642.917" x2=".601" y2="716.005" gradientUnits="userSpaceOnUse"><stop stop-color="#E2DAFE"/><stop offset=".99" stop-color="#B7C8F0"/></linearGradient><linearGradient id="s" x1="-5.42" y1="664.824" x2="1.396" y2="709.732" gradientUnits="userSpaceOnUse"><stop stop-color="#E2DAFE"/><stop offset=".99" stop-color="#B7C8F0"/></linearGradient><linearGradient id="t" x1="29.98" y1="592.278" x2="29.819" y2="558.327" gradientUnits="userSpaceOnUse"><stop stop-color="#C7A5B3"/><stop offset="1" stop-color="#8E4257"/></linearGradient><linearGradient id="y" x1="61.865" y1="529.297" x2="4.122" y2="535.395" gradientUnits="userSpaceOnUse"><stop offset=".02" stop-color="#E6DBFF"/><stop offset="1" stop-color="#B7C8F0"/></linearGradient><linearGradient id="z" x1="52.716" y1="432.978" x2="-5.132" y2="439.089" gradientUnits="userSpaceOnUse"><stop offset=".02" stop-color="#E6DBFF"/><stop offset="1" stop-color="#B7C8F0"/></linearGradient><linearGradient id="A" x1="50.691" y1="407.764" x2="-7.635" y2="413.923" gradientUnits="userSpaceOnUse"><stop offset=".02" stop-color="#E6DBFF"/><stop offset="1" stop-color="#B7C8F0"/></linearGradient><linearGradient id="B" x1="57.532" y1="482.18" x2="-.342" y2="488.292" gradientUnits="userSpaceOnUse"><stop offset=".02" stop-color="#E6DBFF"/><stop offset="1" stop-color="#B7C8F0"/></linearGradient><linearGradient id="C" x1="4.096" y1="562.339" x2="-3.189" y2="562.339" gradientUnits="userSpaceOnUse"><stop stop-color="#E2DAFE"/><stop offset=".99" stop-color="#B7C8F0"/></linearGradient><linearGradient id="D" x1="26.85" y1="485.832" x2="-29.194" y2="485.832" gradientUnits="userSpaceOnUse"><stop stop-color="#E2DAFE"/><stop offset=".99" stop-color="#B7C8F0"/></linearGradient><linearGradient id="E" x1="18.739" y1="638.086" x2="15.023" y2="685.432" gradientUnits="userSpaceOnUse"><stop stop-color="#E2DAFE"/><stop offset=".99" stop-color="#B7C8F0"/></linearGradient><linearGradient id="F" x1="5.569" y1="661.322" x2="4.396" y2="676.334" gradientUnits="userSpaceOnUse"><stop stop-color="#E2DAFE"/><stop offset=".99" stop-color="#B7C8F0"/></linearGradient><linearGradient id="G" x1="58.94" y1="658.618" x2="20.36" y2="658.618" gradientUnits="userSpaceOnUse"><stop stop-color="#E2DAFE"/><stop offset=".99" stop-color="#B7C8F0"/></linearGradient><linearGradient id="H" x1="20.017" y1="655.949" x2="19.648" y2="655.949" gradientUnits="userSpaceOnUse"><stop stop-color="#E2DAFE"/><stop offset=".99" stop-color="#B7C8F0"/></linearGradient><linearGradient id="I" x1="347.358" y1="579.98" x2="347.177" y2="540.779" gradientUnits="userSpaceOnUse"><stop stop-color="#C7A5B3"/><stop offset="1" stop-color="#8E4257"/></linearGradient><linearGradient id="M" x1="384.18" y1="507.26" x2="317.502" y2="514.301" gradientUnits="userSpaceOnUse"><stop offset=".02" stop-color="#E6DBFF"/><stop offset="1" stop-color="#B7C8F0"/></linearGradient><linearGradient id="N" x1="373.615" y1="396.045" x2="306.821" y2="403.101" gradientUnits="userSpaceOnUse"><stop offset=".02" stop-color="#E6DBFF"/><stop offset="1" stop-color="#B7C8F0"/></linearGradient><linearGradient id="O" x1="371.277" y1="366.931" x2="303.926" y2="374.043" gradientUnits="userSpaceOnUse"><stop offset=".02" stop-color="#E6DBFF"/><stop offset="1" stop-color="#B7C8F0"/></linearGradient><linearGradient id="P" x1="379.176" y1="452.856" x2="312.352" y2="459.912" gradientUnits="userSpaceOnUse"><stop offset=".02" stop-color="#E6DBFF"/><stop offset="1" stop-color="#B7C8F0"/></linearGradient><linearGradient id="Q" x1="317.476" y1="545.411" x2="309.065" y2="545.411" gradientUnits="userSpaceOnUse"><stop stop-color="#E2DAFE"/><stop offset=".99" stop-color="#B7C8F0"/></linearGradient><linearGradient id="R" x1="285.11" y1="536.433" x2="269.035" y2="536.433" gradientUnits="userSpaceOnUse"><stop stop-color="#E2DAFE"/><stop offset=".99" stop-color="#B7C8F0"/></linearGradient><linearGradient id="S" x1="343.749" y1="457.073" x2="279.038" y2="457.073" gradientUnits="userSpaceOnUse"><stop stop-color="#E2DAFE"/><stop offset=".99" stop-color="#B7C8F0"/></linearGradient><linearGradient id="T" x1="334.38" y1="632.873" x2="330.094" y2="687.541" gradientUnits="userSpaceOnUse"><stop stop-color="#E2DAFE"/><stop offset=".99" stop-color="#B7C8F0"/></linearGradient><linearGradient id="U" x1="380.797" y1="656.581" x2="336.256" y2="656.581" gradientUnits="userSpaceOnUse"><stop stop-color="#E2DAFE"/><stop offset=".99" stop-color="#B7C8F0"/></linearGradient><linearGradient id="V" x1="335.86" y1="653.499" x2="335.433" y2="653.499" gradientUnits="userSpaceOnUse"><stop stop-color="#E2DAFE"/><stop offset=".99" stop-color="#B7C8F0"/></linearGradient><radialGradient id="u" cx="0" cy="0" r="1" gradientUnits="userSpaceOnUse" gradientTransform="matrix(-12.6793 0 0 -13.8754 53.28 502.674)"><stop stop-color="#DC443A"/><stop offset=".12" stop-color="#AF362E"/><stop offset=".29" stop-color="#7A2520"/><stop offset=".45" stop-color="#4E1814"/><stop offset=".6" stop-color="#2C0D0B"/><stop offset=".75" stop-color="#130605"/><stop offset=".88" stop-color="#050101"/><stop offset=".99"/></radialGradient><radialGradient id="v" cx="0" cy="0" r="1" gradientUnits="userSpaceOnUse" gradientTransform="matrix(-9.00265 0 0 -9.85196 3.029 490.603)"><stop stop-color="#DC443A"/><stop offset=".12" stop-color="#AF362E"/><stop offset=".29" stop-color="#7A2520"/><stop offset=".45" stop-color="#4E1814"/><stop offset=".6" stop-color="#2C0D0B"/><stop offset=".75" stop-color="#130605"/><stop offset=".88" stop-color="#050101"/><stop offset=".99"/></radialGradient><radialGradient id="w" cx="0" cy="0" r="1" gradientUnits="userSpaceOnUse" gradientTransform="matrix(-15.909 0 0 -17.4098 -.574 548.813)"><stop stop-color="#DC443A"/><stop offset=".12" stop-color="#AF362E"/><stop offset=".29" stop-color="#7A2520"/><stop offset=".45" stop-color="#4E1814"/><stop offset=".6" stop-color="#2C0D0B"/><stop offset=".75" stop-color="#130605"/><stop offset=".88" stop-color="#050101"/><stop offset=".99"/></radialGradient><radialGradient id="x" cx="0" cy="0" r="1" gradientUnits="userSpaceOnUse" gradientTransform="matrix(-9.00265 0 0 -9.85196 30.7 433.034)"><stop stop-color="#DC443A"/><stop offset=".12" stop-color="#AF362E"/><stop offset=".29" stop-color="#7A2520"/><stop offset=".45" stop-color="#4E1814"/><stop offset=".6" stop-color="#2C0D0B"/><stop offset=".75" stop-color="#130605"/><stop offset=".88" stop-color="#050101"/><stop offset=".99"/></radialGradient><radialGradient id="J" cx="0" cy="0" r="1" gradientUnits="userSpaceOnUse" gradientTransform="matrix(-10.3949 0 0 -11.3756 319.244 462.581)"><stop stop-color="#DC443A"/><stop offset=".12" stop-color="#AF362E"/><stop offset=".29" stop-color="#7A2520"/><stop offset=".45" stop-color="#4E1814"/><stop offset=".6" stop-color="#2C0D0B"/><stop offset=".75" stop-color="#130605"/><stop offset=".88" stop-color="#050101"/><stop offset=".99"/></radialGradient><radialGradient id="K" cx="0" cy="0" r="1" gradientUnits="userSpaceOnUse" gradientTransform="matrix(-18.3693 0 0 -20.1023 315.079 529.793)"><stop stop-color="#DC443A"/><stop offset=".12" stop-color="#AF362E"/><stop offset=".29" stop-color="#7A2520"/><stop offset=".45" stop-color="#4E1814"/><stop offset=".6" stop-color="#2C0D0B"/><stop offset=".75" stop-color="#130605"/><stop offset=".88" stop-color="#050101"/><stop offset=".99"/></radialGradient><radialGradient id="L" cx="0" cy="0" r="1" gradientUnits="userSpaceOnUse" gradientTransform="matrix(-10.3949 0 0 -11.3756 351.195 396.11)"><stop stop-color="#DC443A"/><stop offset=".12" stop-color="#AF362E"/><stop offset=".29" stop-color="#7A2520"/><stop offset=".45" stop-color="#4E1814"/><stop offset=".6" stop-color="#2C0D0B"/><stop offset=".75" stop-color="#130605"/><stop offset=".88" stop-color="#050101"/><stop offset=".99"/></radialGradient><radialGradient id="W" cx="0" cy="0" r="1" gradientUnits="userSpaceOnUse" gradientTransform="rotate(80.19 -192.702 180.174) scale(14.0321)"><stop stop-color="#E382A9"/><stop offset=".38" stop-color="#E180A7"/><stop offset=".52" stop-color="#DA7DA2"/><stop offset=".61" stop-color="#CE7699"/><stop offset=".69" stop-color="#BD6C8D"/><stop offset=".76" stop-color="#A75F7C"/><stop offset=".82" stop-color="#8C5068"/><stop offset=".87" stop-color="#6B3D50"/><stop offset=".92" stop-color="#462834"/><stop offset=".97" stop-color="#1D1015"/><stop offset="1"/></radialGradient><radialGradient id="X" cx="0" cy="0" r="1" gradientUnits="userSpaceOnUse" gradientTransform="rotate(80.19 -190.802 181.184) scale(7.4531 7.45308)"><stop stop-color="#E382A9"/><stop offset=".38" stop-color="#E180A7"/><stop offset=".52" stop-color="#DA7DA2"/><stop offset=".61" stop-color="#CE7699"/><stop offset=".69" stop-color="#BD6C8D"/><stop offset=".76" stop-color="#A75F7C"/><stop offset=".82" stop-color="#8C5068"/><stop offset=".87" stop-color="#6B3D50"/><stop offset=".92" stop-color="#462834"/><stop offset=".97" stop-color="#1D1015"/><stop offset="1"/></radialGradient><radialGradient id="Y" cx="0" cy="0" r="1" gradientUnits="userSpaceOnUse" gradientTransform="rotate(127.53 -105.232 201.744) scale(18.2593)"><stop stop-color="#E3821F"/><stop offset=".38" stop-color="#E1801E"/><stop offset=".52" stop-color="#DA7D1D"/><stop offset=".61" stop-color="#CE761C"/><stop offset=".69" stop-color="#BD6C19"/><stop offset=".76" stop-color="#A75F16"/><stop offset=".82" stop-color="#8C5013"/><stop offset=".87" stop-color="#6B3D0E"/><stop offset=".92" stop-color="#462809"/><stop offset=".97" stop-color="#1D1003"/><stop offset="1"/></radialGradient><radialGradient id="Z" cx="0" cy="0" r="1" gradientUnits="userSpaceOnUse" gradientTransform="rotate(127.53 -67.868 147.028) scale(6.42015)"><stop stop-color="#E3821F"/><stop offset=".38" stop-color="#E1801E"/><stop offset=".52" stop-color="#DA7D1D"/><stop offset=".61" stop-color="#CE761C"/><stop offset=".69" stop-color="#BD6C19"/><stop offset=".76" stop-color="#A75F16"/><stop offset=".82" stop-color="#8C5013"/><stop offset=".87" stop-color="#6B3D0E"/><stop offset=".92" stop-color="#462809"/><stop offset=".97" stop-color="#1D1003"/><stop offset="1"/></radialGradient><radialGradient id="aa" cx="0" cy="0" r="1" gradientUnits="userSpaceOnUse" gradientTransform="matrix(-5.90523 7.68751 -7.6875 -5.90523 -6.09 409.645)"><stop stop-color="#E3821F"/><stop offset=".38" stop-color="#E1801E"/><stop offset=".52" stop-color="#DA7D1D"/><stop offset=".61" stop-color="#CE761C"/><stop offset=".69" stop-color="#BD6C19"/><stop offset=".76" stop-color="#A75F16"/><stop offset=".82" stop-color="#8C5013"/><stop offset=".87" stop-color="#6B3D0E"/><stop offset=".92" stop-color="#462809"/><stop offset=".97" stop-color="#1D1003"/><stop offset="1"/></radialGradient><radialGradient id="ab" cx="0" cy="0" r="1" gradientUnits="userSpaceOnUse" gradientTransform="rotate(-68.7 331.056 -128.598) scale(11.712)"><stop stop-color="#E382A9"/><stop offset=".38" stop-color="#E180A7"/><stop offset=".52" stop-color="#DA7DA2"/><stop offset=".61" stop-color="#CE7699"/><stop offset=".69" stop-color="#BD6C8D"/><stop offset=".76" stop-color="#A75F7C"/><stop offset=".82" stop-color="#8C5068"/><stop offset=".87" stop-color="#6B3D50"/><stop offset=".92" stop-color="#462834"/><stop offset=".97" stop-color="#1D1015"/><stop offset="1"/></radialGradient><radialGradient id="ac" cx="0" cy="0" r="1" gradientUnits="userSpaceOnUse" gradientTransform="matrix(3.39717 -8.71329 8.7133 3.39718 275.53 218.854)"><stop stop-color="#E382A9"/><stop offset=".38" stop-color="#E180A7"/><stop offset=".52" stop-color="#DA7DA2"/><stop offset=".61" stop-color="#CE7699"/><stop offset=".69" stop-color="#BD6C8D"/><stop offset=".76" stop-color="#A75F7C"/><stop offset=".82" stop-color="#8C5068"/><stop offset=".87" stop-color="#6B3D50"/><stop offset=".92" stop-color="#462834"/><stop offset=".97" stop-color="#1D1015"/><stop offset="1"/></radialGradient><radialGradient id="ad" cx="0" cy="0" r="1" gradientUnits="userSpaceOnUse" gradientTransform="matrix(1.19492 -3.06483 3.06482 1.19492 297.004 192.193)"><stop stop-color="#E382A9"/><stop offset=".38" stop-color="#E180A7"/><stop offset=".52" stop-color="#DA7DA2"/><stop offset=".61" stop-color="#CE7699"/><stop offset=".69" stop-color="#BD6C8D"/><stop offset=".76" stop-color="#A75F7C"/><stop offset=".82" stop-color="#8C5068"/><stop offset=".87" stop-color="#6B3D50"/><stop offset=".92" stop-color="#462834"/><stop offset=".97" stop-color="#1D1015"/><stop offset="1"/></radialGradient><radialGradient id="ae" cx="0" cy="0" r="1" gradientUnits="userSpaceOnUse" gradientTransform="matrix(1.80394 -4.62685 4.62686 1.80395 273.708 218.563)"><stop stop-color="#E382A9"/><stop offset=".38" stop-color="#E180A7"/><stop offset=".52" stop-color="#DA7DA2"/><stop offset=".61" stop-color="#CE7699"/><stop offset=".69" stop-color="#BD6C8D"/><stop offset=".76" stop-color="#A75F7C"/><stop offset=".82" stop-color="#8C5068"/><stop offset=".87" stop-color="#6B3D50"/><stop offset=".92" stop-color="#462834"/><stop offset=".97" stop-color="#1D1015"/><stop offset="1"/></radialGradient><radialGradient id="af" cx="0" cy="0" r="1" gradientUnits="userSpaceOnUse" gradientTransform="rotate(136.44 71.32 235.085) scale(33.3562)"><stop stop-color="#E3821F"/><stop offset=".38" stop-color="#E1801E"/><stop offset=".52" stop-color="#DA7D1D"/><stop offset=".61" stop-color="#CE761C"/><stop offset=".69" stop-color="#BD6C19"/><stop offset=".76" stop-color="#A75F16"/><stop offset=".82" stop-color="#8C5013"/><stop offset=".87" stop-color="#6B3D0E"/><stop offset=".92" stop-color="#462809"/><stop offset=".97" stop-color="#1D1003"/><stop offset="1"/></radialGradient><radialGradient id="ag" cx="0" cy="0" r="1" gradientUnits="userSpaceOnUse" gradientTransform="rotate(136.44 73.298 238.03) scale(17.711)"><stop stop-color="#E3821F"/><stop offset=".38" stop-color="#E1801E"/><stop offset=".52" stop-color="#DA7D1D"/><stop offset=".61" stop-color="#CE761C"/><stop offset=".69" stop-color="#BD6C19"/><stop offset=".76" stop-color="#A75F16"/><stop offset=".82" stop-color="#8C5013"/><stop offset=".87" stop-color="#6B3D0E"/><stop offset=".92" stop-color="#462809"/><stop offset=".97" stop-color="#1D1003"/><stop offset="1"/></radialGradient><radialGradient id="ah" cx="0" cy="0" r="1" gradientUnits="userSpaceOnUse" gradientTransform="translate(369.01 449.775) scale(118.775)"><stop stop-color="#E3821F"/><stop offset=".07" stop-color="#CF761C"/><stop offset=".32" stop-color="#864C12"/><stop offset=".55" stop-color="#4C2B0A"/><stop offset=".75" stop-color="#221404"/><stop offset=".9" stop-color="#090501"/><stop offset="1"/></radialGradient><radialGradient id="ai" cx="0" cy="0" r="1" gradientUnits="userSpaceOnUse" gradientTransform="translate(369.838 449.776) scale(40.6927)"><stop stop-color="#E3821F"/><stop offset=".07" stop-color="#CF761C"/><stop offset=".32" stop-color="#864C12"/><stop offset=".55" stop-color="#4C2B0A"/><stop offset=".75" stop-color="#221404"/><stop offset=".9" stop-color="#090501"/><stop offset="1"/></radialGradient><radialGradient id="aj" cx="0" cy="0" r="1" gradientUnits="userSpaceOnUse" gradientTransform="translate(70.91 479.266) scale(105.548)"><stop stop-color="#E3821F"/><stop offset=".07" stop-color="#CF761C"/><stop offset=".32" stop-color="#864C12"/><stop offset=".55" stop-color="#4C2B0A"/><stop offset=".75" stop-color="#221404"/><stop offset=".9" stop-color="#090501"/><stop offset="1"/></radialGradient><radialGradient id="ak" cx="0" cy="0" r="1" gradientUnits="userSpaceOnUse" gradientTransform="translate(72.904 479.27) scale(36.16)"><stop stop-color="#E3821F"/><stop offset=".07" stop-color="#CF761C"/><stop offset=".32" stop-color="#864C12"/><stop offset=".55" stop-color="#4C2B0A"/><stop offset=".75" stop-color="#221404"/><stop offset=".9" stop-color="#090501"/><stop offset="1"/></radialGradient><radialGradient id="al" cx="0" cy="0" r="1" gradientUnits="userSpaceOnUse" gradientTransform="translate(62.535 544.223) scale(36.16)"><stop stop-color="#E3821F"/><stop offset=".07" stop-color="#CF761C"/><stop offset=".32" stop-color="#864C12"/><stop offset=".55" stop-color="#4C2B0A"/><stop offset=".75" stop-color="#221404"/><stop offset=".9" stop-color="#090501"/><stop offset="1"/></radialGradient><radialGradient id="am" cx="0" cy="0" r="1" gradientUnits="userSpaceOnUse" gradientTransform="matrix(185.406 0 0 81.5785 494.461 742.275)"><stop stop-color="#E3821F"/><stop offset=".07" stop-color="#CF761C"/><stop offset=".32" stop-color="#864C12"/><stop offset=".55" stop-color="#4C2B0A"/><stop offset=".75" stop-color="#221404"/><stop offset=".9" stop-color="#090501"/><stop offset="1"/></radialGradient><radialGradient id="an" cx="0" cy="0" r="1" gradientUnits="userSpaceOnUse" gradientTransform="matrix(110.733 0 0 889.983 180 334)"><stop/><stop offset="1" stop-color="#2B2A30" stop-opacity="0"/></radialGradient><clipPath id="a"><path fill="#fff" d="M0 0h360v800H0z"/></clipPath></defs></svg>