<svg width="143" height="105" fill="none" xmlns="http://www.w3.org/2000/svg"><path d="M133.275 15.039c-15.818 6.702-23.727 17.158-23.727 31.367 0 6.435 1.072 10.59 3.217 12.467 2.413 1.609 5.764 2.413 10.054 2.413 7.238 0 12.332 1.877 15.281 5.63 2.949 3.754 4.424 8.311 4.424 13.673 0 6.97-2.145 12.6-6.434 16.89-4.29 4.022-10.322 6.033-18.097 6.033-18.767 0-28.15-9.92-28.15-29.76V59.276c0-16.086 4.02-28.82 12.064-38.204 8.043-9.652 18.499-16.488 31.368-20.51V15.04zm-89.68 1.206C27.777 23.484 19.868 33.94 19.868 47.613c0 4.826.67 8.311 2.01 10.456 1.341 2.145 2.816 3.485 4.424 4.021 1.877.268 4.558.536 8.044.805 6.702.268 11.394 2.279 14.075 6.032 2.949 3.485 4.423 7.775 4.423 12.869 0 6.97-2.144 12.6-6.434 16.89-4.29 4.022-10.322 6.032-18.097 6.032-18.767 0-28.15-9.92-28.15-29.759V60.482c0-16.086 4.021-28.821 12.064-38.205 8.043-9.651 18.5-16.354 31.368-20.107v14.075z" fill="#fff"/></svg>