<svg width="24" height="24" fill="none" xmlns="http://www.w3.org/2000/svg"><path d="M3.77 3.292a.996.996 0 0 1 1.41 0l15.31 15.32a.996.996 0 1 1-1.41 1.41l-5.02-5.02-2-2-8.29-8.3a.996.996 0 0 1 0-1.41z" fill="#fff"/><path fill-rule="evenodd" clip-rule="evenodd" d="M6.66 4.828a.655.655 0 0 0-.119.206c-.12.37.054.774.397.911l1.405.567L6.66 4.828zm2.928 2.93.512 1.77c.158.546-.302 1.054-.837.912l-2.4-.626a.378.378 0 0 1-.204-.178l-.97-2.303c-.163-.367-.552-.531-.91-.388-.351.16-.502.56-.356.931l.379.917a.297.297 0 0 1-.336.412l-.63-.212a.67.67 0 0 0-.82.513c-.08.379.146.767.514.858l.655.165c.23.072.296.368.112.52l-.735.607a.72.72 0 0 0-.092.993c.24.305.673.358.964.116L6.296 11.2c.077-.062.164-.087.25-.053l2.401.627c.534.141.73.815.353 1.22l-1.685 1.848a.248.248 0 0 1-.24.09l-2.41-.329a.674.674 0 0 0-.752.612.72.72 0 0 0 .608.79l.946.122c.236.03.343.334.182.5l-.465.489c-.263.273-.247.722.023.999a.67.67 0 0 0 .967-.004l.465-.49c.156-.182.454-.071.505.17l.151.982a.702.702 0 0 0 .8.597c.383-.051.619-.416.56-.813l-.409-2.465a.378.378 0 0 1 .077-.26l1.696-1.811c.376-.405 1.036-.222 1.194.324l.711 2.458a.31.31 0 0 1-.037.267l-1.457 1.98a.7.7 0 0 0 .151.982.64.64 0 0 0 .948-.137l.572-.776c.15-.202.455-.132.524.104l.194.674c.111.382.493.587.843.486.368-.107.558-.497.453-.861l-.195-.674c-.068-.236.152-.458.387-.368l.898.351a.668.668 0 0 0 .874-.39c.12-.37-.053-.774-.397-.912l-2.277-.919a.31.31 0 0 1-.173-.206l-.711-2.457c-.158-.546.302-1.054.836-.912l1.627.424-.224-.224-2-2L9.588 7.76zm7.109 7.114.535 1.27c.163.367.552.53.91.388a.72.72 0 0 0 .133-.08l-1.578-1.578zm2.375-.447.038.01a.67.67 0 0 0 .819-.513c.08-.379-.146-.767-.514-.857l-.655-.166c-.23-.072-.296-.368-.112-.52l.735-.607a.72.72 0 0 0 .092-.993.674.674 0 0 0-.964-.116l-1.738 1.461 2.299 2.301zm-4.737-4.74.97-1.053a.248.248 0 0 1 .24-.089l2.41.329a.674.674 0 0 0 .753-.613.72.72 0 0 0-.609-.79l-.945-.121c-.237-.03-.344-.335-.183-.5l.466-.49c.262-.272.246-.721-.024-.998a.67.67 0 0 0-.966.003l-.466.49c-.156.183-.454.072-.505-.17l-.168-.976a.702.702 0 0 0-.8-.598c-.383.052-.619.416-.56.814l.409 2.465a.377.377 0 0 1-.077.259l-.958 1.024 1.013 1.014zm-3.462-3.464 1.317-1.796a.7.7 0 0 0-.151-.982.64.64 0 0 0-.947.136l-.572.777c-.15.202-.456.132-.524-.105L9.8 3.578a.686.686 0 0 0-.843-.486.68.68 0 0 0-.477.735l2.392 2.394z" fill="#fff"/></svg>