<svg width="24" height="24" fill="none" xmlns="http://www.w3.org/2000/svg"><path d="m14.937 19.789-.195-.674c-.068-.236.152-.458.387-.368l.899.352a.668.668 0 0 0 .873-.391c.12-.37-.053-.774-.396-.911l-2.277-.92a.31.31 0 0 1-.174-.206l-.71-2.457c-.159-.546.301-1.053.836-.912l2.4.626c.087.035.16.092.204.178l.97 2.303c.163.367.552.531.91.388.351-.16.502-.56.356-.931l-.379-.916a.297.297 0 0 1 .336-.413l.655.165a.67.67 0 0 0 .82-.513c.08-.378-.147-.767-.515-.857l-.655-.166c-.23-.072-.296-.368-.112-.52l.735-.607a.72.72 0 0 0 .092-.993.674.674 0 0 0-.963-.115l-1.862 1.564c-.077.062-.165.087-.25.053l-2.402-.627a.744.744 0 0 1-.353-1.22l1.66-1.801a.249.249 0 0 1 .24-.09l2.41.329a.674.674 0 0 0 .753-.612.72.72 0 0 0-.608-.791l-.946-.12c-.236-.031-.344-.335-.183-.5l.466-.49c.262-.273.246-.722-.024-1a.67.67 0 0 0-.966.005l-.466.49c-.155.182-.453.071-.504-.17l-.17-.977a.702.702 0 0 0-.798-.597c-.384.051-.62.415-.562.813l.41 2.465a.377.377 0 0 1-.077.26l-1.695 1.811c-.376.405-1.037.221-1.195-.325l-.706-2.438a.31.31 0 0 1 .037-.267l1.47-2.004a.7.7 0 0 0-.152-.982.64.64 0 0 0-.947.136l-.572.777c-.15.202-.455.132-.524-.105l-.195-.673a.686.686 0 0 0-.842-.486c-.368.107-.559.497-.453.861l.195.674c.068.236-.152.458-.387.368l-.899-.351a.668.668 0 0 0-.873.39c-.12.37.053.774.396.911l2.277.92a.31.31 0 0 1 .174.206l.711 2.457c.158.546-.302 1.054-.836.912l-2.402-.626a.379.379 0 0 1-.203-.178L6.211 7.6c-.163-.367-.552-.53-.91-.388-.351.161-.501.56-.356.932l.38.916a.297.297 0 0 1-.337.413l-.63-.213a.67.67 0 0 0-.82.513c-.08.379.146.767.514.858l.655.165c.23.072.296.368.113.52l-.735.607a.72.72 0 0 0-.092.993c.24.306.672.358.963.116l1.862-1.565c.077-.061.165-.087.25-.052l2.402.626a.745.745 0 0 1 .352 1.22l-1.685 1.848a.249.249 0 0 1-.24.09l-2.41-.329a.674.674 0 0 0-.752.613.72.72 0 0 0 .608.79l.946.12c.236.031.344.335.183.5l-.466.49c-.262.273-.246.722.024 1a.67.67 0 0 0 .966-.005l.466-.49c.155-.182.453-.071.504.17l.152.982a.702.702 0 0 0 .799.598c.383-.052.62-.416.561-.814l-.41-2.465a.378.378 0 0 1 .077-.259l1.696-1.812c.376-.405 1.036-.221 1.194.325l.711 2.457a.31.31 0 0 1-.036.267l-1.458 1.98a.7.7 0 0 0 .152.982.64.64 0 0 0 .947-.136l.572-.777c.15-.202.455-.132.524.105l.195.673c.11.382.492.587.842.486.368-.107.559-.497.453-.861z" fill="#fff"/></svg>