<svg width="597" height="634" fill="none" xmlns="http://www.w3.org/2000/svg"><path d="M155.753 172.571c-1.27 0-2.158-.444-2.666-1.333a5.656 5.656 0 0 1-.761-2.855c.127-2.158.634-3.364 1.523-3.618.888-.254 1.967-.381 3.236-.381 3.428 0 6.03-.698 7.807-2.094 1.777-1.396 3.173-3.237 4.188-5.522a118.033 118.033 0 0 0 3.237-7.044l33.319-78.823c1.269-3.047 1.523-5.331.762-6.855-.762-1.65-2.031-2.792-3.808-3.427-1.777-.761-3.745-1.332-5.903-1.713-1.903-.38-3.173-.698-3.807-.952-.635-.38-.952-1.523-.952-3.427 0-2.158.761-3.3 2.284-3.427 1.523-.254 3.301-.381 5.331-.381 5.204 0 9.647.508 13.328 1.523 3.681 1.016 6.854 2.983 9.52 5.902 2.665 2.793 5.14 7.045 7.425 12.757l31.986 78.823a266.286 266.286 0 0 0 2.856 6.664c1.016 2.284 2.348 4.188 3.998 5.712 1.777 1.396 3.999 2.157 6.664 2.284 1.396 0 2.475.127 3.237.381.888.254 1.396 1.46 1.523 3.618 0 1.015-.317 1.967-.952 2.855-.508.889-1.333 1.333-2.475 1.333a521.585 521.585 0 0 0-10.662-.571H255.71c-7.489 0-15.359.19-23.609.571-1.27 0-2.158-.444-2.666-1.333a5.666 5.666 0 0 1-.761-2.855c.127-2.158.634-3.364 1.523-3.618.888-.254 1.967-.381 3.237-.381 6.219 0 9.583-1.142 10.09-3.427.635-2.285.064-6.029-1.713-11.233l-6.474-15.803H188.31c-1.904 4.823-3.3 8.314-4.189 10.472-.761 2.158-1.269 3.554-1.523 4.189-.127.634-.254 1.015-.38 1.142-1.397 4.315-2.158 7.552-2.285 9.71 0 2.031 1.015 3.364 3.046 3.998 2.158.635 5.712.952 10.662.952 1.396 0 2.475.127 3.237.381.888.254 1.396 1.46 1.523 3.618 0 1.015-.317 1.967-.952 2.855-.508.889-1.333 1.333-2.475 1.333a521.585 521.585 0 0 0-10.662-.571h-16.564c-1.651.127-3.364.19-5.141.19-1.777.127-4.062.254-6.854.381zm36.175-46.837h39.982l-19.229-48.931h-.572l-20.181 48.931zM367.79 401.155c-5.134 0-9.71-1.114-13.729-3.342-3.98-2.269-7.104-5.333-9.372-9.193-2.268-3.9-3.402-8.317-3.402-13.251 0-4.935 1.134-9.372 3.402-13.311 2.268-3.94 5.392-7.044 9.372-9.312 4.019-2.308 8.595-3.462 13.729-3.462 5.133 0 9.67 1.154 13.609 3.462 3.94 2.268 7.024 5.372 9.252 9.312 2.269 3.939 3.403 8.376 3.403 13.311 0 4.934-1.134 9.351-3.403 13.251-2.228 3.86-5.312 6.924-9.252 9.193-3.939 2.228-8.476 3.342-13.609 3.342zm0-10.744c2.865 0 5.352-.657 7.461-1.97s3.741-3.104 4.895-5.372c1.154-2.268 1.731-4.855 1.731-7.76 0-2.905-.577-5.492-1.731-7.76-1.154-2.308-2.786-4.138-4.895-5.491-2.109-1.353-4.596-2.03-7.461-2.03s-5.373.677-7.521 2.03c-2.109 1.353-3.761 3.183-4.955 5.491-1.154 2.268-1.731 4.855-1.731 7.76 0 2.905.577 5.492 1.731 7.76 1.194 2.268 2.846 4.059 4.955 5.372 2.148 1.313 4.656 1.97 7.521 1.97zm32.227-39.695h9.432v-13.609c0-4.895.915-8.874 2.745-11.939 1.831-3.104 4.159-5.372 6.984-6.804 2.865-1.473 5.81-2.209 8.834-2.209 3.701 0 6.527.517 8.477 1.552 1.989.995 3.203 1.691 3.641 2.089l-5.014 9.551c-.239-.239-.836-.657-1.791-1.254-.955-.636-2.248-.955-3.88-.955a7.651 7.651 0 0 0-3.462.836c-1.074.557-1.99 1.651-2.746 3.283-.756 1.631-1.134 4.019-1.134 7.163v12.296h13.431v10.745h-13.431v38.262h-12.654v-38.262h-9.432v-10.745z" fill="#fff"/><g filter="url(#a)"><path d="M113.743 522.181H61.037v61.375H26.593V430.987h34.444v61.027h52.706v-61.027h34.328v152.569h-34.328v-61.375zm91.581-15.025c0 8.707 1.772 16.605 5.317 23.694 3.621 7.012 8.591 12.599 14.91 16.759 6.395 4.161 13.793 6.242 22.192 6.242 8.399 0 15.757-2.081 22.076-6.242 6.395-4.16 11.365-9.747 14.91-16.759 3.622-7.089 5.432-14.987 5.432-23.694 0-8.708-1.81-16.567-5.432-23.579-3.545-7.012-8.515-12.599-14.91-16.76-6.319-4.238-13.677-6.357-22.076-6.357-8.399 0-15.797 2.119-22.192 6.357-6.319 4.161-11.289 9.748-14.91 16.76-3.545 7.012-5.317 14.871-5.317 23.579zm-35.946 0c0-11.096 1.964-21.422 5.894-30.977 3.93-9.631 9.44-18.03 16.529-25.197 7.089-7.166 15.411-12.752 24.965-16.759 9.555-4.007 19.881-6.01 30.977-6.01 11.25 0 21.613 2.003 31.091 6.01 9.555 4.007 17.838 9.593 24.851 16.759 7.089 7.167 12.559 15.566 16.412 25.197 3.93 9.555 5.895 19.881 5.895 30.977 0 11.173-1.888 21.575-5.664 31.207-3.775 9.555-9.169 17.954-16.181 25.197-7.012 7.166-15.296 12.752-24.85 16.759-9.555 4.007-20.073 6.011-31.554 6.011-11.713 0-22.385-2.004-32.017-6.011-9.555-4.007-17.8-9.593-24.735-16.759-6.934-7.243-12.29-15.642-16.065-25.197-3.699-9.632-5.548-20.034-5.548-31.207zm176.653-76.169h55.48c9.786 0 18.608 1.733 26.468 5.201 7.86 3.39 14.101 8.592 18.724 15.604 4.701 6.934 7.051 15.642 7.051 26.121 0 10.403-2.35 19.264-7.051 26.584-4.623 7.243-10.864 12.791-18.724 16.644-7.86 3.776-16.682 5.664-26.468 5.664H380.59v56.751h-34.559V430.987zm34.559 68.54h11.327c4.701 0 8.9-.693 12.599-2.08 3.776-1.387 6.781-3.583 9.015-6.589 2.235-3.082 3.352-7.127 3.352-12.136 0-5.085-1.117-9.092-3.352-12.02-2.234-3.005-5.239-5.163-9.015-6.473-3.699-1.31-7.898-1.965-12.599-1.965H380.59v41.263zm92.983-68.54h97.436v30.282h-62.993v31.092h62.415v29.358h-62.415v31.554h62.993v30.283h-97.436V430.987z" fill="#C9E8EA"/></g><path d="M113.743 522.181H61.037v61.375H26.593V430.987h34.444v61.027h52.706v-61.027h34.328v152.569h-34.328v-61.375zm91.581-15.025c0 8.707 1.772 16.605 5.317 23.694 3.621 7.012 8.591 12.599 14.91 16.759 6.395 4.161 13.793 6.242 22.192 6.242 8.399 0 15.757-2.081 22.076-6.242 6.395-4.16 11.365-9.747 14.91-16.759 3.622-7.089 5.432-14.987 5.432-23.694 0-8.708-1.81-16.567-5.432-23.579-3.545-7.012-8.515-12.599-14.91-16.76-6.319-4.238-13.677-6.357-22.076-6.357-8.399 0-15.797 2.119-22.192 6.357-6.319 4.161-11.289 9.748-14.91 16.76-3.545 7.012-5.317 14.871-5.317 23.579zm-35.946 0c0-11.096 1.964-21.422 5.894-30.977 3.93-9.631 9.44-18.03 16.529-25.197 7.089-7.166 15.411-12.752 24.965-16.759 9.555-4.007 19.881-6.01 30.977-6.01 11.25 0 21.613 2.003 31.091 6.01 9.555 4.007 17.838 9.593 24.851 16.759 7.089 7.167 12.559 15.566 16.412 25.197 3.93 9.555 5.895 19.881 5.895 30.977 0 11.173-1.888 21.575-5.664 31.207-3.775 9.555-9.169 17.954-16.181 25.197-7.012 7.166-15.296 12.752-24.85 16.759-9.555 4.007-20.073 6.011-31.554 6.011-11.713 0-22.385-2.004-32.017-6.011-9.555-4.007-17.8-9.593-24.735-16.759-6.934-7.243-12.29-15.642-16.065-25.197-3.699-9.632-5.548-20.034-5.548-31.207zm176.653-76.169h55.48c9.786 0 18.608 1.733 26.468 5.201 7.86 3.39 14.101 8.592 18.724 15.604 4.701 6.934 7.051 15.642 7.051 26.121 0 10.403-2.35 19.264-7.051 26.584-4.623 7.243-10.864 12.791-18.724 16.644-7.86 3.776-16.682 5.664-26.468 5.664H380.59v56.751h-34.559V430.987zm34.559 68.54h11.327c4.701 0 8.9-.693 12.599-2.08 3.776-1.387 6.781-3.583 9.015-6.589 2.235-3.082 3.352-7.127 3.352-12.136 0-5.085-1.117-9.092-3.352-12.02-2.234-3.005-5.239-5.163-9.015-6.473-3.699-1.31-7.898-1.965-12.599-1.965H380.59v41.263zm92.983-68.54h97.436v30.282h-62.993v31.092h62.415v29.358h-62.415v31.554h62.993v30.283h-97.436V430.987zM127.931 259.482l4.377-1.115c.568-.302 1.222-.286 1.965.046.742.333 1.248.751 1.516 1.255.268.504.326 2.21.176 5.119a319.804 319.804 0 0 1-.706 10.073c-.29 3.71-.431 5.725-.423 6.044 4.714-2.991 8.078-5.023 10.095-6.095 2.079-1.105 3.58-1.701 4.504-1.788.89-.15 2.159.185 3.808 1.006 1.678.724 3.111 1.215 4.298 1.472 1.154.195 2.083.953 2.786 2.277.704 1.323.488 2.892-.648 4.708a14.822 14.822 0 0 1-4.249 4.321c-13.847 9.221-21.509 14.265-22.988 15.132-.949 10.526-1.618 26.52-2.006 47.981-.359 21.365.284 34.277 1.928 38.737.753 2.024 1.448 3.635 2.084 4.832 1.307 2.457 3.252 2.999 5.835 1.626 2.583-1.374 4.931-3.875 7.042-7.503 2.078-3.691 3.821-7.406 5.228-11.144 3.706-10.053 5.811-15.213 6.316-15.481 1.638-.871 3.964 1.529 6.979 7.199 1.642 3.088 1.698 6.614.169 10.578-3.449 8.865-6.61 15.84-9.483 20.923-2.873 5.084-6.484 8.782-10.831 11.093-.945.503-1.877.877-2.797 1.124-5.543 1.735-10.232 1.884-14.066.448-3.806-1.533-6.948-4.63-9.427-9.293-2.416-4.696-4.028-11.072-4.836-19.128-.779-8.152-1.083-17.083-.911-26.791.306-15.841 1.013-30.926 2.123-45.255l-3.34 2.382c-6.873 4.705-10.909 7.376-12.106 8.012l-.85.452a15.744 15.744 0 0 1-5.845 1.775c-2.104.148-3.44-.313-4.01-1.384-.569-1.071-.68-2.345-.335-3.822.41-1.511.558-2.6.445-3.267-.296-1.621.522-4.036 2.452-7.244 1.994-3.243 3.699-5.28 5.114-6.114a120.4 120.4 0 0 1 4.008-2.494c1.353-.8 2.831-1.667 4.436-2.601a138.16 138.16 0 0 0 3.774-2.25l8.305-4.9c1.071-10.753 1.981-17.783 2.728-21.089.81-3.341 1.322-5.189 1.537-5.545.181-.42.744-.881 1.689-1.383l4.14-2.929zm109.628 62.087c1.982 2.664 3.425 4.847 4.33 6.548.871 1.638 1.326 3.254 1.366 4.85.069 1.498-.332 3.934-1.206 7.308-.843 3.277-2.08 6.804-3.709 10.579-4.016 9.167-9.647 15.676-16.892 19.529-10.396 5.527-18.039 3.692-22.931-5.507-4.254-8.002-5.768-27.644-4.54-58.926.035-1.15.046-1.965.034-2.443-3.042 5.982-7.394 20.216-13.055 42.704-5.632 22.39-9.042 37.942-10.228 46.655-.076.768-.686 1.9-1.83 3.397-1.144 1.497-2.157 2.48-3.039 2.949-.819.436-1.852.621-3.098.557-1.276.032-2.04.115-2.292.249-.819.435-1.38.369-1.681-.198-.268-.504-.658-3.973-1.171-10.409-.608-6.465-1.163-14.575-1.663-24.331-1.439-26.874-1.446-62.834-.02-107.88.498-15.782 1.36-27.232 2.587-34.349.862-5.065 4.57-9.34 11.123-12.824 1.386-.737 2.391-.746 3.015-.028a13.334 13.334 0 0 1 1.691 2.496c.502.945.816 1.99.94 3.136l-1.72 21.16c-3.419 41.904-4.74 75.822-3.963 101.755 3.464-17.197 8.101-31.502 13.912-42.916 3.556-7.144 6.752-11.47 9.587-12.977 2.898-1.541 5.764-2.459 8.598-2.754 2.8-.357 5.121 1.197 6.964 4.662.67 1.26 1.101 7.011 1.294 17.254.578 30.726 1.587 47.444 3.028 50.153 1.407 2.646 3.213 3.383 5.418 2.211 3.214-1.709 6.501-7.457 9.863-17.246 2.528-7.405 4.102-12.121 4.721-14.148.455-.969.997-1.621 1.627-1.956 1.197-.637 2.177-.39 2.94.74zm11.347-36.34c5.892-24.791 14.067-39.968 24.525-45.529 2.584-1.373 5.113-1.708 7.589-1.004 2.505.608 4.411 2.14 5.717 4.597 1.307 2.458 1.737 7.522 1.291 15.195-.417 7.576-1.051 14.136-1.902 19.68-.503 2.853-1.762 4.816-3.779 5.888-1.953 1.039-3.882 1.135-5.786.289-1.842-.88-3.282-2.296-4.32-4.249-2.312-4.348-2.594-10.502-.846-18.462l-.289-.089c-1.979 1.295-4.968 8.137-8.967 20.528-3.936 12.356-7.111 23.257-9.524 32.703-2.383 9.349-4.533 20.352-6.451 33.009-.513 3.748-1.462 5.99-2.848 6.727-1.323.704-3.305 1.232-5.946 1.586-2.737.324-4.427.414-5.069.27-.705-.11-1.292-.606-1.761-1.488-.469-.882-.753-2.024-.852-3.426-.132-1.465-.075-3.637.172-6.516.184-2.846.358-7.383.521-13.612.226-6.263.658-15.786 1.296-28.571.637-12.785.987-20.487 1.049-23.106.183-5.431.528-9.494 1.035-12.188.926-5.099 4.76-9.441 11.501-13.025 1.512-.804 2.771-.261 3.776 1.629 1.574 2.961 1.798 9.994.672 21.1l-.804 8.064zm70.5-104.523c1.909 3.591 2.166 8.102.77 13.531-1.43 5.367-3.972 9.022-7.626 10.965-3.592 1.91-6.392.974-8.402-2.806-2.01-3.78-2.345-8.209-1.004-13.286 1.371-5.174 3.978-8.783 7.822-10.826 1.701-.905 3.307-1.153 4.817-.743 1.511.409 2.718 1.464 3.623 3.165zm28.558 90.646c1.005 1.89 1.537 3.345 1.594 4.365.263 7.942-1.938 15.658-6.603 23.149-4.698 7.428-9.535 12.465-14.513 15.112-4.977 2.646-10.149 3.255-15.516 1.825-5.367-1.43-8.971-3.877-10.814-7.343-1.843-3.465-2.79-9.427-2.842-17.885-.052-8.458.163-16.412.647-23.862.484-7.45.608-11.395.374-11.836-.268-.504-1.432-1.098-3.492-1.78-1.997-.716-3.163-1.389-3.498-2.019-.369-.693.001-3.113 1.111-7.259 1.138-4.242 2.846-8.706 5.123-13.392 2.306-4.782 4.436-7.692 6.389-8.731 2.016-1.072 4.281-1.144 6.794-.218 2.513.927 4.155 2.115 4.925 3.564.771 1.449.526 19.076-.734 52.881.012.479-.071 1.614-.25 3.406a76.96 76.96 0 0 0-.276 4.269c-.005 1.053-.005 2.346.001 3.878.08 3.19.573 5.636 1.477 7.337 1.139 2.142 3.158 2.443 6.056.902s5.372-4.109 7.42-7.704c2.079-3.691 3.615-7.336 4.611-10.937 2.538-9.512 4.217-14.486 5.037-14.922 1.638-.871 3.964 1.529 6.979 7.2zm7.328-158.582c3.024-1.608 6.156-2.101 9.396-1.48 3.269.525 5.842 2.551 7.718 6.08 1.876 3.528 2.871 10.111 2.985 19.748.08 9.575-.527 19.757-1.821 30.548-1.327 10.727-3.111 22.343-5.352 34.849-3.526 19.816-7.364 37.98-11.515 54.492.339.79.809 2.358 1.41 4.705a32.485 32.485 0 0 0 2.605 6.495c1.106 2.079 3.056 3.467 5.85 4.163 2.825.599 5.654.146 8.49-1.362 2.835-1.507 5.323-4.124 7.464-7.848 2.204-3.758 3.85-7.503 4.938-11.233 2.85-9.839 5.031-15.161 6.543-15.965 1.512-.804 3.491 1.093 5.937 5.693l1.005 1.89c1.306 2.457 1.82 4.487 1.541 6.09-1.842 9.304-5.216 17.321-10.123 24.052-4.941 6.668-10.372 11.576-16.295 14.725-5.922 3.149-11.382 3.749-16.379 1.799-5.03-2.013-9.22-6.169-12.57-12.47-6.533-12.286-10.928-28.456-13.186-48.51-2.229-20.151-2.315-38.249-.259-54.293 4.583-36.219 11.789-56.941 21.618-62.168zm4.089 17.95c-.503-.945-1.069-1.25-1.699-.915-2.205 1.172-4.651 10.555-7.339 28.148-2.688 17.592-4.149 31.259-4.384 41.002-.172 9.708.899 21.221 3.212 34.539 2.744-12.774 5.711-31.97 8.9-57.587 3.218-25.714 3.655-40.777 1.31-45.187zm45.811-44.482c3.024-1.608 6.156-2.101 9.396-1.48 3.269.525 5.842 2.551 7.718 6.08 1.876 3.528 2.871 10.11 2.985 19.748.08 9.575-.527 19.757-1.821 30.547-1.327 10.727-3.111 22.344-5.352 34.85-3.526 19.816-7.364 37.98-11.515 54.492.339.789.809 2.358 1.41 4.705a32.509 32.509 0 0 0 2.605 6.495c1.106 2.079 3.056 3.466 5.85 4.163 2.825.599 5.654.145 8.489-1.362 2.836-1.508 5.324-4.124 7.465-7.849 2.204-3.758 3.85-7.502 4.938-11.232 2.85-9.84 5.031-15.161 6.543-15.965 1.512-.804 3.491 1.093 5.937 5.693l1.005 1.89c1.306 2.457 1.82 4.487 1.541 6.09-1.842 9.304-5.216 17.321-10.123 24.052-4.941 6.667-10.372 11.576-16.295 14.725-5.922 3.149-11.382 3.749-16.379 1.799-5.03-2.013-9.22-6.17-12.57-12.47-6.533-12.286-10.928-28.456-13.186-48.511-2.229-20.15-2.315-38.248-.259-54.293 4.583-36.218 11.789-56.94 21.618-62.167zm4.089 17.95c-.503-.945-1.069-1.25-1.699-.915-2.205 1.172-4.651 10.555-7.339 28.147-2.688 17.593-4.149 31.26-4.384 41.002-.172 9.709.899 21.222 3.212 34.539 2.744-12.773 5.711-31.969 8.9-57.587 3.218-25.714 3.655-40.776 1.31-45.186z" fill="#fff"/><g clip-path="url(#b)"><path d="M509.423 347.421s5.43 2.344 9.531 5.762c3.034 2.532 8.322 7.757 8.322 7.757s-.091-3.142 4.534-3.411c6.855-.392 15.129 1.704 15.129 1.704s-2.775-3.235.318-6.065c4.165-3.813 10.095-4.248 10.095-4.248s-3.148-2.22-1.015-5.478c2.992-4.578 7.228-5.334 7.228-5.334s-.996-.677-.041-4.314c1.275-4.879 4.087-9.73 4.087-9.73s-11.876 12.708-23.472 17.364c-25.847 9.565-34.716 5.993-34.716 5.993z" fill="#2D9693"/><path d="m509.368 347.713.115-.587c.052.026 5.521 2.401 9.611 5.818 2.539 2.124 6.699 6.176 7.973 7.413.191-.981 1.037-2.924 4.694-3.135 5.699-.329 12.452 1.074 14.534 1.557-.335-.572-.746-1.466-.771-2.518-.036-1.252.477-2.382 1.539-3.35 3.381-3.1 7.963-3.999 9.608-4.223-.204-.216-1.043-1.342-1.246-2.146-.262-1.099-.034-2.216.687-3.318 2.512-3.845 5.845-5.031 6.978-5.339-.271-.578-.465-1.789.171-4.226 1.271-4.852 4.321-9.542 4.353-9.591-.032.049-2.571 5.083-3.831 9.863-.843 3.227-.102 3.917-.096 3.93l.662.447-.691.109c-.048.01-8.978 2.811-7.52 8.432.354 1.369 1.319 1.809 1.331 1.825l.72.512-.776.056c-.06.004-9.515.181-10.85 7.061-.351 1.784.541 2.738.549 2.745l.605.709-.796-.205c-.08-.019-10.256-2.989-16.432-.704-2.62.965-2.937 2.118-2.935 2.148l.018.62-.458-.443c-.043-.055-5.311-5.241-8.298-7.735-4.015-3.361-9.396-5.699-9.45-5.718l.002-.007z" fill="#5AC0BD"/><path d="M509.422 347.421s2.901-2.766 4.487-6.544c.837-2.027 1.221-6.616 1.221-6.616s1.358 3.07 5.964.838c3.549-1.717 4.533-6.71 4.533-6.71s1.168 3.138 6.292 2.206c5.131-.924 8.135-4.858 8.135-4.858s.982 2.586 5.208 2.369c6.092-.306 10.098-3.638 10.098-3.638s.83 1.467 3.35 1.654c5.956.431 8.909-2.061 8.909-2.061s-12.217 13.601-26.93 18.696c-11.954 6.262-31.258 4.661-31.258 4.661l-.009.003z" fill="#63C0BE"/><path d="M509.231 347.169c.023-.03 2.885-2.78 4.424-6.472.814-1.955 1.198-6.47 1.196-6.511l.085-1s2.704 3.015 6.008 1.623c3.492-1.465 4.401-6.478 4.407-6.527l.173-.886s.426 1.156 3.203 2.477c4.835 2.284 11.069-4.324 11.104-4.365l.282-.36s.199 1.183 3.166 2.124c4.333 1.372 11.854-3.03 11.892-3.062l.229-.188.177.316c.034.058.791 1.312 3.098 1.483 5.8.417 8.904-1.722 8.94-1.748-.126.11-2.898 2.812-8.879 2.371-1.997-.149-3.008-1.064-3.403-1.543-.893.664-4.686 3.255-10.016 3.525-3.364.167-4.781-1.378-5.282-2.162-.811.937-3.637 3.859-8.029 4.654-3.871.698-5.591-.841-6.265-1.781-.39 1.416-1.616 4.859-4.513 6.27-1.934.93-3.561 1.084-4.843.442a3.35 3.35 0 0 1-1.047-.812c-.145 1.367-.517 4.431-1.184 6.014-1.578 3.786-4.417 6.516-4.539 6.634l-.385-.505.001-.011z" fill="#94E4E3"/><path opacity=".2" d="M509.56 347.427s4.575-1.115 8.372-2.607c4.529-1.791 6.858-6.981 6.858-6.981s.656 4.645 2.467 4.083c3.814-1.163 7.444-8.162 7.444-8.162s-.75 6.726 2.324 5.605c1.975-.718 7.024-7.547 7.024-7.547s.799 5.37 2.117 4.731c3.751-1.816 6.955-6.248 6.955-6.248s.49 3.153 1.006 3.298c1.56.423 5.539-2.146 5.539-2.146s-10.759 8.926-22.637 13.139c-10.568 4.096-27.482 2.829-27.482 2.829l.013.006z" fill="#fff"/><path opacity=".2" d="M509.819 347.511s8.126 1.639 12.335 3.638c4.215 1.991 5.896 4.185 5.896 4.185s-1.335-3.364 1.081-3.757c2.414-.396 11.636 2.288 11.636 2.288s-3.562-4.273-1.098-5.464c2.473-1.194 10.618-.226 10.618-.226s-2.729-2.056-2.418-3.388c.308-1.336 9.342-6.442 9.342-6.442s-1.388-.598-1.215-1.334c.162-.725 4.342-5.904 4.342-5.904s-12.588 10.171-24.263 13.745c-13.812 4.255-26.247 2.655-26.247 2.655l-.009.004z" fill="#fff"/><path d="M509.342 347.06s1.111.116 3.059.311c.96.065 2.113.117 3.443.174 1.307-.027 2.807.026 4.389-.099 1.597-.064 3.296-.258 5.068-.488.885-.143 1.796-.261 2.703-.449.903-.187 1.843-.347 2.767-.584a67.262 67.262 0 0 0 5.633-1.594c.939-.326 1.891-.631 2.808-1.011l1.395-.54 1.374-.59c1.833-.784 3.605-1.667 5.33-2.562 1.711-.931 3.367-1.88 4.927-2.873 1.568-.975 3.03-2.005 4.403-2.988 1.365-1 2.63-1.98 3.77-2.924 4.577-3.744 7.201-6.78 7.201-6.78s-2.584 3.071-7.124 6.878a84.228 84.228 0 0 1-3.738 2.978c-1.363 1.005-2.814 2.051-4.374 3.043a81.865 81.865 0 0 1-4.898 2.944c-1.716.918-3.483 1.825-5.302 2.629l-1.372.609-1.394.556c-.913.388-1.86.707-2.793 1.046a66.693 66.693 0 0 1-5.627 1.669c-.929.239-1.87.421-2.772.623-.909.184-1.826.314-2.709.472-1.78.249-3.476.463-5.081.545-1.585.143-3.095.103-4.409.138a140.79 140.79 0 0 1-3.474-.135c-1.94-.177-3.046-.28-3.046-.28l-.164-.721.007.003z" fill="#fff"/><path d="M513.011 353.676s2.018-6.068 5.32-10.8c2.445-3.507 7.575-9.69 7.575-9.69s-3.376.39-4.094-4.567c-1.065-7.34.427-16.448.427-16.448s-3.222 3.294-6.562.224c-4.498-4.13-5.52-10.476-5.52-10.476s-2.097 3.596-5.806 1.603c-5.204-2.801-6.417-7.289-6.417-7.289s-.634 1.139-4.638.45c-5.371-.922-10.86-3.496-10.86-3.496s14.793 11.6 20.891 23.658c12.708 26.949 9.682 36.826 9.682 36.826l.002.005z" fill="#2D9693"/><path d="m513.336 353.711-.644-.065c.015-.064 2.07-6.168 5.365-10.892 2.054-2.935 6.023-7.797 7.238-9.275-1.075-.115-3.249-.845-3.813-4.766-.884-6.113-.006-13.509.317-15.801-.576.415-1.505.939-2.628 1.072-1.347.152-2.613-.299-3.752-1.348-3.654-3.354-5.05-8.207-5.446-9.957-.211.243-1.351 1.249-2.2 1.542-1.156.39-2.388.246-3.635-.425-4.373-2.346-5.959-5.829-6.394-7.019-.601.342-1.884.675-4.562.207-5.354-.919-10.682-3.767-10.745-3.793.063.026 5.716 2.294 10.981 3.197 3.558.614 4.232-.252 4.239-.26l.419-.754.188.742c.008.043 3.857 9.401 9.775 7.306 1.448-.511 1.833-1.588 1.841-1.607l.48-.821.136.831c.01.063 1.077 10.229 8.61 11.024 1.96.211 2.895-.84 2.902-.848l.715-.716-.149.881c-.01.088-2.258 11.319.773 17.757 1.281 2.733 2.551 2.97 2.586 2.966l.667-.079-.435.527c-.054.059-5.144 6.21-7.557 9.656-3.24 4.645-5.258 10.651-5.267 10.716l-.005.002z" fill="#5AC0BD"/><path d="M513.01 353.675s-3.252-2.872-7.469-4.214c-2.256-.716-7.23-.702-7.23-.702s3.183-1.747.351-6.499c-2.183-3.662-7.645-4.25-7.645-4.25s3.268-1.554 1.785-6.984c-1.465-5.447-5.996-8.313-5.996-8.313s2.693-1.291 2.072-5.826c-.897-6.533-4.855-10.534-4.855-10.534s1.501-1.036 1.467-3.766c-.093-6.455-3.054-9.401-3.054-9.401s15.787 11.884 22.643 27.254c7.858 12.29 7.93 33.23 7.93 33.23l.001.005z" fill="#63C0BE"/><path d="M512.757 353.904c-.036-.026-3.262-2.846-7.378-4.157-2.187-.699-7.079-.688-7.125-.684l-1.083.002s2.994-3.194 1.186-6.627c-1.907-3.62-7.387-4.128-7.436-4.134l-.967-.103s1.205-.561 2.365-3.676c2.011-5.422-5.689-11.522-5.738-11.553l-.411-.266s1.255-.327 1.988-3.608c1.07-4.788-4.365-12.473-4.405-12.519l-.224-.229.321-.226c.063-.036 1.34-.974 1.306-3.476-.087-6.292-2.68-9.426-2.714-9.459.131.128 3.298 2.869 3.391 9.34.022 2.159-.877 3.335-1.351 3.806.799.903 3.939 4.745 4.731 10.46.494 3.603-1.038 5.279-1.838 5.89 1.087.785 4.498 3.55 5.763 8.213 1.109 4.101-.383 6.098-1.331 6.915 1.561.288 5.379 1.281 7.166 4.272 1.181 1.99 1.502 3.73.932 5.174a3.637 3.637 0 0 1-.778 1.204c1.489.027 4.82.143 6.581.712 4.223 1.344 7.431 4.146 7.559 4.269l-.505.459-.005.001z" fill="#94E4E3"/><path opacity=".2" d="M513.006 353.527s-1.627-4.825-3.597-8.772c-2.346-4.72-8.154-6.736-8.154-6.736s4.951-1.135 4.175-3.035c-1.615-4.005-9.486-7.259-9.486-7.259s7.309.177 5.817-3.028c-.953-2.054-8.786-6.859-8.786-6.859s5.711-1.366 4.899-2.727c-2.301-3.872-7.375-6.908-7.375-6.908s3.347-.824 3.45-1.391c.318-1.713-2.821-5.768-2.821-5.768s10.613 10.751 16.263 23.155c5.393 10.996 5.611 29.33 5.611 29.33l.004-.002z" fill="#fff"/><path opacity=".2" d="M513.074 353.239s1.007-8.902 2.766-13.629c1.754-4.714 3.955-6.729 3.955-6.729s-3.5 1.759-4.144-.812c-.65-2.563 1.383-12.746 1.383-12.746s-4.27 4.235-5.782 1.697c-1.517-2.552-1.229-11.411-1.229-11.411s-1.968 3.117-3.427 2.911c-1.469-.202-7.808-9.458-7.808-9.458s-.519 1.553-1.314 1.436c-.803-.109-6.766-4.131-6.766-4.131s12.122 12.616 17.061 24.847c5.873 14.475 5.308 28.019 5.308 28.019l-.003.006z" fill="#fff"/><path d="M512.631 353.801s.022-1.213.047-3.324a127.797 127.797 0 0 0-.14-3.723c-.142-1.409-.224-3.025-.509-4.717-.217-1.715-.582-3.525-.996-5.418-.235-.93-.448-1.91-.732-2.872-.29-.953-.549-1.956-.884-2.928a70.605 70.605 0 0 0-2.245-5.918c-.44-.975-.857-1.969-1.34-2.926l-.72-1.45-.759-1.424c-1.01-1.901-2.134-3.728-3.264-5.507-1.156-1.742-2.334-3.449-3.551-5.036-1.188-1.593-2.432-3.071-3.622-4.456a97.457 97.457 0 0 0-3.5-3.796c-4.464-4.575-7.976-7.121-7.976-7.121s3.549 2.499 8.075 7.033c1.145 1.124 2.32 2.386 3.553 3.749 1.206 1.373 2.47 2.837 3.685 4.42 1.237 1.573 2.436 3.256 3.624 5 1.148 1.76 2.295 3.579 3.324 5.466l.784 1.419.728 1.447c.502.949.933 1.943 1.38 2.909a71.55 71.55 0 0 1 2.322 5.902c.347.977.624 1.973.927 2.931.29.964.51 1.936.755 2.867.438 1.899.831 3.702 1.062 5.427.307 1.694.405 3.324.568 4.734.08 1.446.142 2.712.179 3.755-.016 2.107-.016 3.31-.016 3.31l-.761.242.002.005z" fill="#fff"/><path d="M524.946 346.048c-5.544 2.184-11.807-.542-13.991-6.086-2.182-5.539.534-11.803 6.082-13.989 5.546-2.179 11.806.542 13.99 6.086 2.187 5.538-.542 11.807-6.081 13.989z" fill="#C63836"/><path d="M515.78 343.06c-4.221-3.12-5.11-9.07-1.987-13.292 3.12-4.221 9.071-5.106 13.294-1.982a9.497 9.497 0 0 1 1.98 13.289c-3.117 4.226-9.073 5.112-13.292 1.987l.005-.002z" fill="#ED5451"/><path d="M527.453 330.425c-.354.474-1.252.409-2.001-.147-.755-.559-1.067-1.4-.71-1.88.355-.484 1.255-.415 2.003.142.749.556 1.073 1.402.706 1.881l.002.004z" fill="#fff"/><path d="M516.43 342.052c.733 6.927-4.294 13.13-11.217 13.862-6.925.727-13.13-4.295-13.864-11.222-.725-6.92 4.299-13.132 11.217-13.862 6.925-.727 13.139 4.291 13.864 11.222z" fill="#C63836"/><path d="M510.206 351.447c-4.835 3.785-11.818 2.928-15.598-1.909-3.783-4.831-2.926-11.814 1.905-15.597 4.833-3.778 11.823-2.929 15.598 1.91 3.783 4.831 2.931 11.812-1.902 15.59l-.003.006z" fill="#ED5451"/><path d="M499.61 334.342c.433.557.078 1.544-.789 2.219-.86.667-1.913.766-2.342.207-.423-.546-.072-1.542.79-2.215.865-.669 1.91-.764 2.341-.211z" fill="#fff"/><path d="M504.15 355.816c1.858-7.232 9.224-11.596 16.463-9.73 7.234 1.852 11.596 9.224 9.737 16.455-1.857 7.236-9.226 11.592-16.466 9.737-7.234-1.853-11.597-9.229-9.734-16.462z" fill="#C63836"/><path d="M513.921 348.704c6.273-1.988 12.973 1.481 14.961 7.754 1.992 6.271-1.481 12.973-7.748 14.963-6.274 1.988-12.977-1.479-14.965-7.752-1.993-6.272 1.482-12.969 7.749-14.959l.003-.006z" fill="#ED5451"/><path d="M518.173 369.854c-.228-.715.5-1.576 1.619-1.93 1.116-.348 2.208-.052 2.435.658.219.718-.506 1.573-1.621 1.925-1.124.356-2.209.064-2.433-.653z" fill="#fff"/></g><defs><clipPath id="b"><path fill="#fff" transform="rotate(67.529 71.983 540.86)" d="M0 0h87.809v78.879H0z"/></clipPath><filter id="a" x=".865" y="402.484" width="595.873" height="209.575" filterUnits="userSpaceOnUse" color-interpolation-filters="sRGB"><feFlood flood-opacity="0" result="BackgroundImageFix"/><feBlend in="SourceGraphic" in2="BackgroundImageFix" result="shape"/><feGaussianBlur stdDeviation="12.864" result="effect1_foregroundBlur_69_21807"/></filter></defs></svg>